<?xml version="1.0" encoding="UTF-8"?><svg id="_레이어_1" xmlns="http://www.w3.org/2000/svg" xmlns:xlink="http://www.w3.org/1999/xlink" viewBox="0 0 572 280"><defs><style>.cls-1{stroke:#ccc;}.cls-1,.cls-2,.cls-3,.cls-4,.cls-5,.cls-6,.cls-7{fill:none;}.cls-1,.cls-2,.cls-3,.cls-4,.cls-8,.cls-9,.cls-10,.cls-11,.cls-12,.cls-13,.cls-14,.cls-15,.cls-6,.cls-7{stroke-linejoin:round;}.cls-2,.cls-8{stroke:#fff;}.cls-3,.cls-9,.cls-7{stroke:#000;}.cls-4,.cls-10,.cls-11,.cls-12,.cls-13,.cls-14,.cls-15,.cls-6{stroke:#333;}.cls-16{clip-path:url(#clippath);}.cls-5,.cls-17,.cls-18,.cls-19,.cls-20,.cls-21{stroke-width:0px;}.cls-17{fill:rgba(255,255,255,.3);isolation:isolate;opacity:.7;}.cls-22{clip-path:url(#clippath-1);}.cls-18{fill:url(#_무제_그라디언트);}.cls-23{opacity:.2;}.cls-24{opacity:.6;}.cls-8,.cls-9,.cls-11,.cls-20{fill:#333;}.cls-10{fill:#8f8f8f;}.cls-12,.cls-21{fill:#fff;}.cls-13{fill:#d9d9d9;}.cls-14{fill:#a6a6a6;}.cls-15,.cls-19{fill:#25387f;}.cls-6,.cls-7{stroke-width:.5px;}</style><clipPath id="clippath"><rect class="cls-5" width="572" height="280"/></clipPath><linearGradient id="_무제_그라디언트" x1="476.48" y1="-304.66" x2="283.09" y2="-691.03" gradientTransform="translate(0 -280) scale(1 -1)" gradientUnits="userSpaceOnUse"><stop offset="0" stop-color="#a6c1ee"/><stop offset="1" stop-color="#fbc2eb" stop-opacity="0"/></linearGradient><clipPath id="clippath-1"><rect class="cls-5" x="193" y="9" width="298" height="271"/></clipPath></defs><g class="cls-16"><rect class="cls-5" width="572" height="280"/><g class="cls-24"><path class="cls-18" d="m607.42,255.57c.35-37.38-8.21-75.15-15.37-112.22-10.54-54.47-80.01-122.35-161.96-125.53-81.96-3.18-100.2,49.18-140.58,78.16-40.36,28.99-119.33,37.7-148.15,73.42-44.38,55-55.89,103.44,6.88,167.09,47.63,48.3,128.29,42.47,189.03,61.51,40.29,12.63,78.77,37.65,121.71,41.36,52.78,4.57,94.44-41.44,118.59-80.97,10.93-17.89,19.28-37.38,24.38-57.77,3.72-14.91,5.33-29.95,5.47-45.05Z"/><path class="cls-17" d="m607.42,255.57c.35-37.38-8.21-75.15-15.37-112.22-10.54-54.47-80.01-122.35-161.96-125.53-81.96-3.18-100.2,49.18-140.58,78.16-40.36,28.99-119.33,37.7-148.15,73.42-44.38,55-55.89,103.44,6.88,167.09,47.63,48.3,128.29,42.47,189.03,61.51,40.29,12.63,78.77,37.65,121.71,41.36,52.78,4.57,94.44-41.44,118.59-80.97,10.93-17.89,19.28-37.38,24.38-57.77,3.72-14.91,5.33-29.95,5.47-45.05Z"/></g><g class="cls-22"><g class="cls-23"><path class="cls-3" d="m467.44,23.55h-88.76c-2.65,0-4.79,2-4.79,4.47v2.27c0,2.47,2.15,4.47,4.79,4.47h88.76c2.65,0,4.79-2,4.79-4.47v-2.27c0-2.47-2.15-4.47-4.79-4.47Z"/><path class="cls-7" d="m457.07,26.14v5.24"/><path class="cls-3" d="m452.7,26.19l-5.27,4.92"/><path class="cls-3" d="m447.43,26.19l5.27,4.92"/><path class="cls-9" d="m466.28,31.25c-.16.18-.45.2-.63.05l-2.16-1.83.41-.46,2.32,1.66c.2.15.23.41.07.59h0Z"/><path class="cls-3" d="m460.72,26.95c-.72.81-.59,2.01.27,2.68.87.67,2.15.55,2.87-.25.72-.81.59-2.01-.27-2.68-.87-.67-2.15-.55-2.87.25Zm2.91,2.25c-.61.69-1.72.79-2.46.21-.74-.57-.85-1.6-.23-2.29.61-.69,1.72-.79,2.46-.21.74.57.85,1.6.23,2.29Z"/></g><path class="cls-1" d="m283.02,43.83c-.84.95-2.36,1.06-3.34.25l-10.55-8.95c.43-.35.84-.74,1.22-1.16.38-.42.71-.86.99-1.33l11.32,8.08c1.04.76,1.21,2.17.36,3.11Z"/><path class="cls-1" d="m268.89,19.91c1.27.96,2.32,2.19,2.99,3.59,1.83,3.83.73,8.7-2.61,11.51-3.34,2.81-8.65,3.34-12.55,1.25-4.06-2.17-6.24-6.99-5.03-11.21,1.12-3.89,4.94-6.99,9.24-7.41,2.83-.28,5.73.62,7.94,2.28h0Zm.27,13.13c-3.23,3.64-9.02,4.15-12.92,1.13-3.91-3.01-4.45-8.42-1.22-12.06,3.24-3.64,9.02-4.15,12.93-1.13,3.9,3.01,4.45,8.42,1.21,12.06Z"/><path class="cls-1" d="m437.91,264.44c-.72-.73-.66-1.87.14-2.52l8.78-6.93c.26.36.54.71.87,1.03.32.33.67.62,1.03.88l-8.11,7.58c-.76.7-1.99.67-2.7-.05h0Z"/><path class="cls-1" d="m459.88,256.42c-.96.85-2.12,1.5-3.38,1.85-3.47.97-7.53-.37-9.59-3.15-2.06-2.78-1.95-6.79.25-9.48,2.29-2.79,6.64-3.92,10.14-2.57,3.21,1.24,5.47,4.41,5.38,7.66-.06,2.14-1.13,4.21-2.79,5.68h0Zm-11.28-1.18c-2.78-2.79-2.6-7.16.39-9.74,2.99-2.6,7.67-2.44,10.45.35,2.78,2.8,2.61,7.16-.38,9.75-2.99,2.59-7.67,2.43-10.46-.36Z"/><g class="cls-23"><path class="cls-3" d="m240.87,241.74l-14.98,13.98"/><path class="cls-3" d="m225.89,241.74l14.98,13.98"/></g><g class="cls-23"><path class="cls-3" d="m491,110.19l-14.98,13.98"/><path class="cls-3" d="m476.02,110.19l14.98,13.98"/></g><g class="cls-23"><path class="cls-3" d="m217.36,30.4l-14.98,13.98"/><path class="cls-3" d="m202.38,30.4l14.98,13.98"/></g><path class="cls-20" d="m229.79,121.67s-.53-2.39-.58-2.54c-.61-1.7-2.8-4.62-4.82-4.55-1.45.05-2.4,1.41-2.21,2.79.19,1.42,1.51,2.58,2.69,3.25,1.38.78,4.92,1.05,4.92,1.05Z"/><path class="cls-20" d="m233.16,105.33c-1.88.75-2.71,4.3-2.59,6.1.01.16.45,2.58.48,2.56,0,0,.03-.02.04-.02-.14.56-.28,1.16-.41,1.82-.24,1.22-.51,2.61-.7,4.13-.19,1.52-.36,3.18-.38,4.95-.02,1.77.05,3.63.38,5.54,0,.02.01.04.01.06-.27-.53-1.06-1.99-1.14-2.09-1.04-1.48-3.92-3.72-5.85-3.11-1.39.43-1.94,1.99-1.39,3.28.56,1.32,2.14,2.09,3.44,2.42,1.48.37,4.72-.23,4.98-.28.32,1.82.8,3.65,1.38,5.48.33,1.05.7,2.09,1.08,3.13-.24-.45-.47-.85-.51-.9-1.04-1.48-3.92-3.72-5.85-3.12-1.39.43-1.94,1.99-1.39,3.28.56,1.32,2.14,2.09,3.44,2.42,1.33.33,4.1-.13,4.83-.26.15.4.3.8.45,1.2.73,1.91,1.47,3.81,2.14,5.7.24.66.44,1.33.65,1.99-.22-.4-.41-.73-.44-.78-1.04-1.48-3.92-3.72-5.85-3.11-1.39.43-1.94,1.99-1.39,3.28.56,1.32,2.14,2.09,3.44,2.42,1.26.31,3.83-.08,4.7-.23.2.68.39,1.37.55,2.04.1.46.23.9.29,1.37.08.46.16.92.24,1.38.12.88.25,1.79.34,2.65.07.6.13,1.17.19,1.75-.23-.67-.7-1.96-.75-2.06-.53-1.07-1.82-2.6-3.21-3.42-.07-.16-.17-.31-.28-.45-.84-1.12-2.47-1.42-3.53-.43-1.49,1.37-.98,4.99-.23,6.62.04.09.65,1.09,1.04,1.71-.29-.33-.56-.65-.86-.99-.58-.67-1.19-1.32-1.84-2.02-.33-.33-.65-.66-.98-1-.32-.34-.7-.66-1.05-.99-.83-.75-1.72-1.48-2.62-2.19.58-.51,2.64-2.37,3.2-3.6.56-1.23.94-2.94.26-4.21-.66-1.23-2.22-1.78-3.43-.96-1.68,1.13-1.73,4.78-1.22,6.52.03.11.53,1.32.82,1.97-.54-.42-1.09-.85-1.66-1.25-1.64-1.18-3.33-2.32-5.02-3.48-.52-.35-1.03-.71-1.54-1.07.21-.18,2.69-2.33,3.32-3.71.56-1.23.94-2.95.26-4.21-.66-1.23-2.22-1.78-3.43-.96-1.68,1.13-1.73,4.78-1.22,6.52.04.13.76,1.86.96,2.29-1.13-.78-2.25-1.57-3.31-2.4-1.48-1.13-2.87-2.33-4.12-3.59.1-.08,2.7-2.32,3.35-3.73.56-1.23.94-2.95.26-4.21-.66-1.24-2.22-1.78-3.43-.97-1.68,1.14-1.73,4.78-1.22,6.52.04.14.82,2,.98,2.32-.07-.07-.16-.14-.23-.22-1.33-1.36-2.44-2.85-3.41-4.29-.57-.83-1.06-1.67-1.53-2.49.53-.36,2.92-2.07,3.64-3.27.7-1.16,1.26-2.83.73-4.15-.52-1.3-2.01-2.01-3.3-1.33-1.79.94-2.24,4.56-1.93,6.34.02.09.29,1.06.51,1.76-.21-.38-.42-.75-.61-1.12-.71-1.35-1.28-2.64-1.77-3.78-.28-.65-.51-1.25-.73-1.81.33-.63,1.63-3.18,1.71-4.56.08-1.35-.18-3.08-1.26-4.02-1.06-.91-2.71-.86-3.54.34-1.16,1.66.11,5.08,1.21,6.52.09.12,1.8,1.9,1.82,1.87,0,0,.02-.03.02-.04.19.54.41,1.12.66,1.75.47,1.15,1.01,2.46,1.7,3.83.68,1.38,1.46,2.85,2.42,4.33.96,1.49,2.05,3,3.36,4.41.01.02.03.03.05.04-.51-.29-1.98-1.07-2.1-1.12-1.68-.66-5.32-.94-6.6.63-.92,1.13-.52,2.73.65,3.5,1.19.78,2.94.56,4.21.11,1.43-.51,3.81-2.8,3.99-2.98,1.27,1.34,2.68,2.6,4.18,3.81.86.69,1.74,1.36,2.64,2.02-.45-.24-.86-.45-.92-.48-1.68-.66-5.32-.94-6.59.63-.92,1.13-.52,2.73.64,3.5,1.19.78,2.94.56,4.21.11,1.29-.46,3.35-2.37,3.89-2.88.34.25.69.5,1.03.75,1.67,1.19,3.32,2.37,4.93,3.57.56.43,1.1.86,1.64,1.3-.4-.21-.74-.39-.79-.41-1.68-.66-5.32-.94-6.59.63-.92,1.13-.52,2.73.64,3.5,1.19.78,2.94.56,4.21.11,1.23-.44,3.15-2.19,3.79-2.79.54.46,1.08.93,1.58,1.4.34.33.68.63,1,.98.33.34.65.68.96,1.01.59.67,1.2,1.35,1.75,2.02.39.46.75.91,1.12,1.35-.56-.43-1.66-1.25-1.76-1.3-1.57-.9-5.12-1.74-6.61-.38-1.08.98-.93,2.63.11,3.56,1.06.96,2.82,1,4.14.75,1.46-.28,4.05-2.1,4.38-2.32.61.74,1.18,1.47,1.72,2.17.71.91,1.35,1.77,1.94,2.58.38-.06.86-.15,1.4-.25-.71-.93-1.51-1.97-2.41-3.07-.61-.76-1.28-1.55-1.97-2.37.16-.19,1.1-1.3,1.84-2.44,1.44.51,4.4.43,4.78.42.09.95.17,1.88.24,2.76.11,1.52.19,2.9.24,4.14.41-.09.83-.2,1.27-.3-.08-1.18-.18-2.5-.32-3.94-.09-.97-.21-2.01-.34-3.06.38-.11,3.42-1,4.55-1.97,1.03-.88,2.08-2.28,2-3.7-.08-1.4-1.27-2.54-2.71-2.31-2,.32-3.57,3.62-3.84,5.4-.02.11-.06,1.27-.07,2.01-.06-.43-.11-.85-.17-1.3-.12-.88-.26-1.76-.41-2.7-.09-.45-.18-.91-.27-1.37-.08-.46-.23-.93-.33-1.41-.28-1.09-.61-2.18-.98-3.27.77-.11,3.5-.52,4.65-1.24,1.15-.71,2.4-1.94,2.54-3.36.13-1.39-.87-2.71-2.33-2.69-2.02.02-4.08,3.03-4.62,4.76-.03.11-.28,1.39-.4,2.09-.23-.65-.44-1.31-.69-1.96-.71-1.89-1.5-3.79-2.27-5.67-.24-.58-.46-1.16-.69-1.74.27-.03,3.53-.46,4.82-1.26,1.15-.71,2.4-1.94,2.54-3.36.12-1.39-.87-2.71-2.33-2.7-2.02.02-4.08,3.03-4.62,4.76-.04.13-.39,1.97-.46,2.44-.51-1.28-1.01-2.55-1.44-3.83-.61-1.76-1.1-3.53-1.46-5.27.12-.02,3.53-.44,4.85-1.26,1.15-.71,2.41-1.94,2.54-3.36.12-1.39-.87-2.71-2.33-2.69-2.02.02-4.08,3.03-4.62,4.76-.04.14-.42,2.12-.46,2.48-.02-.11-.06-.21-.08-.31-.36-1.87-.47-3.72-.49-5.46-.01-1.01.03-1.98.09-2.92.64-.01,3.57-.11,4.84-.72,1.21-.58,2.6-1.66,2.89-3.06.28-1.37-.57-2.79-2.02-2.93-2.01-.21-4.38,2.57-5.1,4.22-.04.09-.34,1.05-.54,1.75.04-.43.06-.86.11-1.27.16-1.52.39-2.91.61-4.13.13-.69.26-1.32.39-1.9.62-.35,3.11-1.76,3.94-2.86.81-1.08,1.55-2.68,1.16-4.05-.38-1.35-1.79-2.21-3.14-1.67l-.02.03Z"/><path class="cls-20" d="m197.67,137.74c1.58-.12,4.68-1.84,4.68-1.84.03-.02-1.76-1.7-1.89-1.79-1.45-1.08-4.88-2.31-6.53-1.13-1.18.85-1.22,2.5-.3,3.55.94,1.07,2.68,1.32,4.03,1.22h0Z"/><path class="cls-20" d="m333.47,39.68s1.74-2.18,1.82-2.34c1.07-1.76,2.08-5.8.56-7.53-1.09-1.25-2.97-1.11-4.06.05-1.11,1.18-1.2,3.19-.94,4.71.31,1.78,2.6,5.11,2.6,5.11h0Z"/><path class="cls-20" d="m350.33,30.95c-2.01-1.13-5.74.69-7.25,2.09-.13.12-1.95,2.25-1.91,2.26,0,0,.04.01.04.02-.6.28-1.22.59-1.9.95-1.26.66-2.67,1.42-4.15,2.34-1.48.92-3.07,1.97-4.64,3.22-1.58,1.25-3.17,2.65-4.63,4.31-.02.02-.03.04-.05.06.28-.61.99-2.36,1.03-2.51.56-1.98.48-6.14-1.44-7.41-1.38-.92-3.16-.29-3.9,1.12-.76,1.44-.31,3.4.33,4.79.73,1.57,3.59,4.01,3.82,4.21-1.37,1.59-2.65,3.33-3.85,5.16-.69,1.05-1.35,2.12-1.99,3.21.22-.54.41-1.03.44-1.1.56-1.98.48-6.14-1.44-7.41-1.38-.92-3.16-.29-3.9,1.12-.76,1.44-.31,3.4.33,4.79.66,1.41,3.06,3.54,3.7,4.1-.24.42-.49.83-.73,1.26-1.16,2.02-2.32,4.04-3.51,5.98-.42.68-.86,1.35-1.29,2.01.19-.48.36-.88.38-.95.56-1.98.48-6.14-1.44-7.41-1.38-.92-3.16-.29-3.9,1.12-.76,1.44-.31,3.4.34,4.79.63,1.35,2.82,3.33,3.58,4-.47.66-.93,1.33-1.42,1.96-.34.42-.64.85-1,1.25-.35.41-.7.8-1.05,1.2-.7.74-1.4,1.5-2.1,2.21-.48.5-.95.95-1.41,1.42.43-.68,1.23-2.02,1.28-2.14.56-1.25.99-3.48.72-5.3.09-.18.15-.38.2-.57.39-1.55-.51-3.2-2.15-3.44-2.28-.33-5.12,2.71-6.02,4.56-.06.11-.5,1.36-.77,2.15.09-.49.18-.97.26-1.47.18-1,.31-2,.47-3.08.06-.52.12-1.05.18-1.59.07-.53.07-1.09.12-1.64.07-1.28.08-2.58.06-3.89.87.15,3.98.63,5.48.25,1.49-.38,3.28-1.28,3.91-2.78.61-1.47-.02-3.24-1.61-3.73-2.2-.67-5.47,1.91-6.64,3.59-.08.11-.78,1.41-1.15,2.14-.02-.79-.04-1.57-.08-2.37-.13-2.3-.33-4.62-.53-6.94-.06-.71-.11-1.42-.16-2.12.31.06,4,.71,5.67.28,1.49-.38,3.28-1.28,3.91-2.78.61-1.47-.02-3.24-1.61-3.73-2.2-.67-5.47,1.91-6.64,3.59-.09.13-1.1,2.01-1.33,2.5-.12-1.56-.22-3.12-.26-4.66-.06-2.12,0-4.21.21-6.23.14.03,3.98.73,5.7.29,1.49-.38,3.28-1.28,3.91-2.78.61-1.47-.03-3.24-1.61-3.73-2.2-.67-5.47,1.91-6.64,3.59-.09.13-1.18,2.16-1.35,2.54.01-.12.01-.24.02-.36.25-2.15.76-4.21,1.34-6.1.33-1.1.71-2.14,1.1-3.14.7.21,3.92,1.1,5.51.88,1.52-.21,3.4-.92,4.19-2.34.77-1.39.33-3.23-1.19-3.88-2.12-.91-5.64,1.29-6.99,2.85-.08.08-.73,1.02-1.19,1.72.18-.45.36-.91.55-1.34.69-1.6,1.42-3.03,2.07-4.28.38-.71.73-1.35,1.07-1.94.79-.16,3.98-.84,5.27-1.75,1.25-.89,2.6-2.38,2.64-4,.04-1.59-1.19-3.01-2.84-2.9-2.3.17-4.41,3.75-4.9,5.75-.04.18-.39,2.95-.34,2.95,0,0,.04,0,.05-.01-.34.56-.7,1.17-1.07,1.84-.68,1.25-1.45,2.66-2.17,4.25-.73,1.59-1.48,3.34-2.1,5.25-.63,1.92-1.18,3.96-1.49,6.15,0,.03,0,.05,0,.08-.11-.66-.48-2.52-.52-2.66-.63-1.96-2.99-5.38-5.29-5.39-1.66,0-2.79,1.5-2.63,3.09.16,1.62,1.61,3.01,2.92,3.81,1.48.9,5.21,1.36,5.51,1.4-.27,2.08-.38,4.24-.37,6.43,0,1.25.05,2.51.11,3.78-.11-.57-.22-1.08-.24-1.15-.63-1.96-2.99-5.38-5.29-5.39-1.66,0-2.79,1.5-2.63,3.09.16,1.62,1.61,3.01,2.92,3.81,1.33.81,4.5,1.27,5.34,1.37.03.48.05.97.08,1.45.14,2.33.29,4.64.38,6.92.03.8.03,1.6.03,2.39-.1-.51-.19-.93-.21-1-.63-1.96-2.99-5.38-5.29-5.39-1.66,0-2.79,1.5-2.63,3.09.16,1.62,1.61,3.01,2.92,3.81,1.27.78,4.2,1.22,5.19,1.35-.02.81-.04,1.62-.1,2.41-.05.53-.06,1.05-.15,1.59-.07.53-.14,1.06-.21,1.58-.17,1-.34,2.03-.53,3-.12.68-.26,1.32-.39,1.96-.02-.8-.09-2.37-.11-2.49-.32-2.03-2.14-5.77-4.42-6.13-1.64-.26-2.99,1.07-3.07,2.65-.09,1.62,1.13,3.21,2.31,4.21,1.29,1.09,4.77,2.09,5.2,2.21-.23,1.07-.45,2.11-.68,3.08-.3,1.28-.6,2.48-.88,3.57.33.29.74.65,1.23,1.06.32-1.3.65-2.75.98-4.34.23-1.08.46-2.25.68-3.45.29,0,1.93.04,3.48-.13.58,1.64,2.77,4.21,3.06,4.53-.78.77-1.53,1.51-2.27,2.19-1.26,1.19-2.43,2.25-3.48,3.18.38.29.77.6,1.18.91,1-.92,2.09-1.96,3.25-3.11.79-.78,1.62-1.62,2.46-2.5.36.25,3.34,2.31,5,2.62,1.51.28,3.51.21,4.71-.89,1.17-1.08,1.33-2.95.1-4.06-1.72-1.54-5.76-.56-7.53.48-.11.06-1.17.86-1.83,1.37.34-.36.68-.71,1.03-1.08.7-.74,1.37-1.49,2.09-2.31.34-.4.68-.81,1.02-1.22.35-.4.66-.87,1-1.3.76-1.03,1.48-2.11,2.19-3.21.65.61,2.98,2.73,4.43,3.23,1.45.5,3.44.74,4.79-.16,1.32-.88,1.77-2.72.71-4-1.46-1.78-5.6-1.43-7.52-.67-.12.05-1.43.75-2.14,1.15.42-.67.84-1.33,1.24-2.02,1.16-1.99,2.27-4.04,3.39-6.08.34-.63.69-1.25,1.03-1.87.23.22,2.94,2.8,4.57,3.37,1.45.5,3.44.74,4.79-.16,1.32-.88,1.77-2.72.71-4-1.47-1.78-5.6-1.43-7.52-.67-.14.06-2.03,1.07-2.49,1.35.76-1.37,1.54-2.72,2.36-4.03,1.12-1.8,2.32-3.51,3.61-5.08.11.1,2.92,2.81,4.6,3.39,1.45.5,3.44.74,4.79-.16,1.32-.88,1.77-2.71.71-4-1.46-1.78-5.6-1.43-7.52-.67-.15.06-2.17,1.15-2.53,1.37.08-.09.14-.2.23-.29,1.4-1.65,2.96-3.08,4.48-4.35.88-.74,1.77-1.39,2.65-2.01.48.56,2.66,3.08,4.11,3.77,1.39.66,3.34,1.12,4.78.36,1.42-.73,2.05-2.51,1.15-3.89-1.26-1.93-5.42-2.04-7.4-1.49-.11.03-1.17.45-1.94.77.4-.28.81-.56,1.2-.81,1.46-.96,2.85-1.74,4.09-2.43.71-.38,1.35-.72,1.97-1.02.75.31,3.78,1.5,5.36,1.44,1.53-.06,3.48-.55,4.41-1.88.91-1.3.67-3.17-.78-3.99l-.02.02Z"/><path class="cls-20" d="m296.22,22.77c1.23,1.32,4.99,2.82,4.99,2.82.04.02.24-2.78.23-2.96-.09-2.06-1.46-5.98-3.68-6.59-1.6-.44-3.09.71-3.36,2.28-.28,1.6.76,3.32,1.81,4.44h0Z"/><path class="cls-20" d="m477.61,180.21s1.28-1.61,1.35-1.72c.78-1.3,1.53-4.27.41-5.55-.8-.92-2.19-.82-2.99.04-.82.88-.88,2.35-.7,3.46.23,1.31,1.92,3.77,1.92,3.77h0Z"/><path class="cls-20" d="m490.03,173.78c-1.48-.83-4.23.51-5.34,1.54-.09.09-1.44,1.65-1.41,1.67,0,0,.02.01.03.01-.44.21-.9.44-1.4.7-.93.49-1.97,1.05-3.06,1.73s-2.26,1.45-3.42,2.38c-1.17.92-2.34,1.96-3.41,3.17-.01.01-.02.03-.04.04.2-.45.73-1.74.76-1.85.41-1.46.35-4.52-1.07-5.46-1.02-.68-2.32-.21-2.87.83-.56,1.06-.23,2.5.24,3.53.54,1.16,2.65,2.95,2.82,3.1-1.01,1.17-1.95,2.45-2.84,3.8-.51.77-.99,1.57-1.47,2.37.16-.4.31-.76.32-.81.41-1.46.35-4.52-1.06-5.46-1.02-.68-2.32-.21-2.88.83-.56,1.06-.23,2.5.24,3.53.49,1.04,2.25,2.61,2.72,3.02-.18.31-.36.61-.54.93-.86,1.49-1.7,2.98-2.58,4.41-.31.51-.63.99-.95,1.48.14-.35.26-.65.28-.7.41-1.46.35-4.52-1.07-5.46-1.02-.68-2.32-.21-2.87.83-.56,1.06-.23,2.5.24,3.53.46,1,2.08,2.46,2.64,2.95-.35.49-.69.98-1.04,1.44-.25.31-.47.62-.74.91-.26.3-.51.6-.77.88-.51.54-1.03,1.11-1.54,1.63-.35.36-.7.7-1.04,1.05.31-.5.91-1.49.95-1.58.42-.92.73-2.56.53-3.9.06-.14.11-.28.15-.42.28-1.14-.38-2.36-1.59-2.53-1.68-.24-3.77,2-4.43,3.36-.04.08-.37,1-.56,1.59.06-.36.13-.71.19-1.08.13-.73.23-1.47.35-2.27.04-.38.09-.77.13-1.17.05-.39.06-.8.09-1.21.05-.95.06-1.9.04-2.87.64.11,2.94.46,4.04.18,1.1-.28,2.42-.95,2.88-2.05.45-1.08-.02-2.39-1.18-2.74-1.62-.5-4.03,1.4-4.89,2.65-.06.08-.58,1.04-.85,1.57-.01-.58-.02-1.16-.06-1.75-.09-1.69-.24-3.41-.39-5.11-.04-.53-.08-1.05-.12-1.57.23.04,2.94.53,4.18.21,1.1-.28,2.42-.95,2.88-2.05.45-1.08-.02-2.39-1.18-2.75-1.62-.49-4.03,1.4-4.89,2.65-.06.09-.81,1.48-.98,1.84-.09-1.15-.16-2.3-.19-3.43-.04-1.57,0-3.1.16-4.59.11.02,2.94.54,4.2.21,1.1-.28,2.42-.95,2.88-2.05.45-1.08-.02-2.39-1.18-2.74-1.62-.49-4.03,1.4-4.89,2.65-.07.1-.87,1.59-1,1.87,0-.09,0-.18.02-.27.19-1.59.56-3.1.98-4.49.24-.81.53-1.58.81-2.31.52.15,2.89.81,4.06.65,1.12-.16,2.51-.67,3.09-1.72.57-1.03.24-2.38-.88-2.86-1.56-.67-4.16.95-5.15,2.09-.06.06-.53.75-.88,1.27.14-.33.27-.68.41-.99.51-1.18,1.05-2.23,1.53-3.15.28-.53.54-.99.79-1.43.58-.12,2.94-.62,3.88-1.3.92-.66,1.91-1.75,1.95-2.95.03-1.17-.88-2.22-2.1-2.13-1.69.12-3.25,2.76-3.61,4.24-.03.13-.29,2.17-.26,2.17,0,0,.03,0,.04,0-.25.41-.51.86-.79,1.35-.5.92-1.06,1.96-1.6,3.13-.54,1.17-1.09,2.46-1.55,3.87-.46,1.41-.87,2.92-1.1,4.53v.06c-.08-.49-.35-1.85-.38-1.96-.46-1.45-2.2-3.97-3.9-3.97-1.22,0-2.05,1.11-1.94,2.28.12,1.19,1.18,2.21,2.15,2.81,1.09.66,3.84,1,4.06,1.03-.2,1.54-.28,3.13-.27,4.74,0,.92.04,1.85.08,2.78-.08-.42-.16-.8-.17-.85-.46-1.45-2.2-3.97-3.9-3.97-1.22,0-2.05,1.11-1.94,2.28.12,1.19,1.18,2.21,2.15,2.81.98.6,3.32.93,3.94,1.01.02.36.04.71.06,1.07.11,1.71.22,3.42.28,5.1.02.6.02,1.18.02,1.76-.08-.38-.14-.69-.16-.74-.46-1.45-2.2-3.97-3.9-3.97-1.22,0-2.05,1.11-1.94,2.27.12,1.19,1.18,2.21,2.15,2.81.93.57,3.09.9,3.83,1-.02.6-.03,1.2-.08,1.77-.04.39-.05.78-.11,1.17-.05.39-.1.78-.16,1.17-.12.73-.25,1.5-.39,2.21-.09.5-.19.97-.29,1.45-.01-.59-.07-1.74-.08-1.84-.24-1.5-1.58-4.26-3.25-4.51-1.21-.19-2.2.78-2.26,1.96-.06,1.2.83,2.37,1.7,3.1.95.8,3.51,1.54,3.83,1.62-.16.79-.33,1.55-.5,2.27-.22.95-.44,1.82-.65,2.63.24.21.55.48.91.78.23-.96.48-2.02.73-3.2.17-.8.34-1.65.5-2.54.21,0,1.43.03,2.56-.09.43,1.21,2.04,3.1,2.25,3.34-.57.56-1.13,1.11-1.67,1.62-.93.88-1.79,1.66-2.57,2.34.27.22.57.45.87.67.73-.68,1.54-1.44,2.4-2.29.58-.57,1.2-1.2,1.82-1.84.27.19,2.46,1.71,3.69,1.93,1.12.21,2.59.16,3.47-.65.86-.8.98-2.18.07-2.99-1.26-1.13-4.24-.41-5.55.35-.08.04-.86.63-1.35,1.01.25-.26.5-.52.76-.8.51-.54,1.01-1.1,1.54-1.7.25-.29.5-.6.75-.9.26-.29.49-.64.74-.96.56-.76,1.1-1.55,1.62-2.37.48.45,2.19,2.01,3.26,2.38,1.07.37,2.54.54,3.53-.12.98-.65,1.3-2,.53-2.95-1.08-1.31-4.13-1.05-5.54-.49-.09.04-1.05.55-1.58.85.31-.49.62-.98.91-1.49.85-1.47,1.67-2.98,2.49-4.48.25-.46.51-.91.76-1.37.17.16,2.17,2.06,3.37,2.48,1.07.37,2.54.54,3.53-.12.98-.65,1.3-2,.53-2.95-1.08-1.31-4.13-1.05-5.54-.49-.11.04-1.5.79-1.84,1,.56-1.01,1.13-2.01,1.74-2.97.83-1.33,1.72-2.59,2.66-3.74.07.07,2.15,2.07,3.39,2.49,1.07.37,2.54.55,3.53-.12.98-.65,1.3-2,.53-2.94-1.08-1.31-4.13-1.05-5.54-.5-.11.04-1.6.85-1.87,1.01.06-.07.11-.14.16-.21,1.03-1.22,2.18-2.27,3.3-3.2.65-.54,1.3-1.03,1.95-1.48.35.41,1.96,2.27,3.03,2.78,1.02.49,2.46.82,3.52.27,1.04-.54,1.52-1.85.85-2.87-.93-1.42-3.99-1.5-5.46-1.1-.08.02-.86.33-1.43.57.29-.2.6-.41.88-.6,1.07-.7,2.1-1.29,3.01-1.79.52-.28,1-.53,1.45-.75.55.22,2.79,1.1,3.95,1.06,1.13-.04,2.56-.41,3.25-1.38.68-.96.49-2.34-.57-2.93h-.06Z"/><path class="cls-20" d="m450.16,167.75c.91.97,3.68,2.08,3.68,2.08.03.01.18-2.05.18-2.18-.06-1.52-1.08-4.4-2.71-4.86-1.18-.33-2.27.53-2.47,1.68-.2,1.19.56,2.45,1.33,3.27Z"/><path class="cls-20" d="m367.91,248s-1.6,2.01-1.68,2.16c-.98,1.63-1.92,5.35-.52,6.95,1.01,1.15,2.74,1.02,3.74-.05,1.03-1.1,1.11-2.95.86-4.34-.28-1.64-2.4-4.71-2.4-4.71Z"/><path class="cls-20" d="m352.4,256.04c1.85,1.04,5.3-.64,6.69-1.93.12-.11,1.8-2.07,1.77-2.09,0,0-.03-.01-.04-.02.54-.26,1.13-.55,1.76-.87,1.16-.61,2.46-1.31,3.83-2.16,1.37-.85,2.83-1.82,4.28-2.97s2.92-2.44,4.27-3.97c.01-.02.03-.04.04-.06-.26.57-.91,2.18-.95,2.31-.51,1.83-.44,5.66,1.33,6.84,1.28.85,2.91.26,3.59-1.03.7-1.33.3-3.13-.31-4.42-.68-1.45-3.31-3.7-3.53-3.88,1.27-1.47,2.45-3.07,3.56-4.76.63-.96,1.24-1.96,1.84-2.96-.21.5-.38.95-.4,1.01-.51,1.83-.44,5.66,1.33,6.84,1.28.85,2.91.26,3.59-1.03.7-1.33.29-3.13-.31-4.42-.61-1.3-2.82-3.27-3.41-3.78.22-.39.45-.77.68-1.16,1.07-1.86,2.13-3.72,3.23-5.52.39-.63.79-1.24,1.19-1.85-.18.44-.33.81-.34.88-.51,1.83-.44,5.66,1.33,6.84,1.28.85,2.91.26,3.59-1.03.7-1.33.29-3.13-.31-4.42-.58-1.24-2.61-3.08-3.31-3.68.43-.61.86-1.23,1.3-1.8.31-.39.59-.78.92-1.15.33-.38.64-.74.96-1.11.64-.68,1.29-1.39,1.94-2.04.44-.46.87-.88,1.3-1.31-.39.63-1.13,1.87-1.18,1.97-.52,1.15-.91,3.21-.66,4.89-.08.17-.14.35-.19.53-.36,1.43.48,2.95,1.99,3.17,2.1.31,4.72-2.5,5.55-4.21.05-.1.46-1.25.71-1.98-.08.45-.16.89-.24,1.35-.16.92-.29,1.84-.44,2.84-.06.48-.11.97-.16,1.46-.06.49-.07,1.01-.11,1.52-.06,1.18-.07,2.38-.05,3.59-.81-.14-3.68-.58-5.05-.23-1.37.35-3.02,1.18-3.61,2.56-.57,1.35.02,2.99,1.48,3.44,2.04.62,5.04-1.75,6.12-3.31.07-.1.72-1.3,1.07-1.97.02.73.03,1.45.08,2.19.12,2.12.31,4.26.49,6.4.06.66.1,1.31.15,1.96-.29-.05-3.68-.66-5.23-.26-1.37.35-3.03,1.18-3.61,2.56-.57,1.35.02,2.99,1.48,3.43,2.04.62,5.04-1.76,6.12-3.32.08-.12,1.02-1.85,1.23-2.31.11,1.44.2,2.88.24,4.3.05,1.96,0,3.89-.2,5.75-.13-.02-3.68-.67-5.26-.27-1.37.35-3.02,1.18-3.61,2.56-.57,1.35.02,2.99,1.48,3.43,2.04.62,5.04-1.75,6.12-3.32.09-.12,1.09-1.99,1.25-2.34-.01.11-.01.23-.02.34-.23,1.99-.71,3.88-1.23,5.63-.31,1.02-.66,1.97-1.01,2.9-.65-.19-3.62-1.02-5.08-.81-1.4.2-3.14.84-3.86,2.16-.71,1.28-.31,2.98,1.1,3.58,1.95.84,5.2-1.19,6.45-2.62.07-.08.67-.95,1.1-1.59-.17.41-.34.85-.51,1.24-.63,1.48-1.31,2.79-1.91,3.95-.35.66-.68,1.24-.99,1.79-.73.14-3.68.78-4.85,1.62-1.15.82-2.39,2.19-2.44,3.69-.04,1.47,1.1,2.78,2.62,2.67,2.12-.16,4.07-3.46,4.52-5.3.04-.16.36-2.72.32-2.71,0,0-.04,0-.04,0,.31-.52.64-1.08.99-1.7.63-1.15,1.33-2.45,2-3.92.67-1.47,1.36-3.08,1.93-4.85.58-1.77,1.09-3.65,1.37-5.67,0-.03,0-.04,0-.07.1.61.44,2.32.48,2.45.58,1.81,2.76,4.96,4.88,4.97,1.53,0,2.57-1.38,2.43-2.85-.15-1.49-1.48-2.77-2.69-3.51-1.36-.83-4.8-1.25-5.08-1.29.25-1.92.35-3.91.34-5.93,0-1.15-.04-2.32-.1-3.48.11.53.2,1,.22,1.07.58,1.81,2.76,4.96,4.88,4.97,1.53,0,2.57-1.38,2.43-2.85-.15-1.49-1.48-2.77-2.69-3.51-1.23-.75-4.15-1.17-4.93-1.27-.02-.44-.04-.9-.08-1.34-.13-2.14-.27-4.29-.34-6.39-.02-.74-.02-1.47-.02-2.21.09.47.17.87.19.92.58,1.81,2.76,4.96,4.88,4.97,1.53,0,2.57-1.39,2.43-2.85-.15-1.49-1.48-2.77-2.69-3.51-1.17-.71-3.87-1.13-4.79-1.25.02-.75.04-1.5.09-2.23.05-.49.06-.97.14-1.47.06-.49.13-.98.19-1.45.16-.92.31-1.87.49-2.77.12-.62.24-1.22.36-1.81.02.74.08,2.18.1,2.3.29,1.87,1.97,5.33,4.07,5.65,1.52.24,2.76-.98,2.83-2.45.08-1.5-1.05-2.96-2.13-3.88-1.19-1.01-4.4-1.92-4.8-2.04.21-.98.41-1.94.63-2.85.28-1.18.55-2.28.81-3.3-.31-.27-.69-.6-1.13-.98-.29,1.2-.6,2.54-.91,4-.21,1-.42,2.07-.63,3.18-.27,0-1.79-.04-3.21.11-.54-1.51-2.56-3.88-2.82-4.18.71-.71,1.42-1.39,2.09-2.02,1.16-1.1,2.24-2.07,3.21-2.93-.35-.28-.71-.55-1.08-.84-.91.85-1.92,1.8-3,2.86-.73.71-1.5,1.5-2.27,2.31-.33-.23-3.08-2.13-4.62-2.41-1.4-.26-3.24-.19-4.35.82-1.08.99-1.23,2.73-.09,3.74,1.58,1.42,5.31.52,6.95-.44.09-.06,1.08-.79,1.68-1.26-.32.33-.63.65-.95,1-.64.68-1.26,1.38-1.93,2.12-.31.37-.63.75-.94,1.13-.32.37-.61.8-.93,1.2-.7.95-1.37,1.95-2.02,2.97-.6-.56-2.74-2.51-4.09-2.98-1.34-.46-3.17-.68-4.42.15-1.22.82-1.63,2.51-.66,3.68,1.35,1.64,5.17,1.32,6.94.62.11-.04,1.32-.69,1.97-1.06-.39.62-.78,1.23-1.15,1.87-1.07,1.84-2.09,3.73-3.12,5.61-.31.58-.64,1.15-.96,1.72-.21-.2-2.71-2.58-4.21-3.1-1.34-.46-3.18-.68-4.42.15-1.22.81-1.63,2.51-.66,3.68,1.35,1.64,5.17,1.32,6.93.62.13-.05,1.87-.98,2.3-1.25-.7,1.26-1.42,2.51-2.17,3.72-1.03,1.66-2.15,3.23-3.33,4.68-.1-.09-2.7-2.59-4.24-3.13-1.34-.46-3.18-.68-4.42.15-1.22.82-1.63,2.51-.66,3.68,1.35,1.64,5.17,1.32,6.93.61.14-.06,2-1.06,2.34-1.26-.07.09-.14.18-.21.27-1.28,1.53-2.73,2.85-4.13,4.01-.81.68-1.63,1.29-2.44,1.85-.44-.51-2.45-2.85-3.79-3.48-1.28-.61-3.08-1.03-4.41-.34-1.3.68-1.9,2.31-1.06,3.59,1.16,1.78,5,1.88,6.83,1.37.1-.02,1.08-.42,1.79-.71-.37.25-.75.52-1.1.75-1.35.88-2.63,1.6-3.77,2.24-.65.36-1.25.66-1.81.95-.69-.28-3.5-1.38-4.94-1.33-1.42.05-3.21.51-4.07,1.74-.85,1.2-.62,2.93.71,3.68v.06Z"/><path class="cls-20" d="m402.32,263.58c-1.14-1.22-4.6-2.6-4.6-2.6-.04-.01-.23,2.56-.21,2.73.08,1.9,1.35,5.52,3.39,6.08,1.48.41,2.85-.66,3.09-2.11.25-1.48-.7-3.06-1.67-4.1h0Z"/><path class="cls-12" d="m454.61,57h-224.61v180.61h224.61V57Z"/><path class="cls-21" d="m425.38,214.44h-28.02c-1.52,0-2.75-1.23-2.75-2.75v-32.13"/><path class="cls-4" d="m425.38,214.44h-28.02c-1.52,0-2.75-1.23-2.75-2.75v-32.13"/><path class="cls-21" d="m443.04,147.9v63.78c0,1.52-1.23,2.75-2.76,2.75h-12.15"/><path class="cls-4" d="m443.04,147.9v63.78c0,1.52-1.23,2.75-2.76,2.75h-12.15"/><path class="cls-21" d="m394.61,177.39v-48.68c0-1.52,1.23-2.75,2.75-2.75h42.92c1.52,0,2.76,1.23,2.76,2.75v17.42"/><path class="cls-4" d="m394.61,177.39v-48.68c0-1.52,1.23-2.75,2.75-2.75h42.92c1.52,0,2.76,1.23,2.76,2.75v17.42"/><path class="cls-12" d="m443.04,128.71v14.87h-48.43v-14.87c0-1.52,1.23-2.75,2.75-2.75h42.92c1.52,0,2.76,1.23,2.76,2.75Z"/><path class="cls-12" d="m454.61,57h-224.61v61.15h224.61v-61.15Z"/><path class="cls-13" d="m437.86,103.65c2.84-.7,4.57-3.57,3.87-6.41-.7-2.84-3.57-4.57-6.4-3.87-2.84.7-4.57,3.57-3.87,6.41.7,2.84,3.57,4.57,6.4,3.87Z"/><path class="cls-20" d="m420.68,96.29c.39,0,.71-.32.71-.71s-.32-.71-.71-.71-.71.32-.71.71.32.71.71.71Z"/><path class="cls-20" d="m424.15,95.59c0-.39-.32-.71-.71-.71s-.71.32-.71.71.32.71.71.71.71-.32.71-.71Z"/><path class="cls-20" d="m426.93,95.59c0-.39-.32-.71-.71-.71s-.71.32-.71.71.32.71.71.71.71-.32.71-.71Z"/><path class="cls-20" d="m421.38,98.47c0-.39-.32-.71-.71-.71s-.71.32-.71.71.32.71.71.71.71-.32.71-.71Z"/><path class="cls-20" d="m424.15,98.47c0-.39-.32-.71-.71-.71s-.71.32-.71.71.32.71.71.71.71-.32.71-.71Z"/><path class="cls-20" d="m426.93,98.47c0-.39-.32-.71-.71-.71s-.71.32-.71.71.32.71.71.71.71-.32.71-.71Z"/><path class="cls-20" d="m421.38,101.35c0-.39-.32-.71-.71-.71s-.71.32-.71.71.32.71.71.71.71-.32.71-.71Z"/><path class="cls-20" d="m424.15,101.35c0-.39-.32-.71-.71-.71s-.71.32-.71.71.32.71.71.71.71-.32.71-.71Z"/><path class="cls-20" d="m426.93,101.35c0-.39-.32-.71-.71-.71s-.71.32-.71.71.32.71.71.71.71-.32.71-.71Z"/><path class="cls-21" d="m387.4,100.61c-1.03,3.22-4.05,5.55-7.61,5.55h-72.86"/><path class="cls-4" d="m387.4,100.61c-1.03,3.22-4.05,5.55-7.61,5.55h-72.86"/><path class="cls-21" d="m322.96,90.15h56.83c4.41,0,8,3.58,8,8"/><path class="cls-4" d="m322.96,90.15h56.83c4.41,0,8,3.58,8,8"/><path class="cls-21" d="m302.92,106.15h-37.93c-4.41,0-8-3.58-8-8s3.58-8,8-8h55.19"/><path class="cls-4" d="m302.92,106.15h-37.93c-4.41,0-8-3.58-8-8s3.58-8,8-8h55.19"/><path class="cls-6" d="m367.62,93.84v7.48"/><path class="cls-4" d="m361.81,93.91l-7.01,7.02"/><path class="cls-4" d="m354.79,93.91l7.01,7.02"/><path class="cls-11" d="m379.87,101.12c-.21.26-.6.29-.85.07l-2.88-2.62.54-.66,3.09,2.36c.26.21.31.59.09.85h0Z"/><path class="cls-11" d="m372.48,94.99c-.96,1.15-.8,2.86.36,3.82,1.15.96,2.86.8,3.82-.36.96-1.15.79-2.86-.36-3.82-1.15-.96-2.86-.8-3.82.36Zm3.88,3.21c-.82.99-2.28,1.13-3.27.31-.99-.82-1.13-2.28-.31-3.27.82-.99,2.28-1.13,3.27-.31.99.82,1.13,2.28.31,3.27Z"/><path class="cls-13" d="m454.6,57h-6.85v180.61h6.85V57Z"/><path class="cls-10" d="m454.6,93.01h-6.85v17.72h6.85v-17.72Z"/><path class="cls-15" d="m454.61,57h-224.61v21.14h224.61v-21.14Z"/><path class="cls-11" d="m454.61,57h-186.18v7.43h186.18v-7.43Z"/><path class="cls-2" d="m450.3,58.87l-3.93,3.94"/><path class="cls-2" d="m446.37,58.87l3.93,3.94"/><path class="cls-8" d="m438.88,59.2h-2.89v2.9h2.89v-2.9Z"/><path class="cls-8" d="m437.49,59.9h-2.89v2.9h2.89v-2.9Z"/><path class="cls-2" d="m425.58,60.98h-5"/><path class="cls-2" d="m272.39,58.73v4.49"/><path class="cls-2" d="m274.64,60.97h-4.49"/><path class="cls-4" d="m258.23,130.72h46.22"/><path class="cls-4" d="m258.23,135.21h58.7"/><path class="cls-4" d="m258.23,139.21h121.06"/><path class="cls-4" d="m258.23,143.21h121.06"/><path class="cls-4" d="m258.23,147.21h121.06"/><path class="cls-4" d="m258.51,158.63h46.22"/><path class="cls-4" d="m258.51,162.67h58.7"/><path class="cls-4" d="m258.23,151.21h121.06"/><path class="cls-4" d="m258.51,171.85h121.06"/><path class="cls-4" d="m258.51,176.25h121.06"/><path class="cls-4" d="m258.51,186.53h46.22"/><path class="cls-4" d="m258.51,190.57h58.7"/><path class="cls-4" d="m258.51,195.34h121.06"/><path class="cls-4" d="m258.51,199.75h121.06"/><path class="cls-4" d="m258.51,204.15h121.06"/><path class="cls-4" d="m258.51,214.43h46.22"/><path class="cls-4" d="m258.51,218.47h58.7"/><path class="cls-4" d="m258.51,223.24h121.06"/><path class="cls-4" d="m258.51,227.65h121.06"/><path class="cls-4" d="m258.23,155.21h121.06"/><path class="cls-4" d="m397.78,148.76h21.77"/><path class="cls-4" d="m397.78,151.69h21.77"/><path class="cls-4" d="m397.78,154.62h42.49"/><path class="cls-4" d="m397.78,157.55h42.49"/><path class="cls-4" d="m397.78,160.49h42.49"/><path class="cls-4" d="m397.78,163.42h42.49"/><path class="cls-4" d="m397.78,166.35h42.49"/><path class="cls-4" d="m397.78,169.28h42.49"/><path class="cls-4" d="m397.78,172.22h42.49"/><path class="cls-4" d="m397.78,175.15h42.49"/><path class="cls-4" d="m397.78,182.06h21.77"/><path class="cls-4" d="m397.78,184.99h21.77"/><path class="cls-4" d="m397.78,187.92h42.49"/><path class="cls-4" d="m397.78,190.85h42.49"/><path class="cls-4" d="m397.78,193.79h42.49"/><path class="cls-4" d="m397.78,196.72h42.49"/><path class="cls-4" d="m397.78,199.65h42.49"/><path class="cls-4" d="m397.78,202.59h42.49"/><path class="cls-4" d="m397.78,205.52h42.49"/><path class="cls-4" d="m397.78,208.45h42.49"/><path class="cls-21" d="m341.1,267.68s6.71.4,8.29,0c1.58-.39,4.73-2.96,5.13-.98.4,1.97-1.77,4.74-3.16,6.32-1.38,1.58-6.9,2.96-8.48,3.75-1.58.79-3.94,2.76-5.92,2.76s-3.16-6.51-3.16-6.51c0,0,5.92-3.55,7.5-6.12"/><path class="cls-4" d="m341.1,267.68s6.71.4,8.29,0c1.58-.39,4.73-2.96,5.13-.98.4,1.97-1.77,4.74-3.16,6.32-1.38,1.58-6.9,2.96-8.48,3.75-1.58.79-3.94,2.76-5.92,2.76s-3.16-6.51-3.16-6.51c0,0,5.92-3.55,7.5-6.12"/><path class="cls-12" d="m354.01,266.01c-4.02,7.42-10.62,8.68-10.62,8.68l-8.39,2.79c.49,1.09,1.1,1.94,1.81,1.94,1.97,0,4.34-1.97,5.92-2.76s7.1-2.17,8.48-3.75c1.38-1.58,3.55-4.34,3.16-6.32-.06-.29-.18-.48-.35-.6h0Z"/><path class="cls-12" d="m269.99,262.67s-5.14,5.83-5.57,7.55c-.41,1.63,3.51,4,4.53,4.71,2.58,1.82,5.67,3.32,8.65,4.35,1.09.38,6.44,1.64,5.74-1.01-.52-1.96-4.63-4.22-5.15-5.38-.52-1.15-1.38-3.4-1.38-3.4l-6.82-6.82h0Z"/><path class="cls-12" d="m268.95,274.93c2.58,1.82,5.67,3.32,8.65,4.35.95.33,5.1,1.32,5.72-.16-1.9-.11-5.49-.7-10.1-3.34-4.41-2.53-7.23-4.64-8.7-5.87-.04.11-.09.21-.11.3-.41,1.63,3.51,4,4.53,4.71h0Z"/><path class="cls-11" d="m283.87,189.6l2.17,15.79,1.81,33.28s-5.52,5.33-8.68,8.88c-3.16,3.55-10.33,15.94-10.33,15.94,0,0,.57,3.1,4.1,5.22,3.53,2.12,5.45,1.79,5.45,1.79l2.55-4.44.91-2.01s20.59-19.85,20.99-22.41c.39-2.56,2.44-30.35,2.44-30.35l16.09,23.64s1.97,15.59,3.55,19.34c1.58,3.75,8.08,15.99,8.08,15.99l.79,2.76s2.76.98,4.93-.98c2.17-1.97,3.56-4.26,3.56-4.26l-2.18-2.65-.39-1.77s-5.32-31.77-6.51-35.52c-1.18-3.75-15.61-36.24-15.61-36.24l-3.16-8.69s-2.96,1.97-12.03,4.74c-9.07,2.76-18.54,1.97-18.54,1.97v-.02Z"/><path class="cls-15" d="m303.98,192.96c6.61-3.02,9.74-6.04,11.2-8.01l-.74-2.06s-2.96,1.97-12.03,4.74c-8.11,2.47-16.53,2.1-18.22,1.99-.1.01-.2.03-.31.04l.58,4.22c2.42.95,10.23,3.32,19.53-.93h0Z"/><path class="cls-15" d="m280.42,143.47l-15.53,11.54,17.6,33.01s.15,1.77,1.77,3.11c1.63,1.34,12.27,1.03,16.12-.15,3.85-1.18,9.76-4.14,11.39-5.18,1.63-1.03,3.85-3.26,3.26-5.18-.59-1.92-1.63-3.55-1.63-3.55l-3.11-9.03s12.27.74,13.9.74,7.24-14.21,7.24-14.21c0,0-1.63-.15-2.22-1.18-.59-1.03-.89-2.22-.89-2.22,0,0-2.22,1.33-5.32,2.66-3.11,1.33-6.36,1.63-7.69,1.03-1.33-.59-9.17-7.7-10.95-9.91-1.77-2.22-2.07-3.11-2.66-3.11s-11.53.74-12.87.74-8.43.89-8.43.89h0Z"/><path class="cls-15" d="m329.23,153.39c-.51-.9-.8-1.91-.87-2.16l-.46.53s-2.37,1.77-1.77,4.29c.37,1.57,2.19,2.11,3.79,2.24.9-2.12,1.53-3.73,1.53-3.73,0,0-1.63-.15-2.22-1.18h0Z"/><path class="cls-4" d="m304.14,150.34l-.79-2.29"/><path class="cls-4" d="m310.3,168.04l-5.46-15.69"/><path class="cls-11" d="m280.56,200.07c-3.63-3-4.05-8.41-.95-11.94l60.64-69.63,9.27,7.68-57.07,72.6c-2.89,3.72-8.28,4.31-11.9,1.3h0Z"/><path class="cls-12" d="m324.13,137.01l-44.51,51.1c-3.11,3.54-2.68,8.94.95,11.95s9.01,2.41,11.9-1.3l42.1-53.56-10.44-8.19h0Z"/><path class="cls-11" d="m390.85,66.8c-16.28-13.49-40.39-11.22-53.87,5.07-13.48,16.29-11.21,40.42,5.07,53.91,16.27,13.49,40.39,11.22,53.87-5.07,13.48-16.29,11.21-40.42-5.07-53.91Zm-45.28,54.72c-13.93-11.54-15.87-32.19-4.33-46.12,11.53-13.94,32.17-15.88,46.09-4.34,13.93,11.54,15.87,32.19,4.33,46.12-11.53,13.94-32.17,15.88-46.09,4.34Z"/><path class="cls-12" d="m331.45,154.57l5.62-8.88s2.07-4,2.66-4.74c.59-.74,2.96-1.63,1.03-1.63s-2.52,1.18-2.52,1.18v-3.13c0-.89,0-3.09-1.18-2.94-1.18.15-.76,1.86-.98,3.57-.1.74-.94,4.12-.94,4.12l-1.27-4.98c-.12-.5-.6-.85-1.1-.78-.24.04-.43.15-.43.43,0,.74.74,4,.74,4l-.46,2.48s-.61-3.92-1.53-4.96c-.41-.46-1.11.39-.81,1.13.3.74.43,4.9.43,4.9l-.15,1.77s-1.03-1.77-1.63-2.66c-.59-.89-1.48-.44-1.03.89.44,1.34,1.48,3.55,1.48,3.55l-1.03,3.26s-1.63,5.03,3.11,3.4Z"/><path class="cls-4" d="m338.25,140.51l-1.04,2.96"/><path class="cls-19" d="m267.68,153.2s-3.53.93-3.53,2.41,0,32.27-.15,33.3c-.15,1.03,32.24-3.55,32.24-3.55l.74-5.03-19.82-4-.15-14.21"/><path class="cls-4" d="m267.68,153.2s-3.53.93-3.53,2.41,0,32.27-.15,33.3c-.15,1.03,32.24-3.55,32.24-3.55l.74-5.03-19.82-4-.15-14.21"/><path class="cls-15" d="m293.73,179.67l-.14,5.98s.04.02.1.06c1.6-.22,2.56-.36,2.56-.36l.74-5.03-3.26-.66Z"/><path class="cls-12" d="m296.98,180.32s4.14-5.33,5.92-5.33,4.44.15,5.03.15,1.92-.29,1.18.74c-.74,1.03-3.26.89-3.26.89l3.29,1.8c.96.53,1.2,1.84.43,2.62,0,0-.01.01-.02.02-.74.74-2.66.74-2.66.74,0,0-2.07,3.4-3.4,3.7-1.33.29-6.95-1.03-6.95-1.03l.45-4.29h0Z"/><path class="cls-15" d="m293.51,153.18l.38-9.7-3.78-1.26.63,3.9,2.77,7.06Z"/><path class="cls-15" d="m293.9,143.48l2.77,5.67-2.89-.26.12-5.41Z"/><path class="cls-12" d="m295.66,136.05c-1.26.38-4.28,7.68-4.28,7.68l2.14,9.44-3.39-4.78-.93-4.61-8.01-3.33.12-5.3s-.93-.48-2.09-1.33c-1.21-.88-2.67-2.16-3.58-3.71-1.77-3.02-4.28-7.68-.38-12.72,3.77-4.86,7.65-5.15,11.87-5.39.16,0,.31-.02.46-.03,0,0,4.91,3.03,5.04,4.54.12,1.51.76,3.65,2.14,4.54s3.27-.13,3.27,1.76-1.52,3.15-1.52,3.15c0,0,1.26,5.8,1.89,7.68.63,1.89-1.51,2.01-2.76,2.39h0Z"/><path class="cls-20" d="m291.92,121.23c.33.5.4,1.02.16,1.17-.23.15-.68-.13-1.01-.62-.33-.5-.4-1.02-.16-1.17.23-.15.68.13,1.01.62Z"/><path class="cls-4" d="m288.99,120.94s.12-2.14,2.14-2.14"/><path class="cls-4" d="m294.77,128.5s-3.4.76-4.03-1.26"/><path class="cls-14" d="m286.47,116.53c1.13,1.13-3.02,3.9-3.65,5.16-.63,1.26.5,3.27.63,4.15.12.88-2.89,3.4-2.89,3.4l-1.13,1.14.88,3.52s-.4,0-1.08-.06c-1.21-.88-2.67-2.16-3.58-3.71-1.77-3.02-4.28-7.68-.38-12.72,3.77-4.86,7.65-5.15,11.87-5.4-.73.5-1.66.71-2.18,1.23-.75.75.38,2.14,1.51,3.27h0Z"/><path class="cls-21" d="m282.07,129.76s-1.88-2.9-4.15-1.26c-2.27,1.64,1.89,5.42,2.64,6.05.75.63,3.14-1.76,3.14-1.76,0,0,1.26,2.02,3.78,2.39"/><path class="cls-4" d="m282.07,129.76s-1.88-2.9-4.15-1.26c-2.27,1.64,1.89,5.42,2.64,6.05.75.63,3.14-1.76,3.14-1.76,0,0,1.26,2.02,3.78,2.39"/><path class="cls-11" d="m284.33,114.26s-5.41,6.05-6.8,8.82-2.39,6.05-2.39,6.05c0,0-2.77-.25-4.4-2.02-1.64-1.76.12-8.69,3.27-12.09,3.14-3.4,6.8-5.16,6.8-5.16,0,0-4.03.13-2.52-1.01,1.51-1.13,5.29-1.64,7.8-.38,2.52,1.26,1.51,3.53,1.51,3.53l-3.27,2.27h0Z"/><path class="cls-15" d="m280.43,139.7l-2.59,5.51,10.14,5.83,1.72-7.62-9.27-3.72Z"/></g></g></svg>