<?xml version="1.0" encoding="UTF-8"?><svg id="_레이어_1" xmlns="http://www.w3.org/2000/svg" xmlns:xlink="http://www.w3.org/1999/xlink" viewBox="0 0 572 280"><defs><style>.cls-1{stroke-width:1.51px;}.cls-1,.cls-2,.cls-3,.cls-4,.cls-5,.cls-6,.cls-7,.cls-8{fill:none;}.cls-1,.cls-2,.cls-9,.cls-4,.cls-6,.cls-10,.cls-11,.cls-12,.cls-13,.cls-14,.cls-7{stroke:#333;}.cls-1,.cls-2,.cls-13{stroke-miterlimit:10;}.cls-2,.cls-10,.cls-15,.cls-11,.cls-12,.cls-13,.cls-14,.cls-7,.cls-8{stroke-width:1.09px;}.cls-16{clip-path:url(#clippath);}.cls-3,.cls-17,.cls-18,.cls-19,.cls-20,.cls-21{stroke-width:0px;}.cls-9,.cls-4,.cls-5{stroke-width:1.01px;}.cls-9,.cls-4,.cls-5,.cls-6,.cls-10,.cls-15,.cls-11,.cls-12,.cls-14,.cls-7,.cls-8{stroke-linecap:round;stroke-linejoin:round;}.cls-9,.cls-15,.cls-11,.cls-20{fill:#333;}.cls-17{fill:rgba(255,255,255,.3);isolation:isolate;opacity:.7;}.cls-22{clip-path:url(#clippath-1);}.cls-5{stroke:#fff;}.cls-18{fill:url(#_무제_그라디언트);}.cls-6{stroke-width:2.17px;}.cls-23{opacity:.38;}.cls-24{opacity:.6;}.cls-25{opacity:.5;}.cls-10{fill:#7d7d7d;}.cls-15,.cls-8{stroke:#676f74;}.cls-12,.cls-19{fill:#25387f;}.cls-13,.cls-14,.cls-21{fill:#fff;}</style><clipPath id="clippath"><rect class="cls-3" width="572" height="280"/></clipPath><linearGradient id="_무제_그라디언트" x1="476.48" y1="-304.66" x2="283.09" y2="-691.03" gradientTransform="translate(0 -280) scale(1 -1)" gradientUnits="userSpaceOnUse"><stop offset="0" stop-color="#a6c1ee"/><stop offset="1" stop-color="#fbc2eb" stop-opacity="0"/></linearGradient><clipPath id="clippath-1"><rect class="cls-3" x="117" y="45" width="397" height="235"/></clipPath></defs><g class="cls-16"><rect class="cls-3" width="572" height="280"/><g class="cls-24"><path class="cls-18" d="m607.42,255.57c.35-37.38-8.21-75.15-15.37-112.22-10.54-54.47-80.01-122.35-161.96-125.53-81.96-3.18-100.2,49.18-140.58,78.16-40.36,28.99-119.33,37.7-148.15,73.42-44.38,55-55.89,103.44,6.88,167.09,47.63,48.3,128.29,42.47,189.03,61.51,40.29,12.63,78.77,37.65,121.71,41.36,52.78,4.57,94.44-41.44,118.59-80.97,10.93-17.89,19.28-37.38,24.38-57.77,3.72-14.91,5.33-29.95,5.47-45.05Z"/><path class="cls-17" d="m607.42,255.57c.35-37.38-8.21-75.15-15.37-112.22-10.54-54.47-80.01-122.35-161.96-125.53-81.96-3.18-100.2,49.18-140.58,78.16-40.36,28.99-119.33,37.7-148.15,73.42-44.38,55-55.89,103.44,6.88,167.09,47.63,48.3,128.29,42.47,189.03,61.51,40.29,12.63,78.77,37.65,121.71,41.36,52.78,4.57,94.44-41.44,118.59-80.97,10.93-17.89,19.28-37.38,24.38-57.77,3.72-14.91,5.33-29.95,5.47-45.05Z"/></g><g class="cls-22"><path class="cls-8" d="m457.66,60.24h-118.43v218.92h118.43V60.24Z"/><path class="cls-8" d="m440.95,63.01h-99.26v212.82h99.26V63.01Z"/><path class="cls-8" d="m440.95,96.02h-99.26v3.14h99.26v-3.14Z"/><path class="cls-8" d="m440.95,132.3h-99.26v3.14h99.26v-3.14Z"/><path class="cls-8" d="m408.96,63.04h-2.11v32.96h2.11v-32.96Z"/><path class="cls-8" d="m375.22,63.04h-2.11v32.96h2.11v-32.96Z"/><path class="cls-8" d="m408.96,135.47h-2.11v32.96h2.11v-32.96Z"/><path class="cls-8" d="m375.22,135.47h-2.11v32.96h2.11v-32.96Z"/><path class="cls-8" d="m391.93,99.33h-2.11v32.96h2.11v-32.96Z"/><path class="cls-8" d="m440.95,168.44h-99.26v3.14h99.26v-3.14Z"/><path class="cls-8" d="m440.95,204.6h-99.26v3.14h99.26v-3.14Z"/><path class="cls-8" d="m408.96,207.78h-2.11v32.96h2.11v-32.96Z"/><path class="cls-8" d="m375.22,207.78h-2.11v32.96h2.11v-32.96Z"/><path class="cls-8" d="m391.93,171.64h-2.11v32.96h2.11v-32.96Z"/><path class="cls-8" d="m440.95,240.74h-99.26v3.14h99.26v-3.14Z"/><path class="cls-8" d="m394.15,168.31h-15.51v3.04h15.51v-3.04Z"/><path class="cls-8" d="m434.61,168.31h-15.51v3.04h15.51v-3.04Z"/><path class="cls-15" d="m443.38,60.22v218.89l14.28.05V60.22h-14.28Z"/><path class="cls-8" d="m415.52,65.6h-5.1v30.33h5.1v-30.33Z"/><path class="cls-8" d="m415.52,89.42h-5.1v2.49h5.1v-2.49Z"/><path class="cls-8" d="m415.52,68.68h-5.1v2.49h5.1v-2.49Z"/><path class="cls-8" d="m420.74,65.6h-5.1v30.33h5.1v-30.33Z"/><path class="cls-8" d="m420.74,89.42h-5.1v2.49h5.1v-2.49Z"/><path class="cls-8" d="m420.74,68.68h-5.1v2.49h5.1v-2.49Z"/><path class="cls-8" d="m425.95,65.6h-5.1v30.33h5.1v-30.33Z"/><path class="cls-8" d="m425.95,89.42h-5.1v2.49h5.1v-2.49Z"/><path class="cls-8" d="m425.95,68.68h-5.1v2.49h5.1v-2.49Z"/><path class="cls-8" d="m431.17,65.6h-5.1v30.33h5.1v-30.33Z"/><path class="cls-8" d="m439.65,65.6h-8.54v30.33h8.54v-30.33Z"/><path class="cls-8" d="m431.17,89.42h-5.1v2.49h5.1v-2.49Z"/><path class="cls-8" d="m431.17,68.68h-5.1v2.49h5.1v-2.49Z"/><path class="cls-8" d="m381.43,65.6h-5.1v30.33h5.1v-30.33Z"/><path class="cls-8" d="m381.43,89.42h-5.1v2.49h5.1v-2.49Z"/><path class="cls-8" d="m381.43,68.68h-5.1v2.49h5.1v-2.49Z"/><path class="cls-8" d="m386.64,65.6h-5.1v30.33h5.1v-30.33Z"/><path class="cls-8" d="m386.64,89.42h-5.1v2.49h5.1v-2.49Z"/><path class="cls-8" d="m386.64,68.68h-5.1v2.49h5.1v-2.49Z"/><path class="cls-8" d="m391.86,65.6h-5.1v30.33h5.1v-30.33Z"/><path class="cls-8" d="m391.86,89.42h-5.1v2.49h5.1v-2.49Z"/><path class="cls-8" d="m391.86,68.68h-5.1v2.49h5.1v-2.49Z"/><path class="cls-8" d="m397.08,65.6h-5.1v30.33h5.1v-30.33Z"/><path class="cls-8" d="m405.56,65.6h-8.54v30.33h8.54v-30.33Z"/><path class="cls-8" d="m397.08,89.42h-5.1v2.49h5.1v-2.49Z"/><path class="cls-8" d="m397.08,68.68h-5.1v2.49h5.1v-2.49Z"/><path class="cls-8" d="m381.43,138.15h-5.1v30.33h5.1v-30.33Z"/><path class="cls-8" d="m381.43,161.96h-5.1v2.49h5.1v-2.49Z"/><path class="cls-8" d="m381.43,141.23h-5.1v2.49h5.1v-2.49Z"/><path class="cls-8" d="m386.64,138.15h-5.1v30.33h5.1v-30.33Z"/><path class="cls-8" d="m386.64,161.96h-5.1v2.49h5.1v-2.49Z"/><path class="cls-8" d="m386.64,141.23h-5.1v2.49h5.1v-2.49Z"/><path class="cls-8" d="m391.86,138.15h-5.1v30.33h5.1v-30.33Z"/><path class="cls-8" d="m391.86,161.96h-5.1v2.49h5.1v-2.49Z"/><path class="cls-8" d="m391.86,141.23h-5.1v2.49h5.1v-2.49Z"/><path class="cls-8" d="m397.08,138.15h-5.1v30.33h5.1v-30.33Z"/><path class="cls-8" d="m405.56,138.15h-8.54v30.33h8.54v-30.33Z"/><path class="cls-8" d="m397.08,161.96h-5.1v2.49h5.1v-2.49Z"/><path class="cls-8" d="m397.08,141.23h-5.1v2.49h5.1v-2.49Z"/><path class="cls-8" d="m415.09,138.15h-5.1v30.33h5.1v-30.33Z"/><path class="cls-8" d="m415.09,161.96h-5.1v2.49h5.1v-2.49Z"/><path class="cls-8" d="m415.09,141.23h-5.1v2.49h5.1v-2.49Z"/><path class="cls-8" d="m420.3,138.15h-5.1v30.33h5.1v-30.33Z"/><path class="cls-8" d="m420.3,161.96h-5.1v2.49h5.1v-2.49Z"/><path class="cls-8" d="m420.3,141.23h-5.1v2.49h5.1v-2.49Z"/><path class="cls-8" d="m425.52,138.15h-5.1v30.33h5.1v-30.33Z"/><path class="cls-8" d="m425.52,161.96h-5.1v2.49h5.1v-2.49Z"/><path class="cls-8" d="m425.52,141.23h-5.1v2.49h5.1v-2.49Z"/><path class="cls-8" d="m430.73,138.15h-5.1v30.33h5.1v-30.33Z"/><path class="cls-8" d="m439.22,138.15h-8.54v30.33h8.54v-30.33Z"/><path class="cls-8" d="m430.73,161.96h-5.1v2.49h5.1v-2.49Z"/><path class="cls-8" d="m430.73,141.23h-5.1v2.49h5.1v-2.49Z"/><path class="cls-8" d="m347.99,138.15h-5.1v30.33h5.1v-30.33Z"/><path class="cls-8" d="m347.99,161.96h-5.1v2.49h5.1v-2.49Z"/><path class="cls-8" d="m347.99,141.23h-5.1v2.49h5.1v-2.49Z"/><path class="cls-8" d="m353.21,138.15h-5.1v30.33h5.1v-30.33Z"/><path class="cls-8" d="m353.21,161.96h-5.1v2.49h5.1v-2.49Z"/><path class="cls-8" d="m353.21,141.23h-5.1v2.49h5.1v-2.49Z"/><path class="cls-8" d="m358.42,138.15h-5.1v30.33h5.1v-30.33Z"/><path class="cls-8" d="m358.42,161.96h-5.1v2.49h5.1v-2.49Z"/><path class="cls-8" d="m358.42,141.23h-5.1v2.49h5.1v-2.49Z"/><path class="cls-8" d="m363.64,138.15h-5.1v30.33h5.1v-30.33Z"/><path class="cls-8" d="m372.12,138.15h-8.54v30.33h8.54v-30.33Z"/><path class="cls-8" d="m363.64,161.96h-5.1v2.49h5.1v-2.49Z"/><path class="cls-8" d="m363.64,141.23h-5.1v2.49h5.1v-2.49Z"/><path class="cls-8" d="m381.43,210.3h-5.1v30.33h5.1v-30.33Z"/><path class="cls-8" d="m381.43,234.12h-5.1v2.49h5.1v-2.49Z"/><path class="cls-8" d="m381.43,213.38h-5.1v2.49h5.1v-2.49Z"/><path class="cls-8" d="m386.64,210.3h-5.1v30.33h5.1v-30.33Z"/><path class="cls-8" d="m386.64,234.12h-5.1v2.49h5.1v-2.49Z"/><path class="cls-8" d="m386.64,213.38h-5.1v2.49h5.1v-2.49Z"/><path class="cls-8" d="m391.86,210.3h-5.1v30.33h5.1v-30.33Z"/><path class="cls-8" d="m391.86,234.12h-5.1v2.49h5.1v-2.49Z"/><path class="cls-8" d="m391.86,213.38h-5.1v2.49h5.1v-2.49Z"/><path class="cls-8" d="m397.08,210.3h-5.1v30.33h5.1v-30.33Z"/><path class="cls-8" d="m405.56,210.3h-8.54v30.33h8.54v-30.33Z"/><path class="cls-8" d="m397.08,234.12h-5.1v2.49h5.1v-2.49Z"/><path class="cls-8" d="m397.08,213.38h-5.1v2.49h5.1v-2.49Z"/><path class="cls-8" d="m415.09,210.3h-5.1v30.33h5.1v-30.33Z"/><path class="cls-8" d="m415.09,234.12h-5.1v2.49h5.1v-2.49Z"/><path class="cls-8" d="m415.09,213.38h-5.1v2.49h5.1v-2.49Z"/><path class="cls-8" d="m420.3,210.3h-5.1v30.33h5.1v-30.33Z"/><path class="cls-8" d="m420.3,234.12h-5.1v2.49h5.1v-2.49Z"/><path class="cls-8" d="m420.3,213.38h-5.1v2.49h5.1v-2.49Z"/><path class="cls-8" d="m425.52,210.3h-5.1v30.33h5.1v-30.33Z"/><path class="cls-8" d="m425.52,234.12h-5.1v2.49h5.1v-2.49Z"/><path class="cls-8" d="m425.52,213.38h-5.1v2.49h5.1v-2.49Z"/><path class="cls-8" d="m430.73,210.3h-5.1v30.33h5.1v-30.33Z"/><path class="cls-8" d="m439.22,210.3h-8.54v30.33h8.54v-30.33Z"/><path class="cls-8" d="m430.73,234.12h-5.1v2.49h5.1v-2.49Z"/><path class="cls-8" d="m430.73,213.38h-5.1v2.49h5.1v-2.49Z"/><path class="cls-8" d="m347.99,210.3h-5.1v30.33h5.1v-30.33Z"/><path class="cls-8" d="m347.99,234.12h-5.1v2.49h5.1v-2.49Z"/><path class="cls-8" d="m347.99,213.38h-5.1v2.49h5.1v-2.49Z"/><path class="cls-8" d="m353.21,210.3h-5.1v30.33h5.1v-30.33Z"/><path class="cls-8" d="m353.21,234.12h-5.1v2.49h5.1v-2.49Z"/><path class="cls-8" d="m353.21,213.38h-5.1v2.49h5.1v-2.49Z"/><path class="cls-8" d="m358.42,210.3h-5.1v30.33h5.1v-30.33Z"/><path class="cls-8" d="m358.42,234.12h-5.1v2.49h5.1v-2.49Z"/><path class="cls-8" d="m358.42,213.38h-5.1v2.49h5.1v-2.49Z"/><path class="cls-8" d="m363.64,210.3h-5.1v30.33h5.1v-30.33Z"/><path class="cls-8" d="m372.12,210.3h-8.54v30.33h8.54v-30.33Z"/><path class="cls-8" d="m363.64,234.12h-5.1v2.49h5.1v-2.49Z"/><path class="cls-8" d="m363.64,213.38h-5.1v2.49h5.1v-2.49Z"/><path class="cls-8" d="m347.34,65.6h-5.1v30.33h5.1v-30.33Z"/><path class="cls-8" d="m347.34,89.42h-5.1v2.49h5.1v-2.49Z"/><path class="cls-8" d="m347.34,68.68h-5.1v2.49h5.1v-2.49Z"/><path class="cls-8" d="m352.55,65.6h-5.1v30.33h5.1v-30.33Z"/><path class="cls-8" d="m352.55,89.42h-5.1v2.49h5.1v-2.49Z"/><path class="cls-8" d="m352.55,68.68h-5.1v2.49h5.1v-2.49Z"/><path class="cls-8" d="m357.77,65.6h-5.1v30.33h5.1v-30.33Z"/><path class="cls-8" d="m357.77,89.42h-5.1v2.49h5.1v-2.49Z"/><path class="cls-8" d="m357.77,68.68h-5.1v2.49h5.1v-2.49Z"/><path class="cls-8" d="m362.98,65.6h-5.1v30.33h5.1v-30.33Z"/><path class="cls-8" d="m371.47,65.6h-8.54v30.33h8.54v-30.33Z"/><path class="cls-8" d="m362.98,89.42h-5.1v2.49h5.1v-2.49Z"/><path class="cls-8" d="m362.98,68.68h-5.1v2.49h5.1v-2.49Z"/><path class="cls-8" d="m362.41,101.75h-5.1v30.33h5.1v-30.33Z"/><path class="cls-8" d="m362.41,125.57h-5.1v2.49h5.1v-2.49Z"/><path class="cls-8" d="m362.41,104.83h-5.1v2.49h5.1v-2.49Z"/><path class="cls-8" d="m357.39,101.75h-5.1v30.33h5.1v-30.33Z"/><path class="cls-8" d="m357.39,125.57h-5.1v2.49h5.1v-2.49Z"/><path class="cls-8" d="m357.39,104.83h-5.1v2.49h5.1v-2.49Z"/><path class="cls-8" d="m352.36,101.75h-5.1v30.33h5.1v-30.33Z"/><path class="cls-8" d="m352.36,125.57h-5.1v2.49h5.1v-2.49Z"/><path class="cls-8" d="m352.36,104.83h-5.1v2.49h5.1v-2.49Z"/><path class="cls-8" d="m347.34,101.75h-5.1v30.33h5.1v-30.33Z"/><path class="cls-8" d="m347.34,125.57h-5.1v2.49h5.1v-2.49Z"/><path class="cls-8" d="m347.34,104.83h-5.1v2.49h5.1v-2.49Z"/><path class="cls-8" d="m367.63,101.75h-5.1v30.33h5.1v-30.33Z"/><path class="cls-8" d="m367.63,125.57h-5.1v2.49h5.1v-2.49Z"/><path class="cls-8" d="m367.63,104.83h-5.1v2.49h5.1v-2.49Z"/><path class="cls-8" d="m372.84,101.75h-5.1v30.33h5.1v-30.33Z"/><path class="cls-8" d="m372.84,125.57h-5.1v2.49h5.1v-2.49Z"/><path class="cls-8" d="m372.84,104.83h-5.1v2.49h5.1v-2.49Z"/><path class="cls-8" d="m378.06,101.75h-5.1v30.33h5.1v-30.33Z"/><path class="cls-8" d="m386.54,101.75h-8.54v30.33h8.54v-30.33Z"/><path class="cls-8" d="m378.06,125.57h-5.1v2.49h5.1v-2.49Z"/><path class="cls-8" d="m378.06,104.83h-5.1v2.49h5.1v-2.49Z"/><path class="cls-8" d="m398.65,101.75h-5.1v30.33h5.1v-30.33Z"/><path class="cls-8" d="m398.65,125.57h-5.1v2.49h5.1v-2.49Z"/><path class="cls-8" d="m398.65,104.83h-5.1v2.49h5.1v-2.49Z"/><path class="cls-8" d="m403.87,101.75h-5.1v30.33h5.1v-30.33Z"/><path class="cls-8" d="m403.87,125.57h-5.1v2.49h5.1v-2.49Z"/><path class="cls-8" d="m403.87,104.83h-5.1v2.49h5.1v-2.49Z"/><path class="cls-8" d="m414.31,101.74l-4.75,2.01,11.95,28.29,4.75-2.01-11.95-28.29Z"/><path class="cls-8" d="m423.69,123.96l-4.75,2.01.98,2.32,4.75-2.01-.98-2.32Z"/><path class="cls-8" d="m415.52,104.62l-4.75,2.01.98,2.32,4.75-2.01-.98-2.32Z"/><path class="cls-8" d="m421.5,132.03h10.64l4.78-1.99h-10.67s-4.75,1.99-4.75,1.99Z"/><path class="cls-8" d="m414.3,101.73h9.99l12.63,28.3h-10.67s-11.95-28.3-11.95-28.3Z"/><path class="cls-8" d="m408.89,101.75h-5.1v30.33h5.1v-30.33Z"/><path class="cls-8" d="m408.89,125.57h-5.1v2.49h5.1v-2.49Z"/><path class="cls-8" d="m408.89,104.83h-5.1v2.49h5.1v-2.49Z"/><path class="cls-8" d="m408.89,101.75h5.41l-4.75,1.99,11.94,28.29h-12.6v-30.28Z"/><path class="cls-8" d="m362.41,174.16h-5.1v30.33h5.1v-30.33Z"/><path class="cls-8" d="m362.41,197.97h-5.1v2.49h5.1v-2.49Z"/><path class="cls-8" d="m362.41,177.24h-5.1v2.49h5.1v-2.49Z"/><path class="cls-8" d="m357.39,174.16h-5.1v30.33h5.1v-30.33Z"/><path class="cls-8" d="m357.39,197.97h-5.1v2.49h5.1v-2.49Z"/><path class="cls-8" d="m357.39,177.24h-5.1v2.49h5.1v-2.49Z"/><path class="cls-8" d="m352.36,174.16h-5.1v30.33h5.1v-30.33Z"/><path class="cls-8" d="m352.36,197.97h-5.1v2.49h5.1v-2.49Z"/><path class="cls-8" d="m352.36,177.24h-5.1v2.49h5.1v-2.49Z"/><path class="cls-8" d="m347.34,174.16h-5.1v30.33h5.1v-30.33Z"/><path class="cls-8" d="m347.34,197.97h-5.1v2.49h5.1v-2.49Z"/><path class="cls-8" d="m347.34,177.24h-5.1v2.49h5.1v-2.49Z"/><path class="cls-8" d="m367.63,174.16h-5.1v30.33h5.1v-30.33Z"/><path class="cls-8" d="m367.63,197.97h-5.1v2.49h5.1v-2.49Z"/><path class="cls-8" d="m367.63,177.24h-5.1v2.49h5.1v-2.49Z"/><path class="cls-8" d="m372.84,174.16h-5.1v30.33h5.1v-30.33Z"/><path class="cls-8" d="m372.84,197.97h-5.1v2.49h5.1v-2.49Z"/><path class="cls-8" d="m372.84,177.24h-5.1v2.49h5.1v-2.49Z"/><path class="cls-8" d="m378.06,174.16h-5.1v30.33h5.1v-30.33Z"/><path class="cls-8" d="m386.54,174.16h-8.54v30.33h8.54v-30.33Z"/><path class="cls-8" d="m378.06,197.97h-5.1v2.49h5.1v-2.49Z"/><path class="cls-8" d="m378.06,177.24h-5.1v2.49h5.1v-2.49Z"/><path class="cls-8" d="m398.65,174.16h-5.1v30.33h5.1v-30.33Z"/><path class="cls-8" d="m398.65,197.97h-5.1v2.49h5.1v-2.49Z"/><path class="cls-8" d="m398.65,177.24h-5.1v2.49h5.1v-2.49Z"/><path class="cls-8" d="m403.87,174.16h-5.1v30.33h5.1v-30.33Z"/><path class="cls-8" d="m403.87,197.97h-5.1v2.49h5.1v-2.49Z"/><path class="cls-8" d="m403.87,177.24h-5.1v2.49h5.1v-2.49Z"/><path class="cls-8" d="m414.31,174.15l-4.75,2.01,11.95,28.29,4.75-2.01-11.95-28.29Z"/><path class="cls-8" d="m423.68,196.36l-4.75,2.01.98,2.32,4.75-2.01-.98-2.32Z"/><path class="cls-8" d="m415.52,177.02l-4.75,2.01.98,2.32,4.75-2.01-.98-2.32Z"/><path class="cls-8" d="m421.5,204.44h10.64l4.78-1.99-10.67-.02-4.75,2.01Z"/><path class="cls-8" d="m414.3,174.13h9.99l12.63,28.31-10.67-.02-11.95-28.29Z"/><path class="cls-8" d="m408.89,174.16h-5.1v30.33h5.1v-30.33Z"/><path class="cls-8" d="m408.89,197.97h-5.1v2.49h5.1v-2.49Z"/><path class="cls-8" d="m408.89,177.24h-5.1v2.49h5.1v-2.49Z"/><path class="cls-8" d="m408.89,174.16h5.41l-4.75,1.98,11.94,28.3h-12.6v-30.28Z"/><path class="cls-8" d="m398.65,245.08h-5.1v30.33h5.1v-30.33Z"/><path class="cls-8" d="m398.65,268.9h-5.1v2.49h5.1v-2.49Z"/><path class="cls-8" d="m398.65,248.16h-5.1v2.49h5.1v-2.49Z"/><path class="cls-8" d="m403.87,245.08h-5.1v30.33h5.1v-30.33Z"/><path class="cls-8" d="m403.87,268.9h-5.1v2.49h5.1v-2.49Z"/><path class="cls-8" d="m403.87,248.16h-5.1v2.49h5.1v-2.49Z"/><path class="cls-8" d="m414.3,245.07l-4.75,2.01,11.95,28.29,4.75-2.01-11.95-28.29Z"/><path class="cls-8" d="m423.68,267.28l-4.75,2.01.98,2.32,4.75-2.01-.98-2.32Z"/><path class="cls-8" d="m415.51,247.95l-4.75,2.01.98,2.32,4.75-2.01-.98-2.32Z"/><path class="cls-8" d="m421.5,275.36h10.64l4.78-1.99-10.67-.02-4.75,2.01Z"/><path class="cls-8" d="m414.3,245.06h9.99l12.63,28.31-10.67-.02-11.95-28.29Z"/><path class="cls-8" d="m408.89,245.08h-5.1v30.33h5.1v-30.33Z"/><path class="cls-8" d="m408.89,268.9h-5.1v2.49h5.1v-2.49Z"/><path class="cls-8" d="m408.89,248.16h-5.1v2.49h5.1v-2.49Z"/><path class="cls-8" d="m408.89,245.08h5.41l-4.75,1.98,11.94,28.3h-12.6v-30.28Z"/><path class="cls-8" d="m353.18,245.08h-5.1v30.33h5.1v-30.33Z"/><path class="cls-8" d="m353.18,268.9h-5.1v2.49h5.1v-2.49Z"/><path class="cls-8" d="m353.18,248.16h-5.1v2.49h5.1v-2.49Z"/><path class="cls-8" d="m347.99,245.08h-5.1v30.33h5.1v-30.33Z"/><path class="cls-8" d="m347.99,268.9h-5.1v2.49h5.1v-2.49Z"/><path class="cls-8" d="m347.99,248.16h-5.1v2.49h5.1v-2.49Z"/><path class="cls-8" d="m358.39,245.08h-5.1v30.33h5.1v-30.33Z"/><path class="cls-8" d="m358.39,268.9h-5.1v2.49h5.1v-2.49Z"/><path class="cls-8" d="m358.39,248.16h-5.1v2.49h5.1v-2.49Z"/><path class="cls-8" d="m368.82,245.07l-4.75,2.01,11.95,28.29,4.75-2.01-11.95-28.29Z"/><path class="cls-8" d="m378.21,267.28l-4.75,2.01.98,2.32,4.75-2.01-.98-2.32Z"/><path class="cls-8" d="m370.04,247.94l-4.75,2.01.98,2.32,4.75-2.01-.98-2.32Z"/><path class="cls-8" d="m376.02,275.36h10.64l4.79-1.99-10.67-.02-4.76,2.01Z"/><path class="cls-8" d="m368.83,245.06h9.99l12.63,28.31-10.67-.02-11.95-28.29Z"/><path class="cls-8" d="m363.42,245.08h-5.1v30.33h5.1v-30.33Z"/><path class="cls-8" d="m363.42,268.9h-5.1v2.49h5.1v-2.49Z"/><path class="cls-8" d="m363.42,248.16h-5.1v2.49h5.1v-2.49Z"/><path class="cls-8" d="m363.42,245.08h5.41l-4.76,1.98,11.95,28.3h-12.6v-30.28Z"/><path class="cls-8" d="m337.61,60.24h-110.26v218.92h110.26V60.24Z"/><path class="cls-8" d="m329.07,63.01h-99.27v212.82h99.27V63.01Z"/><path class="cls-8" d="m329.07,96.02h-99.27v3.14h99.27v-3.14Z"/><path class="cls-8" d="m329.07,132.3h-99.27v3.14h99.27v-3.14Z"/><path class="cls-8" d="m297.09,63.04h-2.11v32.96h2.11v-32.96Z"/><path class="cls-8" d="m263.35,63.04h-2.11v32.96h2.11v-32.96Z"/><path class="cls-8" d="m297.09,135.47h-2.11v32.96h2.11v-32.96Z"/><path class="cls-8" d="m263.35,135.47h-2.11v32.96h2.11v-32.96Z"/><path class="cls-8" d="m280.05,99.33h-2.11v32.96h2.11v-32.96Z"/><path class="cls-8" d="m329.07,168.44h-99.27v3.14h99.27v-3.14Z"/><path class="cls-8" d="m329.07,204.6h-99.27v3.14h99.27v-3.14Z"/><path class="cls-8" d="m297.09,207.78h-2.11v32.96h2.11v-32.96Z"/><path class="cls-8" d="m263.35,207.78h-2.11v32.96h2.11v-32.96Z"/><path class="cls-8" d="m280.05,171.64h-2.11v32.96h2.11v-32.96Z"/><path class="cls-8" d="m329.07,240.74h-99.27v3.14h99.27v-3.14Z"/><path class="cls-8" d="m282.28,168.31h-15.51v3.04h15.51v-3.04Z"/><path class="cls-8" d="m322.73,168.31h-15.51v3.04h15.51v-3.04Z"/><path class="cls-15" d="m331.5,60.22v218.89l5.96.05V60.22h-5.96Z"/><path class="cls-8" d="m303.65,65.6h-5.1v30.33h5.1v-30.33Z"/><path class="cls-8" d="m303.65,89.42h-5.1v2.49h5.1v-2.49Z"/><path class="cls-8" d="m303.65,68.68h-5.1v2.49h5.1v-2.49Z"/><path class="cls-8" d="m308.86,65.6h-5.1v30.33h5.1v-30.33Z"/><path class="cls-8" d="m308.86,89.42h-5.1v2.49h5.1v-2.49Z"/><path class="cls-8" d="m308.86,68.68h-5.1v2.49h5.1v-2.49Z"/><path class="cls-8" d="m314.08,65.6h-5.1v30.33h5.1v-30.33Z"/><path class="cls-8" d="m314.08,89.42h-5.1v2.49h5.1v-2.49Z"/><path class="cls-8" d="m314.08,68.68h-5.1v2.49h5.1v-2.49Z"/><path class="cls-8" d="m319.29,65.6h-5.1v30.33h5.1v-30.33Z"/><path class="cls-8" d="m327.78,65.6h-8.54v30.33h8.54v-30.33Z"/><path class="cls-8" d="m319.29,89.42h-5.1v2.49h5.1v-2.49Z"/><path class="cls-8" d="m319.29,68.68h-5.1v2.49h5.1v-2.49Z"/><path class="cls-8" d="m269.55,65.6h-5.1v30.33h5.1v-30.33Z"/><path class="cls-8" d="m269.55,89.42h-5.1v2.49h5.1v-2.49Z"/><path class="cls-8" d="m269.55,68.68h-5.1v2.49h5.1v-2.49Z"/><path class="cls-8" d="m274.77,65.6h-5.1v30.33h5.1v-30.33Z"/><path class="cls-8" d="m274.77,89.42h-5.1v2.49h5.1v-2.49Z"/><path class="cls-8" d="m274.77,68.68h-5.1v2.49h5.1v-2.49Z"/><path class="cls-8" d="m279.98,65.6h-5.1v30.33h5.1v-30.33Z"/><path class="cls-8" d="m279.98,89.42h-5.1v2.49h5.1v-2.49Z"/><path class="cls-8" d="m279.98,68.68h-5.1v2.49h5.1v-2.49Z"/><path class="cls-8" d="m285.2,65.6h-5.1v30.33h5.1v-30.33Z"/><path class="cls-8" d="m293.68,65.6h-8.54v30.33h8.54v-30.33Z"/><path class="cls-8" d="m285.2,89.42h-5.1v2.49h5.1v-2.49Z"/><path class="cls-8" d="m285.2,68.68h-5.1v2.49h5.1v-2.49Z"/><path class="cls-8" d="m269.55,138.15h-5.1v30.33h5.1v-30.33Z"/><path class="cls-8" d="m269.55,161.96h-5.1v2.49h5.1v-2.49Z"/><path class="cls-8" d="m269.55,141.23h-5.1v2.49h5.1v-2.49Z"/><path class="cls-8" d="m274.77,138.15h-5.1v30.33h5.1v-30.33Z"/><path class="cls-8" d="m274.77,161.96h-5.1v2.49h5.1v-2.49Z"/><path class="cls-8" d="m274.77,141.23h-5.1v2.49h5.1v-2.49Z"/><path class="cls-8" d="m279.98,138.15h-5.1v30.33h5.1v-30.33Z"/><path class="cls-8" d="m279.98,161.96h-5.1v2.49h5.1v-2.49Z"/><path class="cls-8" d="m279.98,141.23h-5.1v2.49h5.1v-2.49Z"/><path class="cls-8" d="m285.2,138.15h-5.1v30.33h5.1v-30.33Z"/><path class="cls-8" d="m293.68,138.15h-8.54v30.33h8.54v-30.33Z"/><path class="cls-8" d="m285.2,161.96h-5.1v2.49h5.1v-2.49Z"/><path class="cls-8" d="m285.2,141.23h-5.1v2.49h5.1v-2.49Z"/><path class="cls-8" d="m303.21,138.15h-5.1v30.33h5.1v-30.33Z"/><path class="cls-8" d="m303.21,161.96h-5.1v2.49h5.1v-2.49Z"/><path class="cls-8" d="m303.21,141.23h-5.1v2.49h5.1v-2.49Z"/><path class="cls-8" d="m308.42,138.15h-5.1v30.33h5.1v-30.33Z"/><path class="cls-8" d="m308.42,161.96h-5.1v2.49h5.1v-2.49Z"/><path class="cls-8" d="m308.42,141.23h-5.1v2.49h5.1v-2.49Z"/><path class="cls-8" d="m313.64,138.15h-5.1v30.33h5.1v-30.33Z"/><path class="cls-8" d="m313.64,161.96h-5.1v2.49h5.1v-2.49Z"/><path class="cls-8" d="m313.64,141.23h-5.1v2.49h5.1v-2.49Z"/><path class="cls-8" d="m318.85,138.15h-5.1v30.33h5.1v-30.33Z"/><path class="cls-8" d="m327.34,138.15h-8.54v30.33h8.54v-30.33Z"/><path class="cls-8" d="m318.85,161.96h-5.1v2.49h5.1v-2.49Z"/><path class="cls-8" d="m318.85,141.23h-5.1v2.49h5.1v-2.49Z"/><path class="cls-8" d="m236.11,138.15h-5.1v30.33h5.1v-30.33Z"/><path class="cls-8" d="m236.11,161.96h-5.1v2.49h5.1v-2.49Z"/><path class="cls-8" d="m236.11,141.23h-5.1v2.49h5.1v-2.49Z"/><path class="cls-8" d="m241.33,138.15h-5.1v30.33h5.1v-30.33Z"/><path class="cls-8" d="m241.33,161.96h-5.1v2.49h5.1v-2.49Z"/><path class="cls-8" d="m241.33,141.23h-5.1v2.49h5.1v-2.49Z"/><path class="cls-8" d="m246.54,138.15h-5.1v30.33h5.1v-30.33Z"/><path class="cls-8" d="m246.54,161.96h-5.1v2.49h5.1v-2.49Z"/><path class="cls-8" d="m246.54,141.23h-5.1v2.49h5.1v-2.49Z"/><path class="cls-8" d="m251.76,138.15h-5.1v30.33h5.1v-30.33Z"/><path class="cls-8" d="m260.25,138.15h-8.54v30.33h8.54v-30.33Z"/><path class="cls-8" d="m251.76,161.96h-5.1v2.49h5.1v-2.49Z"/><path class="cls-8" d="m251.76,141.23h-5.1v2.49h5.1v-2.49Z"/><path class="cls-8" d="m269.55,210.3h-5.1v30.33h5.1v-30.33Z"/><path class="cls-8" d="m269.55,234.12h-5.1v2.49h5.1v-2.49Z"/><path class="cls-8" d="m269.55,213.38h-5.1v2.49h5.1v-2.49Z"/><path class="cls-8" d="m274.77,210.3h-5.1v30.33h5.1v-30.33Z"/><path class="cls-8" d="m274.77,234.12h-5.1v2.49h5.1v-2.49Z"/><path class="cls-8" d="m274.77,213.38h-5.1v2.49h5.1v-2.49Z"/><path class="cls-8" d="m279.98,210.3h-5.1v30.33h5.1v-30.33Z"/><path class="cls-8" d="m279.98,234.12h-5.1v2.49h5.1v-2.49Z"/><path class="cls-8" d="m279.98,213.38h-5.1v2.49h5.1v-2.49Z"/><path class="cls-8" d="m285.2,210.3h-5.1v30.33h5.1v-30.33Z"/><path class="cls-8" d="m293.68,210.3h-8.54v30.33h8.54v-30.33Z"/><path class="cls-8" d="m285.2,234.12h-5.1v2.49h5.1v-2.49Z"/><path class="cls-8" d="m285.2,213.38h-5.1v2.49h5.1v-2.49Z"/><path class="cls-8" d="m303.21,210.3h-5.1v30.33h5.1v-30.33Z"/><path class="cls-8" d="m303.21,234.12h-5.1v2.49h5.1v-2.49Z"/><path class="cls-8" d="m303.21,213.38h-5.1v2.49h5.1v-2.49Z"/><path class="cls-8" d="m308.42,210.3h-5.1v30.33h5.1v-30.33Z"/><path class="cls-8" d="m308.42,234.12h-5.1v2.49h5.1v-2.49Z"/><path class="cls-8" d="m308.42,213.38h-5.1v2.49h5.1v-2.49Z"/><path class="cls-8" d="m313.64,210.3h-5.1v30.33h5.1v-30.33Z"/><path class="cls-8" d="m313.64,234.12h-5.1v2.49h5.1v-2.49Z"/><path class="cls-8" d="m313.64,213.38h-5.1v2.49h5.1v-2.49Z"/><path class="cls-8" d="m318.85,210.3h-5.1v30.33h5.1v-30.33Z"/><path class="cls-8" d="m327.34,210.3h-8.54v30.33h8.54v-30.33Z"/><path class="cls-8" d="m318.85,234.12h-5.1v2.49h5.1v-2.49Z"/><path class="cls-8" d="m318.85,213.38h-5.1v2.49h5.1v-2.49Z"/><path class="cls-8" d="m236.11,210.3h-5.1v30.33h5.1v-30.33Z"/><path class="cls-8" d="m236.11,234.12h-5.1v2.49h5.1v-2.49Z"/><path class="cls-8" d="m236.11,213.38h-5.1v2.49h5.1v-2.49Z"/><path class="cls-8" d="m241.33,210.3h-5.1v30.33h5.1v-30.33Z"/><path class="cls-8" d="m241.33,234.12h-5.1v2.49h5.1v-2.49Z"/><path class="cls-8" d="m241.33,213.38h-5.1v2.49h5.1v-2.49Z"/><path class="cls-8" d="m246.54,210.3h-5.1v30.33h5.1v-30.33Z"/><path class="cls-8" d="m246.54,234.12h-5.1v2.49h5.1v-2.49Z"/><path class="cls-8" d="m246.54,213.38h-5.1v2.49h5.1v-2.49Z"/><path class="cls-8" d="m251.76,210.3h-5.1v30.33h5.1v-30.33Z"/><path class="cls-8" d="m260.25,210.3h-8.54v30.33h8.54v-30.33Z"/><path class="cls-8" d="m251.76,234.12h-5.1v2.49h5.1v-2.49Z"/><path class="cls-8" d="m251.76,213.38h-5.1v2.49h5.1v-2.49Z"/><path class="cls-8" d="m235.46,65.6h-5.1v30.33h5.1v-30.33Z"/><path class="cls-8" d="m235.46,89.42h-5.1v2.49h5.1v-2.49Z"/><path class="cls-8" d="m235.46,68.68h-5.1v2.49h5.1v-2.49Z"/><path class="cls-8" d="m240.67,65.6h-5.1v30.33h5.1v-30.33Z"/><path class="cls-8" d="m240.67,89.42h-5.1v2.49h5.1v-2.49Z"/><path class="cls-8" d="m240.67,68.68h-5.1v2.49h5.1v-2.49Z"/><path class="cls-8" d="m245.89,65.6h-5.1v30.33h5.1v-30.33Z"/><path class="cls-8" d="m245.89,89.42h-5.1v2.49h5.1v-2.49Z"/><path class="cls-8" d="m245.89,68.68h-5.1v2.49h5.1v-2.49Z"/><path class="cls-8" d="m251.1,65.6h-5.1v30.33h5.1v-30.33Z"/><path class="cls-8" d="m259.59,65.6h-8.54v30.33h8.54v-30.33Z"/><path class="cls-8" d="m251.1,89.42h-5.1v2.49h5.1v-2.49Z"/><path class="cls-8" d="m251.1,68.68h-5.1v2.49h5.1v-2.49Z"/><path class="cls-8" d="m250.53,101.75h-5.1v30.33h5.1v-30.33Z"/><path class="cls-8" d="m250.53,125.57h-5.1v2.49h5.1v-2.49Z"/><path class="cls-8" d="m250.53,104.83h-5.1v2.49h5.1v-2.49Z"/><path class="cls-8" d="m245.51,101.75h-5.1v30.33h5.1v-30.33Z"/><path class="cls-8" d="m245.51,125.57h-5.1v2.49h5.1v-2.49Z"/><path class="cls-8" d="m245.51,104.83h-5.1v2.49h5.1v-2.49Z"/><path class="cls-8" d="m240.48,101.75h-5.1v30.33h5.1v-30.33Z"/><path class="cls-8" d="m240.48,125.57h-5.1v2.49h5.1v-2.49Z"/><path class="cls-8" d="m240.48,104.83h-5.1v2.49h5.1v-2.49Z"/><path class="cls-8" d="m235.46,101.75h-5.1v30.33h5.1v-30.33Z"/><path class="cls-8" d="m235.46,125.57h-5.1v2.49h5.1v-2.49Z"/><path class="cls-8" d="m235.46,104.83h-5.1v2.49h5.1v-2.49Z"/><path class="cls-8" d="m255.75,101.75h-5.1v30.33h5.1v-30.33Z"/><path class="cls-8" d="m255.75,125.57h-5.1v2.49h5.1v-2.49Z"/><path class="cls-8" d="m255.75,104.83h-5.1v2.49h5.1v-2.49Z"/><path class="cls-8" d="m260.96,101.75h-5.1v30.33h5.1v-30.33Z"/><path class="cls-8" d="m260.96,125.57h-5.1v2.49h5.1v-2.49Z"/><path class="cls-8" d="m260.96,104.83h-5.1v2.49h5.1v-2.49Z"/><path class="cls-8" d="m266.18,101.75h-5.1v30.33h5.1v-30.33Z"/><path class="cls-8" d="m274.67,101.75h-8.54v30.33h8.54v-30.33Z"/><path class="cls-8" d="m266.18,125.57h-5.1v2.49h5.1v-2.49Z"/><path class="cls-8" d="m266.18,104.83h-5.1v2.49h5.1v-2.49Z"/><path class="cls-8" d="m286.77,101.75h-5.1v30.33h5.1v-30.33Z"/><path class="cls-8" d="m286.77,125.57h-5.1v2.49h5.1v-2.49Z"/><path class="cls-8" d="m286.77,104.83h-5.1v2.49h5.1v-2.49Z"/><path class="cls-8" d="m291.99,101.75h-5.1v30.33h5.1v-30.33Z"/><path class="cls-8" d="m291.99,125.57h-5.1v2.49h5.1v-2.49Z"/><path class="cls-8" d="m291.99,104.83h-5.1v2.49h5.1v-2.49Z"/><path class="cls-8" d="m302.42,101.74l-4.75,2.01,11.95,28.29,4.75-2.01-11.95-28.29Z"/><path class="cls-8" d="m311.8,123.96l-4.75,2.01.98,2.32,4.75-2.01-.98-2.32Z"/><path class="cls-8" d="m303.64,104.61l-4.75,2.01.98,2.32,4.75-2.01-.98-2.32Z"/><path class="cls-8" d="m309.62,132.03h10.64l4.78-1.99h-10.67s-4.75,1.99-4.75,1.99Z"/><path class="cls-8" d="m302.42,101.73h10l12.63,28.3h-10.67s-11.95-28.3-11.95-28.3Z"/><path class="cls-8" d="m297.02,101.75h-5.1v30.33h5.1v-30.33Z"/><path class="cls-8" d="m297.02,125.57h-5.1v2.49h5.1v-2.49Z"/><path class="cls-8" d="m297.02,104.83h-5.1v2.49h5.1v-2.49Z"/><path class="cls-8" d="m297.02,101.75h5.41l-4.75,1.99,11.95,28.29h-12.61v-30.28Z"/><path class="cls-8" d="m250.53,174.16h-5.1v30.33h5.1v-30.33Z"/><path class="cls-8" d="m250.53,197.97h-5.1v2.49h5.1v-2.49Z"/><path class="cls-8" d="m250.53,177.24h-5.1v2.49h5.1v-2.49Z"/><path class="cls-8" d="m245.51,174.16h-5.1v30.33h5.1v-30.33Z"/><path class="cls-8" d="m245.51,197.97h-5.1v2.49h5.1v-2.49Z"/><path class="cls-8" d="m245.51,177.24h-5.1v2.49h5.1v-2.49Z"/><path class="cls-8" d="m240.48,174.16h-5.1v30.33h5.1v-30.33Z"/><path class="cls-8" d="m240.48,197.97h-5.1v2.49h5.1v-2.49Z"/><path class="cls-8" d="m240.48,177.24h-5.1v2.49h5.1v-2.49Z"/><path class="cls-8" d="m235.46,174.16h-5.1v30.33h5.1v-30.33Z"/><path class="cls-8" d="m235.46,197.97h-5.1v2.49h5.1v-2.49Z"/><path class="cls-8" d="m235.46,177.24h-5.1v2.49h5.1v-2.49Z"/><path class="cls-8" d="m255.75,174.16h-5.1v30.33h5.1v-30.33Z"/><path class="cls-8" d="m255.75,197.97h-5.1v2.49h5.1v-2.49Z"/><path class="cls-8" d="m255.75,177.24h-5.1v2.49h5.1v-2.49Z"/><path class="cls-8" d="m260.96,174.16h-5.1v30.33h5.1v-30.33Z"/><path class="cls-8" d="m260.96,197.97h-5.1v2.49h5.1v-2.49Z"/><path class="cls-8" d="m260.96,177.24h-5.1v2.49h5.1v-2.49Z"/><path class="cls-8" d="m266.18,174.16h-5.1v30.33h5.1v-30.33Z"/><path class="cls-8" d="m274.67,174.16h-8.54v30.33h8.54v-30.33Z"/><path class="cls-8" d="m266.18,197.97h-5.1v2.49h5.1v-2.49Z"/><path class="cls-8" d="m266.18,177.24h-5.1v2.49h5.1v-2.49Z"/><path class="cls-8" d="m286.77,174.16h-5.1v30.33h5.1v-30.33Z"/><path class="cls-8" d="m286.77,197.97h-5.1v2.49h5.1v-2.49Z"/><path class="cls-8" d="m286.77,177.24h-5.1v2.49h5.1v-2.49Z"/><path class="cls-8" d="m291.99,174.16h-5.1v30.33h5.1v-30.33Z"/><path class="cls-8" d="m291.99,197.97h-5.1v2.49h5.1v-2.49Z"/><path class="cls-8" d="m291.99,177.24h-5.1v2.49h5.1v-2.49Z"/><path class="cls-8" d="m302.42,174.15l-4.75,2.01,11.95,28.29,4.75-2.01-11.95-28.29Z"/><path class="cls-8" d="m311.8,196.36l-4.75,2.01.98,2.32,4.75-2.01-.98-2.32Z"/><path class="cls-8" d="m303.64,177.02l-4.75,2,.98,2.32,4.75-2.01-.98-2.32Z"/><path class="cls-8" d="m309.62,204.44h10.64l4.78-1.99-10.67-.02-4.75,2.01Z"/><path class="cls-8" d="m302.42,174.13h10l12.63,28.31-10.67-.02-11.95-28.29Z"/><path class="cls-8" d="m297.02,174.16h-5.1v30.33h5.1v-30.33Z"/><path class="cls-8" d="m297.02,197.97h-5.1v2.49h5.1v-2.49Z"/><path class="cls-8" d="m297.02,177.24h-5.1v2.49h5.1v-2.49Z"/><path class="cls-8" d="m297.02,174.16h5.41l-4.75,1.98,11.95,28.3h-12.61v-30.28Z"/><path class="cls-8" d="m286.77,245.08h-5.1v30.33h5.1v-30.33Z"/><path class="cls-8" d="m286.77,268.9h-5.1v2.49h5.1v-2.49Z"/><path class="cls-8" d="m286.77,248.16h-5.1v2.49h5.1v-2.49Z"/><path class="cls-8" d="m291.99,245.08h-5.1v30.33h5.1v-30.33Z"/><path class="cls-8" d="m291.99,268.9h-5.1v2.49h5.1v-2.49Z"/><path class="cls-8" d="m291.99,248.16h-5.1v2.49h5.1v-2.49Z"/><path class="cls-8" d="m302.42,245.07l-4.75,2.01,11.95,28.29,4.75-2.01-11.95-28.29Z"/><path class="cls-8" d="m311.8,267.28l-4.75,2,.98,2.32,4.75-2.01-.98-2.32Z"/><path class="cls-8" d="m303.63,247.94l-4.75,2.01.98,2.32,4.75-2.01-.98-2.32Z"/><path class="cls-8" d="m309.62,275.36h10.64l4.78-1.99-10.67-.02-4.75,2.01Z"/><path class="cls-8" d="m302.42,245.06h10l12.63,28.31-10.67-.02-11.95-28.29Z"/><path class="cls-8" d="m297.02,245.08h-5.1v30.33h5.1v-30.33Z"/><path class="cls-8" d="m297.02,268.9h-5.1v2.49h5.1v-2.49Z"/><path class="cls-8" d="m297.02,248.16h-5.1v2.49h5.1v-2.49Z"/><path class="cls-8" d="m297.02,245.08h5.41l-4.75,1.98,11.95,28.3h-12.61v-30.28Z"/><path class="cls-8" d="m241.3,245.08h-5.1v30.33h5.1v-30.33Z"/><path class="cls-8" d="m241.3,268.9h-5.1v2.49h5.1v-2.49Z"/><path class="cls-8" d="m241.3,248.16h-5.1v2.49h5.1v-2.49Z"/><path class="cls-8" d="m236.11,245.08h-5.1v30.33h5.1v-30.33Z"/><path class="cls-8" d="m236.11,268.9h-5.1v2.49h5.1v-2.49Z"/><path class="cls-8" d="m236.11,248.16h-5.1v2.49h5.1v-2.49Z"/><path class="cls-8" d="m246.52,245.08h-5.1v30.33h5.1v-30.33Z"/><path class="cls-8" d="m246.52,268.9h-5.1v2.49h5.1v-2.49Z"/><path class="cls-8" d="m246.52,248.16h-5.1v2.49h5.1v-2.49Z"/><path class="cls-8" d="m256.95,245.07l-4.75,2.01,11.95,28.29,4.75-2.01-11.95-28.29Z"/><path class="cls-8" d="m266.33,267.28l-4.75,2.01.98,2.32,4.75-2.01-.98-2.32Z"/><path class="cls-8" d="m258.16,247.94l-4.75,2.01.98,2.32,4.75-2.01-.98-2.32Z"/><path class="cls-8" d="m264.15,275.36h10.64l4.78-1.99-10.67-.02-4.76,2.01Z"/><path class="cls-8" d="m256.95,245.06h9.99l12.63,28.31-10.67-.02-11.95-28.29Z"/><path class="cls-8" d="m251.54,245.08h-5.1v30.33h5.1v-30.33Z"/><path class="cls-8" d="m251.54,268.9h-5.1v2.49h5.1v-2.49Z"/><path class="cls-8" d="m251.54,248.16h-5.1v2.49h5.1v-2.49Z"/><path class="cls-8" d="m251.54,245.08h5.41l-4.75,1.98,11.95,28.3h-12.6v-30.28Z"/><path class="cls-1" d="m137.07,260.39s.38-13.57-.1-25.24c-.48-11.67.49-36.7.49-36.7"/><path class="cls-1" d="m137.23,213.17l-5.3-4.17"/><path class="cls-1" d="m137.18,216.04l1.88-3.06"/><path class="cls-1" d="m136.74,228.12l4.71-3.89"/><path class="cls-1" d="m137.46,203.59l-2.48-2.26"/><path class="cls-1" d="m136.7,230.23l-3.11-3.34"/><path class="cls-1" d="m136.98,243.34l-6.48-5.91"/><path class="cls-1" d="m137.14,250.61s1.17-.37,4.8-2.24"/><path class="cls-19" d="m133.57,215.27c-2.6-2.01-11.33-1.66-13.01,2.52-1.68,4.17,3.63,10.97,8.78,10.5,2.01-.18,2.88-.33,3.66-1.45l-7.17-7.01,7.76,6.24c.21-.37.38-.79.53-1.28.1-.31.17-.64.24-1,.5-2.5,1.63-6.65-.8-8.53h0Z"/><path class="cls-19" d="m150.44,210.42s-.02.1-.03.14c-.7,3.12-4.26,4.88-7.25,4.62-.43-.04-.84-.12-1.24-.23-.82,1.34-2.04,4.12-.77,7.54.13.36.3.68.51.99.88-.72,10.32-8.76,10.32-8.76l-9.79,9.43c2.94,3.16,9.88,2.72,12.29-3.13,2.38-5.77-.63-9.77-4.03-10.61h0Z"/><path class="cls-19" d="m145.64,199.54c-5.08-1.12-9.62,1.19-9.53,6.49.04,2.39,1.1,4.69,2.82,6.22l5.18-7.18-4.4,7.78c.41.28.84.52,1.31.71.63.26,1.3.42,2.01.48,2.99.26,6.55-1.5,7.25-4.62.78-3.48.43-8.76-4.64-9.88h-.01Z"/><path class="cls-19" d="m139.71,181.11s-.52.15-3.77,1.74c-3.25,1.59-5.82,6.73-3.25,11.13,1.46,2.5,3.15,3.45,4.35,3.8l1.3-12.62-.52,12.79c.46.06.74.03.74.03,2.11-.22,5.45-2.74,5.77-7.92.32-5.18-4.61-8.95-4.61-8.95h0Z"/><path class="cls-19" d="m124.88,192.59l9.79,7.83c.18-.59.1-1.1.1-1.1-.45-4.49-4.93-7.08-7.88-8.02-2.96-.94-5,.74-3.11,5.03,1.9,4.29,6.89,6.34,9.11,5.71.65-.18,1.07-.49,1.35-.83l-9.37-8.63h0Z"/><path class="cls-19" d="m131.62,202.64c-2.12.07-5.55-1.44-7.54-4.35-2.06-.04-3.76.93-4.32,3.51-1,4.68,2.38,9.57,7.26,8.97,2.13-.26,3.36-.99,4.06-1.73l-8.72-7.95,9.33,7.1c.32-.61.34-1.07.34-1.07,0,0,.55-2.3-.42-4.48h0Z"/><path class="cls-19" d="m131.57,228.62c-.66.32-1.48.51-2.51.6-3.19.3-6.43-2.2-8.05-5.13-1.95.32-3.52,1.36-3.89,3.51-.97,5.47,4.1,12.68,9.22,11.54,1.61-.36,2.75-1.04,3.56-1.81l-11.18-10.75,11.83,10.02c1.13-1.48,1.26-2.99,1.26-2.99,0,0,.96-2.5-.24-4.99h0Z"/><path class="cls-19" d="m154.05,239.85c-3.76-4.35-8.23-.46-8.23-.46,0,0-2.74.91-3.78,4.79-.33,1.24-.27,2.49.14,3.58l11.3-6.58-11.03,7.2c1.03,1.95,3.27,3.15,6.35,2.28,4.97-1.4,9.01-6.46,5.25-10.81h0Z"/><path class="cls-20" d="m144.69,256.29h-15.65v23.16h15.65v-23.16Z"/><path class="cls-19" d="m500.06,133.16s0-3.36-4.71-8.07c-4.71-4.71-7.74-7.39-7.74-7.39,0,0-2.36,7.73,2.02,12.44,4.37,4.71,10.42,9.08,10.42,9.08v-6.05Z"/><path class="cls-19" d="m493.22,154.15s0-3.36-4.71-8.07c-4.71-4.71-7.73-7.39-7.73-7.39,0,0-2.36,7.73,2.02,12.44,4.38,4.71,10.42,9.08,10.42,9.08v-6.05Z"/><path class="cls-19" d="m499.77,138.88s.36-3.34,5.53-7.53c5.18-4.18,8.47-6.54,8.47-6.54,0,0,1.53,7.94-3.32,12.15-4.84,4.22-11.33,7.92-11.33,7.92l.64-6.02h0Z"/><path class="cls-19" d="m491.51,163.68s.71-3.29,6.29-6.9c5.59-3.61,9.11-5.61,9.11-5.61,0,0,.68,8.05-4.58,11.74-5.26,3.68-12.1,6.69-12.1,6.69l1.27-5.92h0Z"/><path class="cls-19" d="m493.06,190.72s0-3.36,4.71-8.07c4.71-4.71,7.74-7.4,7.74-7.4,0,0,2.36,7.73-2.02,12.44-4.37,4.71-10.42,9.08-10.42,9.08v-6.05Z"/><path class="cls-19" d="m492.98,197.32s.48-3.33-3.51-8.66c-3.99-5.33-6.61-8.42-6.61-8.42,0,0-3.43,7.32.23,12.6,3.66,5.28,9.03,10.47,9.03,10.47l.86-5.99Z"/><path class="cls-19" d="m488.34,216.87s0-3.36,4.71-8.07c4.71-4.71,7.73-7.39,7.73-7.39,0,0,2.36,7.73-2.02,12.44-4.37,4.71-10.42,9.08-10.42,9.08v-6.05Z"/><path class="cls-19" d="m491.48,234.6s-.85-3.25,2.51-9c3.36-5.74,5.61-9.12,5.61-9.12,0,0,4.24,6.88,1.2,12.55-3.04,5.66-7.79,11.42-7.79,11.42l-1.53-5.85Z"/><path class="cls-4" d="m500.48,132.3c-.27,3.6-.68,7.31-1.29,10.44-1.86,9.61-6.51,15.82-8.38,24.5-1.86,8.68,3.48,19.87,2.05,31.02-1.43,11.15-5.78,17.35-4.54,24.79s7.75,27.6,7.75,27.6"/><path class="cls-4" d="m499.72,141.12l5.08-3.89"/><path class="cls-4" d="m499.95,136.64l-2.12-3.77"/><path class="cls-4" d="m491.1,166.84s4.25-3.19,8.61-6.37"/><path class="cls-4" d="m493.22,160.21s-3.54-6.94-7.55-11.54"/><path class="cls-4" d="m493.23,195.5s3.31-6.49,9.08-12.15"/><path class="cls-4" d="m492.4,200.22s-2.12-5.07-4.6-8.73c-2.48-3.66-2.83-4.13-2.83-4.13"/><path class="cls-4" d="m488.34,223.05s1.7-4.31,3.82-7.73c2.12-3.42,4.96-6.49,4.96-6.49"/><path class="cls-4" d="m493.02,240.46s-.5-4.02,1.27-7.45c1.77-3.42,3.77-7.9,4.6-9.67"/><path class="cls-19" d="m469.23,178.07s-.37-2.11,2.08-5.57c2.44-3.46,4.05-5.48,4.05-5.48,0,0,2.32,4.59.08,8.02-2.23,3.42-5.55,6.82-5.55,6.82l-.66-3.79Z"/><path class="cls-19" d="m475.8,190.5s-.36-2.11,2.08-5.57c2.44-3.46,4.05-5.48,4.05-5.48,0,0,2.32,4.59.08,8.02-2.23,3.43-5.55,6.82-5.55,6.82l-.66-3.79Z"/><path class="cls-19" d="m470.04,181.63s-.59-2.06-4.29-4.12c-3.71-2.06-6.03-3.18-6.03-3.18,0,0-.1,5.15,3.4,7.26,3.5,2.12,7.96,3.74,7.96,3.74l-1.06-3.7h0Z"/><path class="cls-19" d="m477.91,196.28s-.8-1.98-4.69-3.64c-3.9-1.66-6.32-2.53-6.32-2.53,0,0,.45,5.12,4.15,6.87,3.7,1.74,8.31,2.88,8.31,2.88l-1.44-3.57h0Z"/><path class="cls-19" d="m479.87,213.4s-.36-2.11-3.83-4.55c-3.47-2.44-5.65-3.8-5.65-3.8,0,0-.63,5.1,2.62,7.58,3.25,2.47,7.52,4.56,7.52,4.56l-.66-3.79Z"/><path class="cls-19" d="m480.63,217.53s-.66-2.04,1.26-5.81c1.92-3.77,3.23-5.99,3.23-5.99,0,0,2.94,4.22,1.22,7.93-1.72,3.71-4.52,7.54-4.52,7.54l-1.19-3.66h0Z"/><path class="cls-19" d="m486.55,234.54s.24-2.12,3.56-4.76c3.32-2.63,5.43-4.11,5.43-4.11,0,0,.93,5.06-2.18,7.72-3.11,2.66-7.25,4.99-7.25,4.99l.44-3.83h0Z"/><path class="cls-19" d="m485.67,229.3s-.36-2.11-3.83-4.55c-3.46-2.44-5.65-3.8-5.65-3.8,0,0-.64,5.1,2.62,7.58,3.25,2.48,7.52,4.56,7.52,4.56l-.66-3.79h0Z"/><path class="cls-19" d="m485.62,240.76s.18-2.13-2.55-5.37c-2.73-3.24-4.51-5.1-4.51-5.1,0,0-1.91,4.78.61,7.99,2.52,3.22,6.12,6.31,6.12,6.31l.33-3.84h0Z"/><path class="cls-4" d="m468.87,177.58c.56,2.23,1.22,4.51,1.94,6.4,2.21,5.83,5.8,9.21,7.91,14.45,2.11,5.24-.02,12.84,2.08,19.67,2.11,6.84,5.5,10.26,5.53,15.06.03,4.8-1.86,18.15-1.86,18.15"/><path class="cls-4" d="m470.31,183.03l-3.6-1.89"/><path class="cls-4" d="m469.67,180.24l.92-2.6"/><path class="cls-4" d="m478.5,198.22s-3.01-1.54-6.09-3.06"/><path class="cls-4" d="m476.45,194.29s1.47-4.74,3.48-8.05"/><path class="cls-4" d="m480.28,216.42s-2.78-3.71-7.02-6.63"/><path class="cls-4" d="m481.32,219.29s.78-3.41,1.94-5.98c1.16-2.56,1.33-2.9,1.33-2.9"/><path class="cls-4" d="m486.18,236.81s2.39-2.93,3.88-4.02c1.48-1.1,2.52-2.19,2.52-2.19"/><path class="cls-4" d="m486.34,233.17s-1.54-2.52-3.24-4.43c-1.7-1.92-3.81-3.53-3.81-3.53"/><path class="cls-4" d="m485.3,244.6s-.12-2.58-1.61-4.53c-1.48-1.95-3.22-4.55-3.94-5.57"/><path class="cls-9" d="m499.56,279.14h-18.62c-.81,0-1.47-.66-1.47-1.46l-4.62-28.69h30.8l-4.62,28.69c0,.81-.66,1.46-1.47,1.46h0Z"/><path class="cls-9" d="m505.39,253h-30.53c-1.33,0-2.41-1.08-2.41-2.41s1.08-2.41,2.41-2.41h30.53c1.33,0,2.41,1.08,2.41,2.41s-1.08,2.41-2.41,2.41Z"/><path class="cls-5" d="m476.07,253.11h22.17"/><path class="cls-5" d="m500.32,253.11h3.65"/><path class="cls-20" d="m165.25,45c-11.38,0-20.61,9.22-20.61,20.6s9.22,20.6,20.61,20.6,20.61-9.22,20.61-20.6-9.23-20.6-20.61-20.6Zm0,37.13c-9.13,0-16.53-7.4-16.53-16.53s7.4-16.53,16.53-16.53,16.53,7.4,16.53,16.53-7.4,16.53-16.53,16.53Z"/><path class="cls-20" d="m167.29,65.6c0,1.13-.91,2.04-2.04,2.04s-2.04-.91-2.04-2.04.91-2.04,2.04-2.04,2.04.91,2.04,2.04Z"/><path class="cls-2" d="m166.04,65.97l7.24,1.86"/><path class="cls-2" d="m165.25,65.6l-8.52-12.46"/><path class="cls-11" d="m222.85,222.93l-.18,56.53h-1.95l-4.42-56.53h6.54Z"/><path class="cls-14" d="m214.5,142.88s3.86,1.71,4.44,6.3c.57,4.58-.14,28.62-.43,29.77-.29,1.15-2.01,2.15-5.15,1.57-3.15-.57-2.15-7.58-2.58-11.59-.43-4.01-.72-19.17-.72-23.04s3.72-3.72,4.44-3h0Z"/><path class="cls-21" d="m214.92,173.79s7.73-4.15,9.88-5.73c2.15-1.57,2.58-2.01,2.58-2.01,0,0,3.72-4.01,5.01-4.44,1.29-.43,5.01-.14,6.16.14,1.15.29,1.15,1.29-.14,1.71s-3.87.14-3.87.14c0,0-2.15,3-3.58,4.29l-1.43,1.29-1.43,2.72s-6.16,7.01-9.74,8.59c-3.58,1.57-6.58,1.71-7.02-1-.43-2.72.29-4.87.29-4.87"/><path class="cls-7" d="m214.92,173.79s7.73-4.15,9.88-5.73c2.15-1.57,2.58-2.01,2.58-2.01,0,0,3.72-4.01,5.01-4.44,1.29-.43,5.01-.14,6.16.14,1.15.29,1.15,1.29-.14,1.71s-3.87.14-3.87.14c0,0-2.15,3-3.58,4.29l-1.43,1.29-1.43,2.72s-6.16,7.01-9.74,8.59c-3.58,1.57-6.58,1.71-7.02-1-.43-2.72.29-4.87.29-4.87"/><path class="cls-14" d="m234.54,163.63l14.89.43,1,1.15-7.87,19.17h-36.07v-1.71s6.3-.28,10.45-1.57c4.15-1.29,7.3-.86,7.3-.86,0,0,1.86-5.15,3.86-8.3,2.01-3.15,6.44-8.3,6.44-8.3h0Z"/><path class="cls-12" d="m249.42,164.06l-7.88,18.89h-35.07v1.43h36.07l7.87-19.18-1-1.15Z"/><path class="cls-21" d="m214.78,183.09s13.93-.29,17.89-1.71c6.73-2.43,8.88,1.57,8.88,1.57,0,0-.29-4.29.43-7.3.72-3,7.44-11.59,7.44-11.59l-7.87,18.89-26.77.14Z"/><path class="cls-7" d="m241.55,182.95s-2.15-4.01-8.88-1.57c-3.96,1.43-17.89,1.71-17.89,1.71l26.77-.14Zm0,0s-.29-4.29.43-7.3c.72-3,7.44-11.59,7.44-11.59l-7.87,18.89Z"/><path class="cls-7" d="m237.11,180.51l-12.89-.29"/><path class="cls-11" d="m184.68,222.93l.18,56.53h1.94l4.42-56.53h-6.54Z"/><path class="cls-12" d="m163.12,222.93l.18,56.53h1.94l4.42-56.53h-6.54Z"/><path class="cls-11" d="m163.13,225.86h6.3l.23-2.93h-6.54v2.93Z"/><path class="cls-12" d="m193.16,222.93l-.18,56.53h-1.94l-4.42-56.53h6.54Z"/><path class="cls-11" d="m186.85,225.86h6.3v-2.93s-6.53,0-6.53,0l.23,2.93Z"/><path class="cls-12" d="m157.99,174.22l4.11,46.22h37.22l1.55-46.72c.1-2.78-2.14-5.07-4.93-5.06l-33.11.22c-2.86.02-5.1,2.48-4.84,5.33Z"/><path class="cls-11" d="m160.28,174.22l4.11,46.22h37.22l1.55-46.72c.1-2.78-2.14-5.07-4.93-5.06l-33.11.22c-2.86.02-5.1,2.48-4.84,5.33Z"/><path class="cls-12" d="m224.56,219.39h-63.03v4.2h63.03v-4.2Z"/><path class="cls-11" d="m161.53,219.39l.54-.8c1.53-2.28,4.1-3.64,6.84-3.64h48.1c2.47,0,4.81,1.1,6.37,3.01l1.18,1.44h-63.03Z"/><path class="cls-12" d="m224.56,219.39h-35.74v4.2h35.74v-4.2Z"/><path class="cls-11" d="m201.36,254.34s-5.78,13.34-7.08,16.37c-1.3,3.03.14,3.61,1.73,4.18,1.58.58,5.41.64,6.64,1.73,2.45,2.17,5.92,2.31,8.23,2.74,2.31.43,4.76-.72,4.76-1.3s-.89-1.04-4.62-3.17c-3.03-1.73-7.65-7.93-7.65-7.93l8.37-11.89-10.39-.72h0Z"/><path class="cls-11" d="m215.65,278.07c0-.58-.89-1.04-4.62-3.17-3.03-1.73-7.65-7.93-7.65-7.93,0,0-1.01.43-1.3,1.3-.29.87-.29,2.02-.29,2.02,0,0-2.02,0-3.47-1.44-.81-.81-1.48-2.15-2.09-3.09-.82,2.16-1.56,4.04-1.95,4.96-1.3,3.03.14,3.61,1.73,4.18,1.59.58,5.41.64,6.64,1.73,2.45,2.17,5.92,2.31,8.23,2.74,2.31.43,4.76-.72,4.76-1.3h0Z"/><path class="cls-14" d="m203.4,248.05s2.46,17.36,2.31,19c-.15,1.64-1.97,8.43-.94,8.97,1.03.54,11.15,3.16,14.7,3.57,3.55.4,5.57-.74,4.53-2.06-1.04-1.32-5.31-2.3-8.46-5.79-3.16-3.49-4-4.12-4-4.12l1.33-17.25-9.46-2.31h0Z"/><path class="cls-14" d="m224,277.53c-1.04-1.32-5.31-2.3-8.46-5.79-3.16-3.5-4-4.12-4-4.12,0,0-.5.59-.5,1.32s.11,2.08.11,2.08c0,0-3.73-.52-5.92-1.25-.52,2.57-1.15,5.88-.44,6.25,1.03.54,11.15,3.16,14.7,3.57,3.55.4,5.57-.74,4.53-2.06h0Z"/><path class="cls-19" d="m198.6,138.59s-14.17,2.86-15.89,4.44c-1.71,1.57-2.58,15.45-1.57,21.18,1,5.73,1,10.45,1,10.45,0,0-11.45,12.17-13.74,20.18-2.29,8.01.86,19.32,7.59,21.46,6.73,2.15,18.9,1.43,18.9,1.43l-1.71,37.92s4.01.57,14.46.57,13.6-.43,13.6-.43c0,0,1.15-8.16,4.44-22.9,3.29-14.74,9.45-25.9,6.01-31.2-3.44-5.29-15.32-5.29-15.32-5.29l-7.3-19.18s1.15-3.44,1.86-4.87c.72-1.43,5.44-3.86,5.44-9.16s-1.86-20.32-1.86-20.32c0,0-7.02-2.86-9.16-3.58-2.15-.72-6.73-.72-6.73-.72h-.01Z"/><g class="cls-23"><path class="cls-21" d="m209.97,181.43s.22-.13.56-.35l-.3-.79c-.54,1.07-.26,1.15-.26,1.15Z"/><path class="cls-21" d="m206.34,193.41c0-.2-.23-.36-.5-.36s-.51.16-.51.36.23.36.51.36.5-.16.5-.36Z"/><path class="cls-21" d="m205.08,195.49c0,.2.23.36.51.36s.5-.16.5-.36-.22-.36-.5-.36-.51.16-.51.36Z"/><path class="cls-21" d="m201.95,189.63s.09.04.14.04c.1,0,.2-.05.26-.15.03-.06,2.39-4.32,8.14-7.46.12.11.33.27.6.47l-.45-1.19c-6.21,3.26-8.75,7.85-8.79,7.91-.08.14-.02.31.12.38h-.01Z"/><path class="cls-21" d="m210.72,161.86s1.02.93,2.51.93,1.9-.1,1.9-.1c0,0-2.78-1.96-4.42-.84h0Z"/><path class="cls-21" d="m210.16,162.46s-.36,1.34.33,2.66c.69,1.32.96,1.64.96,1.64,0,0,.46-3.37-1.28-4.3Z"/><path class="cls-21" d="m211.35,185.39s-2.78-1.96-4.42-.84c0,0,1.02.93,2.51.93s1.9-.1,1.9-.1h0Z"/><path class="cls-21" d="m200.88,167.7c-.28,0-.51.23-.51.5s.23.5.51.5.51-.22.51-.5-.23-.5-.51-.5Z"/><path class="cls-21" d="m195.87,194.77c-1.64,1.81-1.13,1.9-1.13,1.9,0,0,2.77-1.18,4.16-2.44,1.39-1.26,1.13-2.26,1.13-2.26,0,0-2.52,1-4.16,2.8Z"/><path class="cls-21" d="m206.46,194.54c0,.23.25.41.57.41s.57-.18.57-.41-.26-.41-.57-.41-.57.18-.57.41Z"/><path class="cls-21" d="m202.15,170.59c.28,0,.5-.23.5-.5s-.23-.5-.5-.5-.51.23-.51.5.23.5.51.5Z"/><path class="cls-21" d="m206.38,185.15s-.36,1.33.33,2.66c.69,1.33.96,1.64.96,1.64,0,0,.46-3.37-1.28-4.3Z"/><path class="cls-21" d="m204.17,168.76c0-.32-.26-.57-.57-.57s-.57.26-.57.57.26.57.57.57.57-.26.57-.57Z"/><path class="cls-21" d="m202.9,167.19c0-.28-.22-.5-.5-.5s-.5.23-.5.5.23.51.5.51.5-.23.5-.51Z"/><path class="cls-21" d="m196.72,170.97s1.89,1.26,4.66,1.26,3.53-.12,3.53-.12c0,0-5.17-2.65-8.2-1.13Z"/><path class="cls-21" d="m187.71,175.44s-.36,1.33.33,2.66c.69,1.33.96,1.64.96,1.64,0,0,.46-3.37-1.28-4.3Z"/><path class="cls-21" d="m188.15,184.96c0,.28.23.5.5.5s.51-.22.51-.5-.23-.5-.51-.5-.5.23-.5.5Z"/><path class="cls-21" d="m184.49,187.74s1.89,1.26,4.67,1.26,3.53-.12,3.53-.12c0,0-5.17-2.65-8.2-1.13Z"/><path class="cls-21" d="m183.17,179.54c-.08.14-.02.31.12.39.04.02.09.03.14.03.1,0,.2-.05.26-.15.03-.06,2.39-4.31,8.14-7.46.47.4,2.22,1.8,4.16,1.9,2.27.12,3.66.12,3.66.12,0,0-3.47-3.25-7.09-2.41,1.01-.51,2.11-.98,3.31-1.39,0,0,0,.02,0,.02,0,0,.15-.05.39-.15,1.41-.46,2.94-.83,4.63-1.08.15-.02.27-.17.24-.33-.02-.15-.17-.26-.33-.24-.84.12-1.63.28-2.4.46.17-.13.34-.27.49-.43,1.13-1.13,2.02-3.41,2.02-3.41,0,0-2.02.63-3.41,2.52-.63.86-1.02,1.48-1.26,1.9-9.34,2.97-13.01,9.61-13.05,9.68h0Z"/><path class="cls-21" d="m191.93,185.54c0-.32-.26-.57-.57-.57s-.57.26-.57.57.26.57.57.57.57-.26.57-.57Z"/><path class="cls-21" d="m200.16,196.12s1.89.9,4.67.9,3.53-.09,3.53-.09c0,0-5.17-1.9-8.2-.81Z"/><path class="cls-21" d="m189.41,186.86c0,.28.22.51.5.51s.51-.23.51-.51-.23-.5-.51-.5-.5.22-.5.5Z"/><path class="cls-21" d="m190.17,184.46c.28,0,.5-.23.5-.51s-.23-.5-.5-.5-.5.23-.5.5.23.51.5.51Z"/><path class="cls-21" d="m205.62,166.55c-.08.14-.02.32.12.39.04.02.09.04.14.04.1,0,.2-.05.26-.15.03-.06,2.39-4.31,8.14-7.46.28.24,1.04.84,2.01,1.31-.03-.57-.07-1.18-.12-1.82-.39,0-.77.04-1.16.13.36-.18.75-.36,1.13-.53-.02-.2-.03-.4-.05-.61-7.43,3.24-10.42,8.64-10.45,8.71h-.01Z"/><path class="cls-21" d="m208.27,145.31s-.36,1.33.33,2.66c.69,1.32.96,1.64.96,1.64,0,0,.46-3.37-1.28-4.3Z"/><path class="cls-21" d="m216.7,196.74s.26-.11.67-.31c-.29-.01-.52-.02-.69-.02-.11.3.02.33.02.33h0Z"/><path class="cls-21" d="m191.3,171.73s2.77-1.64,4.16-3.41c1.39-1.76,1.13-3.15,1.13-3.15,0,0-2.52,1.39-4.16,3.91-1.64,2.52-1.13,2.65-1.13,2.65Z"/><path class="cls-21" d="m213.24,145.56s-2.78-1.96-4.42-.84c0,0,1.02.93,2.51.93s1.9-.1,1.9-.1h0Z"/><path class="cls-21" d="m197.48,151.68c-.28,0-.51.23-.51.5s.23.5.51.5.5-.22.5-.5-.23-.5-.5-.5Z"/><path class="cls-21" d="m187.9,155.72s2.77-1.64,4.16-3.41c1.39-1.76,1.13-3.15,1.13-3.15,0,0-2.52,1.39-4.16,3.91-1.64,2.52-1.13,2.65-1.13,2.65Z"/><path class="cls-21" d="m214.08,231.09s-.36,1.34.33,2.66c.69,1.33.96,1.64.96,1.64,0,0,.46-3.37-1.28-4.3Z"/><path class="cls-21" d="m216.9,252.16c0,.28.23.51.5.51s.5-.23.5-.51-.23-.5-.5-.5-.5.23-.5.5Z"/><path class="cls-21" d="m196.22,158.37s-3.47-3.25-7.09-2.41c1.01-.51,2.11-.98,3.31-1.39,0,0,0,.02,0,.02,0,0,.15-.05.39-.15,1.41-.46,2.94-.83,4.63-1.08.15-.02.27-.17.24-.33-.02-.15-.17-.26-.33-.24-.84.12-1.63.28-2.4.46.17-.13.34-.27.49-.43,1.13-1.13,2.02-3.41,2.02-3.41,0,0-2.02.63-3.41,2.52-.63.86-1.02,1.48-1.26,1.9-6.5,2.07-10.25,5.91-11.94,8.08.02.29.05.58.08.84,1.06-1.47,3.41-4.21,7.46-6.43.47.4,2.22,1.8,4.16,1.9,2.27.12,3.66.12,3.66.12h0Z"/><path class="cls-21" d="m225.99,230.02s-3.47-3.25-7.09-2.41c1.01-.51,2.11-.98,3.31-1.39,0,0,0,.02,0,.02,0,0,.15-.05.39-.15,1.41-.46,2.94-.83,4.63-1.08.15-.02.27-.17.24-.33-.02-.15-.17-.26-.33-.24-.84.12-1.63.28-2.4.46.17-.13.34-.27.49-.43,1.13-1.13,2.02-3.41,2.02-3.41,0,0-2.02.63-3.41,2.52-.63.86-1.02,1.48-1.26,1.9-9.34,2.97-13.01,9.61-13.05,9.68-.08.14-.02.31.12.38.04.02.09.04.14.04.1,0,.2-.05.26-.15.03-.06,2.39-4.31,8.14-7.46.47.4,2.22,1.8,4.16,1.9,2.27.12,3.66.12,3.66.12h0Z"/><path class="cls-21" d="m184.3,159.43s-.36,1.34.33,2.66c.69,1.33.96,1.64.96,1.64,0,0,.46-3.37-1.28-4.3Z"/><path class="cls-21" d="m189.29,159.68s-2.78-1.96-4.42-.84c0,0,1.02.93,2.51.93s1.9-.1,1.9-.1h0Z"/><path class="cls-21" d="m218.16,254.05c0,.28.23.5.51.5s.5-.23.5-.5-.23-.5-.5-.5-.51.23-.51.5Z"/><path class="cls-21" d="m214.64,230.49s1.02.93,2.51.93,1.9-.1,1.9-.1c0,0-2.78-1.96-4.42-.84h0Z"/><path class="cls-21" d="m181.6,212.87c2.27.12,3.66.12,3.66.12,0,0-3.47-3.25-7.09-2.41,1.01-.51,2.11-.98,3.31-1.39,0,0,0,.02,0,.02,0,0,.15-.05.39-.15,1.41-.46,2.94-.83,4.63-1.08.15-.02.27-.17.24-.33-.02-.15-.17-.26-.33-.24-.84.12-1.63.28-2.4.46.17-.13.34-.27.49-.43,1.13-1.13,2.02-3.41,2.02-3.41,0,0-2.02.63-3.41,2.52-.63.86-1.02,1.48-1.26,1.9-4.32,1.38-7.43,3.53-9.52,5.46.13.14.27.27.41.4,1.21-1.12,2.76-2.3,4.71-3.37.47.4,2.22,1.8,4.16,1.9Z"/><path class="cls-21" d="m219.42,251.15c0-.28-.23-.5-.51-.5s-.5.23-.5.5.23.51.5.51.51-.23.51-.51Z"/><path class="cls-21" d="m170.24,192.28c1.26,0,2.87-.5,4.17-1.01l-3.16-.25,4.07-.12s.08-.04.12-.05l1.5-3.99-.71,3.63c.28-.14.45-.22.45-.22,0,0,1.51-2.4,1.51-4.29v-4.41s-1.01.38-2.02,2.65c-1.01,2.27-1.51,4.66-1.51,4.66,0,0-.65-1.73-1.65-2.88-.43.63-.85,1.27-1.25,1.91.83.89,1.63,1.48,1.63,1.48,0,0-1.07.1-2.7.29-.5.87-.94,1.74-1.33,2.58.28.02.56.02.87.02h0Z"/><path class="cls-21" d="m209.05,255.92c1.01-.51,2.11-.98,3.31-1.39,0,0,0,.02,0,.02,0,0,.15-.05.39-.15,1.41-.46,2.95-.83,4.63-1.08.15-.02.27-.17.24-.33-.02-.15-.17-.26-.33-.24-.84.12-1.63.28-2.4.46.17-.13.34-.27.49-.43,1.13-1.13,2.02-3.41,2.02-3.41,0,0-2.02.63-3.41,2.52-.63.86-1.02,1.48-1.26,1.9-2.07.66-3.87,1.5-5.4,2.41h.29c1.85,0,3.46-.01,4.87-.04-1.05-.36-2.24-.53-3.44-.26h0Z"/><path class="cls-21" d="m205.31,184.21l-3.16-.25,4.07-.12s.08-.04.11-.05l1.5-3.99-.71,3.63c.28-.14.45-.22.45-.22,0,0,1.51-2.4,1.51-4.29v-1.61l-.03-.08s.01-.04.03-.08v-2.64s-1.01.38-2.02,2.65-1.51,4.66-1.51,4.66c0,0-.75-2.02-1.89-3.15-1.13-1.13-3.28-2.14-3.28-2.14,0,0,.5,2.02,1.51,3.41,1.01,1.39,2.4,2.4,2.4,2.4,0,0-1.39.12-3.41.38-2.02.25-3.91,1.89-3.91,1.89,0,0,1.64.63,4.16.63,1.26,0,2.87-.5,4.17-1.01h0Z"/><path class="cls-21" d="m229.13,207.03s-.75-2.02-1.89-3.15c-1.14-1.13-3.28-2.14-3.28-2.14,0,0,.5,2.02,1.51,3.41,1.01,1.39,2.4,2.4,2.4,2.4,0,0-1.39.12-3.41.38-2.02.25-3.91,1.89-3.91,1.89,0,0,1.64.63,4.16.63,1.26,0,2.87-.51,4.17-1.01l-3.16-.25,4.07-.12s.08-.04.11-.05l1.5-3.99-.71,3.63c.29-.14.45-.22.45-.22,0,0,1.26-2,1.48-3.79-.11-1.12-.42-2.1-.96-2.93-.12-.18-.26-.36-.39-.53-.2.33-.42.72-.63,1.2-1.01,2.27-1.51,4.66-1.51,4.66h0Z"/><path class="cls-21" d="m203.07,138.85c.2.42.44.85.72,1.23,1.01,1.39,2.4,2.4,2.4,2.4,0,0-1.39.12-3.41.38-2.02.26-3.91,1.89-3.91,1.89,0,0,1.64.63,4.16.63,1.26,0,2.87-.51,4.17-1.01l-3.16-.25,4.07-.12s.08-.03.11-.05l1.17-3.12c-.51-.2-1.01-.4-1.49-.58-.3,1.01-.45,1.73-.45,1.73,0,0-.48-1.28-1.25-2.37-.33-.12-.63-.23-.86-.3-.61-.2-1.42-.35-2.27-.45h0Z"/><path class="cls-21" d="m199.5,151.18c0-.28-.23-.5-.51-.5s-.5.23-.5.5.22.5.5.5.51-.23.51-.5Z"/><path class="cls-21" d="m200.76,161.89s1.64.63,4.16.63c1.26,0,2.87-.5,4.17-1.01l-3.16-.25,4.07-.12s.08-.04.12-.05l1.5-3.99-.71,3.63c.28-.14.45-.22.45-.22,0,0,1.51-2.4,1.51-4.29v-4.42s-1.01.38-2.02,2.65-1.51,4.66-1.51,4.66c0,0-.75-2.02-1.89-3.15-1.13-1.13-3.28-2.14-3.28-2.14,0,0,.5,2.02,1.51,3.41,1.01,1.39,2.4,2.4,2.4,2.4,0,0-1.39.12-3.41.38-2.02.25-3.91,1.89-3.91,1.89h0Z"/><path class="cls-21" d="m193.32,154.96s1.89,1.26,4.67,1.26,3.53-.12,3.53-.12c0,0-5.17-2.65-8.2-1.13Z"/><path class="cls-21" d="m200.76,152.75c0-.32-.26-.57-.57-.57s-.57.26-.57.57.26.57.57.57.57-.26.57-.57Z"/><path class="cls-21" d="m213.75,158.74s1.1-.65,2.26-1.57c-.07-.75-.13-1.51-.21-2.29-.32.37-.64.78-.93,1.22-1.64,2.52-1.13,2.65-1.13,2.65h0Z"/><path class="cls-21" d="m202.78,211.25c-1.64,2.52-1.13,2.65-1.13,2.65,0,0,2.77-1.64,4.16-3.41,1.39-1.76,1.13-3.15,1.13-3.15,0,0-2.52,1.39-4.16,3.91Z"/><path class="cls-21" d="m214.31,198.03s1.45-1.68,1.51-3.05l-1-2.64c-.31.29-.66.69-1.01,1.27-1.01,1.65-1.51,3.41-1.51,3.41,0,0-.75-1.47-1.89-2.3-1.13-.83-3.28-1.57-3.28-1.57,0,0,.5,1.47,1.51,2.49,1.01,1.01,2.4,1.75,2.4,1.75,0,0-1.39.1-3.41.28-2.02.18-3.91,1.38-3.91,1.38,0,0,1.64.46,4.16.46,1.26,0,2.87-.37,4.17-.74l-3.16-.18,4.07-.09s.08-.02.11-.04l1.5-2.91-.71,2.65c.28-.1.45-.16.45-.16h0Z"/><path class="cls-21" d="m198.24,154.08c0,.28.23.5.51.5s.5-.23.5-.5-.22-.5-.5-.5-.51.22-.51.5Z"/><path class="cls-21" d="m182.48,143.36h-.02s0,0,0,.01c0,0,.02,0,.03-.01h0Z"/><path class="cls-21" d="m184.11,143.71s1.02.93,2.51.93,1.9-.1,1.9-.1c0,0-2.78-1.96-4.42-.84h0Z"/><path class="cls-21" d="m182.22,156.6s-.57.05-1.5.15c0,.49,0,.99,0,1.47l3.43-.1s.08-.04.12-.05l1.5-3.99-.71,3.63c.29-.14.45-.22.45-.22,0,0,1.51-2.4,1.51-4.28v-4.42s-1.01.38-2.02,2.65c-1.01,2.27-1.51,4.66-1.51,4.66,0,0-.75-2.02-1.89-3.15-.21-.21-.45-.41-.7-.6-.07.97-.11,1.96-.14,2.95.77.79,1.47,1.31,1.47,1.31Z"/><path class="cls-21" d="m188.27,174.85s1.02.93,2.51.93,1.9-.1,1.9-.1c0,0-2.78-1.96-4.42-.84h0Z"/><path class="cls-21" d="m183.55,144.3s-.36,1.33.33,2.66c.69,1.33.96,1.64.96,1.64,0,0,.46-3.37-1.28-4.3Z"/><path class="cls-21" d="m180.72,158.29c0,.33,0,.66.02.99.85-.2,1.73-.49,2.51-.8l-2.52-.2h0Z"/><path class="cls-21" d="m203.82,194.13c0,.2.23.36.51.36s.51-.16.51-.36-.23-.36-.51-.36-.51.16-.51.36Z"/><path class="cls-21" d="m217.9,196.46c-6.61,2.39-9.3,5.93-9.33,5.98-.08.1-.02.23.12.29.04.02.09.02.14.02.1,0,.2-.04.26-.11.03-.04,2.39-3.15,8.14-5.45.47.3,2.22,1.31,4.16,1.39,2.27.1,3.66.1,3.66.1,0,0-3.47-2.37-7.09-1.76.34-.12.7-.25,1.07-.37-.4-.04-.77-.07-1.1-.08h-.02Z"/><path class="cls-21" d="m225.41,214.45c-.08.14-.02.31.12.39.04.02.09.04.14.04.1,0,.2-.05.26-.15.03-.05,1.96-3.52,6.56-6.51.04-.25.07-.5.1-.74-5.03,3.13-7.13,6.92-7.16,6.98h-.01Z"/><path class="cls-21" d="m230.52,209.76s.57.53,1.5.79c.08-.37.16-.74.23-1.09-.61-.1-1.23-.05-1.73.3Z"/><path class="cls-21" d="m197.48,138.95c0,.28.23.5.51.5s.51-.23.51-.5c0-.12-.05-.23-.12-.32-.18.04-.48.1-.86.18-.01.05-.03.09-.03.14h0Z"/><path class="cls-21" d="m229.96,210.37s-.36,1.33.33,2.66c.34.67.58,1.07.74,1.32.1-.32.18-.63.27-.94-.04-1.06-.29-2.48-1.33-3.04h0Z"/><path class="cls-21" d="m209.01,143.58c.29-.14.45-.22.45-.22,0,0,.59-.93,1.03-2.1-.32-.12-.64-.25-.96-.38l-.52,2.69Z"/><path class="cls-21" d="m203.72,149.4c-.08.14-.02.32.12.39.04.02.09.04.14.04.1,0,.2-.05.25-.15.03-.06,2.39-4.31,8.14-7.46.3.26,1.15.93,2.22,1.4-.06-.47-.09-.74-.09-.74,0,0-1.12-.46-2.6-1.05-5.76,3.23-8.14,7.51-8.17,7.58h-.01Z"/><path class="cls-21" d="m197.43,241.81s1.89,1.26,4.67,1.26,3.53-.12,3.53-.12c0,0-5.17-2.65-8.2-1.13Z"/><path class="cls-21" d="m224.39,238.73c.18-.84.36-1.72.56-2.62-1.17-1.04-3.03-1.92-3.03-1.92,0,0,.51,2.02,1.51,3.41.3.41.64.79.96,1.13Z"/><path class="cls-21" d="m213.01,230.14l-3.16-.25,4.07-.12s.08-.04.11-.05l1.5-3.99-.71,3.63c.28-.14.45-.22.45-.22,0,0,1.51-2.4,1.51-4.28v-4.42s-1.01.38-2.02,2.65-1.51,4.66-1.51,4.66c0,0-.75-2.02-1.89-3.15-1.13-1.13-3.28-2.14-3.28-2.14,0,0,.5,2.02,1.51,3.41,1.01,1.39,2.4,2.4,2.4,2.4,0,0-1.39.12-3.41.38-2.02.25-3.91,1.89-3.91,1.89,0,0,1.64.63,4.16.63,1.26,0,2.87-.5,4.17-1.01h0Z"/><path class="cls-21" d="m197.23,141.09c2.77,0,3.53-.12,3.53-.12,0,0-3.05-1.55-5.84-1.6-.71.15-1.47.33-2.27.52.41.24,2.15,1.2,4.57,1.2h0Z"/><path class="cls-21" d="m207.82,255.69s2.77-1.64,4.16-3.41c1.39-1.76,1.13-3.15,1.13-3.15,0,0-2.52,1.39-4.16,3.91-1.64,2.52-1.13,2.65-1.13,2.65Z"/><path class="cls-21" d="m228.27,222.83c0,.08.02.15.05.21.07-.21.13-.43.2-.64-.15.09-.25.24-.25.42h0Z"/><path class="cls-21" d="m223.1,226.61s1.52,1.01,3.83,1.22c.14-.49.27-.98.41-1.46-1.44-.3-3.02-.37-4.24.24h0Z"/><path class="cls-21" d="m227.26,223.34c-.28,0-.5.23-.5.5s.23.5.5.5.51-.22.51-.5-.23-.5-.51-.5Z"/><path class="cls-21" d="m173.35,214.06s-.08.29-.09.73c.38.31.78.59,1.2.82-.19-.65-.52-1.24-1.11-1.55h0Z"/><path class="cls-21" d="m205.68,254.05l-.42,2.16c.27,0,.55,0,.83,0,.4-.86.85-2.02.85-3.05v-4.41s-1.01.38-2.02,2.65c-1.01,2.27-1.51,4.66-1.51,4.66,0,0-.75-2.02-1.89-3.15-1.13-1.13-3.28-2.14-3.28-2.14,0,0,.51,2.02,1.51,3.41.62.85,1.37,1.55,1.87,1.97.99.02,2.07.05,3.25.06l.81-2.16h0Z"/><path class="cls-21" d="m178.33,214.3s-2.78-1.96-4.42-.84c0,0,1.02.93,2.51.93s1.9-.1,1.9-.1h0Z"/><path class="cls-21" d="m196.55,241.41v.02s.15-.05.39-.15c1.41-.46,2.94-.83,4.63-1.08.15-.02.27-.17.24-.33-.02-.15-.17-.26-.33-.24-.84.12-1.63.28-2.4.46.17-.13.34-.27.49-.43,1.13-1.13,2.02-3.41,2.02-3.41,0,0-2.02.63-3.41,2.52-.63.86-1.02,1.48-1.26,1.9-1.13.36-2.17.77-3.13,1.22l-.03.65c.87-.41,1.79-.79,2.8-1.14h0Z"/><path class="cls-21" d="m200.33,245.22s-3.15-2.94-6.58-2.49l-.06,1.32c.78.49,1.85.99,2.98,1.05,2.27.12,3.66.12,3.66.12Z"/><path class="cls-21" d="m223.68,241.64h.11c.09-.47.2-.96.3-1.46-.48.05-1.04.12-1.67.2-2.02.25-3.91,1.89-3.91,1.89,0,0,1.64.63,4.16.63.28,0,.57-.03.87-.07.08-.39.15-.78.24-1.18h-.11.01Z"/><path class="cls-21" d="m220.68,252.73c0-.31-.26-.57-.57-.57s-.57.26-.57.57.25.57.57.57.57-.26.57-.57Z"/><path class="cls-21" d="m213.24,254.93s1.28.85,3.26,1.15c2.54-.09,3.87-.21,4.42-.26-1.38-.62-5.23-2.11-7.68-.89Z"/><path class="cls-21" d="m181.68,145.84c1.31-1.42,3.26-3.15,5.97-4.63.47.4,2.22,1.8,4.16,1.9,2.27.12,3.66.12,3.66.12,0,0-2.88-2.68-6.13-2.53-1.33.34-2.62.7-3.7,1.05-1.51,1-2.74,2.04-3.7,3-.09.33-.18.69-.25,1.09Z"/><path class="cls-21" d="m183.38,142.99s.08-.04.11-.05l.17-.46c-.43.19-.75.37-.94.53l.65-.02h0Z"/><path class="cls-21" d="m184.29,142.57c.28-.14.45-.22.45-.22,0,0,.09-.14.22-.38-.21.07-.41.14-.6.21l-.08.39h0Z"/><path class="cls-21" d="m182.48,175.51c1.26,0,2.87-.5,4.17-1.01l-3.16-.25,4.07-.12s.08-.04.11-.05l1.5-3.99-.71,3.63c.29-.14.45-.22.45-.22,0,0,1.51-2.4,1.51-4.29v-4.41s-1.01.38-2.02,2.65c-1.01,2.27-1.51,4.66-1.51,4.66,0,0-.75-2.02-1.89-3.15-1.13-1.13-3.28-2.14-3.28-2.14,0,0,.5,2.02,1.51,3.41,1.01,1.39,2.4,2.4,2.4,2.4,0,0-1.39.12-3.41.38-.04,0-.08.01-.12.02.05,1.03.05,1.64.05,1.64,0,0-.28.3-.75.82.34.02.7.04,1.09.04h0Z"/><path class="cls-21" d="m180.2,185.85c-1.64,2.52-1.13,2.65-1.13,2.65,0,0,2.77-1.64,4.16-3.41,1.39-1.76,1.13-3.15,1.13-3.15,0,0-2.52,1.39-4.16,3.91Z"/><path class="cls-21" d="m201.09,239.04c0,.28.23.51.51.51s.5-.23.5-.51-.23-.5-.5-.5-.51.23-.51.5Z"/><path class="cls-21" d="m171.57,213.06c.07.08.14.17.21.25.17-.07.34-.13.51-.2l-.72-.06h0Z"/><path class="cls-21" d="m171.36,212.8l1.82-.05s.08-.04.11-.05l1.5-3.99-.71,3.63c.29-.14.45-.22.45-.22,0,0,1.51-2.4,1.51-4.28v-4.41s-1.01.38-2.02,2.65-1.51,4.67-1.51,4.67c0,0-.75-2.02-1.89-3.15-.65-.65-1.61-1.25-2.33-1.65.31,1.31.72,2.56,1.24,3.73.86.95,1.73,1.58,1.73,1.58,0,0-.33.03-.88.09.3.52.63,1.02.99,1.48h0Z"/><path class="cls-21" d="m196.99,216.67l-3.16-.25,4.07-.12s.08-.04.12-.05l1.5-3.99-.71,3.63c.28-.14.45-.22.45-.22,0,0,1.51-2.4,1.51-4.29v-4.41s-1.01.38-2.02,2.65c-1.01,2.27-1.51,4.66-1.51,4.66,0,0-.75-2.02-1.89-3.15-1.13-1.13-3.28-2.14-3.28-2.14,0,0,.51,2.02,1.51,3.41,1.01,1.39,2.4,2.4,2.4,2.4,0,0-1.39.12-3.41.38-2.02.25-3.91,1.89-3.91,1.89,0,0,1.64.63,4.16.63,1.26,0,2.87-.51,4.17-1.01h0Z"/><path class="cls-21" d="m188.54,205.81c0-.28-.23-.51-.51-.51s-.5.23-.5.51.23.5.5.5.51-.23.51-.5Z"/><path class="cls-21" d="m191.48,201.24c.69.95.96,1.18.96,1.18,0,0,.46-2.42-1.28-3.09,0,0-.36.96.33,1.91h0Z"/><path class="cls-21" d="m182.36,209.59s1.89,1.26,4.67,1.26,3.53-.12,3.53-.12c0,0-5.17-2.65-8.2-1.13Z"/><path class="cls-21" d="m196.12,199.51s-2.78-1.41-4.42-.61c0,0,1.02.67,2.51.67s1.9-.07,1.9-.07h0Z"/><path class="cls-21" d="m186.02,206.82c0,.28.23.5.5.5s.5-.23.5-.5-.23-.5-.5-.5-.5.23-.5.5Z"/><path class="cls-21" d="m187.28,208.71c0,.28.23.5.51.5s.5-.22.5-.5-.23-.51-.5-.51-.51.23-.51.51Z"/><path class="cls-21" d="m188.67,207.39c0,.31.26.57.57.57s.57-.26.57-.57-.26-.57-.57-.57-.57.26-.57.57Z"/><path class="cls-21" d="m176.76,196.51s.46-3.37-1.28-4.3c0,0-.36,1.34.33,2.66.69,1.33.96,1.64.96,1.64Z"/><path class="cls-21" d="m180.46,192.45s-2.78-1.96-4.42-.84c0,0,1.02.93,2.51.93s1.9-.1,1.9-.1h0Z"/><path class="cls-21" d="m170.94,196.3c-.08.14-.02.31.12.39.04.02.09.03.14.03.1,0,.2-.05.26-.15.03-.06,2.39-4.32,8.14-7.46.47.4,2.22,1.8,4.16,1.9,2.27.12,3.66.12,3.66.12,0,0-3.47-3.25-7.09-2.41,1.01-.51,2.11-.98,3.31-1.39,0,0,0,.02,0,.02,0,0,.15-.05.39-.15,1.41-.46,2.94-.83,4.63-1.08.15-.02.27-.17.24-.33-.02-.15-.17-.26-.33-.24-.84.12-1.63.28-2.4.46.17-.13.34-.27.49-.43,1.13-1.13,2.02-3.41,2.02-3.41,0,0-2.02.63-3.41,2.52-.63.86-1.02,1.48-1.26,1.9-9.34,2.97-13.01,9.61-13.05,9.69h0Z"/><path class="cls-21" d="m190.08,198.65l-3.16-.18,4.07-.09s.08-.02.12-.04l1.5-2.86-.71,2.6c.29-.1.45-.16.45-.16,0,0,1.51-1.72,1.51-3.07v-3.16s-1.01.27-2.02,1.9c-1.01,1.63-1.51,3.35-1.51,3.35,0,0-.75-1.45-1.89-2.26-1.13-.81-3.28-1.54-3.28-1.54,0,0,.51,1.45,1.51,2.44s2.4,1.72,2.4,1.72c0,0-1.39.09-3.41.27-2.02.18-3.91,1.36-3.91,1.36,0,0,1.64.45,4.16.45,1.26,0,2.87-.36,4.17-.72h0Z"/><path class="cls-21" d="m176.94,210.35s2.77-1.64,4.16-3.41c1.39-1.76,1.13-3.15,1.13-3.15,0,0-2.52,1.39-4.16,3.91-1.64,2.52-1.13,2.65-1.13,2.65Z"/><path class="cls-21" d="m186.72,202.54s.09.02.14.02c.1,0,.2-.04.26-.11.03-.04,2.39-3.09,8.14-5.35.47.29,2.22,1.29,4.16,1.37,2.27.09,3.66.09,3.66.09,0,0-3.47-2.33-7.09-1.73,1.01-.37,2.11-.71,3.31-1v.02s.15-.04.39-.11c1.41-.33,2.94-.6,4.63-.78.15-.02.27-.12.24-.23-.02-.11-.17-.19-.33-.17-.84.09-1.63.2-2.4.33.17-.1.34-.2.49-.31,1.13-.81,2.02-2.44,2.02-2.44,0,0-2.02.45-3.41,1.81-.63.62-1.02,1.06-1.26,1.37-9.34,2.13-13.01,6.89-13.05,6.95-.08.1-.02.23.12.28h0Z"/><path class="cls-21" d="m211.24,209.87c-.28,0-.51.23-.51.51s.23.5.51.5.51-.23.51-.5-.23-.51-.51-.51Z"/><path class="cls-21" d="m196.16,239.16c1.39-1.76,1.13-3.15,1.13-3.15,0,0-1.82,1-3.38,2.85l-.11,2.48c.81-.61,1.72-1.38,2.35-2.18h0Z"/><path class="cls-21" d="m204.3,240.17c.32,0,.57-.26.57-.57s-.26-.57-.57-.57-.57.26-.57.57.26.57.57.57Z"/><path class="cls-21" d="m207.08,213.14s1.89,1.26,4.67,1.26,3.53-.12,3.53-.12c0,0-5.17-2.65-8.2-1.13Z"/><path class="cls-21" d="m199.34,221.92s.46-3.37-1.28-4.3c0,0-.36,1.33.33,2.66.69,1.33.96,1.64.96,1.64Z"/><path class="cls-21" d="m203.6,238.03c0-.28-.23-.5-.5-.5s-.5.23-.5.5.23.5.5.5.5-.23.5-.5Z"/><path class="cls-21" d="m211.99,212.26c0,.28.23.5.5.5s.51-.22.51-.5-.23-.5-.51-.5-.5.23-.5.5Z"/><path class="cls-21" d="m202.34,240.93c0,.28.23.51.51.51s.5-.23.5-.51-.22-.5-.5-.5-.51.23-.51.5Z"/><path class="cls-21" d="m203.04,217.86s-2.78-1.96-4.42-.84c0,0,1.02.93,2.51.93s1.9-.1,1.9-.1h0Z"/><path class="cls-21" d="m213.68,199.02s1.02.68,2.51.68,1.9-.07,1.9-.07c0,0-2.78-1.43-4.41-.61h0Z"/><path class="cls-21" d="m206.32,216.42c2.27.12,3.66.12,3.66.12,0,0-3.47-3.25-7.09-2.41,1.01-.51,2.11-.98,3.31-1.39,0,0,0,.02,0,.02,0,0,.15-.05.39-.15,1.41-.46,2.94-.83,4.63-1.08.15-.02.27-.17.24-.33-.02-.15-.17-.26-.33-.24-.84.12-1.63.28-2.4.46.17-.13.34-.27.49-.43,1.13-1.13,2.02-3.41,2.02-3.41,0,0-2.02.63-3.41,2.52-.63.86-1.02,1.48-1.26,1.91-6.3,2-10.01,5.67-11.78,7.88l-.05,1c1.08-1.48,3.43-4.19,7.42-6.37.47.4,2.22,1.8,4.16,1.9h0Z"/><path class="cls-21" d="m212.25,209.36c0,.28.23.5.51.5s.5-.22.5-.5-.23-.51-.5-.51-.51.23-.51.51Z"/><path class="cls-21" d="m217.67,227.37s2.77-1.64,4.16-3.41c1.39-1.76,1.13-3.15,1.13-3.15,0,0-2.52,1.39-4.16,3.91-1.64,2.52-1.13,2.65-1.13,2.65Z"/><path class="cls-21" d="m213.94,210.37c-.32,0-.57.26-.57.57s.26.57.57.57.57-.25.57-.57-.26-.57-.57-.57Z"/><path class="cls-21" d="m213.11,199.45s-.36.97.33,1.94c.69.97.96,1.2.96,1.2,0,0,.46-2.46-1.28-3.14Z"/></g><path class="cls-7" d="m178.85,198.92s22.81-2.02,30.89,1.44c8.09,3.47,8.8,7.51,8.8,7.51"/><path class="cls-7" d="m220.28,204.41s1.88,4.91,0,11.26"/><path class="cls-7" d="m196.32,171.07s6.64-.29,13.43-2.74"/><path class="cls-7" d="m194.88,172.51s4.91.43,8.8-.87"/><path class="cls-7" d="m198.6,138.59s-14.17,2.86-15.89,4.44c-1.71,1.57-2.58,15.45-1.57,21.18,1,5.73,1,10.45,1,10.45,0,0-11.45,12.17-13.74,20.18-2.29,8.01.86,19.32,7.59,21.46,6.73,2.15,18.9,1.43,18.9,1.43l-1.71,37.92s4.01.57,14.46.57,13.6-.43,13.6-.43c0,0,1.15-8.16,4.44-22.9,3.29-14.74,9.45-25.9,6.01-31.2-3.44-5.29-15.32-5.29-15.32-5.29l-7.3-19.18s1.15-3.44,1.86-4.87c.72-1.43,5.44-3.86,5.44-9.16s-1.86-20.32-1.86-20.32c0,0-7.02-2.86-9.16-3.58-2.15-.72-6.73-.72-6.73-.72h-.01Z"/><path class="cls-14" d="m175.7,170.78s8.45-12.88,9.45-19.03,0-8.87-1.43-9.16c-1.43-.29-5.73,1.43-7.59,6.01-1.86,4.58-9.45,21.46-10.88,25.19-1.43,3.72-1,5.01,1,6.01,2.01,1,5.01-1.86,6.87-4.58,1.86-2.72,2.58-4.44,2.58-4.44h0Z"/><path class="cls-14" d="m192.7,177.48s1.92-.31,2.09.27c.17.58.16,3.54.14,4.11-.02.57-2.17-3.32-2.45-3.62-.28-.3-.25-.87.22-.75h0Z"/><path class="cls-13" d="m195.11,184.82c-.22,0-.43-.14-.51-.36l-5.25-13.37c-.11-.3.03-.63.32-.74.3-.12.63.03.74.33l5.25,13.36c.11.3-.03.63-.32.74-.08.03-.15.04-.23.04h0Z"/><path class="cls-21" d="m167.53,173.81s.9-1.02,3.18-.84c2.29.18,4.24,1.4,7.81,3.34,3.56,1.94,8.61,2.12,8.61,2.12l-1.23,4.92s-2.58.1-4.09-.53c-1.51-.63-7.17.22-12.37-1.3-5.2-1.52-5.34-2.87-4.79-5.13"/><path class="cls-7" d="m167.53,173.81s.9-1.02,3.18-.84c2.29.18,4.24,1.4,7.81,3.34,3.56,1.94,8.61,2.12,8.61,2.12l-1.23,4.92s-2.58.1-4.09-.53c-1.51-.63-7.17.22-12.37-1.3-5.2-1.52-5.34-2.87-4.79-5.13"/><path class="cls-21" d="m184.37,180.81l4.58-5.18s.97-.54,1.35-.43c.38.11,3.75,4.81,4.17,6.26.42,1.45.39,2.59-.1,2.86s-7.24-.45-8-.67c-.75-.22-1.85-1.6-1.85-1.6"/><path class="cls-7" d="m184.37,180.81l4.58-5.18s.97-.54,1.35-.43c.38.11,3.75,4.81,4.17,6.26.42,1.45.39,2.59-.1,2.86s-7.24-.45-8-.67c-.75-.22-1.85-1.6-1.85-1.6"/><path class="cls-7" d="m185.9,180.87l2.95,3.06"/><path class="cls-7" d="m191.88,184.33l-4.48-5.51"/><path class="cls-7" d="m189.1,176.69s4.85,5.9,5.38,7.07"/><path class="cls-11" d="m199.11,103.53c-.27.42-7.81,1.85-9.24,7.29-1.26,4.77-4.43,20.7-4.76,21.19-.33.49-1.15,1.98-1.15,1.98l8.73,1.98,1.98-2.3v2.8s7.08,1.98,11.69,1.81c4.61-.17,7.74-.49,7.74-.49l.17-1.64.99,1.48,4.78-.17.33-2.8s0,2.47.83,2.63c.82.17,4.78-.82,4.78-.82,0,0-2.64-3.29-4.12-10.87-1.48-7.57-.82-14.82-5.93-20.25-5.1-5.44-12.68-8.07-16.8-1.81h0Z"/><path class="cls-20" d="m183.82,132.1s-.08,0-.11-.02c-.15-.06-.21-.23-.15-.37,1.29-3.09,1.84-6.15,2.41-9.39.57-3.24,1.16-6.58,2.54-10.42,2.81-7.83,10.3-7.92,10.38-7.92.16,0,.29.13.29.28s-.13.29-.29.29c-.07,0-7.17.1-9.84,7.54-1.36,3.79-1.95,7.11-2.52,10.32-.58,3.28-1.13,6.37-2.44,9.51-.05.11-.16.18-.26.18h0Z"/><path class="cls-14" d="m197.58,132.85s-.2,5.96-.2,11.73,2.29,10.44,5.07,10.84c2.78.4,4.58-5.47,4.58-8.05s.4-9.15.4-9.15c0,0-6.96-1.49-9.84-5.37Z"/><path class="cls-11" d="m197.58,132.85s-.11,3.15-.16,7.07c2.4,1.88,6.17,3.02,9.56.81.11-.07.21-.16.31-.24.07-1.32.13-2.28.13-2.28,0,0-6.96-1.49-9.84-5.37h0Z"/><path class="cls-14" d="m201.74,113.74s-.49,3.79-2.64,6.42c-2.14,2.63-3.46,2.8-3.46,2.8,0,0-1.15-4.78-3.13-2.3-1.98,2.47-.82,4.94.66,6.26,1.48,1.32,2.64.49,2.64.49,0,0,.88,6.34,2.86,8.97,1.98,2.64,6.86,5.17,11.14,2.39,3.22-2.1,4.78-8.89,5.27-11.86l-13.34-13.17h0Z"/><path class="cls-7" d="m209.12,122.36s1,7.66,0,8.15c-1,.5-2.89-1.29-2.89-1.29"/><path class="cls-20" d="m204.45,123.61c0,.63-.31,1.15-.69,1.15s-.69-.51-.69-1.15.31-1.15.69-1.15.69.51.69,1.15Z"/><path class="cls-20" d="m211.71,123.61c0,.63-.31,1.15-.69,1.15s-.7-.51-.7-1.15.32-1.15.7-1.15.69.51.69,1.15Z"/><path class="cls-7" d="m203.65,127.43c2.42,0,4.38-1.96,4.38-4.37s-1.96-4.37-4.38-4.37-4.38,1.96-4.38,4.37,1.96,4.37,4.38,4.37Z"/><path class="cls-7" d="m217.77,123.26c0,2.41-1.96,4.37-4.38,4.37s-4.38-1.96-4.38-4.37,1.96-4.37,4.38-4.37,4.38,1.96,4.38,4.37Z"/><path class="cls-7" d="m208.13,122.07h.99"/><path class="cls-7" d="m199.47,122.46h-3.88"/><path class="cls-7" d="m203.85,130.81s1,1.59,3.48,1.29"/><path class="cls-7" d="m202.46,124.45l2.09.3"/><path class="cls-7" d="m212.2,124.65l-1.79.3"/><path class="cls-6" d="m201.96,120.37s1.3-1.69,3.58-.4"/><path class="cls-11" d="m309.19,157.33h-36.29l6.7,27.27h36.28l-6.7-27.27Z"/><path class="cls-14" d="m307.47,158.92h-32.07l5.92,24.1h32.07l-5.92-24.1Z"/><path class="cls-12" d="m307.47,158.92h-32.07l.55,2.25h32.07l-.55-2.25Z"/><path class="cls-7" d="m280.5,164.12h11.45"/><path class="cls-7" d="m280.87,165.6h11.46"/><path class="cls-7" d="m281.24,167.08h11.46"/><path class="cls-7" d="m281.61,168.56h11.45"/><path class="cls-19" d="m306.59,163.56h-12.05l2.23,9.06h12.05l-2.23-9.06Z"/><path class="cls-14" d="m332.14,182.17h-53.12v2.44h53.12v-2.44Z"/><path class="cls-11" d="m332.14,182.17h-29.08v2.44h29.08v-2.44Z"/><path class="cls-14" d="m295.88,179.49s-1.66,1.92,0,4.22h-23.78l-.9-2.3,1.15-2.05,23.52.13Z"/><path class="cls-12" d="m272.11,183.61v-3.86h21.93v-.96h-31.31c-1.6,0-2.89,1.29-2.89,2.89s1.3,2.89,2.89,2.89h31.31v-.96h-21.93Z"/><path class="cls-12" d="m272.11,181.68c0-1.06.87-1.93,1.93-1.93h23v-.96h-23.54c-1.53,0-2.77,1.24-2.77,2.77,0,1.66,1.35,3.01,3.01,3.01h23.31v-.96h-23c-1.06,0-1.93-.86-1.93-1.93Z"/><path class="cls-14" d="m297.79,173.64s-1.66,1.92,0,4.22h-23.77l-.9-2.3,1.15-2.05,23.52.13Z"/><path class="cls-12" d="m274.01,177.76v-3.86h21.93v-.96h-31.31c-1.6,0-2.89,1.29-2.89,2.89s1.29,2.89,2.89,2.89h31.31v-.96h-21.93Z"/><path class="cls-12" d="m274.01,175.83c0-1.06.87-1.93,1.93-1.93h23v-.96h-23.54c-1.53,0-2.77,1.24-2.77,2.77,0,1.66,1.35,3.01,3.01,3.01h23.3v-.96h-23c-1.06,0-1.93-.86-1.93-1.93Z"/><path class="cls-21" d="m219.98,193.98s5.95-1.19,11.45-.15l-11.45.15Z"/><path class="cls-7" d="m219.98,193.98s5.95-1.19,11.45-.15"/><path class="cls-11" d="m249.29,193.01l.27,86.45h2.97l6.75-86.45h-10Z"/><path class="cls-11" d="m379.23,196.16l6.51,83.3h2.97l.26-83.3h-9.74Z"/><path class="cls-14" d="m187.79,193.01l.27,86.45h2.97l6.76-86.45h-10Z"/><path class="cls-11" d="m187.81,199.32h9.49l.49-6.3h-10l.02,6.3Z"/><path class="cls-14" d="m392.47,184.67h-211.52v11.45h211.52v-11.45Z"/><path class="cls-11" d="m392.47,184.67h-75.58v11.45h75.58v-11.45Z"/><path class="cls-11" d="m392.47,184.67h-211.52v6.06h211.52v-6.06Z"/><path class="cls-10" d="m396.48,184.67h-219.53v4.58h219.53v-4.58Z"/><path class="cls-11" d="m396.48,184.67h-82.74v4.58h82.74v-4.58Z"/><path class="cls-14" d="m350.79,118s-.02.18-.04.48c-.11,1.42-.37,5.62.38,7.35.92,2.09,1.7,3.93,1.44,5.11-.26,1.18-1.57,3.28-1.05,4.06.52.78,3.02.78,3.02.78,0,0,3.41,7.6,5.63,8.65,2.23,1.05,5.24-1.83,5.24-1.83l2.49,5.37,10.61-3.93-2.23-7.99s4.98-8.52,5.5-11.26c.52-2.75-6.55-9.17-12.71-10.22-6.16-1.05-14.96-2.95-18.29,3.44h0Z"/><path class="cls-20" d="m355.04,129c.2.66.11,1.27-.2,1.37-.31.1-.73-.36-.93-1.01-.2-.66-.11-1.27.2-1.36.31-.1.73.36.93,1.01Z"/><path class="cls-7" d="m352.57,126.1s.65-2.1,2.23-.92"/><path class="cls-11" d="m358.99,118.91s.68,12.99.23,20.27c-.46,7.29-2.74,16.17-2.74,16.17l10.71-5.01s5.93-20.5,5.47-24.15c-.46-3.64-13.67-7.29-13.67-7.29h0Z"/><path class="cls-11" d="m332.86,217.86c0,.92,9.24,39.45,9.24,39.45l6.9-1.13-.82-37.39-15.32-.92Z"/><path class="cls-11" d="m352.24,251.22l-14.03,1.85,4.61,16.24s-9.6,4.24-11.26,5.35c-1.66,1.11-2.21,2.03-2.03,3.14.18,1.11.55,1.66.55,1.66h24.37s.55-3.14.55-5.17-1.29-8.86-1.48-9.96c-.18-1.1-1.29-13.1-1.29-13.1h0Z"/><path class="cls-11" d="m340.06,200.51s-18.83.74-24.37,5.72c-5.54,4.99,9.14,50.18,9.14,50.18l6.64.18-.84-37.44,9.42.37,2.03-15.87-2.03-3.14h0Z"/><path class="cls-12" d="m334.15,251.22l-14.03,1.85,4.61,16.24s-9.6,4.24-11.26,5.35c-1.66,1.11-2.22,2.03-2.03,3.14.18,1.11.55,1.66.55,1.66h24.37s.55-3.14.55-5.17-1.29-8.86-1.48-9.96c-.18-1.11-1.29-13.1-1.29-13.1h0Z"/><path class="cls-14" d="m329.33,181.61s-3.66-2.88-4.71-2.88-2.48.65-2.88.65-1.31-.26-1.96.13c-.65.39-1.31,1.18-1.31,1.18,0,0-.92.39-1.96,1.04-1.05.65-3.53,3.66-3.92,4.31s0,1.04.65.65c.65-.39,4.18-3.14,4.18-3.14,0,0,3.27,1.57,4.05,2.35.78.78,1.83,1.7,3.53,2.09,1.7.39,3.92.39,3.92.39,0,0,2.35-2.48,1.96-4.31-.39-1.83-1.57-2.48-1.57-2.48h0Z"/><path class="cls-21" d="m385.14,143.64c-2.92-1.66-6.4-1.94-9.56-.83-2.4.85-5.38,1.98-7.83,3.16-4.99,2.4-12.74,7.93-14.77,9.78-2.03,1.85-3.88,12.55-3.88,18.82s-1.65,12.27-1.65,12.27c.87.01,2.61.78-9.7-1.73-4.78-.97-8.21-4.45-8.21-4.45,0,0-3.14.55-4.8,3.51-1.66,2.96-1.85,5.35-1.85,5.35,0,0,4.8,1.29,5.91,2.4,1.11,1.11,15.87,6.74,18.46,7.29,2.58.55,3.14.55,3.14.55l-10.33.74s-3.88,2.4-4.06,8.12c-.18,5.72,2.96,10.89,2.96,10.89h55.01s3.69-3.32,4.61-6.83c.92-3.51-.92-21.5-.92-21.5,0,0,13.29-.37,14.21-2.4.92-2.03-1.29-5.72-3.88-9.78-2.58-4.06-7.75-15.13-10.52-20.85-2.77-5.72-4.06-9.41-9.97-13.1-.88-.55-1.66-1.01-2.36-1.41h0Z"/><path class="cls-20" d="m408.31,188.09c0-.07-.01-.12-.04-.18-.07-.17-.24-.29-.43-.29v.46h.46Z"/><path class="cls-20" d="m407.85,178.79v.48c.1,0,.17-.04.25-.08-.04-.06-.07-.11-.11-.17-.05-.07-.09-.15-.14-.22h0Z"/><path class="cls-20" d="m407.85,188.55c.26,0,.46-.21.46-.46h-.46v.46Z"/><path class="cls-20" d="m389.74,150.95c0-.06-.01-.12-.04-.18-.02-.05-.06-.11-.1-.15-.08-.08-.2-.14-.33-.14v.46h.46Z"/><path class="cls-20" d="m399.03,169.52c0-.07-.01-.12-.04-.18-.07-.17-.24-.28-.43-.28s-.36.12-.43.28c-.02.05-.04.12-.04.18h.93Z"/><path class="cls-20" d="m398.1,160.24c0,.26.21.46.46.46.04,0,.08-.01.11-.02-.13-.27-.26-.55-.39-.81-.11.08-.19.21-.19.37Z"/><path class="cls-20" d="m393.92,165.35c.26,0,.46-.21.46-.46s-.21-.46-.46-.46-.46.21-.46.46.21.46.46.46Z"/><path class="cls-20" d="m393.46,155.6c0,.26.21.46.46.46s.46-.21.46-.46-.21-.46-.46-.46-.46.21-.46.46Z"/><path class="cls-20" d="m389.74,169.52c0-.07-.01-.12-.04-.18-.02-.05-.06-.11-.1-.15-.08-.08-.2-.14-.33-.14v.46h.46Z"/><path class="cls-20" d="m389.61,159.91c-.08-.08-.2-.14-.33-.14v.93c.13,0,.24-.05.33-.14.08-.08.14-.2.14-.33s-.05-.24-.14-.33Z"/><path class="cls-20" d="m389.28,150.95v.46c.13,0,.24-.05.33-.14.08-.08.14-.2.14-.33h-.46Z"/><path class="cls-20" d="m407.85,187.62c-.07,0-.12.01-.18.04-.11.05-.2.14-.25.25-.02.05-.04.12-.04.18h.46v-.46Z"/><path class="cls-20" d="m398.99,187.9c-.07-.17-.24-.29-.43-.29s-.36.12-.43.29c-.02.05-.04.12-.04.18h.93c0-.07-.01-.12-.04-.18Z"/><path class="cls-20" d="m407.62,178.41c-.14.08-.23.23-.23.39,0,.19.12.36.29.43.05.02.12.04.18.04v-.47c-.08-.12-.15-.25-.23-.38Z"/><path class="cls-20" d="m398.57,178.34c-.26,0-.46.21-.46.46s.21.46.46.46.46-.21.46-.46-.21-.46-.46-.46Z"/><path class="cls-20" d="m393.92,182.98c-.26,0-.46.21-.46.46s.21.46.46.46.46-.21.46-.46-.21-.46-.46-.46Z"/><path class="cls-20" d="m403.21,182.98c-.26,0-.46.21-.46.46s.21.46.46.46.46-.21.46-.46-.21-.46-.46-.46Z"/><path class="cls-20" d="m393.92,173.7c-.26,0-.46.21-.46.46s.21.46.46.46.46-.21.46-.46-.21-.46-.46-.46Z"/><path class="cls-20" d="m402.74,174.16c0,.26.21.46.46.46s.46-.21.46-.46-.21-.46-.46-.46-.46.21-.46.46Z"/><path class="cls-20" d="m389.74,188.09c0-.07-.01-.12-.04-.18-.02-.05-.06-.11-.1-.15-.08-.08-.2-.14-.33-.14v.46h.46Z"/><path class="cls-20" d="m389.61,178.47c-.08-.08-.2-.14-.33-.14v.93c.13,0,.24-.05.33-.14.08-.08.14-.2.14-.33s-.05-.24-.14-.33Z"/><path class="cls-20" d="m398.14,169.7c.07.17.24.28.43.28s.36-.12.43-.28c.02-.05.04-.12.04-.18h-.93c0,.07.01.12.04.18Z"/><path class="cls-20" d="m389.28,169.52v.46c.13,0,.24-.05.33-.14.04-.04.08-.09.1-.15.02-.05.04-.12.04-.18h-.46Z"/><path class="cls-20" d="m398.57,206.19c-.26,0-.46.21-.46.46h.68c0-.14,0-.27-.01-.41-.07-.03-.13-.05-.21-.05Z"/><path class="cls-20" d="m398.24,197.7c-.02-.2-.03-.39-.05-.59-.05.08-.09.16-.09.26,0,.13.05.24.14.33h0Z"/><path class="cls-20" d="m393.92,201.55c-.26,0-.46.21-.46.46s.21.46.46.46.46-.21.46-.46-.21-.46-.46-.46Z"/><path class="cls-20" d="m393.92,192.26c-.26,0-.46.21-.46.46s.21.46.46.46.46-.21.46-.46-.21-.46-.46-.46Z"/><path class="cls-20" d="m389.74,206.65c0-.13-.05-.24-.14-.33-.08-.08-.2-.14-.33-.14v.46h.46Z"/><path class="cls-20" d="m389.61,197.04c-.08-.08-.2-.14-.33-.14v.93c.13,0,.24-.05.33-.14.08-.08.14-.2.14-.33s-.05-.24-.14-.33Z"/><path class="cls-20" d="m407.85,188.09h-.46c0,.19.12.36.29.43.05.02.12.03.18.03v-.46Z"/><path class="cls-20" d="m398.57,188.55c.26,0,.46-.21.46-.46h-.93c0,.25.21.46.46.46Z"/><path class="cls-20" d="m389.28,188.09v.46c.13,0,.24-.05.33-.14.08-.08.14-.2.14-.33h-.46Z"/><path class="cls-20" d="m393.92,210.83c-.26,0-.46.21-.46.46s.21.46.46.46.46-.21.46-.46-.21-.46-.46-.46Z"/><path class="cls-20" d="m389.61,216.26c.08-.08.14-.2.14-.33s-.05-.24-.14-.33c-.08-.08-.2-.14-.33-.14v.93c.13,0,.24-.05.33-.14Z"/><path class="cls-20" d="m398.14,206.83c.07.17.24.29.43.29.09,0,.17-.03.23-.07,0-.13,0-.26-.01-.39h-.68c0,.07.01.12.04.18Z"/><path class="cls-20" d="m389.28,206.65v.46c.13,0,.24-.05.33-.14.04-.04.08-.09.1-.15.02-.05.04-.12.04-.18h-.46Z"/><path class="cls-20" d="m389.28,150.49c-.19,0-.36.12-.43.28-.02.05-.04.12-.04.18h.46v-.46Z"/><path class="cls-20" d="m380.46,150.95c0-.06-.01-.12-.04-.18-.07-.17-.24-.28-.43-.28s-.36.12-.43.28c-.02.05-.04.12-.04.18h.93Z"/><path class="cls-20" d="m374.89,146.31c0,.26.21.46.46.46s.46-.21.46-.46-.21-.46-.46-.46-.46.21-.46.46Z"/><path class="cls-20" d="m385.1,146.31c0-.26-.21-.46-.46-.46s-.46.21-.46.46.21.46.46.46.46-.21.46-.46Z"/><path class="cls-20" d="m370.71,150.95h.46c0-.06-.01-.12-.03-.18-.07-.17-.24-.28-.43-.28v.46Z"/><path class="cls-20" d="m389.28,169.52v-.46c-.19,0-.36.12-.43.28-.02.05-.04.12-.04.18h.46Z"/><path class="cls-20" d="m380.46,169.52c0-.07-.01-.12-.04-.18-.07-.17-.24-.28-.43-.28s-.36.12-.43.28c-.02.05-.04.12-.04.18h.93Z"/><path class="cls-20" d="m388.82,160.24c0,.26.21.46.46.46v-.93c-.26,0-.46.21-.46.46Z"/><path class="cls-20" d="m380,159.77c-.26,0-.46.21-.46.46s.21.46.46.46.46-.21.46-.46-.21-.46-.46-.46Z"/><path class="cls-20" d="m375.35,165.35c.26,0,.46-.21.46-.46s-.21-.46-.46-.46-.46.21-.46.46.21.46.46.46Z"/><path class="cls-20" d="m384.64,165.35c.26,0,.46-.21.46-.46s-.21-.46-.46-.46-.46.21-.46.46.21.46.46.46Z"/><path class="cls-20" d="m375.35,156.06c.26,0,.46-.21.46-.46s-.21-.46-.46-.46-.46.21-.46.46.21.46.46.46Z"/><path class="cls-20" d="m384.64,156.06c.26,0,.46-.21.46-.46s-.21-.46-.46-.46-.46.21-.46.46.21.46.46.46Z"/><path class="cls-20" d="m371.17,169.52c0-.07-.01-.12-.03-.18-.07-.17-.24-.28-.43-.28v.46h.46Z"/><path class="cls-20" d="m371.17,160.24c0-.25-.21-.46-.46-.46v.93c.26,0,.46-.21.46-.46Z"/><path class="cls-20" d="m389.28,151.42v-.46h-.46c0,.26.21.46.46.46Z"/><path class="cls-20" d="m380,151.42c.26,0,.46-.21.46-.46h-.93c0,.26.21.46.46.46Z"/><path class="cls-20" d="m370.71,151.42c.26,0,.46-.21.46-.46h-.46v.46Z"/><path class="cls-20" d="m389.28,187.62c-.19,0-.36.12-.43.29-.02.05-.04.12-.04.18h.46v-.46Z"/><path class="cls-20" d="m380.42,187.9c-.07-.17-.24-.29-.43-.29s-.36.12-.43.29c-.02.05-.04.12-.04.18h.93c0-.07-.01-.12-.04-.18Z"/><path class="cls-20" d="m388.82,178.8c0,.26.21.46.46.46v-.93c-.26,0-.46.21-.46.46Z"/><path class="cls-20" d="m380,178.34c-.26,0-.46.21-.46.46s.21.46.46.46.46-.21.46-.46-.21-.46-.46-.46Z"/><path class="cls-20" d="m375.35,182.98c-.26,0-.46.21-.46.46s.21.46.46.46.46-.21.46-.46-.21-.46-.46-.46Z"/><path class="cls-20" d="m384.64,182.98c-.26,0-.46.21-.46.46s.21.46.46.46.46-.21.46-.46-.21-.46-.46-.46Z"/><path class="cls-20" d="m375.35,173.7c-.26,0-.46.21-.46.46s.21.46.46.46.46-.21.46-.46-.21-.46-.46-.46Z"/><path class="cls-20" d="m384.64,173.7c-.26,0-.46.21-.46.46s.21.46.46.46.46-.21.46-.46-.21-.46-.46-.46Z"/><path class="cls-20" d="m371.17,188.09c0-.07-.01-.12-.03-.18-.07-.17-.24-.29-.43-.29v.46h.46Z"/><path class="cls-20" d="m370.71,178.34v.93c.26,0,.46-.21.46-.46s-.21-.46-.46-.46Z"/><path class="cls-20" d="m388.82,169.52c0,.07.01.12.04.18.07.17.24.28.43.28v-.46h-.46Z"/><path class="cls-20" d="m379.57,169.7c.07.17.24.28.43.28s.36-.12.43-.28c.02-.05.04-.12.04-.18h-.93c0,.07.01.12.04.18Z"/><path class="cls-20" d="m370.71,169.99c.19,0,.36-.12.43-.28.02-.05.03-.12.03-.18h-.46v.46Z"/><path class="cls-20" d="m389.28,206.19c-.26,0-.46.21-.46.46h.46v-.46Z"/><path class="cls-20" d="m380,206.19c-.26,0-.46.21-.46.46h.93c0-.26-.21-.46-.46-.46Z"/><path class="cls-20" d="m388.82,197.37c0,.26.21.46.46.46v-.93c-.26,0-.46.21-.46.46Z"/><path class="cls-20" d="m380,196.9c-.26,0-.46.21-.46.46s.21.46.46.46.46-.21.46-.46-.21-.46-.46-.46Z"/><path class="cls-20" d="m375.35,201.55c-.26,0-.46.21-.46.46s.21.46.46.46.46-.21.46-.46-.21-.46-.46-.46Z"/><path class="cls-20" d="m384.64,201.55c-.26,0-.46.21-.46.46s.21.46.46.46.46-.21.46-.46-.21-.46-.46-.46Z"/><path class="cls-20" d="m375.35,192.26c-.26,0-.46.21-.46.46s.21.46.46.46.46-.21.46-.46-.21-.46-.46-.46Z"/><path class="cls-20" d="m384.64,192.26c-.26,0-.46.21-.46.46s.21.46.46.46.46-.21.46-.46-.21-.46-.46-.46Z"/><path class="cls-20" d="m371.17,206.65c0-.26-.21-.46-.46-.46v.46h.46Z"/><path class="cls-20" d="m370.71,196.9v.93c.26,0,.46-.21.46-.46s-.21-.46-.46-.46Z"/><path class="cls-20" d="m388.82,188.09c0,.25.21.46.46.46v-.46h-.46Z"/><path class="cls-20" d="m379.53,188.09c0,.25.21.46.46.46s.46-.21.46-.46h-.93Z"/><path class="cls-20" d="m370.71,188.09v.46c.26,0,.46-.21.46-.46h-.46Z"/><path class="cls-20" d="m389.28,216.39v-.93c-.26,0-.46.21-.46.46s.21.46.46.46Z"/><path class="cls-20" d="m380,216.39c.26,0,.46-.21.46-.46s-.21-.46-.46-.46-.46.21-.46.46.21.46.46.46Z"/><path class="cls-20" d="m374.89,211.29c0,.26.21.46.46.46s.46-.21.46-.46-.21-.46-.46-.46-.46.21-.46.46Z"/><path class="cls-20" d="m384.17,211.29c0,.26.21.46.46.46s.46-.21.46-.46-.21-.46-.46-.46-.46.21-.46.46Z"/><path class="cls-20" d="m371.17,215.93c0-.26-.21-.46-.46-.46v.93c.26,0,.46-.21.46-.46Z"/><path class="cls-20" d="m388.82,206.65c0,.07.01.12.04.18.07.17.24.29.43.29v-.46h-.46Z"/><path class="cls-20" d="m379.53,206.65c0,.07.01.12.04.18.07.17.24.29.43.29s.36-.12.43-.29c.02-.05.04-.12.04-.18h-.93Z"/><path class="cls-20" d="m370.71,206.65v.46c.19,0,.36-.12.43-.29.02-.05.03-.12.03-.18h-.46Z"/><path class="cls-20" d="m370.71,150.49c-.07,0-.12.01-.18.03-.11.05-.2.14-.25.25-.02.05-.04.12-.04.18h.46v-.46Z"/><path class="cls-20" d="m361.89,150.95c0-.06-.01-.12-.04-.18-.07-.17-.24-.28-.43-.28s-.36.12-.43.28c-.02.05-.04.12-.04.18h.93Z"/><path class="cls-20" d="m370.71,169.52v-.46c-.07,0-.12.01-.18.03-.11.05-.2.14-.25.25-.02.05-.04.12-.04.18h.46Z"/><path class="cls-20" d="m361.85,169.34c-.07-.17-.24-.29-.43-.29s-.36.12-.43.29c-.02.05-.04.12-.04.18h.93c0-.07-.01-.12-.04-.18Z"/><path class="cls-20" d="m370.53,160.67c.05.02.12.04.18.04v-.93c-.07,0-.12.01-.18.04-.17.07-.29.24-.29.43s.12.36.29.43Z"/><path class="cls-20" d="m361.42,159.77c-.26,0-.46.21-.46.46s.21.46.46.46.46-.21.46-.46-.21-.46-.46-.46Z"/><path class="cls-20" d="m357.25,164.88c0-.26-.21-.46-.46-.46s-.46.21-.46.46.21.46.46.46.46-.21.46-.46Z"/><path class="cls-20" d="m366.07,165.35c.26,0,.46-.21.46-.46s-.21-.46-.46-.46-.46.21-.46.46.21.46.46.46Z"/><path class="cls-20" d="m356.78,155.13c-.26,0-.46.21-.46.46s.21.46.46.46.46-.21.46-.46-.21-.46-.46-.46Z"/><path class="cls-20" d="m366.07,156.06c.26,0,.46-.21.46-.46s-.21-.46-.46-.46-.46.21-.46.46.21.46.46.46Z"/><path class="cls-20" d="m352.14,169.05v.46h.46c0-.07-.01-.12-.04-.18-.07-.17-.24-.29-.43-.29Z"/><path class="cls-20" d="m352.6,160.24c0-.25-.21-.46-.46-.46v.93c.26,0,.46-.21.46-.46Z"/><path class="cls-20" d="m370.24,150.95c0,.19.12.36.29.43.05.02.12.04.18.04v-.46h-.46Z"/><path class="cls-20" d="m361.42,151.42c.26,0,.46-.21.46-.46h-.93c0,.26.21.46.46.46Z"/><path class="cls-20" d="m370.71,187.62c-.07,0-.12.01-.18.04-.11.05-.2.14-.25.25-.02.05-.04.12-.04.18h.46v-.46Z"/><path class="cls-20" d="m361.85,187.9c-.07-.17-.24-.29-.43-.29s-.36.12-.43.29c-.02.05-.04.12-.04.18h.93c0-.07-.01-.12-.04-.18Z"/><path class="cls-20" d="m370.53,178.38c-.17.07-.29.24-.29.43s.12.36.29.43c.05.02.12.04.18.04v-.93c-.07,0-.12.01-.18.04Z"/><path class="cls-20" d="m361.42,179.27c.26,0,.46-.21.46-.46s-.21-.46-.46-.46-.46.21-.46.46.21.46.46.46Z"/><path class="cls-20" d="m356.78,183.91c.26,0,.46-.21.46-.46s-.21-.46-.46-.46-.46.21-.46.46.21.46.46.46Z"/><path class="cls-20" d="m366.07,183.91c.26,0,.46-.21.46-.46s-.21-.46-.46-.46-.46.21-.46.46.21.46.46.46Z"/><path class="cls-20" d="m356.78,174.63c.26,0,.46-.21.46-.46s-.21-.46-.46-.46-.46.21-.46.46.21.46.46.46Z"/><path class="cls-20" d="m365.6,174.16c0,.26.21.46.46.46s.46-.21.46-.46-.21-.46-.46-.46-.46.21-.46.46Z"/><path class="cls-20" d="m352.6,188.09c0-.07-.01-.12-.04-.18-.07-.17-.24-.29-.43-.29v.46h.46Z"/><path class="cls-20" d="m352.6,178.8c0-.25-.21-.46-.46-.46v.93c.26,0,.46-.21.46-.46Z"/><path class="cls-20" d="m370.24,169.52c0,.07.01.12.04.18.05.11.14.2.25.25.05.02.12.03.18.03v-.46h-.46Z"/><path class="cls-20" d="m361.42,169.99c.19,0,.36-.12.43-.28.02-.05.04-.12.04-.18h-.93c0,.07.01.12.04.18.07.17.24.28.43.28Z"/><path class="cls-20" d="m352.14,169.99c.19,0,.36-.12.43-.28.02-.05.04-.12.04-.18h-.46v.46Z"/><path class="cls-20" d="m370.71,206.19c-.07,0-.12.01-.18.04-.17.07-.29.24-.29.43h.46v-.46Z"/><path class="cls-20" d="m361.42,206.19c-.26,0-.46.21-.46.46h.93c0-.26-.21-.46-.46-.46Z"/><path class="cls-20" d="m370.53,196.94c-.17.07-.29.24-.29.43s.12.36.29.43c.05.02.12.04.18.04v-.93c-.07,0-.12.01-.18.04Z"/><path class="cls-20" d="m361.42,196.9c-.26,0-.46.21-.46.46s.21.46.46.46.46-.21.46-.46-.21-.46-.46-.46Z"/><path class="cls-20" d="m356.78,201.55c-.26,0-.46.21-.46.46s.21.46.46.46.46-.21.46-.46-.21-.46-.46-.46Z"/><path class="cls-20" d="m366.07,201.55c-.26,0-.46.21-.46.46s.21.46.46.46.46-.21.46-.46-.21-.46-.46-.46Z"/><path class="cls-20" d="m356.78,192.26c-.26,0-.46.21-.46.46s.21.46.46.46.46-.21.46-.46-.21-.46-.46-.46Z"/><path class="cls-20" d="m366.07,192.26c-.26,0-.46.21-.46.46s.21.46.46.46.46-.21.46-.46-.21-.46-.46-.46Z"/><path class="cls-20" d="m352.6,206.65c0-.26-.21-.46-.46-.46v.46h.46Z"/><path class="cls-20" d="m352.14,196.9v.93c.26,0,.46-.21.46-.46s-.21-.46-.46-.46Z"/><path class="cls-20" d="m370.24,188.09c0,.19.12.36.29.43.05.02.12.03.18.03v-.46h-.46Z"/><path class="cls-20" d="m360.96,188.09c0,.25.21.46.46.46s.46-.21.46-.46h-.93Z"/><path class="cls-20" d="m352.14,188.09v.46c.26,0,.46-.21.46-.46h-.46Z"/><path class="cls-20" d="m370.71,215.47c-.07,0-.12.01-.18.04-.17.07-.29.24-.29.43s.12.36.29.43c.05.02.12.04.18.04v-.93Z"/><path class="cls-20" d="m361.42,216.39c.26,0,.46-.21.46-.46s-.21-.46-.46-.46-.46.21-.46.46.21.46.46.46Z"/><path class="cls-20" d="m356.32,211.29c0,.26.21.46.46.46s.46-.21.46-.46-.21-.46-.46-.46-.46.21-.46.46Z"/><path class="cls-20" d="m365.6,211.29c0,.26.21.46.46.46s.46-.21.46-.46-.21-.46-.46-.46-.46.21-.46.46Z"/><path class="cls-20" d="m352.6,215.93c0-.26-.21-.46-.46-.46v.93c.26,0,.46-.21.46-.46Z"/><path class="cls-20" d="m370.24,206.65c0,.07.01.12.04.18.05.11.14.2.25.25.05.02.12.04.18.04v-.46h-.46Z"/><path class="cls-20" d="m360.96,206.65c0,.07.01.12.04.18.07.17.24.29.43.29s.36-.12.43-.29c.02-.05.04-.12.04-.18h-.93Z"/><path class="cls-20" d="m352.14,206.65v.46c.19,0,.36-.12.43-.29.02-.05.04-.12.04-.18h-.46Z"/><path class="cls-20" d="m352.14,169.05c-.07,0-.12.01-.18.04-.11.05-.2.14-.25.25-.02.05-.04.12-.04.18h.46v-.46Z"/><path class="cls-20" d="m351.96,160.67c.05.02.12.04.18.04v-.93c-.07,0-.12.01-.18.04-.17.07-.29.24-.29.43s.12.36.29.43Z"/><path class="cls-20" d="m352.14,187.62c-.07,0-.12.01-.18.04-.11.05-.2.14-.25.25-.02.05-.04.12-.04.18h.46v-.46Z"/><path class="cls-20" d="m342.85,187.62c-.19,0-.36.12-.43.29-.02.05-.04.12-.04.18h.93c0-.07-.01-.12-.04-.18-.07-.17-.24-.29-.43-.29Z"/><path class="cls-20" d="m351.96,179.23c.05.02.12.04.18.04v-.93c-.07,0-.12.01-.18.04-.17.07-.29.24-.29.43s.12.36.29.43Z"/><path class="cls-20" d="m334.03,188.09c0-.07-.01-.12-.04-.18-.02-.05-.06-.11-.1-.15-.08-.08-.2-.14-.33-.14v.46h.46Z"/><path class="cls-20" d="m351.67,169.52c0,.07.01.12.04.18.05.11.14.2.25.25.05.02.12.03.18.03v-.46h-.46Z"/><path class="cls-20" d="m352.14,206.19c-.07,0-.12.01-.18.04-.17.07-.29.24-.29.43h.46v-.46Z"/><path class="cls-20" d="m342.85,206.19c-.26,0-.46.21-.46.46h.93c0-.26-.21-.46-.46-.46Z"/><path class="cls-20" d="m351.96,196.94c-.17.07-.29.24-.29.43s.12.36.29.43c.05.02.12.04.18.04v-.93c-.07,0-.12.01-.18.04Z"/><path class="cls-20" d="m343.32,197.37c0-.25-.21-.46-.46-.46s-.46.21-.46.46c0,.12.05.23.12.3.14.05.27.1.41.15.23-.04.4-.22.4-.45Z"/><path class="cls-20" d="m338.21,202.47c.26,0,.46-.21.46-.46,0-.08-.02-.15-.06-.21-.18.2-.36.41-.54.65.04.01.08.02.13.02h0Z"/><path class="cls-20" d="m347.03,202.01c0,.26.21.46.46.46s.46-.21.46-.46-.21-.46-.46-.46-.46.21-.46.46Z"/><path class="cls-20" d="m337.75,192.73c0,.26.21.46.46.46s.46-.21.46-.46-.21-.46-.46-.46-.46.21-.46.46Z"/><path class="cls-20" d="m347.5,192.26c-.26,0-.46.21-.46.46s.21.46.46.46.46-.21.46-.46-.21-.46-.46-.46Z"/><path class="cls-20" d="m351.67,188.09c0,.19.12.36.29.43.05.02.12.03.18.03v-.46h-.46Z"/><path class="cls-20" d="m342.85,188.55c.26,0,.46-.21.46-.46h-.93c0,.25.21.46.46.46Z"/><path class="cls-20" d="m333.57,188.09v.46c.13,0,.24-.05.33-.14.08-.08.14-.2.14-.33h-.46Z"/><path class="cls-20" d="m352.14,215.47c-.07,0-.12.01-.18.04-.17.07-.29.24-.29.43s.12.36.29.43c.05.02.12.04.18.04v-.93Z"/><path class="cls-20" d="m342.85,216.39c.26,0,.46-.21.46-.46s-.21-.46-.46-.46-.46.21-.46.46.21.46.46.46Z"/><path class="cls-20" d="m338.21,210.83c-.26,0-.46.21-.46.46s.21.46.46.46.46-.21.46-.46-.21-.46-.46-.46Z"/><path class="cls-20" d="m347.03,211.29c0,.26.21.46.46.46s.46-.21.46-.46-.21-.46-.46-.46-.46.21-.46.46Z"/><path class="cls-20" d="m351.67,206.65c0,.07.01.12.04.18.05.11.14.2.25.25.05.02.12.04.18.04v-.46h-.46Z"/><path class="cls-20" d="m342.39,206.65c0,.07.01.12.04.18.07.17.24.29.43.29s.36-.12.43-.29c.02-.05.04-.12.04-.18h-.93Z"/><path class="cls-20" d="m333.57,187.62c-.19,0-.36.12-.43.29-.02.05-.04.12-.04.18h.46v-.46Z"/><path class="cls-20" d="m324.71,187.9c-.07-.17-.24-.29-.43-.29s-.36.12-.43.29c-.02.05-.04.12-.04.18h.93c0-.07-.01-.12-.03-.18Z"/><path class="cls-20" d="m328.46,183.45c0,.26.21.46.46.46s.46-.21.46-.46-.21-.46-.46-.46-.46.21-.46.46Z"/><path class="cls-20" d="m333.57,188.55v-.46h-.46c0,.25.21.46.46.46Z"/><path class="cls-20" d="m324.29,188.55c.26,0,.46-.21.46-.46h-.93c0,.25.21.46.46.46Z"/><path class="cls-7" d="m350.39,199.77s2.96,0,4.99-2.4c2.03-2.4,9.42-29.25,9.42-29.25"/><path class="cls-7" d="m363.13,175.51l5.17-8.68"/><path class="cls-11" d="m397.58,185.26c.37-13.47-1.9-21.74-1.9-21.74l7.32,19.41-5.42,2.33h0Z"/><path class="cls-7" d="m355.38,197.37s-4.06,7.75-2.58,13.29"/><path class="cls-7" d="m352.42,200.88s-2.77,6.27-1.48,11.44"/><path class="cls-7" d="m352.42,200.88s-5.35,2.21-6.65,6.46"/><path class="cls-7" d="m385.14,143.64c-2.92-1.66-6.4-1.94-9.56-.83-2.4.85-5.38,1.98-7.83,3.16-4.99,2.4-12.74,7.93-14.77,9.78-2.03,1.85-3.88,12.55-3.88,18.82s-1.65,12.27-1.65,12.27c.87.01,2.61.78-9.7-1.73-4.78-.97-8.21-4.45-8.21-4.45,0,0-3.14.55-4.8,3.51-1.66,2.96-1.85,5.35-1.85,5.35,0,0,4.8,1.29,5.91,2.4,1.11,1.11,15.87,6.74,18.46,7.29,2.58.55,3.14.55,3.14.55l-10.33.74s-3.88,2.4-4.06,8.12c-.18,5.72,2.96,10.89,2.96,10.89h55.01s3.69-3.32,4.61-6.83c.92-3.51-.92-21.5-.92-21.5,0,0,13.29-.37,14.21-2.4.92-2.03-1.29-5.72-3.88-9.78-2.58-4.06-7.75-15.13-10.52-20.85-2.77-5.72-4.06-9.41-9.97-13.1-.88-.55-1.66-1.01-2.36-1.41h0Z"/><path class="cls-11" d="m362.64,119.37s2.28,20.5,2.28,28.25v12.76l12.99-1.37,1.6-7.74.23,6.84,11.17-2.28v-4.56l2.96,4.1,3.88-.91s-8.43-14.81-12.08-20.73c-3.64-5.92-5.47-14.58-5.47-14.58l-17.55.22Z"/><path class="cls-19" d="m350.79,118s15.04,6.38,21.87,8.2c6.83,1.82,10.94,1.82,10.94,1.82,0,0,1.14-3.19,1.6-5.47.46-2.28,1.14-6.15-.23-9.11-1.36-2.96-2.96-8.66-5.7-10.48-2.74-1.82-6.15-2.28-6.15-2.28,0,0-4.56-3.19-7.29-2.28-2.74.91-6.15,1.36-9.11,5.47-2.96,4.1-2.74,4.1-4.1,7.06-1.37,2.96-1.6,4.78-1.82,7.06h-.01Z"/><g class="cls-25"><path class="cls-21" d="m385.41,121.44c-15.35-2.61-28.48-8.22-32.9-10.26-.16.36-.3.7-.43,1.02,4.51,2.07,17.7,7.7,33.13,10.33.07-.33.14-.7.21-1.09h0Z"/><path class="cls-21" d="m353.13,109.81c3.66,1.87,11.94,5.71,22.94,8.43,0,0,.01.01.02.01.14.08.34.14.59.13,2.82.68,5.81,1.29,8.94,1.77.05-.36.08-.73.11-1.1-.25-.04-.5-.07-.74-.11.26-.42.53-.99.8-1.62-.02-.8-.11-1.61-.3-2.39-.43,1.28-.92,2.55-1.35,3.29-.24-.7-.5-2.18-.71-3.31-.36-1.99-.73-4.03-1.3-5.31.45.05.9.11,1.36.16-.15-.39-.31-.78-.48-1.18-8.05-.97-13.95-2.59-18.02-4.12-.17-.15-.37-.27-.59-.33-.12-.03-.24-.04-.36-.04-2.45-.97-4.14-1.87-5.2-2.5-.29.24-.57.5-.85.8.06.04.11.07.17.11-.74,1.37-2.79,5.37-2.53,7.3-.78-.37-1.46-.71-2.02-1-.14.3-.29.63-.46,1.01h0Zm27.74-.22c.63.96,1.09,3.48,1.46,5.51.31,1.73.53,2.83.78,3.52-1.74-.32-3.44-.66-5.08-1.04.94-1.15,1.5-3.31,1.99-5.25.25-.97.58-2.25.84-2.74h0Zm-1.07-.31c-.28.61-.52,1.51-.85,2.77-.5,1.95-1.19,4.61-2.16,5.16-.04.02-.06.03-.09.04-.06-.01-.12-.03-.17-.04-.42-.49-.55-3.02-.61-4.42-.08-1.67-.17-3.25-.5-4.27,1.37.27,2.83.52,4.38.75h0Zm-4.99,3.57c.09,1.75.18,3.1.43,4.04-2.62-.68-5.09-1.42-7.35-2.17.69-.54,1.55-1.5,2.68-2.81,1.07-1.24,3.06-3.54,3.65-3.4.4.69.5,2.64.59,4.35Zm-1.99-4.88c-.83.64-1.82,1.75-3.08,3.21-.99,1.14-2.48,2.86-2.93,2.92-.32-.03-.37-.7-.41-2.2-.04-1.43-.09-3.4-.64-5.83-.01-.04-.02-.08-.03-.12,1.98.69,4.33,1.38,7.09,2.02h0Zm-8.45-2.51c.12.19.23.48.31.85.53,2.33.58,4.23.61,5.61.02.75.04,1.41.15,1.95-3.03-1.09-5.64-2.17-7.75-3.11.9-.45,1.89-1.54,2.99-2.75.94-1.03,2.3-2.53,3.1-2.78.2.08.39.15.59.23Zm-5.27-2.4c.87.48,1.99,1.04,3.4,1.65-.83.6-1.72,1.57-2.62,2.56-.98,1.07-2.48,2.69-3.03,2.6-.07-.01-.08-.02-.1-.07-.39-.79.9-4.05,2.36-6.75Z"/><path class="cls-21" d="m359.42,101.11c2.91,1.88,10.61,5.97,23.22,6.66-.18-.39-.36-.78-.56-1.16-11.32-.75-18.58-4.33-21.62-6.18-.34.2-.69.43-1.03.68h0Z"/></g><path class="cls-7" d="m350.79,118s15.04,6.38,21.87,8.2c6.83,1.82,10.94,1.82,10.94,1.82,0,0,1.14-3.19,1.6-5.47.46-2.28,1.14-6.15-.23-9.11-1.36-2.96-2.96-8.66-5.7-10.48-2.74-1.82-6.15-2.28-6.15-2.28,0,0-4.56-3.19-7.29-2.28-2.74.91-6.15,1.36-9.11,5.47-2.96,4.1-2.74,4.1-4.1,7.06-1.37,2.96-1.6,4.78-1.82,7.06h-.01Z"/><path class="cls-12" d="m336.45,222.93l.2,56.53h2.13l4.85-56.53h-7.18Z"/><path class="cls-11" d="m336.47,225.69h6.93l.23-2.76h-7.18v2.76Z"/><path class="cls-11" d="m360.43,222.93l.18,56.53h1.95l4.42-56.53h-6.54Z"/><path class="cls-12" d="m402.04,222.93l-.2,56.53h-2.13l-4.85-56.53h7.18Z"/><path class="cls-11" d="m395.07,225.69h6.93v-2.76s-7.17,0-7.17,0l.24,2.76Z"/><path class="cls-12" d="m369.44,222.93l-.2,56.53h-2.14l-4.85-56.53h7.18Z"/><path class="cls-11" d="m362.5,225.69h6.93v-2.76s-7.17,0-7.17,0l.24,2.76Z"/><path class="cls-12" d="m403.92,219.39h-69.21v4.2h69.21v-4.2Z"/><path class="cls-12" d="m403.91,219.39h-41.12v4.2h41.12v-4.2Z"/><path class="cls-11" d="m334.71,219.39l.59-.8c1.68-2.28,4.5-3.64,7.51-3.64h52.82c2.71,0,5.28,1.1,7,3.01l1.29,1.44h-69.22Z"/><path class="cls-11" d="m407.33,174.22l-4.39,45.08h-39.74l-1.66-45.57c-.1-2.78,2.29-5.07,5.26-5.06l35.35.22c3.06.02,5.44,2.48,5.17,5.33h0Z"/><path class="cls-12" d="m410,174.22l-6.08,45.08h-38.05l-1.66-45.57c-.1-2.78,2.29-5.07,5.26-5.06l35.35.22c3.06.02,5.44,2.48,5.17,5.33h0Z"/><path class="cls-12" d="m411.92,174.22l-8,45.08h-36.13l-1.66-45.57c-.1-2.78,2.29-5.07,5.26-5.06l35.35.22c3.06.02,5.44,2.48,5.17,5.33h0Z"/><path class="cls-14" d="m322.29,196.16l6.51,83.3h2.97l.26-83.3h-9.74Z"/><path class="cls-11" d="m322.53,199.32h9.49v-3.15s-9.73,0-9.73,0l.24,3.15Z"/></g></g></svg>