<?xml version="1.0" encoding="UTF-8"?><svg id="_레이어_1" xmlns="http://www.w3.org/2000/svg" xmlns:xlink="http://www.w3.org/1999/xlink" viewBox="0 0 572 280"><defs><style>.cls-1,.cls-2,.cls-3,.cls-4,.cls-5,.cls-6,.cls-7,.cls-8,.cls-9,.cls-10,.cls-11{stroke-linecap:round;stroke-linejoin:round;}.cls-1,.cls-2,.cls-3,.cls-4,.cls-5,.cls-6,.cls-7,.cls-9,.cls-10,.cls-11{stroke:#333;}.cls-1,.cls-7,.cls-10,.cls-12,.cls-13{fill:#fff;}.cls-1,.cls-14,.cls-15,.cls-10,.cls-16,.cls-13{isolation:isolate;}.cls-1,.cls-17{opacity:.6;}.cls-2{fill:#5c5c5c;}.cls-3,.cls-18{fill:#25387f;}.cls-4,.cls-14,.cls-19{fill:#333;}.cls-5,.cls-20{fill:#bfbfbf;}.cls-6,.cls-21{fill:#aaa;}.cls-8{stroke:#fff;}.cls-8,.cls-9,.cls-22,.cls-11{fill:none;}.cls-23{clip-path:url(#clippath);}.cls-22,.cls-14,.cls-15,.cls-24,.cls-16,.cls-18,.cls-20,.cls-21,.cls-19,.cls-12,.cls-13{stroke-width:0px;}.cls-25{mask:url(#mask);}.cls-14,.cls-16,.cls-26{opacity:.2;}.cls-15{fill:rgba(255,255,255,.3);opacity:.7;}.cls-10,.cls-27{opacity:.9;}.cls-28{clip-path:url(#clippath-1);}.cls-11{stroke-width:2px;}.cls-24{fill:url(#_무제_그라디언트);}.cls-29{mask:url(#mask-2);}.cls-30{mask:url(#mask-1);}.cls-13{opacity:.5;}</style><clipPath id="clippath"><rect class="cls-22" width="572" height="280"/></clipPath><linearGradient id="_무제_그라디언트" x1="476.48" y1="-304.66" x2="283.09" y2="-691.03" gradientTransform="translate(0 -280) scale(1 -1)" gradientUnits="userSpaceOnUse"><stop offset="0" stop-color="#a6c1ee"/><stop offset="1" stop-color="#fbc2eb" stop-opacity="0"/></linearGradient><clipPath id="clippath-1"><rect class="cls-22" x="208" y="38" width="276" height="242"/></clipPath><mask id="mask" x="285.82" y="139.82" width="18.39" height="11.63" maskUnits="userSpaceOnUse"><g id="mask0_349_18256"><path class="cls-12" d="m297.4,147.68l-9.05,3.27-2.02-5.27,17.39-5.36s-1.04,1.73-3.83,5.95c-1.78,2.69-2.48,1.41-2.48,1.41h0Z"/></g></mask><mask id="mask-1" x="257.11" y="111.04" width="36.3" height="67.05" maskUnits="userSpaceOnUse"><g id="mask1_349_18256"><path class="cls-12" d="m293.28,164.15c-2.59,2.96-5,6.07-7.22,9.33-2.98,1.99-7.1,3.7-12.78,4.54-.15.02-.3.05-.45.07-2.97.39-4.73-12.4-5.56-20.5-.37-3.73-.55-6.47-.55-6.47,0,0-8.52-11.99-9.51-23.29-.09-.99-.12-1.98-.08-2.96.18-4.46,1.3-7.54,2.63-9.62,1.85-2.9,4.12-3.92,4.88-4.2-.29.18-.43.61-.34.97.07.26.21.48.38.67.04.05.09.09.13.14.1.1.21.2.31.29.73.66,1.46,1.33,2.19,1.99,1.09.99,2.19,1.98,3.28,2.97.68.62,1.43,1.27,2.34,1.37.92.1,2.24-1.3,2.03-2.2-.05.18-.1.36-.15.54-.78-.76-1.2-1.87-1.1-2.95.02-.29.08-.58.18-.85.76.7,1.48,1.58,2.13,2.64,2.74,4.46,7.71,10.61,10.74,14.23,2.05,2.45,2.57,5.88,1.22,8.77-.01.02-.03.06-.04.08-1.1,2.3-.23,4.96-.04,5.48.02.06.04.09.04.09l1.72,5.2v.02l2.8,8.43.51,1.54c.4,1.2.5,2.47.29,3.69h0Z"/></g></mask><mask id="mask-2" x="256.58" y="119.11" width="43.29" height="46.82" maskUnits="userSpaceOnUse"><g id="mask2_349_18256"><path class="cls-12" d="m297.4,147.53s-13.56,5.7-19.42,5.96c0,0-3.64-10.06-5.8-28.01-1.02-8.5-9.29-6.04-9.29-6.04-.15.09-8.28,3.59-4.98,14.88,3.3,11.29,13.23,31.44,13.23,31.44,7.37-.91,14.5-3.17,21.03-6.68l7.7-4.14s-1.29-4.4-2.48-7.41h0Z"/></g></mask></defs><g class="cls-23"><rect class="cls-22" width="572" height="280"/><g class="cls-17"><path class="cls-24" d="m607.42,255.57c.35-37.38-8.21-75.15-15.37-112.22-10.54-54.47-80.01-122.35-161.96-125.53-81.96-3.18-100.2,49.18-140.58,78.16-40.36,28.99-119.33,37.7-148.15,73.42-44.38,55-55.89,103.44,6.88,167.09,47.63,48.3,128.29,42.47,189.03,61.51,40.29,12.63,78.77,37.65,121.71,41.36,52.78,4.57,94.44-41.44,118.59-80.97,10.93-17.89,19.28-37.38,24.38-57.77,3.72-14.91,5.33-29.95,5.47-45.05Z"/><path class="cls-15" d="m607.42,255.57c.35-37.38-8.21-75.15-15.37-112.22-10.54-54.47-80.01-122.35-161.96-125.53-81.96-3.18-100.2,49.18-140.58,78.16-40.36,28.99-119.33,37.7-148.15,73.42-44.38,55-55.89,103.44,6.88,167.09,47.63,48.3,128.29,42.47,189.03,61.51,40.29,12.63,78.77,37.65,121.71,41.36,52.78,4.57,94.44-41.44,118.59-80.97,10.93-17.89,19.28-37.38,24.38-57.77,3.72-14.91,5.33-29.95,5.47-45.05Z"/></g><g class="cls-28"><path class="cls-7" d="m432.91,50.62v110.37h-.47V50.62h.02s.44,0,.44,0Z"/><path class="cls-7" d="m432.47,50.62h-.02v110.37h-172.72V50.62h172.75Z"/><path class="cls-7" d="m432.91,50.62h-.47v110.36h.47V50.62Z"/><path class="cls-7" d="m483.69,38.31v134.99l-4.75-1.14-46.51-11.18V50.62h.02s46.48-11.18,46.48-11.18l4.75-1.14Z"/><path class="cls-7" d="m483.69,38.31h-4.75v134.99h4.75V38.31Z"/><path class="cls-7" d="m208.31,173.29l51.25-12.31V50.62l-51.25-12.31v134.99Z"/><path class="cls-7" d="m208.31,173.29h4.75V38.31h-4.75v134.99Z"/><path class="cls-2" d="m427.66,154.84l-162.32-.6V55.94l162.32.59v98.31Z"/><path class="cls-3" d="m380.58,154.13h47.12c-6.44-23.67-28.13-41.07-53.88-41.07-24.38,0-45.11,15.58-52.72,37.33-.42,1.21-.64,2.47-.65,3.74h60.14Z"/><path class="cls-12" d="m366.35,117.09l-7.04,4.22v6.71s5.34-.73,7.04-3.64c0,0-1.46-.61,2.67-3.07,4.13-2.46,3.16-5.45-2.67-4.22Z"/><path class="cls-12" d="m355.18,117.09h.97l-6.92,4.14-1.09,1.18-6.8,3.91-1.34,1.7-1.09,3.76-3.64,2.91,1.7,1.21-3.88,4.85h-1.34l-.48-1.94,2.91-6.06-4.04,2.26s8.65-13.44,25.04-17.9h0Z"/><path class="cls-12" d="m320.92,153.68h9.84l.35-4.44s-.61-.85-.52-1.21c.09-.37,1.25-6.3,1.25-6.3l-1.87-5.09-1.75,2.3h-1.05c-3.21,5.17-5.12,10.34-6.24,14.74h0Z"/><path class="cls-12" d="m353.97,122.41h1.21v1.48l-1.21.73h-1.09v-1.11l1.09-1.1Z"/><path class="cls-12" d="m346.56,125.35l-1.82,1.93-.48,1.63-1.82,1.77-.73-1.09-1.33,1.09v-1.21l.97-1.46,5.22-2.66Z"/><path class="cls-12" d="m380.67,153.94h8.3c2.23.02,15.76-.12,15.76-.12,1.16-4.13,1.71-9,.34-13.09-1.78-5.32-5.07-10.23-6.12-13.45-.01-.04-.02-.08-.04-.12-.03-.1-.06-.18-.08-.27-.29-1.26.71-2.07,1.5-2.29.85-.24,2.43.73,2.43.73h3.1l-3.22-1.84-1.33-1.41-.85-.75-3.16-1.33.12-.97c-3.4-1.94-5.95-2.25-5.95-2.25l2.31,1.76h-2.42l-.48,2.74h-4.86s1.22-.32-1.7-1.92c-2.91-1.6-12.38-2.29-12.38-2.29l2.91,4.21-6.31,3.56.73,2.66,4.34-1.22v-1.45l2.69-1.63.24,2.85.97,1.21,1.22-.97,3.42,3.4-6.09,5.93-.98-7.62-8.74,1.93-7.04,8.24s8.49,3.15,11.65,5.09c3.16,1.94,2.64,6.08,2.64,6.08l5.13,2.89-.9,1.7h2.84Z"/><path class="cls-7" d="m217.98,161.82l37.57-5.91-.41-102.46-37.62-7.54.47,115.91Z"/><path class="cls-9" d="m233.51,57.89l8.52,22.83"/><path class="cls-9" d="m232.18,54.3l.88,2.38"/><path class="cls-9" d="m230.15,48.86l1.63,4.37"/><path class="cls-9" d="m229.6,61.5l11.14,30.21"/><path class="cls-9" d="m225.55,50.52l3.48,9.45"/><path class="cls-9" d="m233.48,120.68l8.63,24.26"/><path class="cls-7" d="m473.68,161.82l-37.57-5.91.42-102.46,37.62-7.54-.47,115.91Z"/><path class="cls-9" d="m457.94,59.6l8.51,22.83"/><path class="cls-9" d="m456.6,56l.89,2.38"/><path class="cls-9" d="m454.02,63.21l11.14,30.21"/><path class="cls-9" d="m449.98,52.23l3.48,9.44"/><path class="cls-9" d="m457.9,122.39l8.63,24.26"/><path class="cls-4" d="m434.34,198.12v73.63c0,4.33-3.52,7.84-7.86,7.84h-16.25c5.9-.79,10.45-5.83,10.45-11.94v-65.33c0-6.21-4.72-11.33-10.77-11.97l-.02-.07h16.6c4.34,0,7.86,3.51,7.86,7.84Z"/><path class="cls-7" d="m409.9,190.35c-.42-.04-.85-.07-1.29-.07h-175.44c-6.67,0-12.06,5.39-12.06,12.04v65.33c0,6.65,5.4,12.04,12.06,12.04h175.44c.55,0,1.08-.04,1.61-.11,5.9-.78,10.45-5.83,10.45-11.93v-65.33c0-6.21-4.72-11.33-10.77-11.97Zm-123.12,9.52h117.93c4.88,0,8.84,3.95,8.84,8.82v24.54h-126.77v-33.36Zm-15.41,71.11h-24.12c-.1-.03-.21-.07-.31-.1-2.84-1.02-4.94-4.44-4.94-8.5v-53.59c0-4.87,3.02-8.82,6.74-8.82h22.63v71.01Zm133.34.12l-117.93-.22v-33.13h126.77v24.53c0,4.88-3.96,8.83-8.84,8.83Z"/><path class="cls-9" d="m330.71,275.02h-24.65"/><path class="cls-9" d="m340.69,275.02h-4.98"/><path class="cls-4" d="m242.01,208.8v53.59c0,4.06,2.09,7.47,4.94,8.5h-11.15c-4.19,0-7.59-3.39-7.59-7.58v-55.85c0-4.19,3.4-7.58,7.59-7.58h21.96c.43,0,.85.04,1.26.1h-10.27c-3.72,0-6.74,3.95-6.74,8.82Z"/><path class="cls-4" d="m286.78,199.87h-11.23v71.01h11.23v-71.01Z"/><path class="cls-7" d="m275.38,233.28l138.18-.05v4.52h-138.18v-4.46Z"/><path class="cls-7" d="m275.56,199.87h-4.18v71.01h4.18v-71.01Z"/><path class="cls-9" d="m334.84,206.16h-7.51v27.12h7.51v-27.12Z"/><path class="cls-9" d="m327.34,206.16h-6.54v27.12h6.54v-27.12Z"/><path class="cls-9" d="m346.03,206.16h13.53v-4.18h-19.17v31.3h1.95v-27.12h3.69Z"/><path class="cls-9" d="m340.39,201.98h-5.54v31.3h5.54v-31.3Z"/><path class="cls-9" d="m359.27,210.75h2.93v-4.59h-16.17v27.12h7.8v-22.53h5.43Z"/><path class="cls-9" d="m346.03,206.16h-3.69v27.12h3.69v-27.12Z"/><path class="cls-9" d="m365.5,210.75h-6.24v22.53h6.24v-22.53Z"/><path class="cls-9" d="m359.26,210.75h-5.43v22.53h5.43v-22.53Z"/><path class="cls-9" d="m370.11,233.28h1.61v-22.53h3.07v22.53h0v-22.53h11.24v-3.48h-15.92v26.01Z"/><path class="cls-9" d="m370.1,233.28h.01v-26.01h-4.61v26.01h4.59Z"/><path class="cls-9" d="m374.79,210.75v22.53h15.47v-22.53h-15.47Z"/><path class="cls-9" d="m374.79,210.75h-3.07v22.53h3.07v-22.53Z"/><path class="cls-9" d="m294.7,243.76h-1.77v27.12h1.77v-27.12Z"/><path class="cls-9" d="m292.93,243.76h-6.54v27.12h6.54v-27.12Z"/><path class="cls-9" d="m311.63,243.76h2.25v-4.18h-7.89v31.3h1.94v-27.12h3.7Z"/><path class="cls-9" d="m300.44,239.58h-5.73v31.3h5.73v-31.3Z"/><path class="cls-9" d="m305.98,239.58h-5.54v31.3h5.54v-31.3Z"/><path class="cls-9" d="m376.25,243.76h-7.51v27.12h7.51v-27.12Z"/><path class="cls-9" d="m368.74,243.76h-6.54v27.12h6.54v-27.12Z"/><path class="cls-9" d="m381.79,239.58v31.3h19.17v-31.3h-19.17Z"/><path class="cls-9" d="m381.79,239.58h-5.54v31.3h5.54v-31.3Z"/><path class="cls-9" d="m319.43,248.35h8.37v-4.59h-16.17v27.12h1.96v-22.53h5.84Z"/><path class="cls-9" d="m311.62,243.76h-3.69v27.12h3.69v-27.12Z"/><path class="cls-9" d="m327.79,248.35h-2.94v22.53h6.24v-22.53h-3.3Z"/><path class="cls-9" d="m313.59,248.35v22.53h5.84v-22.53h-5.84Z"/><path class="cls-9" d="m324.85,248.35h-5.43v22.53h5.43v-22.53Z"/><path class="cls-9" d="m351.62,248.35v-3.48h-15.92v26.01h1.61v-22.53h3.07v22.53h0v-22.53h11.24Z"/><path class="cls-9" d="m335.69,244.88h-4.6v26.01h4.61v-26.01h0Z"/><path class="cls-9" d="m340.38,248.35v22.53h15.47v-22.53h-15.47Z"/><path class="cls-9" d="m340.38,248.35h-3.07v22.53h3.07v-22.53Z"/><path class="cls-9" d="m232.99,250.59l-.57.58c3.91,3.87,9.09,6.01,14.6,5.99,1.37,0,2.72-.14,4.04-.4-.15-.18-.25-.4-.23-.63,0-.05.02-.1.03-.15"/><path class="cls-7" d="m253.24,255.36h-3.92s.03,11.32.03,11.32h3.92s-.03-11.32-.03-11.32Z"/><g class="cls-26"><path class="cls-7" d="m253.24,255.36h-3.92s.03,11.32.03,11.32h3.92s-.03-11.32-.03-11.32Z"/></g><path class="cls-7" d="m263.16,270.88h-23.74c.44-2.45,4.58-4.46,9.92-4.86.63-.04,1.27-.07,1.93-.07s1.34.02,1.99.07c5.37.39,9.52,2.4,9.9,4.87Z"/><path class="cls-7" d="m234.76,252.58l-.99-.97,28.34-28.64.98.97-28.33,28.64Z"/><path class="cls-9" d="m250.84,255.97s-.02.1-.03.15c-.01.23.09.45.23.63,3.97-.8,7.61-2.74,10.53-5.66,3.88-3.9,6.02-9.07,6-14.57-.01-5.5-2.18-10.66-6.08-14.54l-.57.58"/><path class="cls-6" d="m258.95,247.75c-5.63,5.82-14.93,5.99-20.76.36-5.83-5.62-6-14.9-.36-20.72,5.63-5.82,14.93-5.99,20.76-.36,5.83,5.62,6,14.9.36,20.72Z"/><path class="cls-9" d="m238.97,248.27c5.64,1.13,11.78-1.55,15.61-5.51l-.46.46c3.48-3.59,6.3-10.16,4.97-15.76"/><path class="cls-9" d="m245.27,223.26l4.65,4.48.52.5,3.4,3.28.48.46,3.4,3.28.51.5,4.59,4.43"/><path class="cls-9" d="m237.92,227.37l21.11,20.35"/><path class="cls-9" d="m234.18,234.94l4.64,4.47.52.5,3.31,3.19.48.46,3.3,3.19h0l.53.5,4.63,4.47-.18.19"/><g class="cls-26"><path class="cls-9" d="m245.27,223.26l4.65,4.48.52.5,3.4,3.28.48.46,3.4,3.28.51.5,4.59,4.43"/><path class="cls-9" d="m237.92,227.37l21.11,20.35"/></g><path class="cls-9" d="m258.68,226.74c-5.73-1.14-12.28,1.92-15.78,5.55l.31-.32c-3.5,3.62-6.35,10.26-5,15.93"/><path class="cls-9" d="m238.33,248.2l20.47-21.16"/><path class="cls-11" d="m461.57,172.49s-9.92,11.6-12.44,38.5c-2.52,26.9-5.42,46.51-5.42,46.51"/><path class="cls-21" d="m477.28,151.26c.77-.1,1.49.42,1.64,1.18,1.47,7.47,7.83,43.36-7.08,38.63-12.38-3.93-11.56-12.97-10.33-17.33.25-.9-.65-1.7-1.51-1.34-4.83,1.99-15.33,5.12-16.49-4.71-1.34-11.33,27.13-15.6,33.77-16.43Z"/><path class="cls-9" d="m471.85,157.79c-2.25,2.53-5.06,6.19-7.75,11.04"/><path class="cls-9" d="m476.39,153.36s-1.02.78-2.62,2.38"/><path class="cls-9" d="m465.24,171.3s4.16-4.37,14.36-2.48"/><path class="cls-9" d="m460.71,156.56s-1.89,5.28,0,12.26"/><path class="cls-9" d="m477.84,179.93c.65.56,1.25,1.19,1.75,1.9"/><path class="cls-9" d="m464.11,175.04s6.86.35,11.96,3.58"/><path class="cls-9" d="m458.44,171.3s-7.74-2.29-9.63-8.61"/><path class="cls-11" d="m433.66,211.43s5.67,6.64,7.11,22.02c1.44,15.38,3.1,26.6,3.1,26.6"/><path class="cls-21" d="m425.2,199.98c-.44-.05-.85.24-.94.67-.84,4.27-4.48,24.8,4.05,22.09,7.08-2.25,6.61-7.41,5.91-9.91-.15-.51.37-.97.86-.76,2.76,1.14,8.76,2.93,9.43-2.69.77-6.48-15.52-8.92-19.31-9.4Z"/><path class="cls-9" d="m428.31,203.71c1.29,1.45,2.9,3.54,4.43,6.31"/><path class="cls-9" d="m425.72,201.18s.58.45,1.5,1.37"/><path class="cls-9" d="m432.09,211.43s-2.38-2.5-8.21-1.41"/><path class="cls-9" d="m434.69,203.01s1.08,3.02,0,7.01"/><path class="cls-9" d="m424.89,216.38c-.37.32-.71.69-1.01,1.08"/><path class="cls-9" d="m432.74,213.58s-3.92.2-6.84,2.05"/><path class="cls-9" d="m435.98,211.43s4.43-1.31,5.51-4.92"/><path class="cls-11" d="m460.43,205.25s-9.16,10.71-11.48,35.53c-.74,7.85-1.5,15.03-2.21,21.18"/><path class="cls-21" d="m477.83,197.44c.57.2.9.8.74,1.38-1.52,5.71-9.35,32.9-18.13,24.53-7.29-6.95-3.63-12.97-1.29-15.6.48-.54.13-1.41-.6-1.45-4.05-.25-12.44-1.64-9.89-8.89,2.94-8.35,24.24-1.64,29.15.03h0Z"/><path class="cls-16" d="m477.83,197.44c.57.2.9.8.74,1.38-1.52,5.71-9.35,32.9-18.13,24.53-7.29-6.95-3.63-12.97-1.29-15.6.48-.54.13-1.41-.6-1.45-4.05-.25-12.44-1.64-9.89-8.89,2.94-8.35,24.24-1.64,29.15.03h0Z"/><path class="cls-9" d="m471.81,200.14c-2.43,1-5.64,2.6-9.17,5.06"/><path class="cls-9" d="m476.49,198.6s-.98.2-2.64.77"/><path class="cls-9" d="m462.59,207.32s4.39-1.63,10.86,3.16"/><path class="cls-9" d="m464.46,195.49s-3.12,3.04-4.19,8.55"/><path class="cls-9" d="m468.43,217.62c.26.61.46,1.26.58,1.92"/><path class="cls-9" d="m460.52,209.54s4.66,2.58,7.12,6.57"/><path class="cls-9" d="m457.85,205s-4.62-4.23-3.78-9.28"/><path class="cls-7" d="m441.06,279.59h9.22c3.59,0,6.55-2.8,6.73-6.39l.52-9.96c.23-4.45-3.32-8.18-7.79-8.18h-8.16c-4.46,0-8.02,3.73-7.79,8.18l.52,9.96c.18,3.58,3.15,6.39,6.73,6.39h.01Z"/><path class="cls-9" d="m448.2,272.95h-13.89"/><path class="cls-9" d="m457.03,272.95h-4.61"/><path class="cls-7" d="m276.34,156.42l-.04,8.03c.85,0,.85,1.54,0,1.54-2.63-.01-5.26,0-7.89,0l.05-11.15c2.63.01,5.26.02,7.89.04.85,0,.85,1.54,0,1.54h0Z"/><path class="cls-7" d="m270.2,156.39l-.04,8.03,6.13.03.04-8.02-6.13-.03Z"/><path class="cls-7" d="m271.5,155.63l-33.83-.16c-1.46,0-2.66,2.13-2.67,4.77-.01,2.64,1.16,4.79,2.62,4.8l33.83.16.04-9.57Z"/><path class="cls-7" d="m271.5,155.63l-33.83-.16c-1.46,0-2.66,2.13-2.67,4.77-.01,2.64,1.16,4.79,2.62,4.8l33.83.16.04-9.57Z"/><path class="cls-3" d="m271.44,165.97c-6.95-.03-26.51.02-33.47-.16-4.76-.12-4.97-10.76-.29-11.11,3.26-.25,6.61.03,9.87.05,3.78.02,20.16.1,23.94.12.85,0,.85,1.54,0,1.54-6.59-.03-25.78-.12-32.37-.15-1.53,0-2.62,0-3.22,2.1-.52,1.81-.37,5.51,1.71,5.93.23.04.49,0,.72,0,3.59.02,7.19.04,10.79.05,3.25.02,19.09.09,22.34.1.85,0,.85,1.54,0,1.54h0Z"/><path class="cls-7" d="m276.32,148.31l-.02,5.1c.85,0,.85.98,0,.98-2.63-.01-5.26-.01-7.89-.01l.04-7.09c2.63.01,5.26.02,7.89.04.85,0,.85.98,0,.98h-.01Z"/><path class="cls-7" d="m270.19,148.28l-.02,5.1,6.13.03.02-5.1-6.13-.03Z"/><path class="cls-7" d="m271.48,147.79l-33.83-.16c-1.46,0-2.65,1.35-2.66,3.03,0,1.68,1.17,3.05,2.63,3.05l33.84.16.03-6.08Z"/><path class="cls-5" d="m271.48,147.79l-33.83-.16c-1.46,0-2.65,1.35-2.66,3.03,0,1.68,1.17,3.05,2.63,3.05l33.84.16.03-6.08Z"/><path class="cls-4" d="m271.44,154.37c-6.95-.03-26.51-.03-33.47-.16-4.76-.09-4.99-6.85-.31-7.06,3.26-.15,6.61.03,9.87.05,3.78.02,20.16.1,23.94.12.85,0,.85.98,0,.98-6.59-.03-25.78-.12-32.37-.15-1.53,0-2.62,0-3.21,1.33-.51,1.15-.37,3.51,1.72,3.77.23.03.49,0,.72,0,3.59.02,7.19.04,10.79.05,3.25.02,19.09.09,22.34.1.85,0,.85.98,0,.98h-.02Z"/><path class="cls-2" d="m275.11,168.16l-.04,7.44c.79,0,.78,1.43,0,1.43-2.43-.01-4.87,0-7.31,0l.05-10.33c2.43.01,4.87.02,7.31.04.79,0,.78,1.43,0,1.43Z"/><path class="cls-5" d="m269.42,168.13l-.04,7.43,5.68.03.04-7.43-5.68-.03Z"/><path class="cls-7" d="m270.62,167.42l-31.34-.15c-1.36,0-2.46,1.97-2.47,4.42-.01,2.45,1.07,4.44,2.43,4.44l31.34.15.04-8.86Z"/><path class="cls-5" d="m270.62,167.42l-31.34-.15c-1.36,0-2.46,1.97-2.47,4.42-.01,2.45,1.07,4.44,2.43,4.44l31.34.15.04-8.86Z"/><path class="cls-2" d="m270.57,177c-6.45-.03-24.56.02-31-.15-4.41-.12-4.6-9.97-.27-10.29,3.02-.23,6.12.03,9.14.04,3.51.02,18.67.09,22.18.1.79,0,.78,1.43,0,1.43-6.11-.03-23.87-.12-29.98-.14-1.41,0-2.42,0-2.98,1.95-.48,1.68-.35,5.11,1.58,5.48.21.04.45,0,.66,0,3.33.02,6.66.03,9.99.05,3.01.01,17.68.09,20.69.1.79,0,.78,1.43,0,1.43h0Z"/><path class="cls-5" d="m278.69,179.5l-.04,8.85c.94,0,.93,1.7,0,1.69-2.9-.01-5.8,0-8.7,0l.06-12.29c2.9.01,5.79.03,8.7.04.94,0,.93,1.7,0,1.7h0Z"/><path class="cls-7" d="m271.93,179.48l-.04,8.84,6.76.03.04-8.84-6.76-.03Z"/><path class="cls-7" d="m273.36,178.62l-37.29-.18c-1.61,0-2.93,2.35-2.94,5.26-.01,2.91,1.28,5.28,2.89,5.29l37.29.18.05-10.55Z"/><path class="cls-7" d="m273.36,178.62l-37.29-.18c-1.61,0-2.93,2.35-2.94,5.26-.01,2.91,1.28,5.28,2.89,5.29l37.29.18.05-10.55Z"/><path class="cls-5" d="m273.3,190.02c-7.67-.04-29.22.02-36.88-.18-5.25-.13-5.48-11.86-.33-12.25,3.59-.27,7.29.04,10.88.05,4.17.02,22.21.1,26.39.13.94,0,.93,1.7,0,1.7-7.27-.04-28.41-.13-35.67-.17-1.68,0-2.88,0-3.54,2.31-.57,2-.42,6.08,1.89,6.53.25.05.54,0,.79,0,3.96.02,7.92.04,11.89.06,3.58.02,21.04.1,24.62.12.94,0,.93,1.7,0,1.7h-.01Z"/><path class="cls-7" d="m272.58,145.12c-2.53,1.95-5.69,2-8.52,1.38,1.02-.26,1.99-.72,2.89-1.41l-.15-.33c3.77.23,4.98-1.39,4.98-1.39l.27.59.52,1.16h0Z"/><path class="cls-7" d="m266.96,145.08c-.9.7-1.88,1.16-2.89,1.42-2.48-.54-4.72-1.59-6.09-2.33-.04-.02-.09-.05-.14-.07-.81-.44-1.29-.76-1.29-.76-.09.11-.18.21-.28.31h0c-.56.62-1.14,1.11-1.75,1.52-2.85,1.92-6.11,1.87-8.7,1.32-2.14-.47-3.83-1.27-4.44-1.59,1.24.08,2.39-.05,3.42-.32,1.62.43,3.13.46,4.48.27,1.07-.16,2.04-.45,2.9-.81.81-.34,1.52-.74,2.11-1.12h.01c1.31-.86,2.04-1.66,2.04-1.66,3.26,1.71,5.88,2.65,7.97,3.13.01,0,.04,0,.05,0,.91.2,1.73.32,2.45.36l.15.32Z"/><path class="cls-7" d="m266.96,145.08c-.9.7-1.88,1.16-2.89,1.42-3.26.86-6.92-.19-9.54-1.33-.93-.39-1.73-.8-2.34-1.13-.79-.44-1.25-.74-1.25-.74-.52.61-1.08,1.13-1.65,1.56-1.1.83-2.28,1.34-3.46,1.63-5.1,1.24-10.31-1.76-10.31-1.76l.52-1.46c1.92,1.05,3.72,1.53,5.35,1.63,1.24.08,2.38-.05,3.42-.32,3.66-.91,5.91-3.37,5.91-3.37,1.29.68,2.49,1.24,3.59,1.69.5.2.97.39,1.42.56.02.01.05.01.07.02.16.06.31.11.47.16.6.2,1.17.37,1.71.52,3.1.81,5.13.62,6.39.22.09-.02.16-.05.24-.09.02,0,.05-.02.07-.02,1.09-.41,1.49-.96,1.49-.96l.16.37.47,1.05.15.32h0Z"/><path class="cls-4" d="m271.79,143.37s-1.21,1.62-4.98,1.39l-.47-1.05c-.07.03-.79.31-1.55.55-.03,0-.07.02-.11.04-.02,0-.05.02-.07.02-.08.02-.18.05-.29.07-.97.24-3.1.56-6.47-.29-.5-.12-1.02-.27-1.56-.45-.15-.05-.31-.1-.47-.15-.02-.01-.04-.02-.07-.03-.46-.16-.94-.34-1.43-.54-1.1-.45-2.29-1-3.57-1.7l5.62.04s5.21,1.34,9.83,1.96c2.23.29,4.32.42,5.62.15h-.02Z"/><path class="cls-7" d="m266.96,145.09s2.67.99,5.62.04l-.79-1.75s-1.02,1.18-5.46.33l.63,1.38Z"/><path class="cls-7" d="m423.02,188.01c-3.04,2.36-6.84,2.41-10.27,1.66,1.23-.32,2.4-.86,3.49-1.7l-.17-.4c4.54.28,6-1.67,6-1.67l.32.72.63,1.39h0Z"/><path class="cls-7" d="m416.24,187.96c-1.08.84-2.26,1.39-3.49,1.71-2.98-.65-5.67-1.91-7.33-2.8-.05-.02-.1-.06-.16-.08-.98-.53-1.55-.91-1.55-.91-.11.14-.22.25-.33.37,0,0,0,0,0,0-.67.74-1.38,1.34-2.11,1.83-3.43,2.32-7.35,2.25-10.48,1.59-2.58-.56-4.61-1.53-5.35-1.91,1.5.1,2.88-.07,4.12-.38,1.96.51,3.77.56,5.39.32,1.29-.19,2.46-.55,3.49-.98.97-.42,1.83-.89,2.54-1.35,0,0,.01-.01.02-.01,1.57-1.03,2.45-1.99,2.45-1.99h0c3.92,2.06,7.08,3.2,9.6,3.77.02,0,.04,0,.05,0,1.1.24,2.09.38,2.95.44h0l.17.39Z"/><path class="cls-4" d="m398.44,186.71c-1.03.43-2.21.79-3.49.98.69-.51,1.35-1.13,1.99-1.87,0,0,.56.37,1.51.89Z"/><path class="cls-7" d="m416.24,187.96c-1.08.84-2.26,1.39-3.49,1.71-3.93,1.04-8.33-.23-11.49-1.6-1.12-.47-2.09-.96-2.81-1.36-.95-.53-1.51-.89-1.51-.89-.63.74-1.3,1.36-1.99,1.87-1.33,1-2.74,1.62-4.16,1.97-6.14,1.49-12.42-2.12-12.42-2.12l.62-1.76c2.31,1.27,4.48,1.85,6.45,1.96,1.5.1,2.88-.07,4.12-.38,4.41-1.1,7.13-4.06,7.13-4.06,1.56.82,2.99,1.49,4.32,2.04.6.25,1.17.47,1.72.67.03.02.05.02.08.04.2.07.38.13.57.19.72.24,1.4.45,2.05.62,3.73.98,6.18.76,7.7.27.1-.03.2-.06.29-.1.03-.01.06-.02.09-.03,1.31-.5,1.8-1.16,1.8-1.16l.2.45.57,1.27.18.39Z"/><path class="cls-7" d="m423.02,188.01c-3.56,1.16-6.78-.04-6.78-.04l-.75-1.67c-.08.04-.95.37-1.86.66-.04.01-.08.02-.14.04-.03,0-.06.02-.09.03-.09.02-.21.06-.34.09-1.17.29-3.73.67-7.8-.35-.6-.15-1.22-.33-1.88-.55-.19-.06-.38-.12-.58-.18-.02-.02-.05-.02-.08-.04-.56-.2-1.14-.41-1.74-.65-1.32-.54-2.76-1.21-4.3-2.05l6.77.05h0s6.27,1.62,11.84,2.36c2.68.35,5.2.51,6.77.18l.96,2.11Z"/><path class="cls-7" d="m416.22,184.79c-1.08.85-2.26,1.39-3.49,1.71-3.93,1.04-8.33-.23-11.49-1.6-1.12-.48-2.08-.96-2.82-1.36-.95-.53-1.51-.89-1.51-.89-.62.74-1.3,1.36-1.99,1.87-1.33,1-2.75,1.62-4.16,1.96-6.14,1.49-12.42-2.12-12.42-2.12l.62-1.76c2.31,1.27,4.48,1.85,6.45,1.96,1.5.1,2.88-.07,4.12-.38,4.41-1.1,7.13-4.06,7.13-4.06,1.56.82,3,1.49,4.32,2.04.6.24,1.16.47,1.71.67.03.01.06.02.09.03.2.07.38.13.56.2.72.24,1.41.45,2.05.62,3.73.98,6.18.75,7.7.27.1-.03.2-.06.29-.1.03-.01.06-.02.09-.03,1.31-.5,1.8-1.15,1.8-1.15l.2.45.57,1.27.18.39h0Z"/><path class="cls-4" d="m422.05,182.73s-1.45,1.95-6,1.67l-.57-1.27c-.09.04-.95.37-1.86.66-.04.01-.08.02-.14.04-.03.01-.06.02-.09.03-.09.02-.21.06-.35.09-1.17.29-3.73.67-7.79-.34-.6-.15-1.23-.32-1.89-.54-.19-.06-.37-.12-.57-.18-.02-.01-.05-.02-.08-.03-.55-.2-1.14-.41-1.73-.66-1.33-.54-2.76-1.21-4.3-2.04l6.77.05s6.27,1.62,11.84,2.36c2.68.36,5.2.51,6.76.18h0Z"/><path class="cls-7" d="m416.22,184.79s3.23,1.2,6.78.04l-.95-2.11s-1.23,1.43-6.58.4l.75,1.67h0Z"/><path class="cls-7" d="m287.98,76.01l-2.78,1.44-1.3-.61,4.34-2.23-.25,1.41Z"/><path class="cls-7" d="m286.41,62.59c.86,1.68.91,3.56.28,5.2-.44,1.13-.41,2.37.14,3.44l.22.43-4.96,2.55-.22-.43c-.55-1.07-1.56-1.81-2.72-2.11-1.7-.43-3.23-1.57-4.1-3.25-1.67-3.23-.31-7.22,3.04-8.74,3.07-1.39,6.77-.09,8.32,2.9h0Z"/><path class="cls-10" d="m286.41,62.59c.86,1.68.91,3.56.28,5.2-.44,1.13-.41,2.37.14,3.44l.22.43-4.96,2.55-.22-.43c-.55-1.07-1.56-1.81-2.72-2.11-1.7-.43-3.23-1.57-4.1-3.25-1.67-3.23-.31-7.22,3.04-8.74,3.07-1.39,6.77-.09,8.32,2.9h0Z"/><path class="cls-18" d="m285.66,72.23l-.37.1-1.39-4.9-.42,1.71-1.33-.88-.04,1.6-1.64-.65,3.21,3.97-.3.24-4.21-5.21.29-.24.73.72,1.55.61.05-1.74,1.45.96.39-1.61-.17-1,.37-.11,1.82,6.45Z"/><path class="cls-3" d="m286.98,71.5l1.58,3.05-4.94,2.58-1.58-3.05,4.94-2.58Z"/><path class="cls-7" d="m397.14,63.3l.34.44c.39.5.29,1.22-.21,1.61l-7.25,5.59-1.74-2.25,7.25-5.59c.5-.39,1.22-.29,1.61.21Z"/><path class="cls-4" d="m397.14,63.3l.34.44c.39.5.29,1.22-.21,1.61l-7.25,5.59-1.74-2.25,7.25-5.59c.5-.39,1.22-.29,1.61.21Z"/><path class="cls-4" d="m391.77,72.79l-2.39-1.14-11.11,23.25,2.39,1.14,11.11-23.25Z"/><path class="cls-3" d="m385.34,69.74l-2.39-1.14-1.25,2.62,2.39,1.14,1.25-2.62Z"/><path class="cls-7" d="m388.03,66.29l-1.91-.91-1.83,3.84,1.91.91,1.83-3.84Z"/><path class="cls-7" d="m388.03,66.29l-1.91-.91-1.83,3.84,1.91.91,1.83-3.84Z"/><path class="cls-7" d="m394.75,74.22l-8.57-4.08,1.83-3.84,6.82,5.25c.5.39.67,1.08.4,1.65l-.49,1.02h0Z"/><path class="cls-7" d="m383.74,74.07l-2.11-2.57c-.1-.12.04-.29.18-.23l6.25,2.97c.14.07.09.28-.06.28l-3.33-.02c-.35,0-.69-.16-.91-.43h-.01Z"/><path class="cls-7" d="m382.05,75.64l.59-1.24c.31-.65,1.1-.93,1.75-.62l.08.04c.65.31.93,1.09.62,1.75l-.59,1.24c-.31.65-1.1.93-1.75.62l-.08-.04c-.65-.31-.93-1.09-.62-1.75Z"/><path class="cls-4" d="m382.05,75.64l.59-1.24c.31-.65,1.1-.93,1.75-.62l.08.04c.65.31.93,1.09.62,1.75l-.59,1.24c-.31.65-1.1.93-1.75.62l-.08-.04c-.65-.31-.93-1.09-.62-1.75Z"/><path class="cls-7" d="m379.84,73.32l1.02-.92c.54-.48,1.37-.44,1.85.1l.06.06c.48.54.44,1.37-.1,1.85l-1.03.92c-.54.48-1.37.44-1.85-.1l-.06-.06c-.49-.54-.44-1.37.1-1.85Z"/><path class="cls-7" d="m384.99,76.92l.07-1.38c.04-.72.66-1.28,1.38-1.24h.09c.72.04,1.28.66,1.24,1.38l-.07,1.38c-.04.72-.66,1.28-1.38,1.24h-.09c-.72-.04-1.28-.66-1.24-1.38Z"/><path class="cls-3" d="m380.65,96.05l8.09,3.85c.71.34,1.55-.07,1.72-.83l5.35-23.25c.13-.58-.15-1.17-.69-1.43l-9.77-4.65-1.25,2.62,6.42,3.05-9.85,20.63h0Z"/><path class="cls-7" d="m381.75,82.75l-9.7-4.62-.9,1.88,9.7,4.62.9-1.88Z"/><path class="cls-7" d="m391.45,87.36l-9.7-4.62-.9,1.88,9.7,4.62.9-1.88Z"/><path class="cls-7" d="m381.75,82.75l-9.7-4.62-.9,1.88,9.7,4.62.9-1.88Z"/><path class="cls-8" d="m343.46,103.66c.31-.19.61-.41.86-.68,2.2-2.3,1.3-6.73-2.01-9.89-1.77-1.68-3.85-2.66-5.76-2.87-.48-.65-1.04-1.28-1.66-1.87-4.63-4.42-11.15-5.12-14.56-1.55-2.33,2.43-2.6,6.21-1.07,9.78-2.39,3.01-1.19,8.34,2.84,12.18,2.92,2.79,6.56,4.06,9.44,3.59.1.1.18.2.29.29,4.2,4.01,9.88,4.89,12.68,1.96,2.44-2.55,1.89-7.14-1.06-10.93h0Z"/><g class="cls-27"><path class="cls-12" d="m328.65,88.9c.91-.74,1.07-.58.37.35-.7.94-.38,2.04.72,2.45,1.1.41,1.04.64-.12.5-1.17-.14-1.96.69-1.77,1.84.19,1.15-.03,1.22-.49.14-.46-1.08-1.58-1.35-2.48-.61-.91.74-1.07.58-.37-.36.7-.94.38-2.04-.72-2.45-1.1-.41-1.04-.64.12-.5,1.17.14,1.96-.69,1.77-1.84-.19-1.15.03-1.22.49-.14.46,1.08,1.58,1.35,2.48.61Z"/><path class="cls-12" d="m340.77,98.66l-3.9,5.2,6.1,2.29-6.47-.77,1.06,6.42-2.56-5.98-5.03,4.13,3.9-5.2-6.1-2.29,6.46.77-1.06-6.41,2.56,5.97,5.04-4.13Z"/><path class="cls-8" d="m345.55,79.23c.21-.14.42-.29.6-.48,2-2.09.82-6.46-2.64-9.76-3.38-3.23-7.68-4.23-9.74-2.33-2.99-1.85-6.3-2.01-8.06-.17-2.18,2.28-1.21,6.75,2.18,9.97,1.29,1.24,2.76,2.11,4.2,2.6.54,1.4,1.47,2.82,2.77,4.05,3.35,3.2,7.84,3.97,10.01,1.7,1.28-1.34,1.47-3.43.71-5.59h-.01Z"/><path class="cls-12" d="m342.67,71.61l-2.59,3.46,4.05,1.52-4.3-.51.71,4.26-1.71-3.97-3.35,2.74,2.59-3.46-4.05-1.52,4.3.51-.71-4.26,1.71,3.97,3.35-2.74Z"/><path class="cls-8" d="m346.15,78.74c-.18.19-.38.34-.6.48.75,2.15.57,4.25-.71,5.59-2.17,2.26-6.65,1.51-10.01-1.7-1.29-1.23-2.22-2.64-2.76-4.05-1.43-.48-2.9-1.35-4.2-2.59-3.39-3.23-4.36-7.69-2.18-9.98,1.77-1.85,5.08-1.68,8.06.17,2.06-1.91,6.37-.91,9.74,2.33,3.46,3.3,4.64,7.67,2.64,9.76Z"/><path class="cls-12" d="m342.67,71.61l-2.59,3.46,4.05,1.52-4.3-.51.71,4.26-1.71-3.97-3.35,2.74,2.59-3.46-4.05-1.52,4.3.51-.71-4.26,1.71,3.97,3.35-2.74Z"/><path class="cls-12" d="m355.83,64.08c.89-.73,1.05-.57.36.34-.69.92-.37,2,.7,2.4,1.07.4,1.02.62-.12.48-1.13-.14-1.92.68-1.73,1.81.19,1.13-.03,1.19-.48.14-.45-1.05-1.55-1.32-2.43-.59s-1.05.57-.36-.34c.69-.92.37-2-.7-2.4-1.07-.4-1.02-.62.12-.48,1.14.13,1.92-.68,1.73-1.81-.19-1.13.03-1.19.48-.14.45,1.05,1.55,1.32,2.43.59Z"/><path class="cls-12" d="m314.38,71.86c.55-.34,0-1.78-.63-2.97,1.11-.77,2.26-1.79,1.93-2.34-.34-.55-1.78,0-2.98.63-.77-1.11-1.8-2.26-2.35-1.92-.55.34,0,1.78.63,2.97-1.11.77-2.26,1.79-1.93,2.34.34.55,1.78,0,2.98-.63.77,1.11,1.8,2.26,2.35,1.92Zm.94-5.1c.06.17-.53.89-1.77,1.78-.11-.18-.2-.36-.3-.51-.1-.16-.2-.32-.32-.5,1.36-.7,2.27-.89,2.39-.76Zm-2.63,2.33c-.18.11-.36.21-.53.31-.11-.17-.22-.34-.33-.52-.11-.18-.21-.36-.31-.53.17-.11.34-.22.52-.33.18-.11.36-.21.53-.31.11.17.22.34.33.52.11.18.21.36.31.53-.16.11-.34.22-.52.33Zm-2.13-3.49c.17-.06.89.53,1.78,1.77-.18.1-.35.2-.51.3-.16.1-.33.2-.5.32-.71-1.35-.89-2.26-.76-2.39Zm-1.16,4.75c-.06-.17.53-.89,1.77-1.78.1.18.2.36.3.51.1.16.2.32.32.5-1.36.7-2.27.89-2.39.76Zm2.99-.61c.18-.1.35-.2.51-.3.16-.1.33-.2.5-.32.7,1.35.89,2.26.76,2.39-.17.06-.89-.53-1.78-1.77Z"/><path class="cls-13" d="m314.38,71.86c.55-.34,0-1.78-.63-2.97,1.11-.77,2.26-1.79,1.93-2.34-.34-.55-1.78,0-2.98.63-.77-1.11-1.8-2.26-2.35-1.92-.55.34,0,1.78.63,2.97-1.11.77-2.26,1.79-1.93,2.34.34.55,1.78,0,2.98-.63.77,1.11,1.8,2.26,2.35,1.92Zm.94-5.1c.06.17-.53.89-1.77,1.78-.11-.18-.2-.36-.3-.51-.1-.16-.2-.32-.32-.5,1.36-.7,2.27-.89,2.39-.76Zm-2.63,2.33c-.18.11-.36.21-.53.31-.11-.17-.22-.34-.33-.52-.11-.18-.21-.36-.31-.53.17-.11.34-.22.52-.33.18-.11.36-.21.53-.31.11.17.22.34.33.52.11.18.21.36.31.53-.16.11-.34.22-.52.33Zm-2.13-3.49c.17-.06.89.53,1.78,1.77-.18.1-.35.2-.51.3-.16.1-.33.2-.5.32-.71-1.35-.89-2.26-.76-2.39Zm-1.16,4.75c-.06-.17.53-.89,1.77-1.78.1.18.2.36.3.51.1.16.2.32.32.5-1.36.7-2.27.89-2.39.76Zm2.99-.61c.18-.1.35-.2.51-.3.16-.1.33-.2.5-.32.7,1.35.89,2.26.76,2.39-.17.06-.89-.53-1.78-1.77Z"/><path class="cls-12" d="m312.82,69.29c.39.07.76.12,1.07.12.53,0,.81-.09.86-.28.09-.39-.83-.78-1.64-1.03.15-.83.22-1.83-.16-1.92-.2-.05-.41.16-.64.63-.14.28-.27.62-.39,1-.83-.15-1.83-.22-1.92.17-.02.07,0,.13.04.21.19.32.94.62,1.6.83-.12.68-.19,1.48,0,1.79.04.07.1.12.17.13.39.09.79-.83,1.03-1.63h0Zm1.71-.27s.02.04.01.06c0,.04-.15.13-.66.12-.29,0-.64-.04-1.01-.11.04-.14.08-.28.1-.39.03-.12.06-.26.09-.4.87.27,1.37.57,1.46.72h0Zm-1.86.04c-.13-.02-.27-.06-.41-.09-.15-.04-.28-.07-.4-.11.02-.13.05-.26.09-.41.04-.14.07-.28.11-.4.14.02.27.06.41.09.14.04.28.07.41.11-.02.13-.06.27-.09.41-.04.15-.07.28-.11.4Zm-.19-2.16c.23-.45.38-.53.41-.53.02,0,.03.02.04.04.09.15.13.73-.03,1.63-.14-.04-.28-.08-.4-.1-.12-.03-.26-.06-.4-.09.11-.36.24-.69.37-.95h0Zm-2.3,1.12c.03-.12.63-.2,1.67-.01-.04.13-.07.26-.1.4-.03.12-.06.26-.09.4-1.01-.31-1.5-.66-1.48-.78h0Zm1.65,2.71c-.12-.03-.2-.64-.01-1.67.14.04.28.08.4.1.13.03.27.06.4.09-.31,1-.66,1.5-.78,1.47h0Z"/><path class="cls-12" d="m361.23,79.12c.31-.25.58-.51.78-.74.35-.4.46-.67.34-.83-.23-.32-1.13.13-1.84.58-.53-.64-1.26-1.35-1.58-1.11-.17.12-.14.42.07.9.12.28.3.61.51.94-.64.53-1.35,1.25-1.12,1.57.04.06.1.09.18.1.37.06,1.08-.31,1.66-.69.44.53,1.01,1.1,1.37,1.16.08.01.15,0,.21-.04.32-.23-.14-1.13-.58-1.84h-.01Zm.89-1.48s.04.01.06.02c.02.03,0,.2-.32.58-.19.22-.45.46-.74.7-.08-.12-.16-.24-.23-.34-.07-.1-.16-.21-.25-.32.77-.49,1.32-.67,1.5-.65h0Zm-1.17,1.44c-.11.09-.22.17-.33.26-.12.09-.23.17-.34.24-.09-.1-.17-.21-.26-.33s-.17-.23-.24-.34c.1-.09.21-.17.34-.26.12-.09.23-.17.34-.24.09.1.17.21.26.34.09.12.17.23.24.35h0Zm-1.78-1.25c-.2-.47-.17-.63-.14-.65.01-.01.03-.01.06,0,.18.02.64.37,1.23,1.07-.12.08-.24.16-.34.23-.1.07-.21.16-.33.25-.2-.32-.37-.62-.49-.89Zm-.62,2.48c-.07-.1.26-.61,1.06-1.29.07.11.15.23.23.34.07.1.16.21.25.32-.88.56-1.48.72-1.55.62Zm3.13.49c-.1.07-.61-.26-1.29-1.07.12-.08.24-.16.34-.23.11-.08.22-.17.33-.25.57.88.72,1.47.63,1.54h0Z"/><path class="cls-12" d="m364.2,79.58c.1-.64-1.36-1.14-2.68-1.43.12-1.34.09-2.88-.55-2.98-.64-.1-1.14,1.36-1.43,2.67-1.34-.12-2.89-.09-2.99.55-.1.64,1.36,1.14,2.68,1.43-.12,1.34-.09,2.88.55,2.98.64.1,1.14-1.36,1.44-2.67,1.34.12,2.89.09,2.99-.55Zm-3.29-4.01c.17.07.35.98.21,2.5-.21-.04-.4-.07-.59-.1-.18-.03-.38-.06-.59-.08.34-1.49.79-2.3.96-2.31Zm.09,3.51c-.03.21-.07.41-.11.61-.2-.02-.4-.05-.61-.08s-.41-.07-.61-.11c.02-.2.05-.4.08-.61.03-.21.07-.41.11-.61.2.02.4.05.61.08.21.03.41.07.61.11-.02.2-.05.4-.08.61Zm-4.05-.62c.07-.17.98-.35,2.5-.21-.04.21-.07.4-.1.59-.03.18-.05.38-.08.59-1.49-.34-2.31-.78-2.32-.96Zm2.9,3.95c-.17-.07-.35-.98-.21-2.5.21.04.4.07.59.1s.38.06.59.08c-.34,1.49-.79,2.3-.96,2.31Zm1.45-2.68c.04-.21.07-.4.1-.59.03-.18.06-.38.08-.59,1.49.34,2.31.78,2.32.96-.07.17-.98.35-2.5.21Z"/><path class="cls-13" d="m364.2,79.58c.1-.64-1.36-1.14-2.68-1.43.12-1.34.09-2.88-.55-2.98-.64-.1-1.14,1.36-1.43,2.67-1.34-.12-2.89-.09-2.99.55-.1.64,1.36,1.14,2.68,1.43-.12,1.34-.09,2.88.55,2.98.64.1,1.14-1.36,1.44-2.67,1.34.12,2.89.09,2.99-.55Zm-3.29-4.01c.17.07.35.98.21,2.5-.21-.04-.4-.07-.59-.1-.18-.03-.38-.06-.59-.08.34-1.49.79-2.3.96-2.31Zm.09,3.51c-.03.21-.07.41-.11.61-.2-.02-.4-.05-.61-.08s-.41-.07-.61-.11c.02-.2.05-.4.08-.61.03-.21.07-.41.11-.61.2.02.4.05.61.08.21.03.41.07.61.11-.02.2-.05.4-.08.61Zm-4.05-.62c.07-.17.98-.35,2.5-.21-.04.21-.07.4-.1.59-.03.18-.05.38-.08.59-1.49-.34-2.31-.78-2.32-.96Zm2.9,3.95c-.17-.07-.35-.98-.21-2.5.21.04.4.07.59.1s.38.06.59.08c-.34,1.49-.79,2.3-.96,2.31Zm1.45-2.68c.04-.21.07-.4.1-.59.03-.18.06-.38.08-.59,1.49.34,2.31.78,2.32.96-.07.17-.98.35-2.5.21Z"/></g><path class="cls-7" d="m313.67,122.46l1.15-9.72,6.67-6.97c.66.39,1.52.29,2.07-.29l.02-.02c.64-.67.62-1.74-.05-2.39l-2.24-2.14c-.68-.64-1.75-.62-2.39.06l-.02.02c-.55.58-.61,1.44-.2,2.08l-6.67,6.97-9.67,1.57c-1.85.3-2.56,2.59-1.21,3.88l8.71,8.31c1.36,1.3,3.61.48,3.83-1.38h0Z"/><path class="cls-1" d="m313.67,122.46l1.15-9.72,6.67-6.97c.66.39,1.52.29,2.07-.29l.02-.02c.64-.67.62-1.74-.05-2.39l-2.24-2.14c-.68-.64-1.75-.62-2.39.06l-.02.02c-.55.58-.61,1.44-.2,2.08l-6.67,6.97-9.67,1.57c-1.85.3-2.56,2.59-1.21,3.88l8.71,8.31c1.36,1.3,3.61.48,3.83-1.38h0Z"/><path class="cls-3" d="m312.64,121.57l.47-4.02c-.18.17-1.59-.89-3.16-2.39-1.56-1.49-2.7-2.85-2.53-3.04l-4,.65c-.48.08-.85.4-1,.87-.15.46-.02.94.33,1.28l7.76,7.41c.35.34.83.44,1.29.28.46-.17.77-.55.82-1.03h0Z"/><path class="cls-7" d="m313.12,117.55c-.17.18-1.59-.89-3.16-2.39-1.57-1.5-2.7-2.86-2.53-3.04.17-.18,1.59.89,3.16,2.39,1.57,1.5,2.71,2.87,2.53,3.04Z"/><path class="cls-4" d="m313.12,117.55c-.17.18-1.59-.89-3.16-2.39-1.57-1.5-2.7-2.86-2.53-3.04.17-.18,1.59.89,3.16,2.39,1.57,1.5,2.71,2.87,2.53,3.04Z"/><path class="cls-12" d="m405.01,109.44c0,1.3-.91,2.25-2.15,2.25-.72,0-1.23-.29-1.44-.83l-.43,2.18h-.51l1.03-5.17h.49l-.12.61c.36-.4.87-.63,1.48-.63.97,0,1.66.61,1.66,1.59h0Zm-.52.03c0-.74-.45-1.18-1.24-1.18-.95,0-1.63.74-1.63,1.78,0,.74.45,1.17,1.24,1.17.95,0,1.63-.74,1.63-1.77Z"/><path class="cls-12" d="m405.81,108.1h3.13v.42h-3.13v-.42Zm0,1.66h3.13v.42h-3.13v-.42Z"/><path class="cls-12" d="m416.14,115.19h-2.82l-.87,1.34h-.58l3.31-5.03h.53l1.29,5.03h-.53l-.34-1.34Zm-.1-.43l-.68-2.72-1.75,2.72h2.44,0Z"/><path class="cls-12" d="m414.12,101.75l-.4,1.98h2.61l-.09.46h-2.61l-.42,2.14h-.53l1.01-5.03h3.45l-.09.46h-2.93,0Z"/><path class="cls-12" d="m411.87,109.11h3.6l-.07.34h-3.6l.07-.34Z"/><path class="cls-3" d="m406.81,84.17c-.88-.47-1.48-1.36-1.75-2.31-.28-.96-.25-1.97-.12-2.95.13-.99.39-1.97.93-2.8.54-.83,1.4-1.5,2.39-1.62.96-.12,1.93.27,2.67.88,1.34,1.09,2.05,2.91,1.81,4.62-.2,1.41-1.05,2.72-2.24,3.51-1.12.75-2.37,1.38-3.69.68Z"/><path class="cls-7" d="m417.89,73.86c3.02,2.45,3.59,7.38,1.21,10.46-.82,1.05-1.94,1.93-2.37,3.19-.28.81-.27,1.76-.85,2.38-.77.81-2.09.61-3.18.35-1.03-.25-2.08-.51-2.95-1.12-.86-.61-1.51-1.65-1.34-2.69.09-.52.58-2.63.15-2.93-.48-.34-2.48-.4-2.4-1.55.05-.7,1.21-1.26,1.92-1.22-1.58-.3-3.02,1.15-3.02,1.15-1.09-2.58.35-5.97.95-7.04,1.04-1.85,3.24-2.85,5.36-2.9,3.95-.09,6.52,1.92,6.52,1.92h.01Z"/><path class="cls-4" d="m414.44,78.85c-.24.73-.86,1.3-1.58,1.62-.71.31-1.58.37-2.22-.07-.63-.43-.89-1.27-.71-2.01.18-.73.76-1.33,1.46-1.63.62-.27,1.75-.45,2.39-.09.69.4.88,1.48.66,2.17h-.01Z"/><path class="cls-4" d="m416.41,78.84c-.36.6-.38,1.37-.17,2.03.21.67.69,1.29,1.37,1.47.66.17,1.4-.15,1.78-.71.39-.56.45-1.31.24-1.95-.19-.59-.73-1.46-1.36-1.68-.67-.23-1.53.28-1.88.84Z"/><path class="cls-4" d="m415.25,83.37c-.07.29-.45.43-.72.3-.27-.13-.15-.37-.14-.67-.1.3-.27.57-.69.49-.4-.07-.49-.35-.55-.54-.04-.15.03-.32.15-.43.12-.11,1.2-.7,1.4-.61.18.09.6,1.27.55,1.46Z"/><path class="cls-12" d="m410.49,86.13c-.24.2-.33.58-.18.87.15.29.5.45.81.36.31-.09.53-.41.5-.73-.12.29-.17.61-.06.9.15.45.9.89,1.56.47.23-.15.5-.59.61-.84-.14.35-.2.79.09,1.03.29.24.56.35.88.13.31-.21.49-.53.38-.89"/><path class="cls-9" d="m410.49,86.13c-.24.2-.33.58-.18.87.15.29.5.45.81.36.31-.09.53-.41.5-.73-.12.29-.17.61-.06.9.15.45.9.89,1.56.47.23-.15.5-.59.61-.84-.14.35-.2.79.09,1.03.29.24.56.35.88.13.31-.21.49-.53.38-.89"/><path class="cls-7" d="m415.64,87.55s-1.34-.21-1.67-.3c-1.7-.42-2.74-.72-4.29-1.35.15-.53.08-1.13-.18-1.63.47.31.67.95.46,1.45,1.74.82,3.77,1.36,5.67,1.6.16-.34.37-.88.82-.72,0,0-.43.07-.8.94Z"/><path class="cls-12" d="m410.16,85.78c-.1-.33.17-.69.51-.75.34-.06.69.15.85.45.17.3.16.67.05,1,.14-.32.32-.64.63-.81.37-.21.89-.15,1.2.15.31.3.39.81.19,1.19.05-.38.28-.75.62-.92.34-.17.8-.12,1.06.17.26.29.24.8-.07,1.02"/><path class="cls-9" d="m410.16,85.78c-.1-.33.17-.69.51-.75.34-.06.69.15.85.45.17.3.16.67.05,1,.14-.32.32-.64.63-.81.37-.21.89-.15,1.2.15.31.3.39.81.19,1.19.05-.38.28-.75.62-.92.34-.17.8-.12,1.06.17.26.29.24.8-.07,1.02"/><path class="cls-7" d="m369.42,100.94c0,.12,0,.25-.01.37v.03c-.12,1.93-1.15,3.62-2.67,4.65-.24.17-.5.31-.76.44-.8.39-1.69.6-2.64.6s-1.87-.22-2.67-.62c-.25-.12-.49-.26-.72-.42h0c-.63-.42-1.17-.96-1.6-1.57-.19-.27-.36-.56-.5-.86-.33-.67-.52-1.41-.58-2.2-.01-.14-.01-.28-.01-.42s0-.26.01-.4h0c.05-.81.26-1.57.59-2.25.15-.3.31-.59.5-.86.43-.61.96-1.13,1.58-1.55.23-.16.48-.3.73-.42.69-.34,1.46-.55,2.27-.6.13-.01.27-.01.4-.01h.26c.86.04,1.68.25,2.42.61.25.12.5.26.73.42,1.51,1.02,2.53,2.69,2.67,4.62.01.14.01.28.01.42v.02Z"/><path class="cls-3" d="m362.17,110.53c.14-.21.23-.44.25-.69,0-.02,0-.04,0-.06.04-.32.4-2.42.43-2.75.17.01.34.01.52.01.16,0,.31,0,.47-.01.03.33.47,2.44.51,2.75,0,.04.01.07.01.11.02.23.1.45.22.64.08.12.12.27.1.43-.03.31-.28.56-.58.59-.33.04-.63-.17-.72-.47h-.02c-.09.28-.36.48-.68.47-.32-.02-.6-.28-.62-.61-.01-.15.02-.3.1-.42h0Z"/><path class="cls-3" d="m364.6,91.37c-.14.21-.23.44-.25.69,0,.02,0,.04,0,.06-.04.32-.4,2.42-.43,2.75-.17-.01-.34-.01-.51-.01-.16,0-.31,0-.47.01-.03-.33-.47-2.44-.51-2.75,0-.04-.01-.07-.01-.11-.02-.23-.1-.45-.22-.64-.08-.12-.12-.27-.11-.43.03-.31.28-.56.58-.59.33-.04.63.17.72.47h.02c.09-.28.36-.48.67-.47.33.02.6.28.62.61.01.15-.02.3-.1.42h0Z"/><path class="cls-3" d="m371.09,106.79c-.12-.22-.27-.42-.47-.56-.02-.01-.03-.02-.05-.04-.26-.19-1.89-1.56-2.17-1.75.09-.14.18-.29.27-.44.08-.14.15-.28.22-.41.31.14,2.35.81,2.64.94.04.01.07.03.1.04.21.09.44.14.66.13.15,0,.3.03.42.13.25.18.34.52.22.8-.14.31-.46.45-.76.39t-.01.02c.2.22.24.56.07.82-.18.28-.55.37-.84.24-.14-.07-.24-.17-.31-.29h0Z"/><path class="cls-3" d="m355.68,95.12c.12.22.27.42.47.56.02.01.03.02.05.04.26.2,1.9,1.56,2.17,1.75-.09.14-.18.29-.27.44-.08.13-.15.28-.22.41-.31-.13-2.35-.81-2.64-.94-.04-.01-.07-.03-.1-.04-.21-.09-.43-.14-.66-.13-.15,0-.3-.03-.42-.13-.25-.18-.34-.52-.22-.8.14-.31.46-.45.76-.39t.01-.02c-.2-.22-.24-.56-.07-.82.18-.28.55-.37.84-.24.14.07.25.17.31.29h0Z"/><path class="cls-3" d="m372.3,97.21c-.25-.01-.5.02-.72.12-.02,0-.04.02-.05.02-.3.12-2.3.86-2.61,1-.08-.15-.16-.31-.24-.45-.08-.13-.16-.27-.24-.4.27-.2,1.88-1.62,2.13-1.81.03-.02.06-.05.09-.07.18-.13.34-.31.44-.51.07-.13.18-.24.32-.31.28-.13.62-.04.81.21.2.27.17.62-.04.85t.01.02c.29-.07.6.07.74.35.15.29.06.66-.21.84-.13.09-.27.13-.41.12h0Z"/><path class="cls-3" d="m354.47,104.69c.25.01.5-.03.72-.12.02,0,.04-.02.05-.02.3-.12,2.3-.86,2.61-1,.08.15.16.31.24.45.08.13.16.27.24.4-.27.2-1.88,1.62-2.13,1.81-.03.02-.06.05-.09.07-.18.13-.34.31-.44.51-.07.13-.18.24-.32.31-.28.13-.62.04-.81-.21-.2-.27-.17-.62.04-.85t-.01-.02c-.29.07-.6-.07-.74-.36-.15-.29-.06-.65.21-.85.13-.09.27-.13.41-.12h0Z"/><path class="cls-3" d="m362.45,97.54c0,.54-.45.99-.99.98-.55,0-.99-.45-.98-.99,0-.54.45-.99.99-.98.55,0,.99.45.98.99Z"/><path class="cls-3" d="m364.37,100.98c0,.54-.45.99-.99.98-.54,0-.99-.45-.98-.99,0-.54.45-.99.99-.98.55,0,.99.45.98.99Z"/><path class="cls-3" d="m366.29,104.38c0,.54-.45.99-.99.98-.55,0-.99-.45-.98-.99,0-.54.45-.98.99-.98.55,0,.99.45.98.99Z"/><path class="cls-3" d="m360.83,103.41c.48-.26,1.08-.08,1.34.4.26.48.08,1.08-.4,1.33-.48.26-1.08.08-1.34-.4-.26-.48-.08-1.08.4-1.33Z"/><path class="cls-3" d="m365,96.76c.48-.26,1.08-.08,1.34.4.26.48.08,1.08-.4,1.33-.48.26-1.08.08-1.34-.4-.26-.48-.08-1.08.4-1.33Z"/><path class="cls-3" d="m359.93,100.1c.48.26.66.86.39,1.34-.26.48-.86.65-1.34.39-.48-.26-.66-.86-.39-1.34.26-.48.86-.65,1.34-.39Z"/><path class="cls-3" d="m367.79,100.08c.48.26.66.86.39,1.34-.26.48-.86.66-1.34.39-.48-.26-.66-.86-.39-1.34.26-.48.87-.65,1.34-.39Z"/><path class="cls-8" d="m358.2,94.29l1.01-.59,1.02-.59"/><path class="cls-8" d="m360.34,95.69l-1.12-1.98"/><path class="cls-8" d="m368.5,94.29l-1.02-.59-1.02-.59"/><path class="cls-8" d="m366.36,95.69l1.12-1.98"/><path class="cls-8" d="m371.67,102.15v-2.34"/><path class="cls-8" d="m369.38,101.01l2.28-.03"/><path class="cls-8" d="m354.92,102.15v-2.34"/><path class="cls-8" d="m357.2,101.01l-2.28-.03"/><path class="cls-8" d="m358.2,107.7l1.01.59,1.02.59"/><path class="cls-8" d="m360.34,106.3l-1.12,1.99"/><path class="cls-8" d="m368.5,107.7l-1.02.59-1.02.59"/><path class="cls-8" d="m366.36,106.3l1.12,1.99"/><path class="cls-3" d="m396.07,138.19c.53-.86.87-2.01.31-2.85-.59-.92-1.86-1.03-2.96-1.04.86-1.49.07-3.59-1.46-4.38-1.53-.8-3.5-.42-4.83.67-1.33,1.09-2.08,2.77-2.34,4.47-.26,1.68.09,2.91,1.51,3.85,1.02.68,1.5,1.61,2.4,2.33,2.24,1.76,6.18-1.14,7.35-3.05h0Z"/><path class="cls-12" d="m393.13,134.58c.2-.23,2.43-2.41,2.59-2.25.17.16.39.27.63.3"/><path class="cls-9" d="m393.13,134.58c.2-.23,2.43-2.41,2.59-2.25.17.16.39.27.63.3"/><path class="cls-4" d="m396.34,133.13c.58.03,1.13.19,1.68.34-.47.4-.97.79-1.56.94-.59.15-1.24.02-1.72-.34-.9-.67,1.21-.95,1.61-.94h0Z"/><path class="cls-7" d="m391.7,131.23c-.06-.34-.53-.5-.8-.29-.26.21-.19.71.13.84.32.13.72-.16.69-.5l-.02-.06Z"/><path class="cls-9" d="m389.16,131.08c-1.58-.14-3,2.58-3.17,3.7"/><path class="cls-7" d="m309.41,86.53c-.1-.13-.2-.26-.3-.38-.91-1.1-2.05-2.01-3.35-2.63-1.29-.63-2.74-.98-4.27-.98-4.4,0-8.13,2.9-9.46,6.94-.17.53-.31,1.07-.39,1.63-.01.18-.02.35-.02.53,0,1.89.91,3.56,2.3,4.58l.36-.24c1.09-.84,2.42-1.3,3.78-1.3l3.86.32c.2-.06.41-.06.61,0,.1.03.2.06.3.07l.45.04c1.28,0,2.35-.95,2.56-2.2.12.01.23.01.34.01,2.19,0,3.97-1.81,3.97-4.05,0-.87-.27-1.68-.73-2.34Z"/><path class="cls-3" d="m301.91,95c-.22.06-.42.19-.58.37-1.02,1.18-2.51,1.92-4.16,1.92-1.21,0-2.34-.4-3.25-1.08l.36-.24c1.09-.84,2.42-1.3,3.78-1.3l3.86.32Z"/><path class="cls-19" d="m301.51,95.2l-2.31,4.16c-.1.17-.27.27-.46.27-.33,0-.57-.29-.53-.62l.23-1.87s.02,0,.02,0c.02,0,.05-.01.08-.02.02,0,.03,0,.05-.01.03,0,.05-.01.08-.02.12-.04.24-.07.35-.12.04-.01.08-.03.12-.04.16-.06.32-.13.47-.21.04-.02.09-.04.13-.07.08-.05.17-.1.26-.15.04-.02.08-.05.12-.07.04-.02.09-.06.12-.08.04-.02.08-.06.12-.09.03-.02.07-.05.1-.07.04-.03.09-.07.14-.1.04-.03.07-.06.11-.09.22-.19.43-.39.62-.62"/><path class="cls-9" d="m301.51,95.2l-2.31,4.16c-.1.17-.27.27-.46.27-.33,0-.57-.29-.53-.62l.23-1.87s.02,0,.02,0c.02,0,.05-.01.08-.02.02,0,.03,0,.05-.01.03,0,.05-.01.08-.02.12-.04.24-.07.35-.12.04-.01.08-.03.12-.04.16-.06.32-.13.47-.21.04-.02.09-.04.13-.07.08-.05.17-.1.26-.15.04-.02.08-.05.12-.07.04-.02.09-.06.12-.08.04-.02.08-.06.12-.09.03-.02.07-.05.1-.07.04-.03.09-.07.14-.1.04-.03.07-.06.11-.09.22-.19.43-.39.62-.62"/><path class="cls-12" d="m298.27,89.94c.3,0,6.42-.69,7.54,2.97l-7.54-2.97Z"/><path class="cls-9" d="m298.27,89.94c.3,0,6.42-.69,7.54,2.97"/><path class="cls-12" d="m300.29,82.69c2.47.53,1.57,4.12,1.6,4.15l-1.6-4.15Z"/><path class="cls-9" d="m300.29,82.69c2.47.53,1.57,4.12,1.6,4.15"/><path class="cls-12" d="m303.2,82.64c-.64.18-1.24.56-1.34,1.35l1.34-1.35Z"/><path class="cls-9" d="m303.2,82.64c-.64.18-1.24.56-1.34,1.35"/><path class="cls-12" d="m296.7,87.01c-.99.31-1.75,1.25-1.89,2.3-.14,1.05.37,2.15,1.24,2.72"/><path class="cls-9" d="m296.7,87.01c-.99.31-1.75,1.25-1.89,2.3-.14,1.05.37,2.15,1.24,2.72"/><path class="cls-12" d="m295.22,91.3c-.72.42-1.02,1.46-.64,2.22l.64-2.22Z"/><path class="cls-9" d="m295.22,91.3c-.72.42-1.02,1.46-.64,2.22"/><path class="cls-12" d="m310.07,89.66c0-.43-.22-.86-.56-1.12-.35-.25-.82-.32-1.22-.18-.02-.76-.39-1.5-.99-1.94-.6-.44-1.41-.57-2.12-.34"/><path class="cls-9" d="m310.07,89.66c0-.43-.22-.86-.56-1.12-.35-.25-.82-.32-1.22-.18-.02-.76-.39-1.5-.99-1.94-.6-.44-1.41-.57-2.12-.34"/><path class="cls-12" d="m307,90.14c-.79.23-1.49.78-1.89,1.52l1.89-1.52Z"/><path class="cls-9" d="m307,90.14c-.79.23-1.49.78-1.89,1.52"/><path class="cls-12" d="m300.39,88.56c-.04.45.04.91.24,1.3l-.24-1.3Z"/><path class="cls-9" d="m300.39,88.56c-.04.45.04.91.24,1.3"/><path class="cls-12" d="m297.21,88.78s1.05,1.08,1.04,1.08l-.88.69"/><path class="cls-9" d="m297.21,88.78s1.05,1.08,1.04,1.08l-.88.69"/><path class="cls-12" d="m294.3,92.53c-.31-.23-.71-.33-1.09-.26-.37.07-.72.29-.94.62"/><path class="cls-9" d="m294.3,92.53c-.31-.23-.71-.33-1.09-.26-.37.07-.72.29-.94.62"/><path class="cls-12" d="m303.3,88.73c-.34.41-.55.94-.57,1.48l.57-1.48Z"/><path class="cls-9" d="m303.3,88.73c-.34.41-.55.94-.57,1.48"/><path class="cls-7" d="m345.47,252.21c-2.37-1.49-7.13-6.65-7.96-8.48-.81-1.79-1.73-1.95-3.48-2.91-4.88-2.68-7.5-4.17-5.47-7.41.37-.59.88-1.11,1.44-1.57,1.51-1.23,2.46-3.02,2.62-4.96.14-1.67.22-3.67.07-5.33,1.55,1.22,3.45,2.51,8.11,2.77l-.65,6.69c-.45,5.69,4.05,12.19,5.46,16.45.18.53.26,1.26.63,1.55.61.48.99.92,1.22,1.32.73,1.27-.76,2.66-2,1.88h0Z"/><path class="cls-9" d="m335.29,229.97c-.39.45-.79.92-1,1.48-.21.55-.19,1.22.2,1.61"/><path class="cls-9" d="m336.29,240.82c.1,1.84,2.84,5.3,4.1,6.65"/><path class="cls-9" d="m344.53,247.54c.43.55.95,1.03,1.53,1.41"/><path class="cls-9" d="m333.65,239.45c-1.43-.05-2.85-.57-3.97-1.47"/><path class="cls-12" d="m343.25,249.04c.32,1.32,1.22,2.49,2.41,3.16l-2.41-3.16Z"/><path class="cls-9" d="m343.25,249.04c.32,1.32,1.22,2.49,2.41,3.16"/><path class="cls-5" d="m348.04,189.12l-6.38,35.26c-.29-.01-.57-.03-.85-.06-4.16-.36-6.66-1.62-8.11-2.77-.7-7.87-.39-17.76-.43-20.21-.14-8.7,3.03-12.95,3.03-12.95,0,0-13.62,1.49-27.62,1.8-4.05.09-8.14.07-11.94-.1,2.59-1.03,7.4-6.52,8.71-8.06-10.86,9.24-20.08,6.76-21.99,6.05.08.04.17.09.26.13.15.07.29.15.44.21-1.25-.35-2.33-.77-3.2-1.26-9.75-5.5-8.78-15.39-8-20.43.09-.56.17-1.07.24-1.49,0,0,6.46.38,15.56,1.18,3.18.28,6.68.61,10.35.99,5,.53,10.29,1.14,15.48,1.87,1.32.17,2.64.37,3.94.56,1.11.16,2.21.34,3.29.52.85.13,1.67.28,2.49.42.63.11,1.26.23,1.89.34.2.04.41.08.62.11,0,0,0,0,.02,0,10.01,1.88,18.03,4.23,20.16,7.08,3.63,4.85,2.02,10.8,2.02,10.8Z"/><path class="cls-9" d="m325.23,180.92c1.32-.83,2.6-1.71,3.85-2.64"/><path class="cls-9" d="m294.73,189.59c9.16.07,18.31-2.15,26.45-6.35"/><path class="cls-9" d="m348.36,184.89c-.26,4.23-2.15,8.34-5.18,11.3"/><path class="cls-9" d="m337.54,186.22c-.96,1.21-1.91,2.43-2.86,3.64"/><path class="cls-4" d="m304.46,182.03c-1.31,1.54-6.12,7.03-8.71,8.06-4.91-.23-9.33-.73-12.57-1.66-.15-.07-.29-.14-.44-.21-.1-.05-.18-.1-.26-.13,1.9.71,11.12,3.19,21.99-6.05Z"/><path class="cls-4" d="m282.06,187.91s.15.05.39.16c-.23-.08-.36-.14-.39-.16Z"/><path class="cls-4" d="m305.96,180.68c-.5.48-1.01.92-1.5,1.35.21-.25.33-.4.33-.4l1.17-.95Z"/><path class="cls-7" d="m386.89,190.98c-2.78.54-9.86.02-11.73-.75-1.83-.76-2.63-.24-4.58.26-5.45,1.4-8.41,2.11-9.16-1.68-.14-.69-.13-1.42-.03-2.15.26-1.95-.28-3.92-1.51-5.45-1.06-1.32-2.38-2.85-3.64-3.97,1.99-.17,4.28-.53,7.89-3.57l4.16,5.37c3.61,4.5,11.43,6.17,15.42,8.33.5.27,1.06.75,1.54.71.78-.06,1.37,0,1.81.13,1.42.43,1.28,2.49-.17,2.77Z"/><path class="cls-9" d="m363.98,181.65c.02.6.05,1.22.29,1.77.23.55.71,1.03,1.26,1.05"/><path class="cls-9" d="m372.24,188.95c1.36,1.29,5.77,1.94,7.63,2.07"/><path class="cls-9" d="m369.34,189.75c-1.09.95-2.5,1.54-3.94,1.66"/><path class="cls-12" d="m383.5,190.26c1.15.75,2.19.92,3.53.59l-3.53-.59Z"/><path class="cls-9" d="m383.5,190.26c1.15.75,2.19.92,3.53.59"/><path class="cls-5" d="m364.8,173.13c-3.61,3.04-7.56,4.06-9.55,4.23-5.98-5.31-11.92-12.44-13.72-14.14-4.08-3.83-6.35-12.18-6.35-12.18,0,0-8.98,10.5-19.07,20.4-8.15,7.99-17.02,15.58-22.48,16.91-10.99,2.69-17.17-3.27-20.09-7.52-.33-.47-1.54-4.07-1.79-4.43,0,0,5.99-3.01,13.25-8.71,2.53-1.99,5.33-4.17,8.29-6.42,4.04-3.07,8.37-6.27,12.68-9.32,1.2-.26,2.69-.6,3.74-.88.46-.12.85-.42,1.17-.82l.19.07,3.97-4.22c.31-.15.61-.39.9-.72.12-.14.25-.29.39-.44,0,0,0,0,.01,0,8.67-5.53,16.2-9.33,19.74-8.71,6.04,1.06,8.97,6.54,8.97,6.54l19.75,30.36h-.01Z"/><path class="cls-7" d="m316.32,144.95c-.14.15-.27.3-.39.44-.29.32-.59.56-.9.72l-3.97,4.22-.19-.07c-.33.4-.71.7-1.17.82-1.05.28-2.55.62-3.74.88,1.1-.78,2.2-1.55,3.29-2.3.93-.65,1.86-1.28,2.78-1.9.71-.48,1.42-.94,2.12-1.41.55-.35,1.09-.71,1.63-1.06.18-.11.36-.23.54-.35Z"/><path class="cls-9" d="m381.39,187.89c1.22.34,1.79.85,3,1.19.33.09,1.32.02,1.62.21.3.18.54.47.6.81.05.34-.13.73-.46.83"/><path class="cls-9" d="m383.12,187.7c1.38.85,2.1.78,3.16.85.78.05,1.05.34,1.26.87.17.45.09,1.04-.34,1.29"/><path class="cls-18" d="m297.4,147.68l-9.05,3.27-2.02-5.27,17.39-5.36s-1.04,1.73-3.83,5.95c-1.78,2.69-2.48,1.41-2.48,1.41h0Z"/><g class="cls-25"><path class="cls-3" d="m297.4,147.68l-9.05,3.27-2.02-5.27,17.39-5.36s-1.04,1.73-3.83,5.95c-1.78,2.69-2.48,1.41-2.48,1.41h0Z"/><path class="cls-14" d="m288.82,149.29c.3.47.89.69,1.45.69.56,0,1.1-.17,1.62-.34,1.7-.56,3.4-1.12,5.1-1.68.72-.24,1.45-.48,2.07-.93,1.39-1.02,5.61-3.84,2.5-3.33-2.75.45-13.16,4.93-12.74,5.59h0Z"/></g><path class="cls-9" d="m297.4,147.68l-9.05,3.27-2.02-5.27,17.39-5.36s-1.04,1.73-3.83,5.95c-1.78,2.69-2.48,1.41-2.48,1.41h0Z"/><path class="cls-7" d="m274.96,117.24c.21.89-1.11,2.3-2.04,2.2-.91-.1-1.66-.75-2.34-1.36-1.82-1.66-3.65-3.31-5.47-4.96-.35-.31-.71-.65-.82-1.1-.09-.36.05-.78.34-.97,0,0,0,0,0,0,.12-.04.21-.07.24-.08.01,0,.02,0,.02,0,0,0,.04,0,.13-.02,1.56-1.55,2.43-3.78,2.32-5.97,1.84-.32,3.71.65,4.96,2.04,1.26,1.41,3.59,1.22,4.31,2.97-.66.45-2.48,3.26-2.73,4.02-.11.27-.16.55-.18.84-.1,1.08.32,2.2,1.1,2.96.05-.18.1-.36.15-.54h0Z"/><path class="cls-18" d="m293.28,164.15c-2.59,2.96-5,6.07-7.22,9.33-2.98,1.99-7.1,3.7-12.78,4.54-.15.02-.3.05-.45.07-2.97.39-4.73-12.4-5.56-20.5-.37-3.73-.55-6.47-.55-6.47,0,0-8.52-11.99-9.51-23.29-.09-.99-.12-1.98-.08-2.96.18-4.46,1.3-7.54,2.63-9.62,1.85-2.9,4.12-3.92,4.88-4.2-.29.18-.43.61-.34.97.07.26.21.48.38.67.04.05.09.09.13.14.1.1.21.2.31.29.73.66,1.46,1.33,2.19,1.99,1.09.99,2.19,1.98,3.28,2.97.68.62,1.43,1.27,2.34,1.37.92.1,2.24-1.3,2.03-2.2-.05.18-.1.36-.15.54-.78-.76-1.2-1.87-1.1-2.95.02-.29.08-.58.18-.85.76.7,1.48,1.58,2.13,2.64,2.74,4.46,7.71,10.61,10.74,14.23,2.05,2.45,2.57,5.88,1.22,8.77-.01.02-.03.06-.04.08-1.1,2.3-.23,4.96-.04,5.48.02.06.04.09.04.09l1.72,5.2v.02l2.8,8.43.51,1.54c.4,1.2.5,2.47.29,3.69h0Z"/><g class="cls-30"><path class="cls-14" d="m278.91,134.54c1.11,1.5,2.24,3.02,2.85,4.79.61,1.76.65,3.82-.35,5.39,2.19-1.03,4.29-2.25,6.27-3.64-.76,2.57-2.18,4.93-4.1,6.79-1.41,1.38-3.59,2.52-5.29,1.51-1.45-.87-2.23-2.39-2.62-4.03-2.31-9.45-2.31-11.51-3.24-19.47,2.37,2.65,4.36,5.82,6.48,8.68h0Z"/><path class="cls-14" d="m267.19,158.73c0,2.01-.01,4.06.53,6,.55,1.94,1.72,3.8,3.51,4.71,2.08,1.05,4.6.69,6.83-.01,2.23-.7,4.4-1.71,6.72-1.89-2.96,3.36-7.42,5.32-11.89,5.25,1.41,1.19,3.42,1.64,5.2,1.15-2.04,1.57-4.52,2.55-7.08,2.81,1.28,1.57,3.71,1.44,5.67.92,7.61-2.02,14.03-8.05,16.51-15.5.3-.89.38-2.15-.5-2.5-.42-.17-.89-.02-1.32.12-5.47,1.85-10.94,3.7-16.4,5.56-1.18.4-2.59.77-3.59.02-.48-.35-.76-.91-1.02-1.44-.98-1.95-1.95-3.91-2.93-5.85-.11.26-.22.51-.33.77-.06-.73-.12-1.45-.18-2.18"/></g><path class="cls-9" d="m293.28,164.15c-2.59,2.96-5,6.07-7.22,9.33-2.98,1.99-7.1,3.7-12.78,4.54-.15.02-.3.05-.45.07-2.97.39-4.73-12.4-5.56-20.5-.37-3.73-.55-6.47-.55-6.47,0,0-8.52-11.99-9.51-23.29-.09-.99-.12-1.98-.08-2.96.18-4.46,1.3-7.54,2.63-9.62,1.85-2.9,4.12-3.92,4.88-4.2-.29.18-.43.61-.34.97.07.26.21.48.38.67.04.05.09.09.13.14.1.1.21.2.31.29.73.66,1.46,1.33,2.19,1.99,1.09.99,2.19,1.98,3.28,2.97.68.62,1.43,1.27,2.34,1.37.92.1,2.24-1.3,2.03-2.2-.05.18-.1.36-.15.54-.78-.76-1.2-1.87-1.1-2.95.02-.29.08-.58.18-.85.76.7,1.48,1.58,2.13,2.64,2.74,4.46,7.71,10.61,10.74,14.23,2.05,2.45,2.57,5.88,1.22,8.77-.01.02-.03.06-.04.08-1.1,2.3-.23,4.96-.04,5.48.02.06.04.09.04.09l1.72,5.2v.02l2.8,8.43.51,1.54c.4,1.2.5,2.47.29,3.69h0Z"/><path class="cls-9" d="m264.89,110.95c-.09,0-.17.03-.24.08"/><path class="cls-9" d="m267.3,104.97l.06-.1v.09s-.04,0-.06.01Z"/><path class="cls-9" d="m265.05,110.93c-.11.12-.23.23-.35.33"/><path class="cls-7" d="m330.62,128.38l-1.63,1.74-.42.45-.46.49-.25.26c-3.42,3.67-9.15,9.81-11.82,12.81-.01,0-.01,0-.01,0-.14.15-.27.3-.39.44-.29.32-.59.56-.9.72-.29.15-.58.23-.88.25-.39.04-.79-.02-1.19-.17-.5-.18-.99-.46-1.48-.83-.72-.54-1.42-1.25-2.04-1.98-.24-.28-.48-.57-.7-.86-.38-.5-.72-.98-1.02-1.41-.61-.9-.98-1.55-.98-1.55l.88-.92.12-.12,4.56-4.76s.01,0,.02-.01l15.5-16.16c1.81-1.22,3.08,11.6,3.08,11.6h0Z"/><path class="cls-5" d="m327.2,118.59l-17.33,18.18s-.9,1.22,0,1.82c.9.59,15.56-16.03,15.56-16.03,0,0,2.74,1.02,3.58,2.43s-2.1-3.19-1.82-6.4Z"/><path class="cls-20" d="m330.24,127.19s-2.28-3.8-2.73-5.61c-.46-1.82-.31-2.98-.31-2.98l1.58.22s1.38,4.03,1.47,8.38"/><path class="cls-9" d="m330.24,127.19s-2.28-3.8-2.73-5.61c-.46-1.82-.31-2.98-.31-2.98l1.58.22s1.38,4.03,1.47,8.38"/><path class="cls-5" d="m330.53,128l-5.65-2.9-13.8,14.41-1.21-1.54,14.62-15.69s1.91.29,3.78,2.11c1.88,1.81,2.26,3.61,2.26,3.61Z"/><path class="cls-7" d="m330.62,128.38l-1.63,1.74-.42.45-.46.49-.24.26-12.37,13.17-.75.81-3.97,4.22-.19-.07-1.62-.6-5.26-1.95,4.75-5.18,1.89-2.06.02-.02.4-.43.78-.85,12.49-13.64,6.58,3.68Z"/><path class="cls-18" d="m297.4,147.53s-13.56,5.7-19.42,5.96c0,0-3.64-10.06-5.8-28.01-1.02-8.5-9.29-6.04-9.29-6.04-.15.09-8.28,3.59-4.98,14.88,3.3,11.29,13.23,31.44,13.23,31.44,7.37-.91,14.5-3.17,21.03-6.68l7.7-4.14s-1.29-4.4-2.48-7.41h0Z"/><g class="cls-29"><path class="cls-14" d="m260.58,134.42c2.04,2.72,4.66,4.96,7.02,7.41.54.56,1.1,1.19,1.18,1.97.08.77-.33,1.5-.52,2.25-.58,2.21.68,4.48,2.08,6.29,1.4,1.81,3.06,3.6,3.45,5.86.14.8.12,1.66.56,2.34.83,1.28,2.71,1.21,4.18.86,7.16-1.66,13.58-6.1,20.89-6.84-7.76,4.76-16.17,8.46-24.92,10.96-1.24.36-2.64.67-3.75.03-.92-.53-1.39-1.59-1.8-2.57-2.75-6.6-5.51-13.2-8.27-19.81-1.2-2.86-2.37-5.75-3.12-8.76-.52-2.08-1.77-7.02-.33-8.8.58,1.12.42,3.07.9,4.42.57,1.58,1.43,3.05,2.43,4.39Z"/></g><path class="cls-9" d="m297.4,147.53s-13.56,5.7-19.42,5.96c0,0-3.64-10.06-5.8-28.01-1.02-8.5-9.29-6.04-9.29-6.04-.15.09-8.28,3.59-4.98,14.88,3.3,11.29,13.23,31.44,13.23,31.44,7.37-.91,14.5-3.17,21.03-6.68l7.7-4.14s-1.29-4.4-2.48-7.41h0Z"/><path class="cls-7" d="m314.65,141.48l-1.3.51s.36,2.4-.23,2.85c-.15.18-.29.36-.45.53-.22.26-.45.5-.71.73-.05.22-.12.51-.22.85-.22.8-.59,1.79-1.16,2.5-.33.4-.71.7-1.17.82-1.05.28-2.54.62-3.74.88-1.12.24-1.97.42-1.97.42l-4.07,2.3-.68-1.86-1.55-4.3h0s.03-.02.04-.03c.9-.34,1.52-.61,1.77-.78.2-.14.42-.35.66-.62,1.03-1.17,2.33-3.38,3.21-4.95.04-.08.09-.16.13-.24.15-.28.29-.53.4-.74.2-.36.34-.62.41-.73,1.07-.56,2.24-1.22,3.31-1.78,1.06-.55,1.65-.02,3.61-.34.55-.03.69.39.6.84v.02c-.12.34-.41.61-.77.83-.63.37-1.47.58-1.93.7l1.5-.24.77-.12s.07,0,.11-.01l1.04-.17h.04l.97-.15h.07s.06-.01.06-.01l1.88.13h.06l.96.07s.02.04.03.07c.12.35.56,1.94-1.68,2.03Z"/><path class="cls-9" d="m307.98,142.98c2.94-1.13,4.96-1.21,6.66-1.51.53.15,1.15-.04,1.51-.47.35-.43.4-1.13.14-1.63-1.22-.02-2.48-.37-3.67-.1-1.93.43-3.49.25-5.79,1.28"/><path class="cls-9" d="m309.41,147.68c1.17-.51,1.93-1.02,2.56-1.58"/><path class="cls-9" d="m308.83,145.23c1.51-.36,2.82-.8,4.49-1.53"/><path class="cls-7" d="m304.73,139.08c.31-.01,2.7-5.23,2.7-5.23,0,0,3.65.08,4.62-.92,0,0,.93,1.83-.96,2.41-1.89.58-3.74,2.5-3.74,2.5l-2.61,1.25h0Z"/><path class="cls-4" d="m272.23,109.21c.62.8,1.32,1.64,2.29,1.93.97.3,2.26-.23,2.36-1.24.09-.88-.69-1.57-1.38-2.11-.85-.65-5.21-4.74-6.1-4.21-1.2.71,2.32,4.92,2.83,5.61h0Z"/><path class="cls-7" d="m284.83,88.84c.45,1.38.82,2.8,1.09,4.23.24,1.68-.36,4.61-.28,5.12s1.95,3.77,1.86,4.35c-.08.58-2.45,1.33-2.45,1.33,0,0-1.26,3.83-1.96,5.42-.71,1.59-.79,2.53-2.97,2.11-2.18-.42-5-1.8-8.36-4.36-3.37-2.57-6.54-4.33-6.59-8.26-.04-3.94,12.08-11.1,13.71-11.83,1.63-.73,5.94,1.9,5.94,1.9Z"/><path class="cls-19" d="m284.2,98.03c-.17.74-.55,1.29-.84,1.23-.29-.06-.42-.73-.25-1.48.17-.74.56-1.3.84-1.24.28.06.42.73.25,1.48Z"/><path class="cls-9" d="m281.91,95.75s1.57-2.58,3.09-1.33"/><path class="cls-9" d="m284.22,105.19s-2.19.48-2.98-1.38"/><path class="cls-4" d="m273.66,79.57c-5.08.34-9.74.95-13.37,4.29-6.78,6.23-3.37,14.2-2.31,16.61.78,1.77,2.19,3.28,2.77,5.12.58,1.84-.18,4.31-2.18,4.63.75.95,2.43,1.06,3.31.22-.47,1.85-1.52,3.56-2.98,4.87,2.34-.09,4.61-1.2,6.04-2.94-.45,1.5-.91,3-1.36,4.5,2.45-1.05,4.99-2.15,6.68-4.11,1.71-1.95,2.29-5.02.6-7-.95-1.11-2.41-1.69-3.66-2.49-1.25-.8-2.4-2.11-2.13-3.5.2-1.05,1.28-1.89,2.42-1.86,1.13.02,2.19.9,2.35,1.96,2.11-3.04,4.9-5.66,8.14-7.63-.34,2.44-1.23,4.8-2.61,6.89.24-.36,3.41-1,3.99-1.29,1.35-.65,2.59-1.49,3.69-2.49,2.11-1.91,3.69-4.39,4.36-7.08,1.37-5.52-9.01-9-13.75-8.69h0Z"/><path class="cls-9" d="m279.87,100.12h.11"/><path class="cls-9" d="m280.85,101.21v-.11"/><path class="cls-9" d="m281.55,100.24v-.11"/><path class="cls-9" d="m334.43,146.64c.25,2.49.96,4.93,2.11,7.14"/><path class="cls-4" d="m303.39,153.79c-3.67,3.65-7.15,7.24-10.12,10.37l.17-.56c.23-.76.17-1.59-.17-2.31l10.12-7.49Z"/><path class="cls-9" d="m341.47,139.17c2.73,2.44,4.56,5.85,5.07,9.47"/><path class="cls-9" d="m273.85,158c1.12-2,2.82-3.68,4.83-4.79"/><path class="cls-9" d="m279.75,145.34c2.93-.86,5.61-2.53,7.67-4.77"/><path class="cls-9" d="m275.63,128.51c.02.67,0,1.34-.04,2.01"/><path class="cls-9" d="m273.85,135.76c.9-2.82.55-6.8.58-9.44,0-.17.01-.36.13-.49.18-.19.52-.12.69.08.17.2.21.47.24.74.05.39.03,0,.05.39"/><path class="cls-9" d="m281.17,168.82c3.23-1.48,6.05-3.76,8.1-6.71-.53,3.54-2.53,6.84-5.45,8.95-2.91,2.1-6.68,2.97-10.22,2.37"/><path class="cls-9" d="m276.75,170.27c.66-.13,1.3-.31,1.94-.5"/><path class="cls-9" d="m261.64,140.56c.58.79,1.01,1.3,1.69,2.01"/><path class="cls-9" d="m257.15,129.49c.4,3.44,1.61,6.78,3.49,9.68"/><path class="cls-9" d="m295.27,161.94c-.68.72-1.34,1.46-2,2.21-2.59,2.96-5,6.07-7.22,9.33-1.13,1.65-2.2,3.34-3.21,5.06"/><path class="cls-9" d="m270.97,102.82c-.21,1.57.48,4.42,5.02,7"/></g></g></svg>