<?xml version="1.0" encoding="UTF-8"?><svg id="_레이어_1" xmlns="http://www.w3.org/2000/svg" xmlns:xlink="http://www.w3.org/1999/xlink" viewBox="0 0 572 280"><defs><style>.cls-1{fill:#d1d1d1;}.cls-1,.cls-2,.cls-3,.cls-4,.cls-5,.cls-6,.cls-7{stroke-linecap:round;stroke-linejoin:round;}.cls-1,.cls-2,.cls-3,.cls-4,.cls-5,.cls-6,.cls-7,.cls-8{stroke:#333;}.cls-2{fill:#25387f;}.cls-3{fill:#949494;}.cls-4{fill:#8c8c8c;}.cls-5,.cls-9,.cls-10{fill:#333;}.cls-6,.cls-11{fill:#fff;}.cls-7,.cls-12,.cls-8{fill:none;}.cls-13{clip-path:url(#clippath);}.cls-12,.cls-14,.cls-15,.cls-9,.cls-11,.cls-10{stroke-width:0px;}.cls-14{fill:rgba(255,255,255,.3);opacity:.7;}.cls-14,.cls-10{isolation:isolate;}.cls-16{clip-path:url(#clippath-1);}.cls-15{fill:url(#_무제_그라디언트);}.cls-8{stroke-miterlimit:10;}.cls-17{opacity:.6;}.cls-10{opacity:.5;}</style><clipPath id="clippath"><rect class="cls-12" width="572" height="280"/></clipPath><linearGradient id="_무제_그라디언트" x1="476.48" y1="-304.66" x2="283.09" y2="-691.03" gradientTransform="translate(0 -280) scale(1 -1)" gradientUnits="userSpaceOnUse"><stop offset="0" stop-color="#a6c1ee"/><stop offset="1" stop-color="#fbc2eb" stop-opacity="0"/></linearGradient><clipPath id="clippath-1"><rect class="cls-12" x="136" y="29" width="399" height="250"/></clipPath></defs><g class="cls-13"><rect class="cls-12" width="572" height="280"/><g class="cls-17"><path class="cls-15" d="m607.42,255.57c.35-37.38-8.21-75.15-15.37-112.22-10.54-54.47-80.01-122.35-161.96-125.53-81.96-3.18-100.2,49.18-140.58,78.16-40.36,28.99-119.33,37.7-148.15,73.42-44.38,55-55.89,103.44,6.88,167.09,47.63,48.3,128.29,42.47,189.03,61.51,40.29,12.63,78.77,37.65,121.71,41.36,52.78,4.57,94.44-41.44,118.59-80.97,10.93-17.89,19.28-37.38,24.38-57.77,3.72-14.91,5.33-29.95,5.47-45.05Z"/><path class="cls-14" d="m607.42,255.57c.35-37.38-8.21-75.15-15.37-112.22-10.54-54.47-80.01-122.35-161.96-125.53-81.96-3.18-100.2,49.18-140.58,78.16-40.36,28.99-119.33,37.7-148.15,73.42-44.38,55-55.89,103.44,6.88,167.09,47.63,48.3,128.29,42.47,189.03,61.51,40.29,12.63,78.77,37.65,121.71,41.36,52.78,4.57,94.44-41.44,118.59-80.97,10.93-17.89,19.28-37.38,24.38-57.77,3.72-14.91,5.33-29.95,5.47-45.05Z"/></g><g class="cls-16"><path class="cls-9" d="m167.1,212.21c-3.49.61-6.73,1.37-10.07-.27-2.65-1.3-5.15-3.91-3.19-6.9,2.65-4.04,9.23-1.55,12.28.76,1.87,1.42,4.28,3.48,5.74,4.77-1.19-1.73-2.23-3.12-2.93-4.02v.02s0-.02-.01-.03c-.34-.44-.6-.76-.76-.95-1.24-1.04-3.59-2.22-4.2-2.57-3.06-1.78-6.03-3.27-7.54-6.68-1.19-2.69-1.43-6.31,1.99-7.34,4.63-1.39,8.06,4.74,8.91,8.48.6,2.63,1.19,6.37,1.45,8.12.7.88,2.23,2.86,3.99,5.49.07-1.59-.52-4.32-.63-5.04-.53-3.5-1.24-6.75.47-10.06,1.35-2.62,4.01-5.07,6.96-3.06,3.99,2.73,1.37,9.25-1,12.26-1.71,2.18-4.35,5.09-5.5,6.33,1.6,2.42,3.35,5.34,4.83,8.46.08.17.16.35.24.53.47-1.52.58-4.35.65-5.08.34-3.52.46-6.85,2.92-9.64,1.95-2.21,5.14-3.93,7.5-1.25,3.19,3.63-.95,9.3-3.99,11.64-2.2,1.69-5.46,3.85-6.89,4.78.63,1.5,1.24,3.3,1.93,5.33.69,2.04,1.45,4.31,2.39,6.69,0,0,.01.01.02.01.92-.61,1.06-5.05,1.15-5.98.34-3.52.46-6.85,2.93-9.64,1.95-2.21,5.14-3.93,7.5-1.25,3.19,3.63-.95,9.3-3.99,11.64-2.84,2.17-7.46,5.15-7.59,5.23.09.05.14.09.14.09-.04-.03-.1-.04-.15-.06,1.02,2.61,2.26,5.34,3.81,8.09.98-.96,2.05-4.45,2.35-5.24,1.26-3.31,2.25-6.49,5.36-8.53,2.46-1.62,5.99-2.45,7.56.76,2.13,4.34-3.36,8.73-6.9,10.18-2.81,1.15-7.01,2.52-8.3,2.94,1.65,2.88,3.66,5.77,6.17,8.49.94-1.13,1.93-4.34,2.21-5.09,1.26-3.31,2.24-6.49,5.35-8.53,2.46-1.62,5.99-2.45,7.57.76,2.13,4.34-3.36,8.73-6.9,10.19-2.65,1.09-6.54,2.37-8.05,2.85,3.02,3.22,6.75,6.21,11.45,8.69l-.22.42c-4.73-2.49-8.48-5.49-11.52-8.72-1.21.23-3.86,3.25-4.49,3.88-2.5,2.51-4.7,5-8.37,5.59-2.91.47-6.47-.21-6.59-3.79-.17-4.83,6.63-6.59,10.47-6.47,3.18.1,7.86.61,8.95.74-.06-.06-.12-.12-.17-.19-.09.03-.14.05-.14.05.04-.01.08-.04.12-.06-2.55-2.76-4.59-5.69-6.26-8.61-1.33.17-4.28,2.45-4.99,2.92-2.94,1.97-5.58,3.99-9.3,3.87-2.94-.1-6.3-1.46-5.73-4.99.77-4.77,7.79-5.18,11.52-4.32,2.93.68,7.1,1.97,8.44,2.4-1.6-2.83-2.86-5.65-3.9-8.32-1.5.05-4.49,1.31-5.24,1.56-3.34,1.16-6.41,2.44-9.98,1.36-2.82-.85-5.72-3.03-4.27-6.29,1.97-4.42,8.86-3.02,12.24-1.23,2.38,1.26,5.58,3.24,7.08,4.18-.83-2.17-1.54-4.23-2.17-6.11-.67-1.98-1.27-3.74-1.88-5.22-.19.12-.3.19-.3.19.09-.06.18-.17.26-.3-.01-.02-.02-.05-.03-.08-1.34-.08-4.67,1.62-5.45,1.95-3.25,1.4-6.22,2.9-9.86,2.08-2.87-.65-5.92-2.61-4.71-5.97,1.64-4.55,8.61-3.65,12.12-2.12,2.75,1.2,6.6,3.24,7.84,3.91-.1-.25-.21-.49-.32-.71-1.45-3.05-3.16-5.92-4.73-8.3-.15.16-.23.25-.23.26.08-.08.13-.2.18-.35-.06-.09-.13-.19-.19-.29-1.5-.17-4.62.57-5.39.7h-.01Z"/><path class="cls-10" d="m167.1,212.21c-3.49.61-6.73,1.37-10.07-.27-2.65-1.3-5.15-3.91-3.19-6.9,2.65-4.04,9.23-1.55,12.28.76,1.87,1.42,4.28,3.48,5.74,4.77-1.19-1.73-2.23-3.12-2.93-4.02v.02s0-.02-.01-.03c-.34-.44-.6-.76-.76-.95-1.24-1.04-3.59-2.22-4.2-2.57-3.06-1.78-6.03-3.27-7.54-6.68-1.19-2.69-1.43-6.31,1.99-7.34,4.63-1.39,8.06,4.74,8.91,8.48.6,2.63,1.19,6.37,1.45,8.12.7.88,2.23,2.86,3.99,5.49.07-1.59-.52-4.32-.63-5.04-.53-3.5-1.24-6.75.47-10.06,1.35-2.62,4.01-5.07,6.96-3.06,3.99,2.73,1.37,9.25-1,12.26-1.71,2.18-4.35,5.09-5.5,6.33,1.6,2.42,3.35,5.34,4.83,8.46.08.17.16.35.24.53.47-1.52.58-4.35.65-5.08.34-3.52.46-6.85,2.92-9.64,1.95-2.21,5.14-3.93,7.5-1.25,3.19,3.63-.95,9.3-3.99,11.64-2.2,1.69-5.46,3.85-6.89,4.78.63,1.5,1.24,3.3,1.93,5.33.69,2.04,1.45,4.31,2.39,6.69,0,0,.01.01.02.01.92-.61,1.06-5.05,1.15-5.98.34-3.52.46-6.85,2.93-9.64,1.95-2.21,5.14-3.93,7.5-1.25,3.19,3.63-.95,9.3-3.99,11.64-2.84,2.17-7.46,5.15-7.59,5.23.09.05.14.09.14.09-.04-.03-.1-.04-.15-.06,1.02,2.61,2.26,5.34,3.81,8.09.98-.96,2.05-4.45,2.35-5.24,1.26-3.31,2.25-6.49,5.36-8.53,2.46-1.62,5.99-2.45,7.56.76,2.13,4.34-3.36,8.73-6.9,10.18-2.81,1.15-7.01,2.52-8.3,2.94,1.65,2.88,3.66,5.77,6.17,8.49.94-1.13,1.93-4.34,2.21-5.09,1.26-3.31,2.24-6.49,5.35-8.53,2.46-1.62,5.99-2.45,7.57.76,2.13,4.34-3.36,8.73-6.9,10.19-2.65,1.09-6.54,2.37-8.05,2.85,3.02,3.22,6.75,6.21,11.45,8.69l-.22.42c-4.73-2.49-8.48-5.49-11.52-8.72-1.21.23-3.86,3.25-4.49,3.88-2.5,2.51-4.7,5-8.37,5.59-2.91.47-6.47-.21-6.59-3.79-.17-4.83,6.63-6.59,10.47-6.47,3.18.1,7.86.61,8.95.74-.06-.06-.12-.12-.17-.19-.09.03-.14.05-.14.05.04-.01.08-.04.12-.06-2.55-2.76-4.59-5.69-6.26-8.61-1.33.17-4.28,2.45-4.99,2.92-2.94,1.97-5.58,3.99-9.3,3.87-2.94-.1-6.3-1.46-5.73-4.99.77-4.77,7.79-5.18,11.52-4.32,2.93.68,7.1,1.97,8.44,2.4-1.6-2.83-2.86-5.65-3.9-8.32-1.5.05-4.49,1.31-5.24,1.56-3.34,1.16-6.41,2.44-9.98,1.36-2.82-.85-5.72-3.03-4.27-6.29,1.97-4.42,8.86-3.02,12.24-1.23,2.38,1.26,5.58,3.24,7.08,4.18-.83-2.17-1.54-4.23-2.17-6.11-.67-1.98-1.27-3.74-1.88-5.22-.19.12-.3.19-.3.19.09-.06.18-.17.26-.3-.01-.02-.02-.05-.03-.08-1.34-.08-4.67,1.62-5.45,1.95-3.25,1.4-6.22,2.9-9.86,2.08-2.87-.65-5.92-2.61-4.71-5.97,1.64-4.55,8.61-3.65,12.12-2.12,2.75,1.2,6.6,3.24,7.84,3.91-.1-.25-.21-.49-.32-.71-1.45-3.05-3.16-5.92-4.73-8.3-.15.16-.23.25-.23.26.08-.08.13-.2.18-.35-.06-.09-.13-.19-.19-.29-1.5-.17-4.62.57-5.39.7h-.01Z"/><path class="cls-9" d="m510.08,122.46c-1.34-3.8-2.83-7.28-1.63-11.35.95-3.21,3.4-6.53,7.12-4.91,5.04,2.2,3.51,10.05,1.5,13.92-1.23,2.37-3.09,5.47-4.24,7.36,1.72-1.66,3.08-3.1,3.95-4.06-.01,0-.02,0-.02,0,.01,0,.02-.01.03-.02.42-.47.74-.82.92-1.03.92-1.59,1.8-4.45,2.08-5.2,1.41-3.77,2.52-7.39,6.05-9.74,2.79-1.85,6.8-2.81,8.61.83,2.45,4.92-3.77,9.95-7.8,11.63-2.83,1.18-6.92,2.56-8.83,3.19-.85.96-2.78,3.05-5.39,5.53,1.8-.23,4.74-1.41,5.52-1.67,3.83-1.27,7.33-2.69,11.38-1.41,3.2,1,6.47,3.52,4.77,7.22-2.3,5-10.12,3.31-13.95,1.23-2.77-1.51-6.54-3.91-8.16-4.95-2.41,2.26-5.36,4.78-8.57,7.04-.17.12-.36.25-.55.37,1.79.24,4.99-.19,5.82-.25,4.02-.29,7.77-.8,11.37,1.44,2.85,1.77,5.4,5.01,2.84,8.17-3.45,4.28-10.62.72-13.82-2.24-2.31-2.14-5.37-5.39-6.69-6.81-1.57.99-3.47,2.02-5.61,3.18-2.16,1.16-4.55,2.46-7.05,3.97,0,.01,0,.02-.01.03.86.92,5.87.22,6.93.14,4.02-.29,7.77-.8,11.37,1.44,2.85,1.77,5.4,5.01,2.84,8.17-3.46,4.28-10.62.72-13.82-2.25-2.98-2.76-7.21-7.37-7.33-7.5-.05.1-.08.18-.08.18.02-.05.03-.12.04-.18-2.72,1.64-5.57,3.56-8.34,5.82,1.26.91,5.39,1.45,6.33,1.63,3.95.77,7.7,1.27,10.6,4.37,2.29,2.45,3.9,6.25.6,8.63-4.46,3.22-10.44-2.09-12.75-5.79-1.83-2.93-4.17-7.38-4.89-8.75-2.92,2.4-5.77,5.21-8.34,8.55,1.45.83,5.23,1.32,6.13,1.5,3.95.77,7.7,1.27,10.6,4.37,2.28,2.45,3.89,6.25.6,8.63-4.46,3.22-10.44-2.09-12.75-5.79-1.73-2.76-3.91-6.87-4.75-8.49-3.04,4-5.67,8.76-7.55,14.51l-.52-.17c1.89-5.78,4.53-10.56,7.58-14.59-.48-1.32-4.39-3.71-5.22-4.3-3.29-2.33-6.51-4.31-7.88-8.32-1.09-3.18-.99-7.3,2.98-8.12,5.38-1.12,8.67,6.18,9.26,10.5.49,3.59.82,8.94.89,10.19.06-.08.12-.15.18-.23-.05-.1-.08-.15-.08-.15.02.04.06.08.1.12,2.61-3.4,5.5-6.24,8.46-8.67-.45-1.46-3.57-4.34-4.24-5.05-2.78-2.92-5.55-5.5-6.12-9.69-.45-3.32.44-7.35,4.5-7.39,5.5-.05,7.31,7.74,7.05,12.09-.2,3.42-.85,8.34-1.06,9.93,2.87-2.34,5.79-4.29,8.59-5.96-.35-1.68-2.33-4.79-2.76-5.58-1.94-3.53-3.96-6.73-3.44-10.94.41-3.33,2.3-6.99,6.24-5.99,5.33,1.35,5.08,9.35,3.73,13.49-.95,2.91-2.56,6.88-3.33,8.75,2.27-1.35,4.45-2.53,6.44-3.61,2.1-1.13,3.96-2.14,5.49-3.11-.17-.19-.27-.3-.27-.3.09.09.22.17.38.23.03-.02.05-.04.08-.05-.17-1.51-2.7-4.93-3.23-5.74-2.19-3.38-4.44-6.42-4.23-10.66.17-3.35,1.79-7.14,5.79-6.43,5.41.96,5.75,8.96,4.7,13.19-.83,3.31-2.37,8.02-2.88,9.55.26-.17.51-.33.74-.5,3.15-2.21,6.04-4.67,8.41-6.9-.2-.13-.33-.22-.33-.22.1.07.26.11.42.13.09-.09.19-.18.29-.27-.09-1.72-1.52-5.08-1.82-5.91v.03Z"/><path class="cls-10" d="m510.08,122.46c-1.34-3.8-2.83-7.28-1.63-11.35.95-3.21,3.4-6.53,7.12-4.91,5.04,2.2,3.51,10.05,1.5,13.92-1.23,2.37-3.09,5.47-4.24,7.36,1.72-1.66,3.08-3.1,3.95-4.06-.01,0-.02,0-.02,0,.01,0,.02-.01.03-.02.42-.47.74-.82.92-1.03.92-1.59,1.8-4.45,2.08-5.2,1.41-3.77,2.52-7.39,6.05-9.74,2.79-1.85,6.8-2.81,8.61.83,2.45,4.92-3.77,9.95-7.8,11.63-2.83,1.18-6.92,2.56-8.83,3.19-.85.96-2.78,3.05-5.39,5.53,1.8-.23,4.74-1.41,5.52-1.67,3.83-1.27,7.33-2.69,11.38-1.41,3.2,1,6.47,3.52,4.77,7.22-2.3,5-10.12,3.31-13.95,1.23-2.77-1.51-6.54-3.91-8.16-4.95-2.41,2.26-5.36,4.78-8.57,7.04-.17.12-.36.25-.55.37,1.79.24,4.99-.19,5.82-.25,4.02-.29,7.77-.8,11.37,1.44,2.85,1.77,5.4,5.01,2.84,8.17-3.45,4.28-10.62.72-13.82-2.24-2.31-2.14-5.37-5.39-6.69-6.81-1.57.99-3.47,2.02-5.61,3.18-2.16,1.16-4.55,2.46-7.05,3.97,0,.01,0,.02-.01.03.86.92,5.87.22,6.93.14,4.02-.29,7.77-.8,11.37,1.44,2.85,1.77,5.4,5.01,2.84,8.17-3.46,4.28-10.62.72-13.82-2.25-2.98-2.76-7.21-7.37-7.33-7.5-.05.1-.08.18-.08.18.02-.05.03-.12.04-.18-2.72,1.64-5.57,3.56-8.34,5.82,1.26.91,5.39,1.45,6.33,1.63,3.95.77,7.7,1.27,10.6,4.37,2.29,2.45,3.9,6.25.6,8.63-4.46,3.22-10.44-2.09-12.75-5.79-1.83-2.93-4.17-7.38-4.89-8.75-2.92,2.4-5.77,5.21-8.34,8.55,1.45.83,5.23,1.32,6.13,1.5,3.95.77,7.7,1.27,10.6,4.37,2.28,2.45,3.89,6.25.6,8.63-4.46,3.22-10.44-2.09-12.75-5.79-1.73-2.76-3.91-6.87-4.75-8.49-3.04,4-5.67,8.76-7.55,14.51l-.52-.17c1.89-5.78,4.53-10.56,7.58-14.59-.48-1.32-4.39-3.71-5.22-4.3-3.29-2.33-6.51-4.31-7.88-8.32-1.09-3.18-.99-7.3,2.98-8.12,5.38-1.12,8.67,6.18,9.26,10.5.49,3.59.82,8.94.89,10.19.06-.08.12-.15.18-.23-.05-.1-.08-.15-.08-.15.02.04.06.08.1.12,2.61-3.4,5.5-6.24,8.46-8.67-.45-1.46-3.57-4.34-4.24-5.05-2.78-2.92-5.55-5.5-6.12-9.69-.45-3.32.44-7.35,4.5-7.39,5.5-.05,7.31,7.74,7.05,12.09-.2,3.42-.85,8.34-1.06,9.93,2.87-2.34,5.79-4.29,8.59-5.96-.35-1.68-2.33-4.79-2.76-5.58-1.94-3.53-3.96-6.73-3.44-10.94.41-3.33,2.3-6.99,6.24-5.99,5.33,1.35,5.08,9.35,3.73,13.49-.95,2.91-2.56,6.88-3.33,8.75,2.27-1.35,4.45-2.53,6.44-3.61,2.1-1.13,3.96-2.14,5.49-3.11-.17-.19-.27-.3-.27-.3.09.09.22.17.38.23.03-.02.05-.04.08-.05-.17-1.51-2.7-4.93-3.23-5.74-2.19-3.38-4.44-6.42-4.23-10.66.17-3.35,1.79-7.14,5.79-6.43,5.41.96,5.75,8.96,4.7,13.19-.83,3.31-2.37,8.02-2.88,9.55.26-.17.51-.33.74-.5,3.15-2.21,6.04-4.67,8.41-6.9-.2-.13-.33-.22-.33-.22.1.07.26.11.42.13.09-.09.19-.18.29-.27-.09-1.72-1.52-5.08-1.82-5.91v.03Z"/><path class="cls-9" d="m471.06,56.62c-3.66-1.68-7.19-3.04-9.28-6.73-1.65-2.92-2.32-6.99,1.44-8.53,5.09-2.09,9.66,4.48,11.04,8.62.85,2.53,1.78,6.02,2.33,8.17,0-2.39-.08-4.37-.16-5.66,0,.01-.01.02-.01.02,0,0,0-.02,0-.03-.04-.63-.08-1.1-.09-1.38-.49-1.77-1.95-4.4-2.29-5.12-1.73-3.64-3.56-6.95-2.79-11.12.61-3.3,2.72-6.84,6.59-5.61,5.24,1.67,4.52,9.64,2.92,13.69-1.13,2.85-2.98,6.74-3.85,8.55.09,1.28.26,4.12.21,7.72,1.09-1.45,2.29-4.39,2.65-5.13,1.75-3.63,3.18-7.13,6.91-9.15,2.95-1.59,7.03-2.19,8.5,1.6,1.99,5.13-4.67,9.57-8.83,10.87-3.02.94-7.36,1.97-9.24,2.41-.06,3.3-.3,7.17-.91,11.04-.04.21-.08.43-.12.65,1.42-1.12,3.34-3.72,3.87-4.35,2.59-3.09,4.84-6.13,8.95-7.16,3.25-.82,7.35-.38,7.84,3.65.66,5.46-6.88,8.12-11.23,8.36-3.14.17-7.61.1-9.54.06-.37,1.81-.96,3.9-1.62,6.24-.66,2.36-1.4,4.98-2.06,7.82,0,.01,0,.02.01.03,1.26.02,4.24-4.06,4.93-4.88,2.59-3.09,4.84-6.13,8.95-7.16,3.25-.82,7.35-.38,7.84,3.65.66,5.46-6.88,8.12-11.23,8.36-4.06.22-10.32.04-10.49.03.05.1.08.18.08.18-.02-.05-.06-.1-.1-.15-.71,3.1-1.32,6.47-1.62,10.04,1.54-.27,4.79-2.86,5.58-3.41,3.31-2.3,6.28-4.65,10.51-4.56,3.36.06,7.2,1.56,6.61,5.58-.79,5.44-8.77,6.03-13.03,5.12-3.38-.73-8.2-2.14-9.69-2.59-.31,3.77-.28,7.77.34,11.94,1.61-.47,4.59-2.83,5.34-3.36,3.31-2.3,6.28-4.64,10.51-4.56,3.36.06,7.2,1.56,6.61,5.58-.79,5.44-8.77,6.04-13.03,5.12-3.19-.69-7.66-1.98-9.4-2.5.76,4.97,2.34,10.17,5.16,15.52l-.48.25c-2.83-5.38-4.43-10.61-5.2-15.6-1.29-.57-5.72.57-6.72.76-3.96.74-7.63,1.67-11.46-.13-3.04-1.43-5.93-4.37-3.75-7.8,2.95-4.65,10.47-1.92,13.98.66,2.92,2.14,6.98,5.63,7.94,6.45-.01-.09-.03-.19-.04-.28-.1-.03-.16-.05-.16-.05.05.01.11.01.16.02-.62-4.23-.66-8.29-.34-12.1-1.36-.69-5.6-.46-6.57-.47-4.03-.03-7.81.16-11.22-2.35-2.7-1.99-4.97-5.43-2.17-8.37,3.79-3.98,10.65.15,13.59,3.35,2.31,2.52,5.4,6.42,6.38,7.67.32-3.68.95-7.14,1.7-10.32-1.44-.91-5.06-1.67-5.92-1.9-3.88-1.06-7.59-1.84-10.25-5.15-2.1-2.62-3.42-6.52.04-8.65,4.69-2.88,10.25,2.86,12.29,6.72,1.42,2.71,3.16,6.63,3.96,8.48.61-2.58,1.29-4.96,1.89-7.13.65-2.29,1.22-4.33,1.59-6.1-.26,0-.4-.01-.41-.01.13,0,.27-.05.43-.12,0-.03.01-.06.02-.09-1.2-.94-5.42-1.49-6.38-1.67-3.95-.78-7.7-1.28-10.59-4.38-2.29-2.45-3.88-6.26-.59-8.63,4.47-3.22,10.44,2.11,12.74,5.81,1.81,2.9,4.11,7.28,4.85,8.71.06-.3.11-.59.16-.88.61-3.79.84-7.59.9-10.83-.24.05-.38.09-.38.09.12-.03.25-.11.38-.22,0-.13,0-.26,0-.39-1.3-1.13-4.7-2.44-5.51-2.81h.04Z"/><path class="cls-10" d="m471.06,56.62c-3.66-1.68-7.19-3.04-9.28-6.73-1.65-2.92-2.32-6.99,1.44-8.53,5.09-2.09,9.66,4.48,11.04,8.62.85,2.53,1.78,6.02,2.33,8.17,0-2.39-.08-4.37-.16-5.66,0,.01-.01.02-.01.02,0,0,0-.02,0-.03-.04-.63-.08-1.1-.09-1.38-.49-1.77-1.95-4.4-2.29-5.12-1.73-3.64-3.56-6.95-2.79-11.12.61-3.3,2.72-6.84,6.59-5.61,5.24,1.67,4.52,9.64,2.92,13.69-1.13,2.85-2.98,6.74-3.85,8.55.09,1.28.26,4.12.21,7.72,1.09-1.45,2.29-4.39,2.65-5.13,1.75-3.63,3.18-7.13,6.91-9.15,2.95-1.59,7.03-2.19,8.5,1.6,1.99,5.13-4.67,9.57-8.83,10.87-3.02.94-7.36,1.97-9.24,2.41-.06,3.3-.3,7.17-.91,11.04-.04.21-.08.43-.12.65,1.42-1.12,3.34-3.72,3.87-4.35,2.59-3.09,4.84-6.13,8.95-7.16,3.25-.82,7.35-.38,7.84,3.65.66,5.46-6.88,8.12-11.23,8.36-3.14.17-7.61.1-9.54.06-.37,1.81-.96,3.9-1.62,6.24-.66,2.36-1.4,4.98-2.06,7.82,0,.01,0,.02.01.03,1.26.02,4.24-4.06,4.93-4.88,2.59-3.09,4.84-6.13,8.95-7.16,3.25-.82,7.35-.38,7.84,3.65.66,5.46-6.88,8.12-11.23,8.36-4.06.22-10.32.04-10.49.03.05.1.08.18.08.18-.02-.05-.06-.1-.1-.15-.71,3.1-1.32,6.47-1.62,10.04,1.54-.27,4.79-2.86,5.58-3.41,3.31-2.3,6.28-4.65,10.51-4.56,3.36.06,7.2,1.56,6.61,5.58-.79,5.44-8.77,6.03-13.03,5.12-3.38-.73-8.2-2.14-9.69-2.59-.31,3.77-.28,7.77.34,11.94,1.61-.47,4.59-2.83,5.34-3.36,3.31-2.3,6.28-4.64,10.51-4.56,3.36.06,7.2,1.56,6.61,5.58-.79,5.44-8.77,6.04-13.03,5.12-3.19-.69-7.66-1.98-9.4-2.5.76,4.97,2.34,10.17,5.16,15.52l-.48.25c-2.83-5.38-4.43-10.61-5.2-15.6-1.29-.57-5.72.57-6.72.76-3.96.74-7.63,1.67-11.46-.13-3.04-1.43-5.93-4.37-3.75-7.8,2.95-4.65,10.47-1.92,13.98.66,2.92,2.14,6.98,5.63,7.94,6.45-.01-.09-.03-.19-.04-.28-.1-.03-.16-.05-.16-.05.05.01.11.01.16.02-.62-4.23-.66-8.29-.34-12.1-1.36-.69-5.6-.46-6.57-.47-4.03-.03-7.81.16-11.22-2.35-2.7-1.99-4.97-5.43-2.17-8.37,3.79-3.98,10.65.15,13.59,3.35,2.31,2.52,5.4,6.42,6.38,7.67.32-3.68.95-7.14,1.7-10.32-1.44-.91-5.06-1.67-5.92-1.9-3.88-1.06-7.59-1.84-10.25-5.15-2.1-2.62-3.42-6.52.04-8.65,4.69-2.88,10.25,2.86,12.29,6.72,1.42,2.71,3.16,6.63,3.96,8.48.61-2.58,1.29-4.96,1.89-7.13.65-2.29,1.22-4.33,1.59-6.1-.26,0-.4-.01-.41-.01.13,0,.27-.05.43-.12,0-.03.01-.06.02-.09-1.2-.94-5.42-1.49-6.38-1.67-3.95-.78-7.7-1.28-10.59-4.38-2.29-2.45-3.88-6.26-.59-8.63,4.47-3.22,10.44,2.11,12.74,5.81,1.81,2.9,4.11,7.28,4.85,8.71.06-.3.11-.59.16-.88.61-3.79.84-7.59.9-10.83-.24.05-.38.09-.38.09.12-.03.25-.11.38-.22,0-.13,0-.26,0-.39-1.3-1.13-4.7-2.44-5.51-2.81h.04Z"/><path class="cls-9" d="m434.8,253.92c-1.36-.52-2.66-.94-3.49-2.21-.66-1.01-.99-2.46.33-3.1,1.79-.87,3.58,1.4,4.16,2.85.36.9.77,2.13,1.02,2.89-.05-.86-.13-1.57-.19-2.03h0s0,0,0,0c-.03-.23-.05-.39-.06-.49-.21-.62-.8-1.54-.94-1.79-.7-1.27-1.44-2.42-1.25-3.94.15-1.2.83-2.52,2.24-2.16,1.92.48,1.84,3.37,1.36,4.86-.34,1.05-.93,2.49-1.2,3.16.06.46.19,1.48.25,2.77.36-.55.73-1.63.84-1.91.55-1.34.98-2.64,2.29-3.45,1.02-.64,2.48-.94,3.09.39.83,1.8-1.47,3.55-2.94,4.1-1.06.41-2.61.87-3.27,1.07.05,1.19.05,2.59-.08,3.99,0,.08-.02.16-.03.24.49-.44,1.12-1.41,1.3-1.65.86-1.17,1.61-2.31,3.06-2.78,1.15-.37,2.64-.3,2.9,1.14.36,1.95-2.3,3.08-3.85,3.26-1.13.13-2.74.2-3.43.23-.09.66-.26,1.43-.44,2.28-.19.87-.39,1.83-.56,2.86h0c.45,0,1.44-1.54,1.66-1.86.86-1.17,1.61-2.31,3.06-2.78,1.15-.37,2.64-.3,2.9,1.14.36,1.95-2.3,3.07-3.86,3.26-1.46.17-3.71.24-3.77.24.02.03.03.06.03.06-.01-.02-.02-.04-.04-.05-.19,1.13-.33,2.36-.36,3.65.55-.13,1.66-1.13,1.93-1.35,1.14-.9,2.16-1.81,3.68-1.88,1.21-.05,2.62.4,2.51,1.86-.16,1.98-3.02,2.37-4.58,2.13-1.23-.19-3-.59-3.54-.71-.03,1.36.08,2.8.39,4.29.57-.2,1.59-1.12,1.85-1.33,1.14-.9,2.16-1.81,3.68-1.88,1.21-.05,2.62.4,2.51,1.86-.16,1.98-3.02,2.37-4.58,2.13-1.16-.17-2.8-.54-3.44-.69.38,1.77,1.07,3.61,2.2,5.47l-.17.1c-1.14-1.87-1.83-3.72-2.22-5.5-.48-.17-2.05.33-2.4.43-1.41.35-2.71.77-4.13.21-1.12-.45-2.23-1.44-1.52-2.72.96-1.74,3.73-.92,5.05-.08,1.1.7,2.64,1.87,3,2.15,0-.04-.01-.07-.02-.1-.04-.01-.06-.01-.06-.01h.06c-.32-1.51-.42-2.97-.39-4.35-.51-.22-2.02-.04-2.38-.02-1.45.08-2.81.23-4.09-.6-1.02-.66-1.91-1.84-.96-2.96,1.27-1.52,3.83-.19,4.96.91.89.85,2.09,2.19,2.46,2.62.04-1.33.19-2.59.38-3.75-.54-.3-1.86-.49-2.17-.55-1.42-.3-2.77-.49-3.8-1.62-.81-.9-1.38-2.27-.17-3.12,1.62-1.14,3.76.8,4.57,2.14.57.94,1.29,2.31,1.62,2.96.16-.94.36-1.81.52-2.61.18-.84.34-1.59.44-2.23h-.15s.1-.02.15-.05v-.04c-.45-.31-1.98-.41-2.33-.46-1.44-.19-2.8-.29-3.91-1.34-.88-.83-1.54-2.16-.4-3.09,1.54-1.26,3.8.53,4.72,1.81.71,1.01,1.64,2.53,1.94,3.03.02-.11.03-.21.04-.32.13-1.38.13-2.75.08-3.92-.08.02-.13.04-.13.04.04-.01.09-.05.13-.09,0-.05,0-.09,0-.14-.49-.38-1.74-.77-2.05-.89h.02Z"/><path class="cls-10" d="m434.8,253.92c-1.36-.52-2.66-.94-3.49-2.21-.66-1.01-.99-2.46.33-3.1,1.79-.87,3.58,1.4,4.16,2.85.36.9.77,2.13,1.02,2.89-.05-.86-.13-1.57-.19-2.03h0s0,0,0,0c-.03-.23-.05-.39-.06-.49-.21-.62-.8-1.54-.94-1.79-.7-1.27-1.44-2.42-1.25-3.94.15-1.2.83-2.52,2.24-2.16,1.92.48,1.84,3.37,1.36,4.86-.34,1.05-.93,2.49-1.2,3.16.06.46.19,1.48.25,2.77.36-.55.73-1.63.84-1.91.55-1.34.98-2.64,2.29-3.45,1.02-.64,2.48-.94,3.09.39.83,1.8-1.47,3.55-2.94,4.1-1.06.41-2.61.87-3.27,1.07.05,1.19.05,2.59-.08,3.99,0,.08-.02.16-.03.24.49-.44,1.12-1.41,1.3-1.65.86-1.17,1.61-2.31,3.06-2.78,1.15-.37,2.64-.3,2.9,1.14.36,1.95-2.3,3.08-3.85,3.26-1.13.13-2.74.2-3.43.23-.09.66-.26,1.43-.44,2.28-.19.87-.39,1.83-.56,2.86h0c.45,0,1.44-1.54,1.66-1.86.86-1.17,1.61-2.31,3.06-2.78,1.15-.37,2.64-.3,2.9,1.14.36,1.95-2.3,3.07-3.86,3.26-1.46.17-3.71.24-3.77.24.02.03.03.06.03.06-.01-.02-.02-.04-.04-.05-.19,1.13-.33,2.36-.36,3.65.55-.13,1.66-1.13,1.93-1.35,1.14-.9,2.16-1.81,3.68-1.88,1.21-.05,2.62.4,2.51,1.86-.16,1.98-3.02,2.37-4.58,2.13-1.23-.19-3-.59-3.54-.71-.03,1.36.08,2.8.39,4.29.57-.2,1.59-1.12,1.85-1.33,1.14-.9,2.16-1.81,3.68-1.88,1.21-.05,2.62.4,2.51,1.86-.16,1.98-3.02,2.37-4.58,2.13-1.16-.17-2.8-.54-3.44-.69.38,1.77,1.07,3.61,2.2,5.47l-.17.1c-1.14-1.87-1.83-3.72-2.22-5.5-.48-.17-2.05.33-2.4.43-1.41.35-2.71.77-4.13.21-1.12-.45-2.23-1.44-1.52-2.72.96-1.74,3.73-.92,5.05-.08,1.1.7,2.64,1.87,3,2.15,0-.04-.01-.07-.02-.1-.04-.01-.06-.01-.06-.01h.06c-.32-1.51-.42-2.97-.39-4.35-.51-.22-2.02-.04-2.38-.02-1.45.08-2.81.23-4.09-.6-1.02-.66-1.91-1.84-.96-2.96,1.27-1.52,3.83-.19,4.96.91.89.85,2.09,2.19,2.46,2.62.04-1.33.19-2.59.38-3.75-.54-.3-1.86-.49-2.17-.55-1.42-.3-2.77-.49-3.8-1.62-.81-.9-1.38-2.27-.17-3.12,1.62-1.14,3.76.8,4.57,2.14.57.94,1.29,2.31,1.62,2.96.16-.94.36-1.81.52-2.61.18-.84.34-1.59.44-2.23h-.15s.1-.02.15-.05v-.04c-.45-.31-1.98-.41-2.33-.46-1.44-.19-2.8-.29-3.91-1.34-.88-.83-1.54-2.16-.4-3.09,1.54-1.26,3.8.53,4.72,1.81.71,1.01,1.64,2.53,1.94,3.03.02-.11.03-.21.04-.32.13-1.38.13-2.75.08-3.92-.08.02-.13.04-.13.04.04-.01.09-.05.13-.09,0-.05,0-.09,0-.14-.49-.38-1.74-.77-2.05-.89h.02Z"/><path class="cls-9" d="m458.17,262.02c-.75-.73-1.5-1.37-1.69-2.45-.15-.86.04-1.91,1.09-1.96,1.42-.07,1.98,1.94,1.95,3.06-.01.69-.09,1.63-.14,2.2.21-.58.36-1.08.45-1.4h0c.05-.16.08-.28.1-.35.03-.48-.09-1.24-.12-1.45-.11-1.04-.27-2.01.28-2.96.44-.76,1.26-1.44,2.1-.8,1.14.87.27,2.75-.48,3.6-.52.6-1.31,1.4-1.69,1.76-.09.32-.3,1.03-.62,1.91.4-.26.94-.88,1.09-1.02.74-.74,1.4-1.47,2.48-1.64.86-.13,1.91.08,1.94,1.13.04,1.43-1.97,1.94-3.1,1.9-.82-.03-1.97-.16-2.47-.21-.3.8-.69,1.73-1.18,2.62-.03.05-.06.1-.09.15.44-.15,1.14-.62,1.32-.73.9-.53,1.72-1.08,2.81-.98.87.08,1.83.54,1.6,1.57-.31,1.39-2.39,1.39-3.48,1.07-.79-.23-1.87-.63-2.34-.81-.25.41-.57.87-.94,1.39-.37.52-.77,1.1-1.18,1.73h0c.31.12,1.39-.62,1.63-.76.9-.53,1.71-1.08,2.81-.98.87.08,1.83.54,1.61,1.57-.31,1.4-2.39,1.39-3.48,1.07-1.01-.3-2.53-.88-2.57-.9v.05s0-.03-.01-.05c-.44.7-.88,1.47-1.27,2.32.4.06,1.42-.29,1.66-.35,1.01-.27,1.94-.59,2.97-.2.81.31,1.63,1.01,1.13,1.94-.66,1.26-2.67.71-3.63.12-.76-.47-1.82-1.24-2.14-1.47-.4.9-.74,1.88-.95,2.95.44.02,1.37-.3,1.6-.35,1.01-.27,1.94-.59,2.97-.2.81.31,1.63,1,1.13,1.94-.66,1.26-2.67.72-3.63.12-.72-.44-1.7-1.15-2.08-1.42-.24,1.28-.31,2.69-.08,4.24l-.14.02c-.23-1.56-.16-2.98.08-4.27-.27-.25-1.45-.36-1.71-.4-1.04-.16-2.01-.25-2.8-1.03-.62-.61-1.08-1.58-.24-2.23,1.12-.88,2.73.44,3.37,1.37.53.78,1.22,1.98,1.38,2.27,0-.02.01-.05.01-.07-.02-.02-.04-.02-.04-.02.01,0,.02.01.04.02.21-1.09.56-2.09.97-3-.27-.29-1.33-.6-1.57-.69-.98-.36-1.92-.64-2.54-1.55-.49-.72-.74-1.76.2-2.24,1.27-.65,2.59.96,3.04,2,.35.82.76,2.04.89,2.43.4-.87.86-1.66,1.31-2.38-.27-.35-1.09-.85-1.29-.98-.86-.6-1.7-1.11-2.06-2.14-.29-.82-.27-1.89.76-2.12,1.39-.3,2.26,1.59,2.42,2.71.12.79.2,1.9.23,2.42.37-.57.74-1.1,1.08-1.58.35-.51.67-.95.92-1.35-.06-.02-.1-.03-.1-.03.03.01.07.01.12.01,0,0,0-.01.01-.02-.21-.33-1.2-.84-1.41-.96-.9-.54-1.77-.98-2.21-1.99-.35-.8-.41-1.87.61-2.16,1.37-.4,2.37,1.42,2.62,2.53.19.87.37,2.14.43,2.55.04-.07.08-.13.12-.2.48-.88.87-1.79,1.16-2.58-.06,0-.1-.01-.1-.01.04,0,.07,0,.11-.02.01-.03.02-.06.04-.09-.22-.39-.94-1.01-1.11-1.17h0Z"/><path class="cls-10" d="m458.17,262.02c-.75-.73-1.5-1.37-1.69-2.45-.15-.86.04-1.91,1.09-1.96,1.42-.07,1.98,1.94,1.95,3.06-.01.69-.09,1.63-.14,2.2.21-.58.36-1.08.45-1.4h0c.05-.16.08-.28.1-.35.03-.48-.09-1.24-.12-1.45-.11-1.04-.27-2.01.28-2.96.44-.76,1.26-1.44,2.1-.8,1.14.87.27,2.75-.48,3.6-.52.6-1.31,1.4-1.69,1.76-.09.32-.3,1.03-.62,1.91.4-.26.94-.88,1.09-1.02.74-.74,1.4-1.47,2.48-1.64.86-.13,1.91.08,1.94,1.13.04,1.43-1.97,1.94-3.1,1.9-.82-.03-1.97-.16-2.47-.21-.3.8-.69,1.73-1.18,2.62-.03.05-.06.1-.09.15.44-.15,1.14-.62,1.32-.73.9-.53,1.72-1.08,2.81-.98.87.08,1.83.54,1.6,1.57-.31,1.39-2.39,1.39-3.48,1.07-.79-.23-1.87-.63-2.34-.81-.25.41-.57.87-.94,1.39-.37.52-.77,1.1-1.18,1.73h0c.31.12,1.39-.62,1.63-.76.9-.53,1.71-1.08,2.81-.98.87.08,1.83.54,1.61,1.57-.31,1.4-2.39,1.39-3.48,1.07-1.01-.3-2.53-.88-2.57-.9v.05s0-.03-.01-.05c-.44.7-.88,1.47-1.27,2.32.4.06,1.42-.29,1.66-.35,1.01-.27,1.94-.59,2.97-.2.81.31,1.63,1.01,1.13,1.94-.66,1.26-2.67.71-3.63.12-.76-.47-1.82-1.24-2.14-1.47-.4.9-.74,1.88-.95,2.95.44.02,1.37-.3,1.6-.35,1.01-.27,1.94-.59,2.97-.2.81.31,1.63,1,1.13,1.94-.66,1.26-2.67.72-3.63.12-.72-.44-1.7-1.15-2.08-1.42-.24,1.28-.31,2.69-.08,4.24l-.14.02c-.23-1.56-.16-2.98.08-4.27-.27-.25-1.45-.36-1.71-.4-1.04-.16-2.01-.25-2.8-1.03-.62-.61-1.08-1.58-.24-2.23,1.12-.88,2.73.44,3.37,1.37.53.78,1.22,1.98,1.38,2.27,0-.02.01-.05.01-.07-.02-.02-.04-.02-.04-.02.01,0,.02.01.04.02.21-1.09.56-2.09.97-3-.27-.29-1.33-.6-1.57-.69-.98-.36-1.92-.64-2.54-1.55-.49-.72-.74-1.76.2-2.24,1.27-.65,2.59.96,3.04,2,.35.82.76,2.04.89,2.43.4-.87.86-1.66,1.31-2.38-.27-.35-1.09-.85-1.29-.98-.86-.6-1.7-1.11-2.06-2.14-.29-.82-.27-1.89.76-2.12,1.39-.3,2.26,1.59,2.42,2.71.12.79.2,1.9.23,2.42.37-.57.74-1.1,1.08-1.58.35-.51.67-.95.92-1.35-.06-.02-.1-.03-.1-.03.03.01.07.01.12.01,0,0,0-.01.01-.02-.21-.33-1.2-.84-1.41-.96-.9-.54-1.77-.98-2.21-1.99-.35-.8-.41-1.87.61-2.16,1.37-.4,2.37,1.42,2.62,2.53.19.87.37,2.14.43,2.55.04-.07.08-.13.12-.2.48-.88.87-1.79,1.16-2.58-.06,0-.1-.01-.1-.01.04,0,.07,0,.11-.02.01-.03.02-.06.04-.09-.22-.39-.94-1.01-1.11-1.17h0Z"/><path class="cls-2" d="m144.88,218.19c-.44,0-.8-.36-.8-.8v-54.48c0-.44.36-.8.8-.8s.8.36.8.8v54.48c0,.44-.36.8-.8.8Z"/><path class="cls-2" d="m144.48,216.09s-3.92,2.03-4.94,7.71c-1.01,5.68-3.24,16.02-3.24,16.02h15.82s-1.01-11.56-2.23-16.43c-1.21-4.87-4.6-7.99-5.41-7.31h0Z"/><path class="cls-2" d="m147.3,216.7c0,1.48-1.08,2.67-2.42,2.67s-2.43-1.2-2.43-2.67,1.08-2.68,2.43-2.68,2.42,1.2,2.42,2.68Z"/><path class="cls-7" d="m139.13,239.62l1.63-7.71"/><path class="cls-7" d="m143.19,228.87l-1.42,8.31"/><path class="cls-7" d="m145.22,239.42l.41-3.65"/><path class="cls-7" d="m149.07,239.21l-1.01-7.91"/><path class="cls-5" d="m184.47,100.04l-42.29,64.39,73.92-31.62,49.92-44.96-81.54,12.19Z"/><path class="cls-6" d="m235.59,110.14c-3.68-7.72-20.52-7.38-37.64.76-17.11,8.14-28,21-24.33,28.72l11.48,22.7,61.96-29.48-11.48-22.7h0Z"/><path class="cls-5" d="m222.74,161.56c17.11-8.14,28-21,24.33-28.72-3.68-7.72-20.52-7.38-37.63.76-17.11,8.14-28,21-24.33,28.72s20.52,7.38,37.63-.76Z"/><path class="cls-6" d="m422.4,274.44h-77.13l2.6-3.21c4.08-5.05,6.3-11.3,6.3-17.74v-19.72h59.33v19.72c0,6.44,2.22,12.69,6.3,17.74l2.6,3.21Z"/><path class="cls-5" d="m413.5,233.77h-59.33v15.38h59.33v-15.38Z"/><path class="cls-5" d="m498.15,64.89h-228.63c-2.72,0-4.93,2.21-4.93,4.93v165.24c0,2.72,2.21,4.93,4.93,4.93h228.63c2.72,0,4.93-2.21,4.93-4.93V69.82c0-2.72-2.21-4.93-4.93-4.93Z"/><path class="cls-6" d="m264.59,212.77h238.49v22.29c0,2.72-2.21,4.93-4.93,4.93h-228.62c-2.72,0-4.93-2.21-4.93-4.93v-22.29h0Z"/><path class="cls-6" d="m491.08,75.78h-214.5v123.71h214.5v-123.71Z"/><path class="cls-7" d="m485.65,91.09h-80.25v97.44h80.25v-97.44Z"/><path class="cls-6" d="m485.65,113.2l-6.96-9.41-31.53,54.45-13.92-9.83-27.84,40.12h80.25v-75.32Z"/><path class="cls-6" d="m433.92,121.25c4.56-4.56,4.56-11.94,0-16.5-4.56-4.56-11.95-4.56-16.5,0-4.56,4.56-4.56,11.94,0,16.5,4.56,4.56,11.95,4.56,16.5,0Z"/><path class="cls-9" d="m287.85,112.47l.29-16.66h3.95l1.83,9.69,1.98-9.69h3.8l.29,16.66h-2.61l-.31-11.09-1.94,11.09h-2.32l-2.06-11.17-.24,11.17h-2.65Z"/><path class="cls-9" d="m304.32,112.47v-6.81l-3.17-9.85h3.48l1.58,5.27,1.42-5.27h3.33l-3.11,9.85v6.81h-3.54Z"/><path class="cls-9" d="m318.96,112.47v-13.92h-2.51v-2.73h8.7v2.73h-2.49v13.92h-3.7,0Z"/><path class="cls-9" d="m326.68,112.47v-16.66h3.68v6.74h2.57v-6.74h3.7v16.66h-3.7v-7.28h-2.57v7.28h-3.68Z"/><path class="cls-9" d="m339.16,112.47v-16.66h7.49v2.51h-3.8v4.13h2.9v2.55h-2.9v4.98h3.84v2.49h-7.53Z"/><path class="cls-9" d="m352.77,112.71c-1.04,0-1.91-.19-2.61-.55-.7-.37-1.23-.94-1.58-1.72-.36-.77-.55-1.78-.6-3.01l3.15-.47c.01.72.08,1.29.2,1.73.12.44.28.76.49.95.22.19.47.28.77.28.38,0,.63-.13.75-.39.12-.26.17-.54.17-.82,0-.69-.16-1.27-.49-1.74s-.77-.95-1.34-1.43l-1.44-1.26c-.63-.54-1.16-1.14-1.59-1.82-.43-.68-.65-1.52-.65-2.52,0-1.41.42-2.49,1.26-3.24.84-.75,1.98-1.12,3.41-1.12.89,0,1.61.15,2.15.45.54.3.95.7,1.23,1.18.28.49.47,1,.58,1.54.1.54.16,1.06.17,1.55l-3.17.39c-.01-.49-.05-.92-.09-1.28-.05-.36-.14-.65-.3-.84s-.38-.3-.7-.3c-.34,0-.59.15-.75.43-.16.29-.24.58-.24.87,0,.62.14,1.12.44,1.51.3.39.68.8,1.16,1.22l1.38,1.21c.73.62,1.34,1.31,1.84,2.1.5.78.75,1.75.75,2.9,0,.78-.18,1.49-.54,2.13-.35.64-.86,1.14-1.51,1.51s-1.42.55-2.31.55h0Z"/><path class="cls-9" d="m358.62,112.47v-16.66h3.68v16.66h-3.68Z"/><path class="cls-9" d="m369.21,112.71c-1.04,0-1.91-.19-2.61-.55-.7-.37-1.23-.94-1.58-1.72-.35-.77-.55-1.78-.6-3.01l3.15-.47c.01.72.08,1.29.2,1.73.12.44.28.76.49.95.21.19.47.28.77.28.38,0,.63-.13.75-.39.12-.26.17-.54.17-.82,0-.69-.16-1.27-.49-1.74-.33-.47-.77-.95-1.34-1.43l-1.44-1.26c-.63-.54-1.16-1.14-1.59-1.82s-.64-1.52-.64-2.52c0-1.41.42-2.49,1.26-3.24.84-.75,1.98-1.12,3.41-1.12.89,0,1.6.15,2.15.45.54.3.95.7,1.23,1.18.28.49.47,1,.58,1.54.11.54.16,1.06.17,1.55l-3.17.39c-.01-.49-.05-.92-.09-1.28-.05-.36-.15-.65-.3-.84s-.38-.3-.7-.3c-.34,0-.59.15-.75.43-.16.29-.24.58-.24.87,0,.62.15,1.12.44,1.51s.68.8,1.16,1.22l1.38,1.21c.73.62,1.34,1.31,1.84,2.1.5.78.75,1.75.75,2.9,0,.78-.18,1.49-.54,2.13-.35.64-.86,1.14-1.51,1.51-.65.37-1.42.55-2.31.55h0Z"/><path class="cls-8" d="m288.31,124.25h108.5"/><path class="cls-8" d="m288.31,133.26h108.5"/><path class="cls-8" d="m288.31,142.27h108.5"/><path class="cls-6" d="m491.08,75.78h-214.5v12.3h214.5v-12.3Z"/><path class="cls-6" d="m491.08,191.77h-214.5v7.72h214.5v-7.72Z"/><path class="cls-5" d="m422.42,274.44h-77.16v3.52h77.16v-3.52Z"/><path class="cls-4" d="m302.88,271.02v-11.84c0-3.83,3.1-6.94,6.94-6.94h-89.31c-3.83,0-6.94,3.1-6.94,6.94v11.84c0,3.83,3.1,6.94,6.94,6.94h89.31c-3.83,0-6.94-3.1-6.94-6.94Z"/><path class="cls-3" d="m368.05,253.19l.78-.51c.19-.13.11-.42-.13-.42h-58.89c-3.83,0-6.94,3.1-6.94,6.94v11.84c0,3.83,3.11,6.94,6.94,6.94h58.89c.23,0,.32-.3.13-.42l-.78-.51v-23.83h0Z"/><path class="cls-6" d="m313.58,253.19h54.47v23.83h-54.47c-5.2,0-9.42-4.22-9.42-9.42v-5c0-5.2,4.22-9.42,9.42-9.42Z"/><path class="cls-7" d="m306.16,257.58h22.98"/><path class="cls-7" d="m323.11,259.76h21.43"/><path class="cls-7" d="m336.07,262.45h-20.54"/><path class="cls-7" d="m306.68,270.67h13.48"/><path class="cls-7" d="m316.69,272.59h20.15"/><path class="cls-7" d="m314.25,274.39h5.4"/><path class="cls-7" d="m329.39,268.87h34.28"/><path class="cls-7" d="m367.65,263.36h-7.06"/><path class="cls-7" d="m366.5,261.56h-7.19"/><path class="cls-7" d="m366.5,273.11h-17.97"/><path class="cls-6" d="m308.61,245.19v-11.84c0-3.83-3.11-6.94-6.94-6.94h65.4c3.83,0,6.94,3.1,6.94,6.94v11.84c0,3.83-3.11,6.94-6.94,6.94h-65.4c3.83,0,6.94-3.11,6.94-6.94Z"/><path class="cls-3" d="m243.44,227.36l-.78-.51c-.19-.13-.1-.43.13-.43h58.89c3.83,0,6.94,3.11,6.94,6.94v11.84c0,3.83-3.11,6.94-6.94,6.94h-58.89c-.23,0-.32-.3-.13-.43l.78-.51v-23.83h0Z"/><path class="cls-6" d="m297.46,251.19h-54.02v-23.83h54.02c5.45,0,9.87,4.42,9.87,9.87v4.09c0,5.45-4.42,9.87-9.87,9.87h0Z"/><path class="cls-7" d="m305.32,231.74h-22.97"/><path class="cls-7" d="m288.38,233.92h-21.44"/><path class="cls-7" d="m275.41,236.62h20.54"/><path class="cls-7" d="m304.81,244.84h-13.48"/><path class="cls-7" d="m294.8,246.76h-20.15"/><path class="cls-7" d="m297.24,248.56h-5.4"/><path class="cls-7" d="m282.09,243.04h-34.27"/><path class="cls-7" d="m243.84,237.52h7.06"/><path class="cls-7" d="m244.99,235.72h7.19"/><path class="cls-7" d="m244.99,247.27h17.97"/><path class="cls-6" d="m301.96,149.13l.04-1.93-.55,1.23-.44-.59v-2.62l-1.42-.22-.11-1.31-.77-.22v-1.42l-.99-.22v-1.54l-1.64-.33-.33-.77-1.44-.44-42.51,9.35-44.34-3.78s-2.88,22.84-6.12,43.52c-3.24,20.68-17.45,72.66-17.45,72.66l-3.03,3.72,1.13,1.58-.56.46,1.27.53.62.86-.25.69,1.12.53.62.86-.2.81,1.19.56.48.66-.56.97,1.82.77.69.95-.53.8,1.73.86.59.82-.34.4h.63l.56.77s57.91.6,91.69-.31c0,0,13.27-68.46,15.99-88.98,2.72-20.51,4.22-38.6,4.22-38.6l-.8-1.09v.02Z"/><path class="cls-2" d="m204.71,140.57s-2.41,35.59-8.45,62.44c-6.04,26.84-15.38,61.23-15.38,61.23,0,0,57.21.81,91-.1,0,0,15.5-66.26,18.22-86.77,2.71-20.51,4.22-38.6,4.22-38.6,0,0-80.86,3.32-89.61,1.81h0Z"/><path class="cls-7" d="m187.46,270.12l36.82,1.61"/><path class="cls-7" d="m215.03,270.2l12.71.55"/><path class="cls-7" d="m261.83,273.85l-20.44.11"/><path class="cls-7" d="m277.57,275.74h-11.55"/><path class="cls-7" d="m274.64,267.88s3.31,5.63,6.63,8.95"/><path class="cls-7" d="m279.17,264.68l-1.55,7.62-10.81.08"/><path class="cls-7" d="m281.38,260.48l-2.32,9.94"/><path class="cls-7" d="m274.2,269.65l-21.32.22"/><path class="cls-7" d="m298.39,147.93s-2.76,29.16-4.09,38.55"/><path class="cls-7" d="m300.38,147.38l-.77,8.73"/><path class="cls-7" d="m293.31,176.76s-2.1,16.9-4.09,26.95"/><path class="cls-7" d="m263.23,275.74h-8.52"/><path class="cls-7" d="m187.34,272.83s22.86,1.12,23.53,1.12"/><path class="cls-7" d="m199.22,268.34l7.18.22"/><path class="cls-7" d="m289.22,229.35s-5.16,26.89-6.72,33.62"/><path class="cls-11" d="m215.97,196.03l2.56-14.37h-2.54l.5-2.82,8.82-.02-.5,2.82h-2.52l-2.56,14.38h-3.76Z"/><path class="cls-11" d="m223.79,196.01l3.06-17.19h3.73l-1.24,6.95h2.6l1.24-6.97h3.75l-3.06,17.19h-3.75l1.34-7.51h-2.6l-1.34,7.52h-3.73Z"/><path class="cls-11" d="m236.45,195.98l3.06-17.19,7.59-.02-.46,2.59h-3.86l-.76,4.27h2.94l-.47,2.63h-2.94l-.91,5.15h3.9l-.46,2.56-7.63.02Z"/><path class="cls-11" d="m250.2,196.21c-1.06,0-1.91-.19-2.55-.57-.64-.38-1.07-.97-1.29-1.77-.22-.8-.24-1.84-.05-3.11l3.28-.49c-.12.74-.16,1.33-.12,1.79.03.45.14.78.32.98.18.2.43.3.73.3.39,0,.67-.13.83-.41.16-.27.27-.55.33-.85.13-.71.06-1.3-.18-1.79-.24-.49-.61-.98-1.09-1.47l-1.23-1.29c-.54-.55-.97-1.17-1.28-1.88-.31-.7-.38-1.56-.19-2.6.26-1.46.88-2.57,1.87-3.34.98-.77,2.21-1.16,3.67-1.16.9,0,1.6.15,2.09.46.49.31.84.71,1.04,1.21.2.5.3,1.04.3,1.59,0,.56-.03,1.09-.11,1.6l-3.28.41c.08-.51.12-.95.14-1.33.02-.37-.03-.66-.15-.87-.12-.2-.34-.31-.65-.31-.35,0-.63.15-.84.45-.22.3-.34.59-.4.89-.11.64-.06,1.16.17,1.56.23.4.55.83.95,1.26l1.18,1.25c.62.63,1.12,1.36,1.48,2.16.37.81.44,1.8.23,2.99-.15.81-.45,1.54-.93,2.2-.48.66-1.08,1.18-1.81,1.56-.73.38-1.55.57-2.45.57Z"/><path class="cls-11" d="m256.17,195.94l3.06-17.19h3.73l-3.06,17.19h-3.73Z"/><path class="cls-11" d="m266.86,196.17c-1.06,0-1.91-.19-2.55-.57-.64-.38-1.07-.97-1.29-1.77-.22-.8-.24-1.84-.05-3.11l3.28-.49c-.12.74-.16,1.33-.12,1.78.04.45.15.78.33.98.18.2.42.3.73.3.39,0,.67-.13.83-.41.16-.27.27-.55.33-.85.13-.71.06-1.3-.18-1.79-.24-.49-.61-.98-1.09-1.47l-1.23-1.29c-.54-.55-.97-1.18-1.28-1.88-.31-.7-.38-1.56-.19-2.6.26-1.46.88-2.57,1.87-3.34s2.21-1.16,3.67-1.16c.9,0,1.6.15,2.09.46.49.31.84.72,1.04,1.22s.3,1.03.3,1.59c0,.56-.03,1.09-.11,1.6l-3.29.41c.08-.51.12-.95.14-1.33.02-.37-.03-.66-.14-.87-.12-.2-.34-.31-.65-.31-.35,0-.63.15-.84.45-.21.3-.34.59-.4.89-.12.64-.06,1.16.17,1.56.23.4.55.82.95,1.26l1.17,1.25c.62.63,1.12,1.36,1.48,2.16s.44,1.8.23,2.99c-.15.81-.45,1.54-.93,2.2-.48.66-1.08,1.18-1.81,1.56-.73.38-1.55.58-2.45.58Z"/><path class="cls-6" d="m211.14,151.91c0-1.34-1.09-2.43-2.43-2.43s-2.43,1.09-2.43,2.43,1.09,2.43,2.43,2.43,2.43-1.09,2.43-2.43Z"/><path class="cls-6" d="m208.13,175.1c0-1.34-1.09-2.43-2.43-2.43s-2.43,1.09-2.43,2.43,1.09,2.43,2.43,2.43,2.43-1.09,2.43-2.43Z"/><path class="cls-6" d="m204.32,198.29c0-1.34-1.09-2.43-2.43-2.43s-2.43,1.09-2.43,2.43,1.09,2.43,2.43,2.43,2.43-1.09,2.43-2.43Z"/><path class="cls-6" d="m198.73,221.48c0-1.34-1.09-2.43-2.43-2.43s-2.43,1.09-2.43,2.43,1.09,2.43,2.43,2.43,2.43-1.09,2.43-2.43Z"/><path class="cls-6" d="m191.37,247.11c1.34,0,2.43-1.09,2.43-2.43s-1.09-2.43-2.43-2.43-2.43,1.09-2.43,2.43,1.09,2.43,2.43,2.43Z"/><path class="cls-4" d="m187.42,239.9c-2.7,0-4.89,2.24-4.89,4.99,0,1.77.93,3.37,2.34,4.26l.52-1.85c-.66-.59-1.07-1.46-1.07-2.41,0-1.76,1.39-3.19,3.09-3.19s3.09,1.43,3.09,3.19c0,.49.4.9.9.9s.9-.4.9-.9c0-2.75-2.19-4.99-4.89-4.99h0Z"/><path class="cls-4" d="m192.35,216.7c-2.7,0-4.89,2.24-4.89,4.99,0,2.13,1.34,4.01,3.27,4.7l.39-1.79c-1.1-.5-1.86-1.63-1.86-2.92,0-1.76,1.39-3.19,3.09-3.19s3.09,1.43,3.09,3.19c0,.49.4.9.9.9s.9-.4.9-.9c0-2.75-2.19-4.99-4.89-4.99h-.01Z"/><path class="cls-4" d="m197.93,193.51c-2.7,0-4.89,2.24-4.89,4.99,0,2.1,1.31,3.96,3.2,4.68l.38-1.8c-1.06-.52-1.78-1.63-1.78-2.88,0-1.76,1.39-3.19,3.09-3.19s3.09,1.43,3.09,3.19c0,.49.4.9.9.9s.9-.4.9-.9c0-2.75-2.19-4.99-4.89-4.99h-.01Z"/><path class="cls-4" d="m201.74,170.31c-2.7,0-4.89,2.24-4.89,4.99,0,2.24,1.49,4.21,3.58,4.81l.27-1.81c-1.2-.45-2.05-1.64-2.05-2.99,0-1.76,1.39-3.19,3.09-3.19s3.09,1.43,3.09,3.19c0,.49.4.9.9.9s.9-.4.9-.9c0-2.75-2.19-4.99-4.89-4.99h0Z"/><path class="cls-4" d="m204.76,147.12c-2.7,0-4.89,2.24-4.89,4.99,0,2.15,1.35,4.03,3.3,4.71l.23-1.86c-1.03-.53-1.73-1.62-1.73-2.85,0-1.76,1.39-3.19,3.09-3.19s3.09,1.43,3.09,3.19c0,.49.4.9.9.9s.9-.4.9-.9c0-2.75-2.19-4.99-4.89-4.99h-.01Z"/><path class="cls-5" d="m348.62,149.07s1.71.91,2.16-2.04c.45-2.95-1.65-3.01-2.01-5.09-.36-2.08-.44-4.04-4.25-5.15-3.82-1.11-5.14.9-6.07,2.19-.93,1.29-3.2.4-6.89,2.5-3.69,2.1-4.02,4.48-4.12,5.6-.1,1.12-2.69,2.76-4.36,6.45-1.67,3.7-.52,4.63-.75,5.89-.23,1.27-3.65-.56-5.45,3.42-1.8,3.98,1.7,7.9,1.7,7.9,0,0-4.47-.11-5.13,4.67-.66,4.77,1.81,7.05,4.34,7.52,2.53.46,5.49-2.59,6.27-.52.78,2.06-.25,4.48,5.62,4.4,5.86-.09,6.86-3.34,6.79-5.15-.07-1.81.51-4.91,2.48-4.7,1.96.2,5-.75,6.23-1.49,1.23-.74,3.02-1.23,3.81-2.52.79-1.29,1.87-2.17,1.93-4.4.05-2.23-2.83-4.61-1.61-5.44,1.23-.83,3.19-.49,2.64-3.96-.55-3.47-1.84-3.58-2.86-5.48-1.02-1.9-.45-4.59-.45-4.59h0Z"/><path class="cls-11" d="m356.63,213.25s19.78,1.96,21.12,3.81c1.34,1.86,19.37,24.61,20.35,25.21l.98.6s7.58-5.21,8.79-6.84c1.21-1.63.91,2.98-.12,5.09-1.03,2.1-2.99,4.43-4.76,6.94-.95,1.35-1.36,3.13-3.59,2.9-2.23-.23-2.33-2.77-4.31-4.76-1.98-1.99-11.41-7.82-16.45-10.96-5.04-3.14-6.24-8.04-6.24-8.04l-23.85-2.4.02-2.51s.86-2.41,2.85-4.4"/><path class="cls-7" d="m356.63,213.25s19.78,1.96,21.12,3.81c1.34,1.86,19.37,24.61,20.35,25.21l.98.6s7.58-5.21,8.79-6.84c1.21-1.63.91,2.98-.12,5.09-1.03,2.1-2.99,4.43-4.76,6.94-.95,1.35-1.36,3.13-3.59,2.9-2.23-.23-2.33-2.77-4.31-4.76-1.98-1.99-11.41-7.82-16.45-10.96-5.04-3.14-6.24-8.04-6.24-8.04l-23.85-2.4.02-2.51s.86-2.41,2.85-4.4"/><path class="cls-6" d="m407.87,236.03c-1.21,1.63-8.79,6.84-8.79,6.84l-.98-.6c-.28-.17-1.98-2.19-4.3-5.02-1.47.67-3.37,2.02-4.6,4.69,2.72,1.79,5.01,3.39,5.87,4.26,1.98,1.99,2.08,4.52,4.31,4.76,2.23.23,2.63-1.55,3.59-2.9,1.77-2.52,3.73-4.84,4.76-6.94,1.03-2.1,1.33-6.72.12-5.09h0Z"/><path class="cls-2" d="m407.87,236.03c-1.21,1.63-8.79,6.84-8.79,6.84,0,0-.57.15-.04,1.27l.53,1.12-3.19,2.66c.9,1.5,1.4,2.87,3.01,3.04,2.23.23,2.63-1.55,3.59-2.9,1.77-2.52,3.73-4.84,4.76-6.94,1.03-2.1,1.33-6.72.12-5.09h0Z"/><path class="cls-6" d="m407.87,236.03c-.08.1-.18.23-.31.35-.1.84-.2,1.75-.28,2.51-.19,2-2.45,5.54-5.13,8.3-1.36,1.39-2.79,2.56-3.88,3.36.31.21.67.35,1.12.4,2.23.23,2.63-1.55,3.59-2.9,1.77-2.52,3.73-4.84,4.76-6.94,1.03-2.1,1.33-6.72.12-5.09h0Z"/><path class="cls-6" d="m338.88,170.37s-6.66-5.66-7.81-8.12-6.41-12.91-9.32-16.74c-2.91-3.83-8.72-11.5-9.14-11.88-.41-.38-.7-1.16-1.79-2.17-1.09-1.01-4.3-2.33-5.36-2.56s-1.71,3.35-1.92,4.81c-.2,1.45.88,2.46,2.2,2.68,1.33.21,4.24,1.02,4.24,1.02,0,0,7.58,16.02,9.52,18.57,1.94,2.56,9.82,19.35,10.67,21.29.86,1.94,3.73,8.27,3.88,8.79.15.52-.2,5.01-1.55,7.69-1.34,2.68-6.84,10.26-8.62,15.19-1.78,4.93-.55,9.62,2.99,12.9,3.55,3.28,9.98,3.17,12.88,3.32,2.9.15,17.21-.66,17.21-.66,0,0,1.57-7.03.83-16.08-.74-9.05-.91-9.96-.92-13.64-.01-3.68-.81-14.44-.81-14.44,0,0,5.02-13.21,6.21-16.41,1.19-3.2,7.02-12.5,7.43-15.67.41-3.17,5.59-18.88,5.59-18.88,0,0,3.38-1.05,3.62-1.59.24-.53.94-3.06,1.05-3.46.12-.4-3.62-1.7-4.41-1.94-.8-.23-3.05,2.88-3.39,4.2-.34,1.32-3.74,8.82-5.73,11.92-1.98,3.1-4.56,8.06-5.38,10.73-.82,2.66-1.64,5.32-1.64,5.32l-9.23,13.11-1.64,1.9s-4.6,3.59-9.7.77h.01Z"/><path class="cls-6" d="m305.76,136.4c1.33.22,4.24,1.02,4.24,1.02,0,0,7.58,16.02,9.52,18.57,1.25,1.65,4.98,9.24,7.7,14.94l6.77-5.07c-1.32-1.34-2.49-2.69-2.92-3.59-1.15-2.45-6.41-12.91-9.32-16.74-2.91-3.83-8.72-11.5-9.14-11.88s-.7-1.16-1.79-2.17c-1.09-1.01-4.3-2.33-5.36-2.56-1.06-.23-1.71,3.36-1.92,4.81-.2,1.45.88,2.47,2.2,2.67Z"/><path class="cls-6" d="m375.32,129.4s3.38-1.05,3.62-1.59c.24-.53.94-3.06,1.05-3.46.12-.4-3.62-1.7-4.41-1.94-.8-.23-3.05,2.88-3.39,4.2-.34,1.33-3.74,8.82-5.73,11.93-1.98,3.1-4.56,8.06-5.38,10.73-.82,2.66-1.64,5.32-1.64,5.32l-7.63,10.83,9.09,2.24c.61-1.6,1.11-2.95,1.4-3.72,1.19-3.2,7.02-12.5,7.42-15.67.41-3.17,5.59-18.88,5.59-18.88h0Z"/><path class="cls-6" d="m338.84,162.21l.05,8.15s2.54,4.51,5.16,4.27c2.62-.23,4.54-5.04,4.54-5.04l-1.16-6.27s-6.16.5-8.59-1.12Z"/><path class="cls-6" d="m341.22,145.93s-1.94-.33-3.1,1.34c-1.16,1.67-.71,2.77-1.02,5.12-.31,2.35-2.48,4.26-3.38,4.6-.9.34-2.69,1.42-2.69,1.42,0,0,.49,2.22,1.44,2.99.95.78,2.43-.3,2.43-.3,0,0,2.64,2.65,5.12,3.66,2.48,1.02,7.38,1.55,9.29-1.67,1.91-3.22.64-9.88-.2-13.1-.84-3.22-2.17-3.58-2.17-3.58,0,0-3.73-1.89-5.71-.49Z"/><path class="cls-7" d="m339.01,154.65s.74-1.96,2.89-1.43"/><path class="cls-7" d="m345.82,152.05s1.17-1.16,2.23-.29"/><path class="cls-7" d="m344.49,151.7s1.07,1.38,2.01,1.95c.94.57,1.86.84,1.49,1.67-.37.82-1.39.87-2,.79"/><path class="cls-5" d="m347.07,158c-2.8,1.23-4.7-.73-4.7-.73,0,0,.12,3.05,1.74,2.98,1.62-.06,2.96-2.24,2.96-2.24h0Z"/><path class="cls-7" d="m343.33,153.37c-.06-1.74-1.53-3.09-3.27-3.02-1.74.06-3.09,1.53-3.02,3.27.07,1.74,1.53,3.09,3.27,3.02,1.74-.07,3.09-1.53,3.02-3.27Z"/><path class="cls-7" d="m350.85,150.64c-.06-1.74-1.53-3.09-3.27-3.02-1.74.06-3.09,1.53-3.02,3.27.07,1.74,1.53,3.09,3.27,3.02,1.74-.07,3.09-1.53,3.02-3.27Z"/><path class="cls-7" d="m337.29,154.82l-3.58,2.17"/><path class="cls-7" d="m343.17,152.5c-.03-.25.63-1.51,1.65-.46"/><path class="cls-7" d="m337.69,150.14s.69-2.27,2.74-2.25"/><path class="cls-7" d="m345.27,146.83s1.44-.83,2.95.57"/><path class="cls-6" d="m307.02,128.44s-2.4-1.44-2.9-1.13c-.5.31-1.02,1.87-.57,2.29.45.42,3.01.33,3.45.38.44.06.01-1.53.01-1.53Z"/><path class="cls-6" d="m307.35,129.37s-3.33-.89-3.76-.66c-.43.24-.74,1.71-.64,2.22.09.51,3.24.76,4.04.51s1.2-.99.36-2.06h0Z"/><path class="cls-6" d="m308.5,131.01s-4.27-.86-4.92-.47c-.65.39-.79.54-.75,1.34.03.8-.01,2.04.72,1.83.73-.2,4.24-.27,4.58-.79.34-.52.37-1.91.37-1.91Z"/><path class="cls-11" d="m304.38,135.99s-1.31-1.7-1.33-2.15c-.02-.44.59-1.7,1.03-1.8.44-.09,4.26.49,4.05.87-.2.37.02.58-.85.69-.87.1-1.74.28-1.74.28,0,0,2,.66,2.51.71"/><path class="cls-7" d="m304.38,135.99s-1.31-1.7-1.33-2.15c-.02-.44.59-1.7,1.03-1.8.44-.09,4.26.49,4.05.87-.2.37.02.58-.85.69-.87.1-1.74.28-1.74.28,0,0,2,.66,2.51.71"/><path class="cls-11" d="m312.63,133.63s-.95-1.94-1.2-2.81c-.25-.87-3.7-3.08-4.22-3.35-.52-.27-1.11,3.48-1.07,4.43.03.95.64,1.66.99,1.13.34-.52.66-1.85.66-1.85,0,0,.34,1.3.95,2.01.61.71,1.93.8,1.93.8"/><path class="cls-7" d="m312.63,133.63s-.95-1.94-1.2-2.81c-.25-.87-3.7-3.08-4.22-3.35-.52-.27-1.11,3.48-1.07,4.43.03.95.64,1.66.99,1.13.34-.52.66-1.85.66-1.85,0,0,.34,1.3.95,2.01.61.71,1.93.8,1.93.8"/><path class="cls-6" d="m376.79,121.84s2.06-1.46,2.53-1.22c.47.25,1.05,1.61.67,2.02-.38.41-2.69.5-3.08.58-.4.08-.12-1.38-.12-1.38Z"/><path class="cls-6" d="m376.56,122.7s2.93-1.03,3.34-.85c.4.18.79,1.49.73,1.95-.05.46-2.87.9-3.6.73-.73-.17-1.15-.81-.46-1.83Z"/><path class="cls-6" d="m375.63,124.26s3.79-1.07,4.4-.76c.6.31.74.44.77,1.16.03.73.15,1.83-.52,1.7-.68-.13-3.84.05-4.18-.39-.35-.45-.46-1.7-.46-1.7h0Z"/><path class="cls-11" d="m377.31,128.6s3.44-1.77,3.42-2.17c-.02-.39-.65-1.49-1.05-1.55-.4-.05-3.8.74-3.59,1.06.21.32.02.53.81.56.8.04,1.59.14,1.59.14,0,0-1.76.73-2.21.81"/><path class="cls-7" d="m377.31,128.6s3.44-1.77,3.42-2.17c-.02-.39-.65-1.49-1.05-1.55-.4-.05-3.8.74-3.59,1.06.21.32.02.53.81.56.8.04,1.59.14,1.59.14,0,0-1.76.73-2.21.81"/><path class="cls-11" d="m372.1,126.9s.72-1.81.89-2.61c.17-.8,3.12-3.02,3.57-3.31.45-.28,1.24,3.06,1.27,3.91.04.86-.47,1.54-.81,1.09-.35-.45-.72-1.62-.72-1.62,0,0-.22,1.2-.72,1.88-.5.68-1.69.86-1.69.86"/><path class="cls-7" d="m372.1,126.9s.72-1.81.89-2.61c.17-.8,3.12-3.02,3.57-3.31.45-.28,1.24,3.06,1.27,3.91.04.86-.47,1.54-.81,1.09-.35-.45-.72-1.62-.72-1.62,0,0-.22,1.2-.72,1.88-.5.68-1.69.86-1.69.86"/><path class="cls-2" d="m357.03,158.04l-6.81,9.66-1.64,1.9s-4.6,3.59-9.7.77c0,0-6.66-5.66-7.81-8.12-.29-.61-.83-1.71-1.52-3.09-2.57,1.08-4.58,2.98-5.88,4.48,2.82,5.66,5.99,12.44,6.52,13.63.86,1.94,3.73,8.27,3.88,8.79.15.52-.2,5.01-1.55,7.69-.99,1.98-4.25,6.63-6.6,10.91,13.53,6.01,26.67,3.37,31.73,1.94-.61-7.36-.76-8.4-.77-11.81-.01-3.68.49-18.2.49-18.2,0,0,3.71-9.44,4.91-12.65.13-.37.34-.81.58-1.32-1.86-2.89-4.04-4.12-5.86-4.59h.03Z"/><path class="cls-7" d="m338.08,171.95s4.01,6.01,8.9,8.01"/><path class="cls-7" d="m350.22,167.7s.29,2.68-1.26,5.24"/><path class="cls-7" d="m343.38,185.9c.52.62,1.06,1.17,1.6,1.62"/><path class="cls-7" d="m336.96,174.62s2.33,5.75,5.37,9.95"/><path class="cls-11" d="m335.59,215.16s19.89.99,21.42,3.79c1.54,2.8,5.45,30.43,6.2,33.42.75,2.99,2.31,6.42,2.8,6.72.49.3,11.59-4.26,11.48-2.98-.11,1.27-3.31,4.73-6.06,7.69-2.74,2.97-5.84,5.15-6.64,5.02-.8-.13-4.92-8.23-8.17-14.45-3.26-6.23-6.08-9.61-8.07-15.88-1.99-6.27-2.24-12.93-2.24-12.93,0,0-11.66,2.19-16.7-.79-5.04-2.98-7.6-7.81-5.75-13.44"/><path class="cls-7" d="m335.59,215.16s19.89.99,21.42,3.79c1.54,2.8,5.45,30.43,6.2,33.42.75,2.99,2.31,6.42,2.8,6.72.49.3,11.59-4.26,11.48-2.98-.11,1.27-3.31,4.73-6.06,7.69-2.74,2.97-5.84,5.15-6.64,5.02-.8-.13-4.92-8.23-8.17-14.45-3.26-6.23-6.08-9.61-8.07-15.88-1.99-6.27-2.24-12.93-2.24-12.93,0,0-11.66,2.19-16.7-.79-5.04-2.98-7.6-7.81-5.75-13.44"/><path class="cls-6" d="m366,259.09c-.49-.3-2.05-3.73-2.8-6.72-.1-.41-.27-1.29-.47-2.49-2.72,1.05-4.8,2.73-6.25,4.24.05.09.09.16.13.25,3.26,6.23,7.37,14.33,8.17,14.45.8.13,3.89-2.05,6.64-5.02,2.74-2.96,5.95-6.42,6.06-7.69.11-1.27-10.99,3.28-11.48,2.98h0Z"/><path class="cls-2" d="m364.53,260.59c.22,1.45.74,2.25.74,2.25l-2.85,2.46c1.16,2.06,2.05,3.46,2.38,3.52.8.13,3.89-2.05,6.63-5.02,2.74-2.96,5.95-6.42,6.06-7.69.11-1.27-10.99,3.28-11.48,2.98,0,0-1.7.05-1.48,1.5h0Z"/><path class="cls-6" d="m377.32,255.92c-7.78,8.14-11.57,11.02-13.32,12.02.36.53.64.86.79.88.8.13,3.89-2.05,6.63-5.02,2.74-2.96,5.95-6.42,6.06-7.69,0-.09-.05-.16-.16-.19Z"/><path class="cls-1" d="m350.37,217.26l-14.97-4.46,25.98-2.76,14.25,4.55-25.25,2.68Z"/><path class="cls-1" d="m375.63,214.58l-25.25,2.68,4.29-18.84,26.07-1.34-5.1,17.5Z"/></g></g></svg>