<?xml version="1.0" encoding="UTF-8"?><svg id="_레이어_1" xmlns="http://www.w3.org/2000/svg" xmlns:xlink="http://www.w3.org/1999/xlink" viewBox="0 0 572 280"><defs><style>.cls-1{fill:#787878;}.cls-1,.cls-2,.cls-3,.cls-4,.cls-5,.cls-6,.cls-7,.cls-8{stroke:#333;stroke-linecap:round;stroke-linejoin:round;}.cls-2,.cls-9{fill:#25387f;}.cls-3,.cls-10{fill:#333;}.cls-4{fill:#919191;}.cls-5{fill:#aaa;}.cls-6{fill:#e5e5e5;}.cls-7,.cls-11{fill:#fff;}.cls-8,.cls-12{fill:none;}.cls-13{clip-path:url(#clippath);}.cls-12,.cls-14,.cls-15,.cls-9,.cls-16,.cls-10,.cls-11{stroke-width:0px;}.cls-14{fill:rgba(255,255,255,.3);isolation:isolate;opacity:.7;}.cls-17{clip-path:url(#clippath-1);}.cls-15{fill:url(#_무제_그라디언트);}.cls-18{opacity:.6;}.cls-16{fill:#ababab;}</style><clipPath id="clippath"><rect class="cls-12" width="572" height="280"/></clipPath><linearGradient id="_무제_그라디언트" x1="476.48" y1="-304.66" x2="283.09" y2="-691.03" gradientTransform="translate(0 -280) scale(1 -1)" gradientUnits="userSpaceOnUse"><stop offset="0" stop-color="#a6c1ee"/><stop offset="1" stop-color="#fbc2eb" stop-opacity="0"/></linearGradient><clipPath id="clippath-1"><rect class="cls-12" x="208" y="12" width="278" height="269"/></clipPath></defs><g class="cls-13"><rect class="cls-12" width="572" height="280"/><g class="cls-18"><path class="cls-15" d="m607.42,255.57c.35-37.38-8.21-75.15-15.37-112.22-10.54-54.47-80.01-122.35-161.96-125.53-81.96-3.18-100.2,49.18-140.58,78.16-40.36,28.99-119.33,37.7-148.15,73.42-44.38,55-55.89,103.44,6.88,167.09,47.63,48.3,128.29,42.47,189.03,61.51,40.29,12.63,78.77,37.65,121.71,41.36,52.78,4.57,94.44-41.44,118.59-80.97,10.93-17.89,19.28-37.38,24.38-57.77,3.72-14.91,5.33-29.95,5.47-45.05Z"/><path class="cls-14" d="m607.42,255.57c.35-37.38-8.21-75.15-15.37-112.22-10.54-54.47-80.01-122.35-161.96-125.53-81.96-3.18-100.2,49.18-140.58,78.16-40.36,28.99-119.33,37.7-148.15,73.42-44.38,55-55.89,103.44,6.88,167.09,47.63,48.3,128.29,42.47,189.03,61.51,40.29,12.63,78.77,37.65,121.71,41.36,52.78,4.57,94.44-41.44,118.59-80.97,10.93-17.89,19.28-37.38,24.38-57.77,3.72-14.91,5.33-29.95,5.47-45.05Z"/></g><g class="cls-17"><path class="cls-8" d="m292.8,12.31v267.58"/><path class="cls-8" d="m323.54,12.31v267.58"/><path class="cls-8" d="m342.61,12.31v267.58"/><path class="cls-8" d="m477.89,57.21h-108.23v223.29h108.23V57.21Z"/><path class="cls-3" d="m482.84,57.21h-5.13v223.29h5.13V57.21Z"/><path class="cls-8" d="m477.8,77.95h-108.02v2.98h108.02v-2.98Z"/><path class="cls-8" d="m369.99,84.4h107.28"/><path class="cls-8" d="m385.65,58.83h-13.53v19.07h13.53v-19.07Z"/><path class="cls-8" d="m387.08,58.83h-1.43v19.07h1.43v-19.07Z"/><path class="cls-8" d="m402.25,58.83h-13.53v19.07h13.53v-19.07Z"/><path class="cls-8" d="m403.69,58.83h-1.43v19.07h1.43v-19.07Z"/><path class="cls-8" d="m417.7,62.22h-11.12v15.67h11.12v-15.67Z"/><path class="cls-8" d="m418.88,62.22h-1.18v15.67h1.18v-15.67Z"/><path class="cls-8" d="m435.46,58.83h-13.53v19.07h13.53v-19.07Z"/><path class="cls-8" d="m436.89,58.83h-1.43v19.07h1.43v-19.07Z"/><path class="cls-8" d="m452.32,62.22h-11.12v15.67h11.12v-15.67Z"/><path class="cls-8" d="m453.5,62.22h-1.18v15.67h1.18v-15.67Z"/><path class="cls-8" d="m468.92,62.22h-11.12v15.67h11.12v-15.67Z"/><path class="cls-8" d="m470.1,62.22h-1.18v15.67h1.18v-15.67Z"/><path class="cls-8" d="m477.8,109.94h-108.02v2.98h108.02v-2.98Z"/><path class="cls-8" d="m369.99,116.39h107.28"/><path class="cls-8" d="m385.53,89.26h-14.64v20.63h14.64v-20.63Z"/><path class="cls-8" d="m387.08,89.26h-1.55v20.63h1.55v-20.63Z"/><path class="cls-8" d="m402.25,90.82h-13.53v19.07h13.53v-19.07Z"/><path class="cls-8" d="m403.69,90.82h-1.43v19.07h1.43v-19.07Z"/><path class="cls-8" d="m418.86,90.82h-13.53v19.07h13.53v-19.07Z"/><path class="cls-8" d="m420.29,90.82h-1.43v19.07h1.43v-19.07Z"/><path class="cls-8" d="m435.26,91.09h-13.33v18.79h13.33v-18.79Z"/><path class="cls-8" d="m436.68,91.09h-1.41v18.79h1.41v-18.79Z"/><path class="cls-8" d="m452.22,92.85h-12.08v17.03h12.08v-17.03Z"/><path class="cls-8" d="m453.49,92.85h-1.28v17.03h1.28v-17.03Z"/><path class="cls-8" d="m471.4,86.97h-16.26v22.92h16.26v-22.92Z"/><path class="cls-8" d="m473.12,86.97h-1.72v22.92h1.72v-22.92Z"/><path class="cls-8" d="m477.8,141.93h-108.02v2.98h108.02v-2.98Z"/><path class="cls-8" d="m369.99,148.37h107.28"/><path class="cls-8" d="m385.65,122.8h-13.53v19.07h13.53v-19.07Z"/><path class="cls-8" d="m387.08,122.8h-1.43v19.07h1.43v-19.07Z"/><path class="cls-8" d="m402.25,122.8h-13.53v19.07h13.53v-19.07Z"/><path class="cls-8" d="m403.69,122.8h-1.43v19.07h1.43v-19.07Z"/><path class="cls-8" d="m418.86,122.8h-13.53v19.07h13.53v-19.07Z"/><path class="cls-8" d="m420.29,122.8h-1.43v19.07h1.43v-19.07Z"/><path class="cls-8" d="m435.61,124.78h-12.13v17.1h12.13v-17.1Z"/><path class="cls-8" d="m436.89,124.78h-1.29v17.1h1.29v-17.1Z"/><path class="cls-8" d="m452.06,122.8h-13.53v19.07h13.53v-19.07Z"/><path class="cls-8" d="m453.49,122.8h-1.43v19.07h1.43v-19.07Z"/><path class="cls-8" d="m468.67,122.8h-13.53v19.07h13.53v-19.07Z"/><path class="cls-8" d="m470.1,122.8h-1.43v19.07h1.43v-19.07Z"/><path class="cls-8" d="m477.8,173.91h-108.02v2.98h108.02v-2.98Z"/><path class="cls-8" d="m369.99,180.36h107.28"/><path class="cls-8" d="m385.65,154.79h-13.53v19.07h13.53v-19.07Z"/><path class="cls-8" d="m387.08,154.79h-1.43v19.07h1.43v-19.07Z"/><path class="cls-8" d="m402.25,154.79h-13.53v19.07h13.53v-19.07Z"/><path class="cls-8" d="m403.69,154.79h-1.43v19.07h1.43v-19.07Z"/><path class="cls-8" d="m418.86,154.79h-13.53v19.07h13.53v-19.07Z"/><path class="cls-8" d="m420.29,154.79h-1.43v19.07h1.43v-19.07Z"/><path class="cls-8" d="m435.46,154.79h-13.53v19.07h13.53v-19.07Z"/><path class="cls-8" d="m436.89,154.79h-1.43v19.07h1.43v-19.07Z"/><path class="cls-8" d="m452.06,154.79h-13.53v19.07h13.53v-19.07Z"/><path class="cls-8" d="m453.49,154.79h-1.43v19.07h1.43v-19.07Z"/><path class="cls-8" d="m468.67,154.79h-13.53v19.07h13.53v-19.07Z"/><path class="cls-8" d="m470.1,154.79h-1.43v19.07h1.43v-19.07Z"/><path class="cls-8" d="m477.8,205.9h-108.02v2.98h108.02v-2.98Z"/><path class="cls-8" d="m369.99,212.35h107.28"/><path class="cls-8" d="m385.65,186.77h-13.53v19.07h13.53v-19.07Z"/><path class="cls-8" d="m387.08,186.77h-1.43v19.07h1.43v-19.07Z"/><path class="cls-8" d="m402.25,186.77h-13.53v19.07h13.53v-19.07Z"/><path class="cls-8" d="m403.69,186.77h-1.43v19.07h1.43v-19.07Z"/><path class="cls-8" d="m418.86,186.77h-13.53v19.07h13.53v-19.07Z"/><path class="cls-8" d="m420.29,186.77h-1.43v19.07h1.43v-19.07Z"/><path class="cls-8" d="m435.46,186.77h-13.53v19.07h13.53v-19.07Z"/><path class="cls-8" d="m436.89,186.77h-1.43v19.07h1.43v-19.07Z"/><path class="cls-8" d="m452.06,186.77h-13.53v19.07h13.53v-19.07Z"/><path class="cls-8" d="m453.49,186.77h-1.43v19.07h1.43v-19.07Z"/><path class="cls-8" d="m468.67,186.77h-13.53v19.07h13.53v-19.07Z"/><path class="cls-8" d="m470.1,186.77h-1.43v19.07h1.43v-19.07Z"/><path class="cls-8" d="m477.8,237.89h-108.02v2.98h108.02v-2.98Z"/><path class="cls-8" d="m369.99,244.33h107.28"/><path class="cls-8" d="m385.65,218.76h-13.53v19.07h13.53v-19.07Z"/><path class="cls-8" d="m387.08,218.76h-1.43v19.07h1.43v-19.07Z"/><path class="cls-8" d="m402.25,218.76h-13.53v19.07h13.53v-19.07Z"/><path class="cls-8" d="m403.69,218.76h-1.43v19.07h1.43v-19.07Z"/><path class="cls-8" d="m418.86,218.76h-13.53v19.07h13.53v-19.07Z"/><path class="cls-8" d="m420.29,218.76h-1.43v19.07h1.43v-19.07Z"/><path class="cls-8" d="m435.46,218.76h-13.53v19.07h13.53v-19.07Z"/><path class="cls-8" d="m436.89,218.76h-1.43v19.07h1.43v-19.07Z"/><path class="cls-8" d="m452.06,218.76h-13.53v19.07h13.53v-19.07Z"/><path class="cls-8" d="m453.49,218.76h-1.43v19.07h1.43v-19.07Z"/><path class="cls-8" d="m468.67,218.76h-13.53v19.07h13.53v-19.07Z"/><path class="cls-8" d="m470.1,218.76h-1.43v19.07h1.43v-19.07Z"/><path class="cls-8" d="m477.8,269.87h-108.02v2.98h108.02v-2.98Z"/><path class="cls-8" d="m369.99,276.32h107.28"/><path class="cls-8" d="m385.65,250.75h-13.53v19.07h13.53v-19.07Z"/><path class="cls-8" d="m387.08,250.75h-1.43v19.07h1.43v-19.07Z"/><path class="cls-8" d="m402.25,250.75h-13.53v19.07h13.53v-19.07Z"/><path class="cls-8" d="m403.69,250.75h-1.43v19.07h1.43v-19.07Z"/><path class="cls-8" d="m418.86,250.75h-13.53v19.07h13.53v-19.07Z"/><path class="cls-8" d="m420.29,250.75h-1.43v19.07h1.43v-19.07Z"/><path class="cls-8" d="m435.46,250.75h-13.53v19.07h13.53v-19.07Z"/><path class="cls-8" d="m436.89,250.75h-1.43v19.07h1.43v-19.07Z"/><path class="cls-8" d="m452.06,250.75h-13.53v19.07h13.53v-19.07Z"/><path class="cls-8" d="m453.49,250.75h-1.43v19.07h1.43v-19.07Z"/><path class="cls-8" d="m468.67,250.75h-13.53v19.07h13.53v-19.07Z"/><path class="cls-8" d="m470.1,250.75h-1.43v19.07h1.43v-19.07Z"/><path class="cls-3" d="m312.55,122.42h-8.76v38.96h8.76v-38.96Z"/><path class="cls-3" d="m334.21,106.83h-52.07v38.96h52.07v-38.96Z"/><path class="cls-6" d="m330.23,109.8h-44.13v33.02h44.13v-33.02Z"/><path class="cls-3" d="m364.3,272.58l-.7,7.92h-29.02s-.7-3.17.88-4.4c1.58-1.23,7.39-2.29,8.62-2.64,1.23-.35,3.7-2.29,3.7-2.29l16.54,1.41h0Z"/><path class="cls-4" d="m363.75,278.69l-.15,1.81h-29.02s-.18-.82-.15-1.78c8.32-.04,24.04-.09,29.33-.03h0Z"/><path class="cls-3" d="m364.12,189.89s-.88,20.76-.88,26.22,4.4,15.66,4.57,21.64c.18,5.99-2.99,31.32-2.99,31.32l-13.19-.18s-1.06-10.55-1.41-20.59c-.35-10.03-4.4-34.31-5.28-42.41-.88-8.1-2.82-16.71-2.82-16.71l21.99.7h0Z"/><path class="cls-4" d="m366.41,267.31l-1.06,5.81-13.72-.71v-6.51l14.78,1.41Z"/><path class="cls-4" d="m367.82,175.99s-1.58,7.92-2.29,11.44c-.7,3.52-4.22,12.84-4.4,16.89-.18,4.05-1.58,19.36-1.58,27.8s-.35,10.56-2.11,17.77c-1.76,7.22-3.52,18.83-3.52,18.83,0,0-3.17.18-7.92-.53-4.75-.7-8.09-2.82-8.09-2.82l-.18-3.34s-.88-4.75-1.23-6.16c-.35-1.41,2.11-7.74,2.11-8.44s-1.94-2.99-2.64-6.51c-.7-3.52-3.17-24.28-3.17-27.28s-1.06-23.76-1.06-23.76c0,0-2.11-13.37-2.11-14.95s28.67-1.76,33.42-2.11c4.75-.35,6.33.53,4.75,3.17h0Z"/><path class="cls-8" d="m343.19,179.85s3.87,6.34,8.44,8.27"/><path class="cls-8" d="m349.8,203.27l-.28,1.4"/><path class="cls-8" d="m354.27,180.56l-3.99,20.21"/><path class="cls-8" d="m357.97,205.54s-4.93.7-8.09.7h-10.73l-.18,3.87s4.05.88,8.97.7c4.93-.18,10.02-1.23,10.02-1.23v-4.05h0Z"/><path class="cls-8" d="m357.97,209.59s-.35,6.87-.18,11.96c.18,5.11-1.94,5.99-4.22,5.99s-12.49,1.23-13.9.18c-1.41-1.06-1.94-3.87-1.41-6.16.53-2.29.7-11.44.7-11.44"/><path class="cls-3" d="m352.86,274.34l-.53,6.16h-29.02s-.7-3.17.88-4.4c1.58-1.23,7.39-2.29,8.62-2.64,1.23-.35,3.7-2.29,3.7-2.29l16.36,3.17Z"/><path class="cls-7" d="m352.49,278.69l-.15,1.81h-29.02s-.18-.82-.15-1.78c8.32-.04,24.04-.09,29.33-.03h0Z"/><path class="cls-7" d="m355.86,266.43s-.35,8.1-1.76,8.44c-1.41.35-19.35-2.64-19.52-4.05-.18-1.41,1.58-4.05,1.76-4.93.18-.88.18-2.29.88-3.34.7-1.06,14.07,2.11,18.64,3.87Z"/><path class="cls-6" d="m283.27,157.11s-2.84.73-3.62,1.39c-.79.66-1.87,2.42-1.51,3.14.36.73.97.42,1.21.06.24-.36,1.33-1.93,2.53-2.72,1.2-.79,3.32-1.69,3.32-1.69,0,0-1.03-.54-1.93-.18h0Z"/><path class="cls-7" d="m334.77,114.33l-12.24,28.15s-4.08,1.63-12.24,4.69c-8.16,3.06-16.72,6.94-18.76,7.55-2.04.61-6.94,1.63-9.38,3.06-2.45,1.43-4.55,4.38-2.92,4.58.57.07.6.66,2.05.49,0,0,.79-.12,1.57-.79.79-.66,2.33-1.43,3.58-1.83,1.25-.4,3.6-.58,5.42-.28.78.13,1.68.08,2.47-.02,1.93-1.37,2.72-2.15,2.72-2.15,0,0,14.27-1.22,19.98-2.24,5.71-1.02,14.27-3.88,14.27-3.88l9.18-37.13-5.71-.2h.01Z"/><path class="cls-8" d="m286.23,157.78s-5.92,2.04-6.32,4.49"/><path class="cls-11" d="m297.04,157.78s-1.43,1.43-2.85,2.25c-1.43.82-3.27.41-4.69,1.22-1.43.82-1.83,1.43-3.47,1.22-1.63-.2-1.63-1.63.41-2.24,2.04-.61,2.65-1.02,2.65-1.02l1.22-1.43"/><path class="cls-8" d="m297.04,157.78s-1.43,1.43-2.85,2.25c-1.43.82-3.27.41-4.69,1.22-1.43.82-1.83,1.43-3.47,1.22-1.63-.2-1.63-1.63.41-2.24,2.04-.61,2.65-1.02,2.65-1.02l1.22-1.43"/><path class="cls-5" d="m305.99,124.64l-40.93.81-5.67,36.03,50.25.41-3.65-37.24Z"/><path class="cls-8" d="m301.13,161.48l1.62-36.84-21.02,24.84-16.68-24.03"/><path class="cls-3" d="m357.62,92.76s3.34,1.23,8.26,5.81c4.93,4.58,8.79,16.54,9.32,22.88.53,6.34-3.34,25.69-3.34,30.44s-1.41,25.16-2.11,25.69c-.7.53-22.87,2.29-32.71,1.76-9.85-.53-10.38-4.4-11.43-8.1-1.06-3.7-1.76-13.37-.18-24.46,1.58-11.08,3.52-25.51,7.91-32.9s7.38-11.26,11.08-14.6c3.7-3.34,10.55-6.86,13.19-6.51h0Z"/><path class="cls-9" d="m351.04,132.23l-8.38-.53v-14.09l8.38.53v14.09Z"/><path class="cls-7" d="m347.83,115.64h-1.6v4.28h1.6v-4.28Z"/><path class="cls-11" d="m349.26,129.26l-4.82-.47v-7.31l4.82.47v7.31Z"/><path class="cls-10" d="m351.11,114.63l12.75,28.36-23.24,10.96s-13.25.07-14.29-.1c-1.04-.18-10.13,5.52-10.59,6.03-.46.51.05.97.05.97,0,0-1.15,1.08-.34,1.7l.8.62s-.09.52,1.08,1.15c1.18.63,1.7.35,1.7.35,0,0,1.27-.26,2.25-.68s3.95-2.79,4.47-2.71c.52.09,6.3.92,8.61.84,2.31-.09,4.08-2.34,4.08-2.34,0,0,19.95-.26,26.78-2.07,6.83-1.82,15.3-6.72,16.84-8.54,1.54-1.82-3.9-25.5-5.84-30.69-1.94-5.19-4.98-10.79-5.85-11.63"/><path class="cls-8" d="m351.11,114.63l12.75,28.36-23.24,10.96s-13.25.07-14.29-.1c-1.04-.18-10.13,5.52-10.59,6.03-.46.51.05.97.05.97,0,0-1.15,1.08-.34,1.7l.8.62s-.09.52,1.08,1.15c1.18.63,1.7.35,1.7.35,0,0,1.27-.26,2.25-.68s3.95-2.79,4.47-2.71c.52.09,6.3.92,8.61.84,2.31-.09,4.08-2.34,4.08-2.34,0,0,19.95-.26,26.78-2.07,6.83-1.82,15.3-6.72,16.84-8.54,1.54-1.82-3.9-25.5-5.84-30.69-1.94-5.19-4.98-10.79-5.85-11.63"/><path class="cls-7" d="m319.03,164.66s-.53.28-1.7-.35c-1.17-.63-1.08-1.15-1.08-1.15l-.8-.62c-.8-.62.35-1.7.35-1.7,0,0-.51-.46-.05-.97.46-.51,9.55-6.21,10.59-6.03,1.04.18,14.29.1,14.29.1l23.24-10.96-5.37-11.93,19.07-8.22c2.34,8.64,5.77,24.84,4.51,26.33-1.54,1.82-10.02,6.72-16.84,8.54-6.83,1.82-26.78,2.07-26.78,2.07,0,0-1.78,2.26-4.08,2.34-2.31.09-8.09-.75-8.61-.84-.52-.09-3.49,2.28-4.47,2.71-.98.42-2.25.68-2.25.68h0Z"/><path class="cls-8" d="m315.79,160.85l7.24-3.96"/><path class="cls-8" d="m316.47,162.94l6.8-4.54"/><path class="cls-8" d="m318.19,164.63s-.28-.64.36-.92c.64-.28,5.61-3.86,5.61-3.86"/><path class="cls-7" d="m339.03,97.3l2.96,2.26s-5.39,10.44-2.96,10.97c2.43.52,10.79-10.62,13.92-14.28,3.13-3.65,4.65-3.49,4.65-3.49,0,0-3.79-4.34-5.18-7.65-1.39-3.31-2.09-5.39-2.09-5.39l-11.31,17.59h0Z"/><path class="cls-7" d="m329.04,70.22s-.29,13.74.09,16.17c.39,2.43,3.74,9.15,5.01,10.6,1.27,1.45,6.49,1.66,8.38.53,1.89-1.13,6.71-7.3,7.57-9.71.86-2.42.94-4.5.94-4.5,0,0,3.02.76,4.73-2.83,1.71-3.59.01-6.43-2.24-6.28l-1.93.93s2.64-6.85.97-9.49c-1.67-2.64-16.38-1.32-19.42-.84-3.03.49-4.11,5.43-4.11,5.43h0Z"/><path class="cls-8" d="m339.98,78.12s2.06-1.54,4.11-.34"/><path class="cls-8" d="m330.03,77.09s2.57-.69,3.09,1.2"/><path class="cls-10" d="m332.3,77.91c0,.5-.4.9-.9.9s-.9-.4-.9-.9.4-.9.9-.9.9.4.9.9Z"/><path class="cls-10" d="m342.53,78.43c0,.5-.4.9-.9.9s-.9-.4-.9-.9.4-.9.9-.9.9.4.9.9Z"/><path class="cls-3" d="m341.51,70.97l3.46.92c.5.14.79.67.61,1.16l-.09.23c-.17.46-.66.7-1.12.54l-3.37-1.15c-.47-.16-.72-.68-.55-1.15.16-.43.62-.67,1.06-.55Z"/><path class="cls-3" d="m333.88,71.35l.02.06c.17.38,0,.82-.39.97l-2.4.96c-.43.17-.91-.1-.98-.56-.05-.33.12-.65.43-.78l2.37-1.01c.36-.15.78,0,.94.37h0Z"/><path class="cls-8" d="m342.46,84.38s-1.48,3.2-5.71,2.94"/><path class="cls-11" d="m334.5,74.87s-.56,8.33-.59,9.01c-.02.68,1.76,2.56,3.15,1.12,1.39-1.44,1.46-2.67,1.46-2.67"/><path class="cls-8" d="m334.5,74.87s-.56,8.33-.59,9.01c-.02.68,1.76,2.56,3.15,1.12,1.39-1.44,1.46-2.67,1.46-2.67"/><path class="cls-8" d="m334.4,74.63c-.85-1.08-2.18-1.78-3.66-1.78-2.58,0-4.67,2.09-4.67,4.68s2.09,4.67,4.67,4.67c1.49,0,2.5-.49,3.36-1.57l.31-5.99h0Z"/><path class="cls-8" d="m342.02,82.2c2.58,0,4.67-2.09,4.67-4.67s-2.09-4.68-4.67-4.68-4.67,2.09-4.67,4.68,2.09,4.67,4.67,4.67Z"/><path class="cls-8" d="m346.71,76.59l7.27-2.26"/><path class="cls-8" d="m326.11,76.99l2.77-.51"/><path class="cls-8" d="m334.4,75.67s1.44-.93,2.99.21"/><path class="cls-3" d="m352.11,57.61s6.09,4.42,4.78,9.19c-1.31,4.77-5.04,13.87-5.04,13.87l-1.01.16-.34-3.47s-3.43-.7-3.27-3.62c.15-2.93,1.28-4.98,1.28-4.98,0,0-3.02,3.18-7.16,3.22-4.14.04-6.73-4.52-7.89-2.68-1.16,1.85-3.22,3.21-7.82,1.67-4.6-1.54-12-11.56-7.84-15.34,4.16-3.78,12.42,1.13,14.94,1.35,2.52.22,3.7-4.12,9.41-3.37,5.72.74,9.97,4,9.97,4h0Z"/><path class="cls-7" d="m370.52,159.79h-131.67v120.9h131.67v-120.9Z"/><path class="cls-3" d="m370.52,159.79h-131.67v8.14h131.67v-8.14Z"/><path class="cls-8" d="m370.52,159.79h-41.66v120.9h41.66v-120.9Z"/><path class="cls-7" d="m376.18,159.79h-142.98v4.63h142.98v-4.63Z"/><path class="cls-7" d="m376.17,159.79h-52.46v4.63h52.46v-4.63Z"/><path class="cls-5" d="m400.26,107.05s-.12-3.14-1.45-5.31c-1.33-2.17-6.15-3.74-8.68-2.65-2.53,1.08-3.74,1.81-3.74,1.81,0,0,3.74,1.08,7.12,3.38,3.38,2.29,6.75,2.77,6.75,2.77Z"/><path class="cls-5" d="m405.33,108.62s-2.9-2.77-3.38-6.63c-.48-3.86,3.61-9.89,3.61-9.89,0,0,2.05,3.74,3.25,8.08,1.21,4.34-3.5,8.44-3.5,8.44h0Z"/><path class="cls-5" d="m410.88,107.41s-.73-3.62.6-6.15c1.33-2.53,4.82-2.29,8.32-1.21,3.5,1.08,4.58,1.08,4.58,1.08,0,0-4.1,2.77-7.6,4.22-3.5,1.45-5.91,2.05-5.91,2.05h0Z"/><path class="cls-10" d="m405.36,120.4c-.17,0-.31-.14-.31-.31v-17.25c0-.17.14-.31.31-.31s.31.14.31.31v17.25c0,.17-.14.31-.31.31Z"/><path class="cls-10" d="m406.8,120.4h-.04c-.17-.02-.29-.18-.26-.35.06-.43,1.52-10.65,6.46-16.33.11-.13.31-.14.44-.03.13.11.14.31.03.44-4.82,5.53-6.3,15.89-6.32,16-.02.15-.15.27-.31.27h0Z"/><path class="cls-10" d="m403.91,120.16c-.17,0-.31-.14-.31-.31,0-.1.05-9.92-5.79-14.58-.14-.11-.15-.3-.05-.44.11-.14.3-.15.44-.05,6.08,4.87,6.03,14.67,6.03,15.08,0,.17-.14.31-.31.31h0Z"/><path class="cls-10" d="m408.73,120.05s-.05,0-.08-.01c-.17-.04-.26-.21-.22-.38.04-.13.88-3.22,2.82-5.89.1-.14.3-.17.44-.07.14.1.17.3.07.44-1.88,2.58-2.72,5.65-2.72,5.68-.04.14-.17.23-.3.23Z"/><path class="cls-5" d="m410.64,115.25s-.12-3.38,1.33-3.86c1.45-.48,2.77.73,3.86,1.44,1.08.73,2.29,1.45,2.29,3.62s-.84,6.15-.84,6.15c0,0-1.2-3.74-3.25-5.43-2.05-1.68-3.38-1.93-3.38-1.93h0Z"/><path class="cls-10" d="m401.74,120.16c-.13,0-.25-.09-.3-.22,0-.03-.96-2.95-3.15-4.67-.13-.1-.16-.3-.05-.44.1-.14.3-.16.44-.05,2.34,1.85,3.32,4.85,3.36,4.98.05.17-.04.34-.2.39-.03.01-.06.01-.09.01h0Z"/><path class="cls-5" d="m400.26,116.33s.48-2.17-.72-3.74c-1.21-1.57-4.1-1.21-5.55.48-1.45,1.68-3.5,6.75-3.5,6.75,0,0,2.9-2.29,6.27-2.29s3.5-1.21,3.5-1.21h0Z"/><path class="cls-7" d="m409.87,138.65h-9.62l-4.81-15.92h19.24l-4.81,15.92Z"/><path class="cls-7" d="m414.74,120.09h-19.35v2.64h19.35v-2.64Z"/><path class="cls-3" d="m451.85,138.52h-23.45v47.4h23.45v-47.4Z"/><path class="cls-7" d="m431.13,138.52h-69.94v47.4h69.94v-47.4Z"/><path class="cls-6" d="m427.6,141.77h-62.8v40.57h62.8v-40.57Z"/><path class="cls-6" d="m427.6,141.77h-31.88v40.57h31.88v-40.57Z"/><path class="cls-7" d="m427.6,160.71h-62.8v2.69h62.8v-2.69Z"/><path class="cls-3" d="m468.06,185.88h-23.45v47.4h23.45v-47.4Z"/><path class="cls-3" d="m338.45,206.54l7.61,26.52h-14.7l7.08-26.52Z"/><path class="cls-7" d="m339.04,203.74l-.97-.87-25.19,30.2h20.74l5.42-29.32Z"/><path class="cls-5" d="m338.07,202.87h-20.74l-5.49,30.2h20.74l5.49-30.2Z"/><path class="cls-8" d="m319.88,208.77h13.27"/><path class="cls-8" d="m319.02,212.19h13.26"/><path class="cls-8" d="m318.17,215.61h13.26"/><path class="cls-7" d="m447.33,185.88h-105.37v47.4h105.37v-47.4Z"/><path class="cls-6" d="m443.81,189.13h-98.23v40.57h98.23v-40.57Z"/><path class="cls-7" d="m443.81,189.13h-74.67v40.57h74.67v-40.57Z"/><path class="cls-6" d="m443.8,189.13h-71.14v40.57h71.14v-40.57Z"/><path class="cls-6" d="m443.81,189.13h-46.04v40.57h46.04v-40.57Z"/><path class="cls-7" d="m443.8,189.13h-28.02v40.57h28.02v-40.57Z"/><path class="cls-6" d="m443.81,189.13h-24.49v40.57h24.49v-40.57Z"/><path class="cls-3" d="m485.69,233.1h-23.45v47.4h23.45v-47.4Z"/><path class="cls-7" d="m464.97,233.1h-157.61v47.4h157.61v-47.4Z"/><path class="cls-6" d="m461.45,236.35h-150.47v40.57h150.47v-40.57Z"/><path class="cls-6" d="m461.45,236.35h-108.24v40.57h108.24v-40.57Z"/><path class="cls-7" d="m461.45,236.35h-95.67v40.57h95.67v-40.57Z"/><path class="cls-6" d="m461.45,236.35h-92.15v40.57h92.15v-40.57Z"/><path class="cls-6" d="m461.45,236.35h-68.79v40.57h68.79v-40.57Z"/><path class="cls-7" d="m461.44,236.35h-47.61v40.57h47.61v-40.57Z"/><path class="cls-6" d="m461.45,236.35h-43.65v40.57h43.65v-40.57Z"/><path class="cls-6" d="m461.44,236.35h-20.53v40.57h20.53v-40.57Z"/><path class="cls-1" d="m459.56,159.14l7.62,26.52h-14.7l7.08-26.52Z"/><path class="cls-7" d="m460.14,156.34l-.97-.87-25.19,30.2h20.74l5.42-29.32Z"/><path class="cls-5" d="m459.17,155.46h-20.74l-5.48,30.2h20.74l5.49-30.2Z"/><path class="cls-8" d="m441.18,160.18h13.26"/><path class="cls-8" d="m440.33,163.61h13.26"/><path class="cls-8" d="m439.48,167.04h13.26"/><path class="cls-3" d="m403.13,202.8l7.61,26.52h-14.7l7.08-26.52Z"/><path class="cls-7" d="m403.72,200l-.97-.88-25.19,30.2h20.74l5.42-29.32Z"/><path class="cls-2" d="m402.75,199.12h-20.74l-5.49,30.2h20.74l5.49-30.2Z"/><path class="cls-11" d="m384.52,216.27l.06-.06.28.35,3.24-2.69-.66-.82-3.15,2.62-.34-.91-.61.77-1.94-2.44-.99.83,2.12,2.65-1.23,1.58-2.1,1.74.66.82,1.07-.89-.92,4.5h3.99l.94-4.63.84,1.05.99-.82-1.65-2.07-.6-1.59h0Zm1.05,3.04l.27-.22.32.41-.27.22-.32-.41Zm.17.53l-.27.22-.32-.41.27-.22.32.41Zm-.27-.66l-.32-.41.27-.22.32.41-.27.22Zm-4.12-.85h.44l-.27.22h-.14l-.12-.15.09-.07h0Zm.68.01l.17.21h-.42l.25-.21Zm-.85.26l-.05.28-.32.26-.18-.22.49-.41.07.09Zm-.1.53l-.06.28-.11-.14.17-.14h0Zm-.42.14l-.49.41-.18-.22.49-.41.18.22Zm.1.12l.18.22-.49.41-.18-.22.49-.41Zm1.61-.97l-.09-.11h.22l-.13.11Zm2.02-.11l-.17.14-.12-.14h.29Zm.2.05l.14.18h-.36l.22-.18Zm.6.18h-.2l-.18-.22h.44l.08.1-.15.12h0Zm-.44-2.46l.49-.41.18.22-.49.41-.18-.22Zm1.92-1.6l.49-.41.18.22-.49.41-.18-.22Zm.02.35l-.49.41-.18-.22.48-.41.18.22Zm-.13-.47l-.18-.22.49-.41.18.22-.49.41Zm-.15.12l-.49.41-.18-.22.49-.41.18.22Zm-.64.53l-.49.41-.18-.22.49-.41.18.22Zm.1.12l.18.22-.49.41-.18-.22.49-.41Zm1.61-.97l-.18-.22.38-.31.18.22-.38.31Zm.1-.66l-.38.31-.18-.22.38-.31.18.22Zm-2.62,1.81l.18.22-.49.41-.18-.22.49-.41Zm-.47.76l-.02.02-.04-.09.06.07Zm-1.48-.11l-.29-.37.27-.22.25.31-.22.28Zm-1.24-1.56l-.32-.41.27-.22.32.41-.27.22Zm.37-.1l.32.41-.27.22-.32-.41.27-.22Zm-.52.22l-.27.22-.32-.41.27-.22.32.41Zm.1.12l.32.41-.27.22-.32-.41.27-.22Zm.42.53l.32.41-.27.22-.32-.41.27-.22Zm.15-.12l.27-.22.32.41-.27.22-.32-.41Zm-.68-1.41l-.27.22-.25-.31.27-.22.25.31Zm-.67.03l.25.31-.27.22-.25-.31.27-.22Zm1.68,2.66l-.33-.41.27-.22.32.4-.03.04-.23.19h0Zm-2.78,3.22l.18.22-.38.31-.18-.22.38-.31Zm-.11.66l.38-.31.18.22-.38.31-.18-.22Zm2.74-1.7l.27-.22h1.1l.18.22h-1.55Zm2.61.46l.24.3-.27.22-.06-.07.09-.44h0Zm.49,1.18l.27-.22.25.31-.27.22-.25-.31Zm.67-.03l-.25-.31.27-.22.25.31-.27.22Z"/><path class="cls-11" d="m394.77,213.4l.09-.07.38.47,4.4-3.65-.89-1.11-4.27,3.55-.46-1.24-.82,1.05-2.63-3.3-1.34,1.11,2.87,3.6-1.67,2.14-2.84,2.36.89,1.11,1.45-1.21-1.24,6.11h5.4l1.27-6.27,1.13,1.42,1.34-1.11-2.24-2.81-.81-2.16h0Zm1.43,4.12l.36-.3.44.55-.36.3-.44-.55Zm.23.72l-.36.3-.44-.55.36-.3.44.55Zm-.37-.89l-.44-.55.36-.3.44.55-.36.3Zm-5.59-1.16h.6l-.36.3h-.19l-.17-.21.12-.1h0Zm.92.02l.23.28h-.57l.34-.28Zm-1.15.36l-.07.38-.44.36-.24-.3.66-.55.09.12h0Zm-.15.71l-.08.38-.15-.19.23-.19Zm-.57.19l-.66.55-.24-.3.66-.55.24.3Zm.14.17l.24.3-.66.55-.24-.3.66-.55Zm2.18-1.3l-.12-.15h.3l-.18.15h0Zm2.74-.15l-.23.2-.15-.2h.39Zm.26.06l.19.24h-.48l.29-.24Zm.81.24h-.28l-.24-.3h.6l.11.14-.2.17h0Zm-.59-3.33l.67-.56.24.3-.67.56-.24-.3Zm2.61-2.16l.66-.55.24.3-.66.55-.24-.3Zm.04.47l-.66.55-.24-.3.66-.55.24.3Zm-.17-.65l-.24-.3.66-.55.24.3-.66.55Zm-.2.17l-.66.55-.24-.3.66-.55.24.3Zm-.87.72l-.66.55-.24-.3.66-.55.24.3Zm.14.17l.24.3-.66.55-.24-.3.66-.55Zm2.18-1.3l-.24-.3.52-.43.24.3-.52.43Zm.14-.9l-.52.43-.24-.3.52-.43.24.3Zm-3.56,2.46l.24.3-.67.56-.24-.3.67-.56Zm-.63,1.03l-.03.02-.05-.13.08.1Zm-2.01-.15l-.4-.5.36-.3.33.42-.3.38h0Zm-1.68-2.11l-.44-.55.36-.3.44.55-.36.3Zm.5-.13l.44.55-.36.3-.44-.55.36-.3Zm-.71.3l-.36.3-.44-.55.36-.3.44.55Zm.13.17l.44.55-.36.3-.44-.55.36-.3Zm.57.72l.44.55-.36.3-.44-.55.36-.3Zm.2-.17l.36-.3.44.55-.36.3-.44-.55Zm-.92-1.91l-.36.3-.35-.43.36-.3.34.43Zm-.91.04l.35.43-.36.3-.35-.43.36-.3Zm2.28,3.62l-.44-.56.36-.3.44.55-.04.06-.31.26Zm-3.77,4.36l.24.3-.52.43-.24-.3.52-.43Zm-.14.9l.52-.43.24.3-.52.43-.24-.3Zm3.71-2.3l.36-.3h1.49l.24.3h-2.1,0Zm3.54.62l.32.41-.36.3-.08-.1.12-.6Zm.67,1.6l.36-.3.34.43-.36.3-.34-.43Zm.91-.04l-.34-.43.36-.3.35.43-.36.3Z"/><path class="cls-11" d="m400.67,206.62c-.03-.46-.66-.82-1.47-.88.02-.13.05-.26.05-.39,0-1.37-1.33-2.48-2.96-2.48-1.46,0-2.67.89-2.92,2.05-.1-.01-.21-.02-.31-.02-.89,0-1.62.54-1.74,1.23-.2-.24-.6-.4-1.08-.4s-.9.17-1.09.42c-.23-.07-.53-.12-.86-.12-.71,0-1.28.2-1.28.45,0,.06.03.1.08.15h13.58Z"/><path class="cls-11" d="m388.52,208.65c-.01-.2-.29-.36-.64-.39.01-.06.02-.11.02-.17,0-.6-.58-1.09-1.3-1.09-.65,0-1.18.39-1.29.9-.04,0-.09-.01-.14-.01-.39,0-.71.23-.76.54-.09-.1-.26-.18-.47-.18s-.4.07-.48.18c-.1-.03-.23-.05-.38-.05-.31,0-.56.09-.56.2,0,.02.01.04.04.07h5.98,0Z"/><path class="cls-3" d="m401.58,250.2l7.61,26.52h-14.7l7.09-26.52Z"/><path class="cls-7" d="m402.16,247.4l-.97-.88-25.19,30.2h20.74l5.42-29.32Z"/><path class="cls-7" d="m401.18,246.52h-20.73l-5.49,30.2h20.74l5.48-30.2Z"/><path class="cls-9" d="m396.04,254.27h-14.04l-3.72,20.45h14.05l3.71-20.45Z"/><path class="cls-9" d="m383.01,249.73l-.58,3.16h14.05l.57-3.16h-14.05Z"/><path class="cls-3" d="m356.38,250.2l7.61,26.52h-14.7l7.09-26.52Z"/><path class="cls-7" d="m356.95,247.4l-.97-.88-25.19,30.2h20.74l5.42-29.32Z"/><path class="cls-7" d="m355.98,246.52h-20.73l-5.49,30.2h20.74l5.48-30.2Z"/><path class="cls-9" d="m348.33,257.36s-.61,2.71-3.32,4.18c-2.71,1.48-6.89-.62-10.21,2.34-3.32,2.95-3.44,9.23,3.57,9.97,7.02.74,8.49-4.55,8.49-4.55,0,0,3.2.62,3.07-.37-.12-.98-2.21-1.72-2.21-1.72,0,0,1.52-2.4,1.6-5.04.08-2.65,0-4.43,0-4.43,0,0,1.72.37,2.34,0,.61-.37,1.85-3.81,1.85-3.81,0,0-2.09,1.48-3.08,1.48s-3.57-2.09-3.57-2.09c0,0-.49,4.06,1.48,4.06h0Z"/><path class="cls-9" d="m336.45,249.52l-.57,3.16h14.05l.58-3.16h-14.05Z"/><path class="cls-9" d="m335.62,254.09l-.57,3.16h8.43l.58-3.16h-8.44Z"/><path class="cls-3" d="m448.34,250.2l7.61,26.52h-14.7l7.08-26.52Z"/><path class="cls-7" d="m448.92,247.4l-.97-.88-25.19,30.2h20.74l5.42-29.32Z"/><path class="cls-2" d="m447.95,246.52h-20.74l-5.49,30.2h20.74l5.49-30.2Z"/><path class="cls-11" d="m432.69,255.35c0,1.32-1.18,2.39-2.64,2.39s-2.64-1.07-2.64-2.39,1.18-2.39,2.64-2.39,2.64,1.07,2.64,2.39Z"/><path class="cls-11" d="m438.35,259.75c0,1.32-1.18,2.39-2.64,2.39s-2.64-1.07-2.64-2.39,1.18-2.39,2.64-2.39,2.64,1.07,2.64,2.39Z"/><path class="cls-11" d="m442.24,256.13c0,1.1-.98,1.99-2.2,1.99s-2.2-.89-2.2-1.99.98-1.99,2.2-1.99,2.2.89,2.2,1.99Z"/><path class="cls-11" d="m430.5,271.63c2.74,0,4.96-2.01,4.96-4.49s-2.22-4.49-4.96-4.49-4.96,2.01-4.96,4.49,2.22,4.49,4.96,4.49Z"/><path class="cls-2" d="m349.62,198.06h-2.85v31.68h2.85v-31.68Z"/><path class="cls-2" d="m364.4,198.06h-15.55v31.68h15.55v-31.68Z"/><path class="cls-7" d="m352.84,198.06h-2.85v31.68h2.85v-31.68Z"/><path class="cls-7" d="m367.63,198.06h-15.55v31.68h15.55v-31.68Z"/><path class="cls-7" d="m356.07,198.06h-2.85v31.68h2.85v-31.68Z"/><path class="cls-7" d="m368.96,198.06h-13.65v31.68h13.65v-31.68Z"/><path class="cls-2" d="m359.29,198.06h-2.85v31.68h2.85v-31.68Z"/><path class="cls-2" d="m369.15,198.06h-10.62v31.68h10.62v-31.68Z"/><path class="cls-7" d="m422.63,198.06h-2.85v31.68h2.85v-31.68Z"/><path class="cls-7" d="m437.42,198.06h-15.55v31.68h15.55v-31.68Z"/><path class="cls-2" d="m425.85,198.06h-2.85v31.68h2.85v-31.68Z"/><path class="cls-2" d="m440.64,198.06h-15.55v31.68h15.55v-31.68Z"/><path class="cls-2" d="m429.08,198.06h-2.85v31.68h2.85v-31.68Z"/><path class="cls-2" d="m441.97,198.06h-13.65v31.68h13.65v-31.68Z"/><path class="cls-7" d="m432.3,198.06h-2.85v31.68h2.85v-31.68Z"/><path class="cls-7" d="m443.87,198.06h-12.33v31.68h12.33v-31.68Z"/><path class="cls-7" d="m379.48,166.41h-10.24v15.83h10.24v-15.83Z"/><path class="cls-7" d="m377.3,166.41h-10.24v15.83h10.24v-15.83Z"/><path class="cls-7" d="m404.86,175.96h-21.4v6.29h21.4v-6.29Z"/><path class="cls-3" d="m404.87,173.56h-22.17v4.42h22.17v-4.42Z"/><path class="cls-7" d="m417.98,175.96h-13.03v6.29h13.03v-6.29Z"/><path class="cls-3" d="m419.08,173.56h-14.13v4.42h14.13v-4.42Z"/><path class="cls-3" d="m405.51,158.3h-36.87v2.42h36.87v-2.42Z"/><path class="cls-7" d="m407.04,158.3h-15.93v2.42h15.93v-2.42Z"/><path class="cls-7" d="m405.51,155.83h-36.87v2.42h36.87v-2.42Z"/><path class="cls-7" d="m407.04,155.83h-15.93v2.42h15.93v-2.42Z"/><path class="cls-2" d="m405.51,153.36h-36.87v2.42h36.87v-2.42Z"/><path class="cls-7" d="m407.04,153.36h-15.93v2.42h15.93v-2.42Z"/><path class="cls-7" d="m405.51,150.9h-36.87v2.42h36.87v-2.42Z"/><path class="cls-7" d="m407.04,150.9h-15.93v2.42h15.93v-2.42Z"/><path class="cls-2" d="m405.51,148.42h-36.87v2.42h36.87v-2.42Z"/><path class="cls-7" d="m407.04,148.42h-15.93v2.42h15.93v-2.42Z"/><path class="cls-3" d="m228.08,211.16s1.8,9.16,1.8,12.59-2.29,9.65-2.29,17.01,2.13,26.82,2.13,26.82l7.85.33s2.29-23.88,4.74-29.43c2.45-5.55,3.43-17.17,3.43-20.44s1.14-7.03,1.14-7.03l-18.8.17h0Z"/><path class="cls-2" d="m226.12,261.53h13.08l-.17,10.14s7.52,4.74,9.32,5.39c1.8.65,2.78,2.13,2.61,2.61-.17.49-.98.82-.98.82h-22.55s-.82-2.13-.49-4.09c.33-1.96,1.14-3.92,1.14-3.92l-1.96-10.96h0Z"/><path class="cls-3" d="m232.3,211.16s1.79,9.16,1.79,12.59-2.29,9.65-2.29,17.01,2.13,26.82,2.13,26.82l7.85.33s2.29-23.88,4.74-29.43c2.45-5.55,3.43-17.17,3.43-20.44s1.14-7.03,1.14-7.03l-18.8.17h0Z"/><path class="cls-16" d="m251.3,136.26s5.07,33.52,6.87,39.74c1.8,6.21,8.83,33.37,8.83,33.37,0,0-8.5,4.09-20.11,4.91-11.61.82-26.65-.17-31.06-2.13-4.41-1.96-7.52-3.27-7.52-3.27l4.74-24.21s10.3-28.95,10.3-35.49-.65-13.24,3.11-18.15c3.76-4.91,8.17-7.2,11.28-6.21,3.11.98,13.57,11.45,13.57,11.45h0Z"/><path class="cls-11" d="m261.44,188.12c-.05-.2-.1-.39-.15-.59-1.09.28-2.17.53-3.24.76l1.47-3.03,1.7,2.03c-.12-.47-.25-.93-.37-1.4l-.97-1.15c.2-.05.41-.1.62-.15-.05-.2-.1-.4-.16-.6-21.32,5.15-38.27,2.21-46.98-.23-.2.59-.32.91-.32.91l-.08.41,1.35,2.71c-.64-.17-1.23-.34-1.78-.5l-.12.6c5.18,1.51,13.63,3.33,24.43,3.33,7.24,0,15.54-.82,24.59-3.1h0Zm-2.45-3.17l-1.51,3.11-2.55-2.28c1.33-.25,2.69-.52,4.06-.84Zm-1.93,3.56c-1.84.38-3.65.7-5.42.97l2.88-3.24,2.54,2.26h0Zm-3.12-2.54l-2.95,3.33-1.96-2.58c1.6-.2,3.25-.45,4.91-.74h0Zm-3.46,3.68c-2.03.28-4.01.5-5.93.65l3.94-3.29,1.99,2.63h0Zm-2.75-2.8l-3.82,3.19-3.27-2.65c2.28-.09,4.64-.26,7.08-.54h0Zm-34.43-2.46c1.43.4,3.08.81,4.93,1.2l-3.29,2.09-1.64-3.29Zm2.15,3.7l2.93-1.86,2.17,2.95c-1.88-.34-3.58-.71-5.1-1.1h0Zm3.3-2.39c1.86.38,3.9.73,6.12,1.01l-3.6,2.43-2.53-3.44h0Zm3.21,3.73l3.29-2.22,3.02,3.03c-2.26-.21-4.37-.49-6.32-.81Zm3.78-2.61c1.84.22,3.79.39,5.85.51l-2.77,2.58-3.09-3.09Zm3.55,3.5l2.74-2.55,3.33,2.84c-2.12-.03-4.15-.13-6.06-.29h0Zm3.22-2.95c1.4.06,2.85.1,4.34.1.7,0,1.42-.01,2.14-.02l-3.22,2.7-3.26-2.78Zm7.34.17l3.53,2.86c-2.51.17-4.91.23-7.21.21l3.68-3.08h0Z"/><path class="cls-11" d="m265.23,202.54c-.09-.36-.18-.72-.28-1.09l-1.73-2.11c.36-.1.73-.21,1.1-.31-.05-.2-.1-.39-.15-.6-.5.14-.99.28-1.48.41-.03,0-.06-.01-.09,0-.04.01-.07.04-.1.06-25.16,6.63-44.55,1.9-52.09-.62l-.12.61c.71.23,1.51.49,2.4.74l-2.9,2.2s-.05-.02-.07-.02l-.12.63c.08.07.18.1.29.07,4.65,1.57,14.17,4.14,26.99,4.14,8.24,0,17.84-1.06,28.37-4.12h0Zm-2.42-2.72l1.85,2.25c-.85.25-1.7.48-2.53.69l.69-2.94Zm-.58-.22l-.62,2.63-1.72-2.05c.77-.18,1.55-.38,2.34-.58Zm-.82,3.34c-1.13.28-2.24.55-3.35.79l1.47-3.03,1.88,2.24Zm-2.41-2.55l-1.51,3.11-2.55-2.28c1.34-.25,2.69-.52,4.06-.84Zm-1.93,3.55c-1.85.38-3.65.7-5.42.97l2.88-3.24,2.54,2.26h0Zm-3.12-2.54l-2.95,3.33-1.96-2.58c1.61-.2,3.25-.45,4.91-.74h0Zm-3.46,3.68c-2.03.28-4.01.5-5.93.65l3.94-3.28,1.99,2.63h0Zm-2.75-2.8l-3.82,3.19-3.26-2.64c2.28-.09,4.64-.26,7.08-.54h0Zm-37.26-.2l2.38-1.8,1.47,2.95c-1.5-.4-2.79-.79-3.85-1.14Zm2.84-2.26c1.43.4,3.08.81,4.93,1.2l-3.29,2.09-1.64-3.29Zm2.15,3.7l2.93-1.86,2.17,2.95c-1.88-.34-3.58-.71-5.1-1.1h0Zm3.3-2.39c1.86.38,3.9.73,6.12,1.01l-3.6,2.43-2.53-3.45h0Zm3.21,3.73l3.29-2.22,3.03,3.03c-2.26-.21-4.37-.49-6.32-.81Zm3.78-2.61c1.84.22,3.79.39,5.85.51l-2.77,2.58-3.09-3.09Zm3.55,3.5l2.74-2.55,3.33,2.84c-2.12-.03-4.14-.13-6.06-.29h0Zm3.22-2.95c1.4.06,2.85.11,4.34.11.7,0,1.42-.01,2.14-.03l-3.22,2.7-3.26-2.78Zm7.34.17l3.53,2.87c-2.51.17-4.91.23-7.21.21l3.68-3.08Z"/><path class="cls-11" d="m266.56,207.67c-.05-.19-.1-.38-.15-.59-23.74,8.3-50.5,2.07-57.76.08l-.12.6c4.59,1.25,16.68,4.12,30.91,4.12,8.66,0,18.11-1.07,27.12-4.21Z"/><path class="cls-11" d="m208.98,205.45l-.12.6c4.82,1.29,16.68,4.04,30.57,4.04,8.52,0,17.81-1.04,26.7-4.07-.05-.19-.1-.39-.15-.59-23.28,7.96-49.33,2.09-57,.02h0Z"/><path class="cls-11" d="m263.29,195.12c-.05-.2-.1-.39-.15-.6-20.83,6.96-44.88,2.39-52.16.72l-.12.6c4.38,1,14.7,3.03,26.77,3.03,8.19,0,17.18-.94,25.65-3.76Z"/><path class="cls-11" d="m262.96,193.86c-.05-.2-.1-.39-.15-.59-20.51,6.72-44.04,2.37-51.57.66l-.12.6c4.51,1.02,14.68,2.97,26.52,2.97,8.09,0,16.95-.92,25.32-3.65h0Z"/><path class="cls-8" d="m251.3,136.26s5.07,33.52,6.87,39.74c1.8,6.21,8.83,33.37,8.83,33.37,0,0-8.5,4.09-20.11,4.91-11.61.82-26.65-.17-31.06-2.13-4.41-1.96-7.52-3.27-7.52-3.27l4.74-24.21s10.3-28.95,10.3-35.49-.65-13.24,3.11-18.15c3.76-4.91,8.17-7.2,11.28-6.21,3.11.98,13.57,11.45,13.57,11.45h0Z"/><path class="cls-2" d="m230.33,261.53h13.08l-.17,10.14s7.52,4.74,9.32,5.39c1.8.65,2.78,2.13,2.61,2.61-.17.49-.98.82-.98.82h-22.56s-.82-2.13-.49-4.09c.33-1.96,1.14-3.92,1.14-3.92l-1.96-10.96h.01Z"/><path class="cls-7" d="m232.83,121.87s-8.99,6.38-11.12,13.41c-2.13,7.03-2.78,20.11-3.27,23.06-.49,2.95-8.17,30.09-8.17,30.09,0,0,6.38,4.42,17.65,5.56,11.28,1.14,23.71-1.64,24.2-1.64s-4.09-56.42-3.92-56.91c.17-.49-9.16-11.28-10.79-12.76-1.64-1.47-4.58-.82-4.58-.82Z"/><path class="cls-3" d="m253.01,111.02s.23,6.08,1.35,8.11c1.12,2.03.9,4.05-2.03,3.38-2.93-.68-6.76-6.76-7.21-10.36-.45-3.6,6.08-5.41,7.88-1.12Z"/><path class="cls-2" d="m247.93,129.9l5.27,44.34,9.58-1.13-11.26-43.41s-2.26-2.9-3.6.2h0Z"/><path class="cls-7" d="m253.12,92.11s1.27,2.37,1.81,3.99c.54,1.62.44,4.62.59,5.11.15.5,2.58,3.38,2.59,3.97.01.59-2.18,1.73-2.18,1.73,0,0-.58,4-1,5.7-.41,1.69-.35,2.64-2.57,2.6-2.23-.04-5.24-.92-9-2.87-3.76-1.95-6.56-4.79-7.29-8.67-.73-3.88,9.38-11.39,10.86-12.42,1.47-1.03,6.19.85,6.19.85h0Z"/><path class="cls-10" d="m254.09,101.3c-.04.77-.33,1.38-.64,1.36-.31-.01-.54-.65-.51-1.42.04-.77.33-1.38.64-1.36.31.02.54.65.5,1.42Z"/><path class="cls-8" d="m251.44,99.43s1.1-2.82,2.82-1.83"/><path class="cls-8" d="m255.35,108.37s-2.08.85-3.18-.86"/><path class="cls-2" d="m234.54,114.87s19.22,4.97,18.91,7.22c-.31,2.25-.78,8.82-3.3,9.15s-21.64-6.98-23.07-7.44c-1.43-.47,1.16-7.03,2.6-8.69,1.44-1.65,4.85-.24,4.85-.24h0Z"/><path class="cls-3" d="m244.64,97.57s2.14,14.16,4.67,19.84c2.53,5.68,5.12,7.26,4.16,8.37-.96,1.11-6.49-2.44-6.49-2.44,0,0,4.72,6.72,1.59,8.54s-11.14-2.12-12.79-3.55l-1.65-1.44s-.53,4.29-5.99,6.9c-5.47,2.62-12.99-1.88-8.08-7.98s6.95-13.14,6.08-17.38c-.87-4.25,13.36-15.61,18.51-10.85h0Z"/><path class="cls-11" d="m229.23,144.11c1.25,2.76,3.95,5.28,6.02,7.46,3.3,3.48,7.22,6.15,10.66,9.45.65.61,7.42,6.5,8.23,6.14,0,0,6.78-3.05,11.53-7.46,4.75-4.41,16.62-17.98,16.62-17.98,2.96-.77,7.67-4.74,7.67-4.74l4.38-.58c.21-.03.39-.17.46-.38.13-.38-.17-.77-.58-.74l-4.07.33,5.53-2.88c.27-.14.37-.47.23-.74-.12-.22-.38-.33-.62-.27l-5.93,1.54,5.04-2.76c.33-.2.41-.65.17-.95-.19-.24-.53-.31-.8-.17l-5.79,2.89,2.87-2.43.95-1.2c.34-.43-.21-1-.65-.66l-1.14.85c-2.09,1.58-7.08,5.38-7.55,6-.59.79-3.58,4.19-3.58,4.19,0,0-5.08,4.07-11.87,8.82-5.76,4.03-9.12,5.77-10.02,6.21-2.07-2.6-8.28-10.59-10.72-15.48-2.95-5.91-8.65-7.87-8.65-7.87"/><path class="cls-8" d="m229.23,144.11c1.25,2.76,3.95,5.28,6.02,7.46,3.3,3.48,7.22,6.15,10.66,9.45.65.61,7.42,6.5,8.23,6.14,0,0,6.78-3.05,11.53-7.46,4.75-4.41,16.62-17.98,16.62-17.98,2.96-.77,7.67-4.74,7.67-4.74l4.38-.58c.21-.03.39-.17.46-.38.13-.38-.17-.77-.58-.74l-4.07.33,5.53-2.88c.27-.14.37-.47.23-.74-.12-.22-.38-.33-.62-.27l-5.93,1.54,5.04-2.76c.33-.2.41-.65.17-.95-.19-.24-.53-.31-.8-.17l-5.79,2.89,2.87-2.43.95-1.2c.34-.43-.21-1-.65-.66l-1.14.85c-2.09,1.58-7.08,5.38-7.55,6-.59.79-3.58,4.19-3.58,4.19,0,0-5.08,4.07-11.87,8.82-5.76,4.03-9.12,5.77-10.02,6.21-2.07-2.6-8.28-10.59-10.72-15.48-2.95-5.91-8.65-7.87-8.65-7.87"/><path class="cls-7" d="m295.28,131.7l-5.93,1.54,5.04-2.76c.33-.2.41-.65.17-.95-.19-.24-.53-.31-.8-.17l-5.79,2.89,2.87-2.43.95-1.2c.35-.43-.21-1-.64-.66l-1.14.86c-2.09,1.58-7.08,5.38-7.55,6-.59.79-3.59,4.19-3.59,4.19,0,0-5.09,4.07-11.87,8.82-2.61,1.83-4.74,3.19-6.35,4.16l4.14,8.48c.3-.25.58-.5.86-.76,4.75-4.41,16.61-17.98,16.61-17.98,2.96-.77,7.67-4.74,7.67-4.74l4.38-.58c.22-.03.39-.17.46-.38.13-.38-.17-.77-.58-.74l-4.07.33,5.53-2.88c.27-.14.37-.47.23-.74-.12-.22-.38-.33-.61-.27h0Z"/><path class="cls-9" d="m226.12,108.42s-4.15.66-6.4-1.78c-2.24-2.44,1.27-5.48,4.87-11.75,3.6-6.27,5.93-12.19,12.93-13.67,7-1.48,15.38,4.26,17.25,5.78,1.87,1.53,1.92,2.92,1.01,3.3,0,0-22.18,8.82-29.44,19.08"/><path class="cls-8" d="m226.12,108.42s-4.15.66-6.4-1.78c-2.24-2.44,1.27-5.48,4.87-11.75,3.6-6.27,5.93-12.19,12.93-13.67,7-1.48,15.38,4.26,17.25,5.78,1.87,1.53,1.92,2.92,1.01,3.3,0,0-22.18,8.82-29.44,19.08"/><path class="cls-8" d="m236.98,99.07l-11.07,4.85"/><path class="cls-2" d="m226.12,110.54s9.46-8.34,18.53-12.09c9.06-3.75,12.46-4.1,12.48-5.34.02-1.24-1.34-2.81-1.34-2.81,0,0-14.69,5.55-20.5,9.9-5.81,4.35-12.57,7.68-9.17,10.34h0Z"/></g></g></svg>